<?xml version="1.0" standalone="no"?>
<!DOCTYPE svg PUBLIC "-//W3C//DTD SVG 1.1//EN" "http://www.w3.org/Graphics/SVG/1.1/DTD/svg11.dtd" >
<svg>
<metadata>
Created by FontForge 20120731 at Fri Aug  4 22:33:57 2023
 By www
Copyright 1995, 2007 The Monotype Corporation. All rights reserved.
</metadata>
<defs>
<font id="BroadwayMTW04-Engraved" horiz-adv-x="791" >
  <font-face 
    font-family="BroadwayMTW04-Engraved"
    font-weight="400"
    font-stretch="normal"
    units-per-em="1000"
    panose-1="2 0 5 3 4 0 0 2 0 4"
    ascent="800"
    descent="-200"
    x-height="652"
    cap-height="650"
    bbox="-188 -230 2047 902"
    underline-thickness="50"
    underline-position="-75"
    unicode-range="U+0020-FB04"
  />
<missing-glyph horiz-adv-x="500" 
d="M12 665h475v-665h-475v665zM411 618h-323l162 -243zM221 333l-161 242v-484zM440 575l-162 -242l162 -243v485zM411 48l-161 242l-162 -242h323z" />
    <glyph glyph-name="uniFB00" unicode="ff" horiz-adv-x="1370" 
d="M148 650h423q8 0 17 1t19 1q11 0 18.5 -7t7.5 -15q0 -10 -7.5 -16t-18.5 -6q-10 0 -19 1t-17 1h-198v-138h215q8 0 17 1t19 1q11 0 18.5 -7t7.5 -15q0 -10 -7.5 -16t-18.5 -6q-10 0 -19 1t-17 1h-215v-347l2 -70q0 -6 -4.5 -10.5t-10.5 -4.5h-212v650zM88 0
q-6 0 -10.5 4.5t-4.5 10.5l2 70v480l-2 70q0 6 4.5 10.5t10.5 4.5h32v-650h-32zM833 650h423q8 0 17 1t19 1q11 0 18.5 -7t7.5 -15q0 -10 -7.5 -16t-18.5 -6q-10 0 -19 1t-17 1h-198v-138h215q8 0 17 1t19 1q11 0 18.5 -7t7.5 -15q0 -10 -7.5 -16t-18.5 -6q-10 0 -19 1
t-17 1h-215v-347l2 -70q0 -6 -4.5 -10.5t-10.5 -4.5h-212v650zM773 0q-6 0 -10.5 4.5t-4.5 10.5l2 70v480l-2 70q0 6 4.5 10.5t10.5 4.5h32v-650h-32z" />
    <glyph glyph-name="uniFB01" unicode="fi" horiz-adv-x="1133" 
d="M148 650h423q8 0 17 1t19 1q11 0 18.5 -7t7.5 -15q0 -10 -7.5 -16t-18.5 -6q-10 0 -19 1t-17 1h-198v-138h215q8 0 17 1t19 1q11 0 18.5 -7t7.5 -15q0 -10 -7.5 -16t-18.5 -6q-10 0 -19 1t-17 1h-215v-347l2 -70q0 -6 -4.5 -10.5t-10.5 -4.5h-212v650zM88 0
q-6 0 -10.5 4.5t-4.5 10.5l2 70v480l-2 70q0 6 4.5 10.5t10.5 4.5h32v-650h-32zM833 650h212q6 0 10.5 -4.5t4.5 -10.5l-2 -70v-480l2 -70q0 -6 -4.5 -10.5t-10.5 -4.5h-212v650zM773 0q-6 0 -10.5 4.5t-4.5 10.5l2 70v480l-2 70q0 6 4.5 10.5t10.5 4.5h32v-650h-32z" />
    <glyph glyph-name="uniFB02" unicode="fl" horiz-adv-x="1361" 
d="M148 650h423q8 0 17 1t19 1q11 0 18.5 -7t7.5 -15q0 -10 -7.5 -16t-18.5 -6q-10 0 -19 1t-17 1h-198v-138h215q8 0 17 1t19 1q11 0 18.5 -7t7.5 -15q0 -10 -7.5 -16t-18.5 -6q-10 0 -19 1t-17 1h-215v-347l2 -70q0 -6 -4.5 -10.5t-10.5 -4.5h-212v650zM88 0
q-6 0 -10.5 4.5t-4.5 10.5l2 70v480l-2 70q0 6 4.5 10.5t10.5 4.5h32v-650h-32zM833 650h212q6 0 10.5 -4.5t4.5 -10.5l-2 -70v-525h166q37 0 62 2t43 2q17 0 25 -7.5t8 -15.5q0 -10 -8 -16.5t-23 -6.5q-17 0 -33.5 1t-30.5 1h-434v650zM773 0q-6 0 -10.5 4.5t-4.5 10.5
l2 70v480l-2 70q0 6 4.5 10.5t10.5 4.5h32v-650h-32z" />
    <glyph glyph-name="uniFB03" unicode="ffi" horiz-adv-x="1818" 
d="M148 650h423q8 0 17 1t19 1q11 0 18.5 -7t7.5 -15q0 -10 -7.5 -16t-18.5 -6q-10 0 -19 1t-17 1h-198v-138h215q8 0 17 1t19 1q11 0 18.5 -7t7.5 -15q0 -10 -7.5 -16t-18.5 -6q-10 0 -19 1t-17 1h-215v-347l2 -70q0 -6 -4.5 -10.5t-10.5 -4.5h-212v650zM88 0
q-6 0 -10.5 4.5t-4.5 10.5l2 70v480l-2 70q0 6 4.5 10.5t10.5 4.5h32v-650h-32zM833 650h423q8 0 17 1t19 1q11 0 18.5 -7t7.5 -15q0 -10 -7.5 -16t-18.5 -6q-10 0 -19 1t-17 1h-198v-138h215q8 0 17 1t19 1q11 0 18.5 -7t7.5 -15q0 -10 -7.5 -16t-18.5 -6q-10 0 -19 1
t-17 1h-215v-347l2 -70q0 -6 -4.5 -10.5t-10.5 -4.5h-212v650zM773 0q-6 0 -10.5 4.5t-4.5 10.5l2 70v480l-2 70q0 6 4.5 10.5t10.5 4.5h32v-650h-32zM1518 650h212q6 0 10.5 -4.5t4.5 -10.5l-2 -70v-480l2 -70q0 -6 -4.5 -10.5t-10.5 -4.5h-212v650zM1458 0q-6 0 -10.5 4.5
t-4.5 10.5l2 70v480l-2 70q0 6 4.5 10.5t10.5 4.5h32v-650h-32z" />
    <glyph glyph-name="uniFB04" unicode="ffl" horiz-adv-x="2046" 
d="M148 650h423q8 0 17 1t19 1q11 0 18.5 -7t7.5 -15q0 -10 -7.5 -16t-18.5 -6q-10 0 -19 1t-17 1h-198v-138h215q8 0 17 1t19 1q11 0 18.5 -7t7.5 -15q0 -10 -7.5 -16t-18.5 -6q-10 0 -19 1t-17 1h-215v-347l2 -70q0 -6 -4.5 -10.5t-10.5 -4.5h-212v650zM88 0
q-6 0 -10.5 4.5t-4.5 10.5l2 70v480l-2 70q0 6 4.5 10.5t10.5 4.5h32v-650h-32zM833 650h423q8 0 17 1t19 1q11 0 18.5 -7t7.5 -15q0 -10 -7.5 -16t-18.5 -6q-10 0 -19 1t-17 1h-198v-138h215q8 0 17 1t19 1q11 0 18.5 -7t7.5 -15q0 -10 -7.5 -16t-18.5 -6q-10 0 -19 1
t-17 1h-215v-347l2 -70q0 -6 -4.5 -10.5t-10.5 -4.5h-212v650zM773 0q-6 0 -10.5 4.5t-4.5 10.5l2 70v480l-2 70q0 6 4.5 10.5t10.5 4.5h32v-650h-32zM1518 650h212q6 0 10.5 -4.5t4.5 -10.5l-2 -70v-525h166q37 0 62 2t43 2q17 0 25 -7.5t8 -15.5q0 -10 -8 -16.5t-23 -6.5
q-17 0 -33.5 1t-30.5 1h-434v650zM1458 0q-6 0 -10.5 4.5t-4.5 10.5l2 70v480l-2 70q0 6 4.5 10.5t10.5 4.5h32v-650h-32z" />
    <glyph glyph-name=".notdef" horiz-adv-x="500" 
d="M12 665h475v-665h-475v665zM411 618h-323l162 -243zM221 333l-161 242v-484zM440 575l-162 -242l162 -243v485zM411 48l-161 242l-162 -242h323z" />
    <glyph glyph-name=".null" horiz-adv-x="0" 
 />
    <glyph glyph-name="nonmarkingreturn" horiz-adv-x="333" 
 />
    <glyph glyph-name="space" unicode=" " horiz-adv-x="345" 
 />
    <glyph glyph-name="exclam" unicode="!" horiz-adv-x="400" 
d="M134 661q28 12 66 12q34 0 60.5 -10t44.5 -26.5t27.5 -38t9.5 -45.5q0 -20 -4 -37.5t-12.5 -37t-22.5 -43t-35 -54.5q-15 -23 -26 -49.5t-16 -48.5q-6 -27 -26 -27t-26 27q-5 21 -15.5 46.5t-24.5 48.5v283zM106 421q-26 43 -37 71t-11 61q0 27 12.5 51.5t35.5 41.5v-225
zM134 205q31 11 66 11q30 0 57 -7.5t47 -22.5t31.5 -36.5t11.5 -48.5t-11.5 -48.5t-31.5 -36.5t-47 -22.5t-57 -7.5q-35 0 -66 11v208zM106 9q-24 15 -38.5 38t-14.5 54t14.5 54t38.5 37v-183z" />
    <glyph glyph-name="quotedbl" unicode="&#x22;" horiz-adv-x="757" 
d="M497 427v237q30 9 68 9q67 0 108 -27.5t41 -79.5q0 -26 -12.5 -51t-41.5 -57l-60 -68q-10 -11 -16.5 -16.5t-18.5 -5.5q-10 0 -17.5 5.5t-17.5 16.5zM469 459q-28 32 -40.5 56.5t-12.5 50.5q0 29 14 51t39 36v-194zM124 427v237q30 9 68 9q67 0 108 -27.5t41 -79.5
q0 -26 -12.5 -51t-41.5 -57l-60 -68q-10 -11 -16.5 -16.5t-18.5 -5.5q-10 0 -17.5 5.5t-17.5 16.5zM96 459q-28 32 -40.5 56.5t-12.5 50.5q0 29 14 51t39 36v-194z" />
    <glyph glyph-name="numbersign" unicode="#" horiz-adv-x="550" 
d="M114 105h-72q-20 0 -20 20v127q0 20 20 20h90l13 116h-73q-20 0 -20 20v127q0 20 20 20h90l7 62q0 17 5.5 27.5t21.5 10.5q11 0 16.5 -5t5.5 -13t-1.5 -14t-3.5 -10l-7 -58h186l7 62q0 17 5.5 27.5t21.5 10.5q11 0 16.5 -5t5.5 -13t-1.5 -14t-3.5 -10l-6 -58h71
q20 0 20 -19v-129q0 -19 -20 -19h-89l-13 -116h72q20 0 20 -19v-129q0 -19 -20 -19h-89l-8 -72q-2 -14 -6.5 -26t-20.5 -12q-11 0 -16.5 5t-5.5 13t1.5 14t3.5 10l7 68h-185l-8 -72q-2 -14 -6.5 -26t-20.5 -12q-11 0 -16.5 5t-5.5 13t1.5 14t3.5 10zM362 272l13 116h-186
l-13 -116h186z" />
    <glyph glyph-name="dollar" unicode="$" horiz-adv-x="648" 
d="M398 459q11 -12 23 -25.5t26 -28.5q28 -31 53 -61t44 -59.5t29.5 -57t10.5 -54.5q0 -79 -47 -124.5t-130 -63.5q10 23 10 60q0 18 -5 36.5t-18 41.5t-35.5 52t-57.5 70q-63 73 -101.5 119.5t-59.5 78t-27.5 54t-6.5 47.5q0 21 18.5 44t50.5 41.5t74.5 31t90.5 12.5
q47 0 97 -14q6 15 12 24.5t19 9.5q8 0 12.5 -5t4.5 -13q0 -5 -2.5 -13t-6.5 -17q30 -13 49 -29.5t19 -33.5q0 -8 -5.5 -14t-14.5 -6q-14 0 -38 21q-6 5 -12.5 10t-14.5 10zM164 13q-42 19 -69.5 42t-27.5 41q0 11 6 18t18 7q15 0 22 -10t17 -19q24 -23 51 -39l63 149
q-8 9 -17 19.5t-19 21.5q-32 36 -55.5 66t-40 58t-24.5 54.5t-8 53.5q0 5 0.5 15t1.5 15q4 -18 10.5 -35t25.5 -45t55 -72t98 -115q36 -41 59 -70.5t36 -51.5t18 -39t5 -32q0 -38 -22 -53t-51 -15q-28 0 -57 5.5t-56 14.5l-14 -34q-5 -11 -11.5 -19.5t-18.5 -8.5q-6 0 -11 5
t-5 10q0 11 3 18.5l7 17.5zM421 620q-20 8 -37 10.5t-37 2.5q-17 0 -27.5 -8.5t-10.5 -20.5q0 -9 2 -18t8 -21t17.5 -29t31.5 -41zM219 34q42 -17 81 -17q23 0 33.5 8.5t10.5 19.5q0 7 -2 16t-9 22.5t-21 33t-38 49.5z" />
    <glyph glyph-name="percent" unicode="%" horiz-adv-x="764" 
d="M104 630q23 20 52 31.5t62 11.5q36 0 67.5 -13.5t55.5 -37.5t37.5 -55.5t13.5 -67.5t-13.5 -68t-37.5 -55.5t-55.5 -37.5t-67.5 -14q-33 0 -62 11.5t-52 31.5v263zM432 283q23 20 52 31.5t62 11.5q36 0 67.5 -13.5t55.5 -37.5t37.5 -55.5t13.5 -67.5t-13.5 -68
t-37.5 -55.5t-55.5 -37.5t-67.5 -14q-33 0 -62 11.5t-52 31.5v263zM601 632q10 12 15 17.5t13 5.5q6 0 15 -7t9 -14t-4 -12l-12 -15l-474 -589q-10 -12 -15 -17.5t-13 -5.5q-6 0 -15 7t-9 14t4 12l12 15zM76 398q-15 22 -23.5 47.5t-8.5 53.5t8.5 53.5t23.5 47.5v-202z
M404 51q-15 22 -23.5 47.5t-8.5 53.5t8.5 53.5t23.5 47.5v-202zM207 359q4 -1 11 -1q28 0 53 12t43.5 31.5t29 45t10.5 52.5t-10.5 52t-29 44.5t-43.5 31.5t-53 12q-7 0 -11 -2v-278zM535 12q4 -1 11 -1q28 0 53 12t43.5 31.5t29 45t10.5 52.5t-10.5 52t-29 44.5t-43.5 31.5
t-53 12q-7 0 -11 -2v-278z" />
    <glyph glyph-name="ampersand" unicode="&#x26;" horiz-adv-x="798" 
d="M498 0q-19 22 -46 55t-57 71.5t-60 78.5t-54 76q-40 58 -67 101.5t-43.5 75t-24 52.5t-7.5 35q0 31 20 55t52 40t73.5 24.5t84.5 8.5q87 0 137 -37t50 -95q0 -45 -27 -75t-75 -54q25 -37 53 -75.5t57 -76.5q51 49 89.5 75.5t74.5 26.5q14 0 25 -5t11 -17q0 -17 -9.5 -23
t-21.5 -6q-17 0 -32.5 -3.5t-32.5 -12.5t-36.5 -24.5t-43.5 -39.5q44 -56 85.5 -103t70.5 -73q14 -12 18.5 -20t4.5 -15q0 -8 -8 -14t-17 -6h-244zM419 0q-12 0 -24 8.5t-22 19.5q-40 -26 -77.5 -38t-79.5 -12q-31 0 -63 9.5t-58 30.5t-42.5 55t-16.5 82q0 55 35 100.5
t96 71.5q-26 48 -40.5 87.5t-14.5 71.5q0 14 3 34q7 -32 41 -93.5t100 -158.5q24 -35 52.5 -74t57 -76t53.5 -68t42 -50h-42zM511 541q0 38 -35.5 65t-106.5 27q-11 0 -14.5 -5t-3.5 -13q0 -23 22.5 -68.5t59.5 -102.5q38 19 58 41.5t20 55.5zM348 60q-48 63 -89 121.5
t-72 110.5q-106 -40 -106 -137q0 -38 12.5 -64t32 -42.5t43.5 -23.5t47 -7q33 0 65 9.5t67 32.5z" />
    <glyph glyph-name="quotesingle" unicode="'" horiz-adv-x="380" 
d="M124 427v237q30 9 68 9q67 0 108 -27.5t41 -79.5q0 -26 -12.5 -51t-41.5 -57l-60 -68q-10 -11 -16.5 -16.5t-18.5 -5.5q-10 0 -17.5 5.5t-17.5 16.5zM96 459q-28 32 -40.5 56.5t-12.5 50.5q0 29 14 51t39 36v-194z" />
    <glyph glyph-name="parenleft" unicode="(" horiz-adv-x="430" 
d="M136 580q51 64 119.5 98.5t134.5 34.5q25 0 25 -20t-25 -20q-20 0 -44 -5.5t-42 -13.5v-658q18 -8 42 -13.5t44 -5.5q25 0 25 -20t-25 -20q-66 0 -134.5 34.5t-119.5 98.5v510zM108 110q-27 45 -42.5 98.5t-15.5 116.5t15.5 116.5t42.5 98.5v-430z" />
    <glyph glyph-name="parenright" unicode=")" horiz-adv-x="430" 
d="M199 664q37 -23 70 -56.5t58 -76.5t39 -94.5t14 -111.5t-14 -112t-39 -95t-58 -76.5t-70 -56.5v679zM126 654q-18 8 -42 13.5t-44 5.5q-25 0 -25 20t25 20q66 0 131 -33v-710q-65 -33 -131 -33q-25 0 -25 20t25 20q20 0 44 5.5t42 13.5v658z" />
    <glyph glyph-name="asterisk" unicode="*" horiz-adv-x="464" 
d="M438 506q0 -25 -19 -46.5t-55 -21.5q-20 0 -44 6q-14 4 -29 6t-27 3q-8 1 -13.5 5.5t-5.5 10.5q0 8 9 15q9 8 19.5 18.5t20.5 21.5q20 24 38.5 35.5t40.5 11.5q30 0 47.5 -19.5t17.5 -45.5zM298 603q0 -14 -6.5 -30.5t-17.5 -33.5q-8 -13 -14.5 -26.5t-11.5 -24.5
q-5 -13 -16 -13t-16 13q-5 11 -11.5 24.5t-14.5 26.5q-11 17 -17.5 33.5t-6.5 30.5q0 32 18.5 51t47.5 19t47.5 -19t18.5 -51zM385 340q0 -16 -7 -28.5t-17 -20.5t-21.5 -12.5t-21.5 -4.5q-11 0 -23 4.5t-22.5 16t-18.5 30t-10 46.5q-1 15 -3.5 30l-4.5 27q-1 3 -1 9
t4.5 9.5t10.5 3.5q5 0 11 -3q11 -7 24 -13.5t27 -12.5q19 -8 34 -17.5t23 -20.5q16 -22 16 -43zM219 469q0 -6 -5.5 -10.5t-13.5 -5.5q-12 -1 -27 -3t-29 -6q-24 -6 -44 -6q-36 0 -55 21.5t-19 46.5q0 26 17.5 45.5t47.5 19.5q22 0 40.5 -11.5t38.5 -35.5q10 -11 20.5 -21.5
t19.5 -18.5q9 -7 9 -15zM229 437q0 -6 -1 -9l-4.5 -27t-3.5 -30q-2 -28 -10 -46.5t-18.5 -30t-23 -16t-22.5 -4.5t-21.5 4.5t-21.5 12.5t-17 20.5t-7 28.5q0 21 16 43q8 11 23 20.5t34 17.5q14 6 27 12.5t24 13.5q6 3 11 3q6 0 10.5 -3.5t4.5 -9.5z" />
    <glyph glyph-name="plus" unicode="+" horiz-adv-x="500" 
d="M228 301h-171q-11 0 -19 4.5t-8 17.5t8 17.5t19 4.5h171v171q0 11 4.5 19t17.5 8t17.5 -8t4.5 -19v-171h171q11 0 19 -4.5t8 -17.5t-8 -17.5t-19 -4.5h-171v-171q0 -11 -4.5 -19t-17.5 -8t-17.5 8t-4.5 19v171z" />
    <glyph glyph-name="comma" unicode="," horiz-adv-x="380" 
d="M124 205q31 11 66 11q73 0 117.5 -39t44.5 -108q0 -38 -16 -67t-43 -49.5t-61 -31t-70 -10.5q-28 0 -45 4t-17 19q0 16 20 16q11 0 21.5 -2t26.5 -2q21 0 42.5 5t39.5 14.5t30.5 23t16.5 29.5q-20 -16 -47.5 -24t-59.5 -8q-35 0 -66 11v208zM96 10q-24 14 -38.5 37
t-14.5 54t14.5 54t38.5 37v-182z" />
    <glyph glyph-name="hyphen" unicode="-" horiz-adv-x="430" 
d="M88 432h307q20 0 20 -19v-189q0 -19 -20 -19h-307v227zM35 205q-20 0 -20 20v187q0 20 20 20h25v-227h-25z" />
    <glyph glyph-name="period" unicode="." horiz-adv-x="380" 
d="M124 205q31 11 66 11q30 0 57 -7.5t47 -22.5t31.5 -36.5t11.5 -48.5t-11.5 -48.5t-31.5 -36.5t-47 -22.5t-57 -7.5q-35 0 -66 11v208zM96 10q-24 14 -38.5 37t-14.5 54t14.5 54t38.5 37v-182z" />
    <glyph glyph-name="slash" unicode="/" horiz-adv-x="354" 
d="M272 601q3 7 4.5 14t3.5 12q3 13 9.5 20.5t20.5 7.5q8 0 16 -6t8 -18q0 -13 -8 -24q-6 -9 -11 -20l-233 -538q-3 -7 -4.5 -14t-3.5 -12q-3 -13 -9.5 -20.5t-20.5 -7.5q-8 0 -16 6t-8 18q0 13 8 24q4 5 6.5 10t4.5 10z" />
    <glyph glyph-name="zero" unicode="0" horiz-adv-x="736" 
d="M136 570q42 48 101 75.5t131 27.5t130.5 -27.5t100.5 -74.5t64.5 -110.5t22.5 -135.5t-22.5 -135.5t-64.5 -110.5t-100.5 -74.5t-130.5 -27.5q-73 0 -131.5 27.5t-100.5 75.5v490zM108 117q-28 44 -43 97t-15 111q0 59 15 111.5t43 96.5v-416zM356 18q5 -1 12 -1
q63 0 113.5 24.5t86 66.5t54.5 98t19 119t-19 119t-54.5 98t-86 66.5t-113.5 24.5q-7 0 -12 -1v-614z" />
    <glyph glyph-name="one" unicode="1" horiz-adv-x="477" 
d="M197 624q42 11 81 21.5t72 20.5q9 2 17.5 4.5t16.5 2.5q11 0 16.5 -7.5t5.5 -16.5q0 -17 -2 -47t-2 -62v-455l2 -70q0 -6 -4.5 -10.5t-10.5 -4.5h-192v624zM137 0q-6 0 -10.5 4.5t-4.5 10.5l2 70v478q-28 -3 -57 -16q-12 -5 -21.5 -8.5t-18.5 -3.5t-16 6t-7 16
q0 22 27 28q32 7 67.5 15.5t70.5 16.5v-617h-32z" />
    <glyph glyph-name="two" unicode="2" horiz-adv-x="677" 
d="M103 0q27 35 64.5 87t78 111.5t80.5 122t71.5 117.5t51 98.5t19.5 65.5q0 38 -22 59q86 -19 129.5 -64.5t43.5 -113.5q0 -28 -8.5 -62t-35 -84.5t-76.5 -122t-132 -174.5h74q12 0 27 1t30.5 2.5t30.5 3.5t26 5q14 3 24.5 5t20.5 2t17.5 -7t7.5 -23q0 -18 -10 -25t-27 -7
q-18 0 -44 1.5t-44 1.5h-397zM38 0q-6 0 -10.5 4.5t-4.5 10.5q0 8 7.5 17l12.5 15q30 37 67.5 88.5t76.5 108t76.5 113.5t66.5 106t47 86t18 53q0 10 -3.5 16.5t-12.5 9.5t-24.5 4t-40.5 1q-47 0 -89 -12t-73.5 -34t-50 -53.5t-18.5 -70.5q0 -16 6.5 -32.5t15.5 -27.5
q7 -8 11 -15t4 -15q0 -20 -23 -20q-12 0 -22.5 9.5t-18.5 25t-13 35t-5 38.5q0 45 21 83.5t59.5 67t91 45t115.5 16.5q34 0 56.5 -5.5t35.5 -15.5t18 -22.5t5 -27.5q0 -19 -19.5 -60.5t-50.5 -95t-71 -115.5t-81.5 -122.5t-80.5 -115t-69 -93.5h-30z" />
    <glyph glyph-name="three" unicode="3" horiz-adv-x="651" 
d="M368 669q55 -6 93.5 -21.5t62.5 -37.5t35 -48.5t11 -56.5q0 -32 -12.5 -57t-33.5 -42.5t-48.5 -28t-57.5 -13.5q-12 -2 -12 -9t12 -9q35 -3 68 -15t58.5 -32.5t41 -49t15.5 -64.5q0 -80 -59 -134t-174 -69v687zM295 325q0 10 -10 10h-59q-23 0 -31.5 4t-8.5 16t8.5 16
t31.5 4h60q10 0 10 10v247q-4 1 -12 1q-66 0 -106 -17t-60 -46q-7 -11 -14 -17t-18 -6q-8 0 -15 6.5t-7 15.5q0 10 8 22t27 26q33 24 82.5 40t109.5 16q13 0 25.5 -0.5t23.5 -1.5v-692q-14 -1 -28 -1.5t-29 -0.5q-30 0 -63 5.5t-65 15.5t-61 25t-50 34q-18 16 -26 30.5
t-8 24.5q0 9 5.5 16.5t16.5 7.5t18 -6t13 -17q8 -15 25.5 -32t44.5 -31.5t64.5 -23.5t85.5 -9h6.5t5.5 1v307z" />
    <glyph glyph-name="four" unicode="4" horiz-adv-x="652" 
d="M324 495l162 164q6 6 11.5 10t13.5 4q11 0 16.5 -7.5t5.5 -16.5q0 -17 -2 -47t-2 -62v-367h57q8 0 17 1t19 1q11 0 18.5 -7t7.5 -15q0 -10 -7.5 -16t-18.5 -6q-10 0 -19 1t-17 1h-57v-48l2 -70q0 -6 -4.5 -10.5t-10.5 -4.5h-192v495zM264 0q-6 0 -10.5 4.5t-4.5 10.5
l2 70v48h-222q-8 0 -16 6.5t-8 15.5q0 13 6.5 22t20.5 23l264 267v-467h-32zM251 173v197l-196 -197h196z" />
    <glyph glyph-name="five" unicode="5" horiz-adv-x="691" 
d="M408 500q51 -10 94 -31t73.5 -52.5t48 -74.5t17.5 -97q0 -43 -15 -84.5t-44 -76.5t-73 -61t-101 -38v515zM335 469q-3 1 -14 1.5t-14 0.5q-38 0 -66 -4.5t-56 -18.5q-9 -5 -16.5 -9.5t-18.5 -4.5q-7 0 -12.5 4t-5.5 11q0 2 0.5 6.5t2.5 7.5l65 170q3 8 7 12.5t17 4.5h294
q8 0 17 1t19 1q11 0 18.5 -7t7.5 -15q0 -10 -7.5 -16t-18.5 -6q-10 0 -19 1t-17 1h-282l-45 -118q14 7 45 13t62 6q43 0 82 -6v-524q-14 -2 -28 -3t-29 -1q-71 0 -123 19.5t-87 52t-52 74t-17 86.5q0 29 11.5 62t25.5 53q18 24 33 24q9 0 14.5 -3.5t5.5 -14.5q0 -12 -21 -40
q-10 -13 -17 -36t-7 -45q0 -39 13 -73.5t41.5 -61t73 -42t106.5 -15.5h6.5t5.5 1v451z" />
    <glyph glyph-name="six" unicode="6" horiz-adv-x="716" 
d="M136 556q47 54 113 85.5t144 31.5q49 0 88.5 -11t79.5 -40q44 -32 44 -61q0 -11 -6 -18t-15 -7q-14 0 -21.5 7t-12.5 16q-18 33 -57 53.5t-109 20.5q-3 0 -14 -0.5t-14 -1.5v-613q2 -1 5.5 -1h6.5q61 0 109 17.5t81.5 47.5t51 70t17.5 85q0 43 -13.5 73.5t-35.5 50.5
t-49 29.5t-54 9.5q-21 0 -34 -3.5t-22 -7.5q-8 -4 -14 -6.5t-14 -2.5q-19 0 -19 19q0 7 9.5 14.5t24 13.5t33 9.5t36.5 3.5q33 0 68 -12t63.5 -36.5t47 -63t18.5 -91.5q0 -50 -21 -97t-60.5 -83t-96 -58t-126.5 -22q-76 0 -134 25.5t-98 70.5v483zM108 110
q-29 45 -43.5 99.5t-14.5 115.5q0 54 15 103.5t43 91.5v-410z" />
    <glyph glyph-name="seven" unicode="7" horiz-adv-x="619" 
d="M445 650h149q6 0 10.5 -4.5t4.5 -10.5q0 -8 -3.5 -15.5t-6.5 -15.5l-198 -564q-7 -20 -21.5 -30t-40.5 -10h-210zM76 0q-6 0 -11 5t-5 12q0 8 2 13t6 13l275 567h-152q-12 0 -27 -1t-31 -2.5t-30.5 -3.5t-25.5 -5q-14 -3 -24.5 -5t-20.5 -2t-17.5 7t-7.5 23q0 18 10 25
t27 7q18 0 44 -1.5t44 -1.5h281l-316 -650h-21z" />
    <glyph glyph-name="eight" unicode="8" horiz-adv-x="702" 
d="M650 218q0 -63 -32.5 -113.5t-84.5 -80.5q10 20 10 43q0 21 -7 39.5t-28.5 39.5t-61.5 46t-105 58q-74 37 -122 72t-82 75q-19 23 -31 50t-12 49q0 31 16.5 62.5t51 57t86 41.5t122.5 16q60 0 105 -13.5t75 -36t45 -51t15 -57.5q0 -44 -22 -72.5t-51 -47.5
q33 -22 55 -43.5t35 -43t18 -44t5 -46.5zM515 65q0 -25 -15 -42t-38.5 -27.5t-52 -15.5t-55.5 -5q-83 0 -141 16.5t-95 42.5t-53.5 59t-16.5 65q0 48 25 82t60 60q-29 30 -44 66t-15 82q27 -71 91 -122.5t162 -100.5q58 -29 95 -51.5t57.5 -40.5t28 -34.5t7.5 -33.5z
M565 515q0 21 -12 42t-36.5 38t-61 27.5t-85.5 10.5q-58 0 -95 -13t-37 -43q0 -10 5 -20t23 -23.5t53.5 -31.5t96.5 -44q53 -23 88 -43q29 20 45 43t16 57zM470 65q0 10 -6 20t-24 23.5t-51.5 32.5t-88.5 47q-42 21 -76 41.5t-62 43.5q-30 -20 -49.5 -46.5t-19.5 -68.5
q0 -25 14.5 -50.5t46 -46t81 -33.5t119.5 -13q22 0 43 3t37 9t26 15.5t10 22.5z" />
    <glyph glyph-name="nine" unicode="9" horiz-adv-x="716" 
d="M433 663q57 -14 101 -45t73 -76t44 -100.5t15 -116.5q0 -57 -17 -109.5t-48 -95.5t-74 -75.5t-94 -49.5v668zM360 632q-2 1 -5.5 1h-6.5q-61 0 -109 -17.5t-81.5 -47.5t-51 -70t-17.5 -85q0 -43 13.5 -73.5t35.5 -50.5t49 -29.5t54 -9.5q21 0 34 3.5t22 7.5q8 4 14 6.5
t14 2.5q19 0 19 -19q0 -7 -9.5 -14.5t-24 -13.5t-33 -9.5t-36.5 -3.5q-33 0 -68 11.5t-63.5 36.5t-47 63.5t-18.5 91.5q0 50 21 97t60.5 83t95.5 58t127 22q15 0 29 -1t28 -3v-682q-37 -10 -82 -10q-49 0 -88.5 11t-79.5 40q-44 32 -44 61q0 11 6 18t15 7q14 0 21.5 -7
t12.5 -16q18 -33 57 -53.5t109 -20.5q3 0 14 0.5t14 1.5v613z" />
    <glyph glyph-name="colon" unicode=":" horiz-adv-x="400" 
d="M134 535q31 11 66 11q30 0 57 -7.5t47 -22.5t31.5 -36.5t11.5 -48.5t-11.5 -48.5t-31.5 -36.5t-47 -22.5t-57 -7.5q-35 0 -66 11v208zM106 340q-24 14 -38.5 37t-14.5 54t14.5 54t38.5 37v-182zM134 205q31 11 66 11q30 0 57 -7.5t47 -22.5t31.5 -36.5t11.5 -48.5
t-11.5 -48.5t-31.5 -36.5t-47 -22.5t-57 -7.5q-35 0 -66 11v208zM106 10q-24 14 -38.5 37t-14.5 54t14.5 54t38.5 37v-182z" />
    <glyph glyph-name="semicolon" unicode=";" horiz-adv-x="400" 
d="M134 535q31 11 66 11q30 0 57 -7.5t47 -22.5t31.5 -36.5t11.5 -48.5t-11.5 -48.5t-31.5 -36.5t-47 -22.5t-57 -7.5q-35 0 -66 11v208zM106 340q-24 14 -38.5 37t-14.5 54t14.5 54t38.5 37v-182zM134 205q31 11 66 11q73 0 117.5 -39t44.5 -108q0 -38 -16 -67t-43 -49.5
t-61 -31t-70 -10.5q-28 0 -45 4t-17 19q0 16 20 16q11 0 21.5 -2t26.5 -2q21 0 42.5 5t39.5 14.5t30.5 23t16.5 29.5q-20 -16 -47.5 -24t-59.5 -8q-35 0 -66 11v208zM106 10q-24 14 -38.5 37t-14.5 54t14.5 54t38.5 37v-182z" />
    <glyph glyph-name="less" unicode="&#x3c;" horiz-adv-x="500" 
d="M48 301l-10.5 7t-7.5 15t7.5 15l10.5 7l386 180q8 4 17 4q8 0 13.5 -6.5t5.5 -14.5t-5 -13.5t-13 -9.5l-348 -162l348 -162q8 -4 13 -9.5t5 -13.5t-5.5 -14.5t-13.5 -6.5q-9 0 -17 4z" />
    <glyph glyph-name="equal" unicode="=" horiz-adv-x="500" 
d="M57 386q-11 0 -19 4.5t-8 17.5t8 17.5t19 4.5h386q11 0 19 -4.5t8 -17.5t-8 -17.5t-19 -4.5h-386zM57 216q-11 0 -19 4.5t-8 17.5t8 17.5t19 4.5h386q11 0 19 -4.5t8 -17.5t-8 -17.5t-19 -4.5h-386z" />
    <glyph glyph-name="greater" unicode="&#x3e;" horiz-adv-x="500" 
d="M396 323l-348 162q-8 4 -13 9.5t-5 13.5t5.5 14.5t13.5 6.5q9 0 17 -4l386 -180l10.5 -7t7.5 -15t-7.5 -15l-10.5 -7l-386 -180q-8 -4 -17 -4q-8 0 -13.5 6.5t-5.5 14.5t5 13.5t13 9.5z" />
    <glyph glyph-name="question" unicode="?" horiz-adv-x="537" 
d="M298 672q101 -8 153.5 -56.5t52.5 -125.5q0 -44 -15 -77.5t-42 -57.5t-65 -39t-84 -21v377zM225 630q-4 1 -10 1q-30 0 -55.5 -9.5t-44.5 -23.5t-30 -31t-11 -32t6 -24.5t6 -21.5q0 -14 -8 -23t-22 -9q-12 0 -22 9t-10 33q0 33 15 64t45.5 55.5t75.5 39.5t105 15h5v-389
q0 -16 -5 -22t-18 -6t-17.5 6t-4.5 22v346zM298 208q40 -11 65 -38t25 -69t-25 -69t-65 -38v214zM270 -12q-8 -1 -14.5 -1.5t-14.5 -0.5q-30 0 -57 7.5t-47 22.5t-31.5 36.5t-11.5 48.5t11.5 48.5t31.5 36.5t47 22.5t57 7.5q8 0 15 -0.5t14 -1.5v-226z" />
    <glyph glyph-name="at" unicode="@" horiz-adv-x="786" 
d="M440 156q-10 0 -10 10l1 18q-23 -20 -54.5 -30t-64.5 -10q-11 0 -32 5t-42.5 18.5t-37.5 37.5t-16 63q0 38 16.5 62t39.5 37.5t48 18.5t42 5q36 0 60 -5t41 -12v62q0 22 -17 33t-62 11q-27 0 -47 -8.5t-33 -22.5q-7 -8 -14 -12.5t-16 -4.5q-7 0 -13.5 5t-6.5 14
q0 8 10 20t30 23t51 18.5t72 7.5q61 0 101 -10t64 -29.5t33.5 -49t9.5 -68.5v-167q24 0 42 14t30.5 36t19 49t6.5 53q0 63 -22.5 115t-62.5 90t-96 59t-122 21q-60 0 -113.5 -22t-93.5 -62.5t-63 -97t-23 -126.5t23 -126.5t63 -97t93.5 -62.5t113.5 -22q55 0 97 10.5
t77 34.5q10 7 18 11.5t17 4.5q8 0 12.5 -5.5t4.5 -13.5q0 -11 -10.5 -18.5t-21.5 -15.5q-40 -26 -89.5 -37t-104.5 -11q-70 0 -131.5 24.5t-107.5 70t-72.5 110t-26.5 143.5t26.5 143.5t72.5 110t107.5 70t131.5 24.5q76 0 139.5 -24t110 -66.5t72.5 -102.5t26 -132
q0 -33 -9.5 -67.5t-29 -62t-49 -45t-69.5 -17.5h-139zM431 336q-16 7 -33.5 11t-36.5 4q-5 0 -13 -4t-8 -18v-147q26 2 51.5 15t39.5 34v105z" />
    <glyph glyph-name="A" unicode="A" 
d="M269 474l66 114q7 12 12.5 24.5t12.5 23t15.5 17.5t21.5 7q11 0 18 -5.5t12 -13.5t9.5 -18.5t9.5 -19.5l266 -467q14 -25 26.5 -44t22.5 -33q11 -15 15 -23.5t4 -15.5q0 -8 -8 -14t-17 -6h-218zM485 0q-14 0 -27 7t-24 27l-34 60h-300l-17 -29q-3 -5 -5.5 -15t-3.5 -17
q-2 -16 -8.5 -27t-23.5 -11q-12 0 -20.5 7t-8.5 20q0 16 11 33q5 7 9.5 15t9.5 16l209 360l253 -446h-20zM377 134l-125 222l-129 -222h254z" />
    <glyph glyph-name="B" unicode="B" horiz-adv-x="745" 
d="M148 650h293q57 0 104.5 -16t82 -45t54 -69t19.5 -87q0 -63 -23 -101t-57 -55q23 -17 39 -47t16 -69q0 -75 -58 -118t-168 -43h-302v650zM88 0q-6 0 -10.5 4.5t-4.5 10.5l2 70v480l-2 70q0 6 4.5 10.5t10.5 4.5h32v-650h-32zM452 40q95 0 137 34.5t42 90.5q0 28 -12.5 54
t-37.5 43q-8 -1 -18 -2t-24 -1q-25 0 -43.5 5.5t-31 13t-19 16t-6.5 14.5q0 19 16 19q11 0 16.5 -3t13.5 -10q10 -9 24 -12t31 -3q63 0 89.5 35.5t26.5 95.5q0 34 -15 66.5t-43 58t-68.5 40.5t-91.5 15h-65v-570h79z" />
    <glyph glyph-name="C" unicode="C" horiz-adv-x="756" 
d="M141 559q48 53 114 83.5t143 30.5q33 0 68 -7t69.5 -21.5t67 -37.5t59.5 -55q12 -14 20 -30.5t8 -26.5q0 -9 -5.5 -16.5t-17.5 -7.5q-10 0 -19.5 10.5t-17.5 26.5q-6 11 -19.5 29t-32.5 33q-32 25 -76 44t-104 19h-11t-11 -1v-614q5 -1 11 -1h11q45 0 86.5 14t76 36.5
t59.5 50.5t38 57q11 24 19 33.5t18 9.5q8 0 14.5 -5t6.5 -19q0 -11 -8 -28.5t-20 -34.5q-49 -69 -123 -111.5t-167 -42.5q-77 0 -143 30.5t-114 82.5v469zM113 126q-30 42 -46.5 92.5t-16.5 106.5t16.5 106.5t46.5 92.5v-398z" />
    <glyph glyph-name="D" unicode="D" horiz-adv-x="773" 
d="M148 650h237q72 0 134 -24t107 -66.5t71 -102.5t26 -132t-26 -132t-71 -102.5t-107 -66.5t-134 -24h-237v650zM88 0q-6 0 -10.5 4.5t-4.5 10.5l2 70v480l-2 70q0 6 4.5 10.5t10.5 4.5h32v-650h-32zM373 41q2 -1 5.5 -1h6.5q63 0 116.5 21.5t92.5 60t61.5 90.5t22.5 113
t-22.5 113t-61.5 90t-92.5 60t-116.5 22q-9 0 -12 -1v-568z" />
    <glyph glyph-name="E" unicode="E" horiz-adv-x="715" 
d="M148 650h423q8 0 17 1t19 1q11 0 18.5 -7t7.5 -15q0 -10 -7.5 -16t-18.5 -6q-10 0 -19 1t-17 1h-198v-138h215q8 0 17 1t19 1q11 0 18.5 -7t7.5 -15q0 -10 -7.5 -16t-18.5 -6q-10 0 -19 1t-17 1h-215v-392h242q8 0 17 1t19 1q11 0 18.5 -7t7.5 -15q0 -10 -7.5 -16
t-18.5 -6q-10 0 -19 1t-17 1h-467v650zM88 0q-6 0 -10.5 4.5t-4.5 10.5l2 70v480l-2 70q0 6 4.5 10.5t10.5 4.5h32v-650h-32z" />
    <glyph glyph-name="F" unicode="F" horiz-adv-x="685" 
d="M148 650h423q8 0 17 1t19 1q11 0 18.5 -7t7.5 -15q0 -10 -7.5 -16t-18.5 -6q-10 0 -19 1t-17 1h-198v-138h215q8 0 17 1t19 1q11 0 18.5 -7t7.5 -15q0 -10 -7.5 -16t-18.5 -6q-10 0 -19 1t-17 1h-215v-347l2 -70q0 -6 -4.5 -10.5t-10.5 -4.5h-212v650zM88 0
q-6 0 -10.5 4.5t-4.5 10.5l2 70v480l-2 70q0 6 4.5 10.5t10.5 4.5h32v-650h-32z" />
    <glyph glyph-name="G" unicode="G" horiz-adv-x="796" 
d="M141 559q48 53 114 83.5t143 30.5q66 0 131.5 -25.5t121.5 -82.5q14 -14 22 -29t8 -27q0 -23 -21 -23q-8 0 -19 8.5t-23 29.5q-5 9 -18.5 24.5t-27.5 26.5q-11 9 -28 19t-39.5 18.5t-49.5 14.5t-57 6h-11t-11 -1v-614q5 -1 11 -1h11q63 0 115.5 23.5t92 62t63.5 87.5
t30 101h-223q-8 0 -17 -1t-19 -1q-11 0 -18.5 6t-7.5 16q0 8 7.5 15t18.5 7q10 0 19 -1t17 -1h249q21 0 21 -16q0 -65 -27 -126t-73.5 -108t-110.5 -75.5t-137 -28.5q-77 0 -143 30.5t-114 82.5v469zM113 126q-30 42 -46.5 92.5t-16.5 106.5t16.5 106.5t46.5 92.5v-398z" />
    <glyph glyph-name="H" unicode="H" 
d="M148 650h212q6 0 10.5 -4.5t4.5 -10.5l-2 -70v-139h298v167q0 8 -1 17.5t-1 19.5q0 11 6.5 18t17.5 7t18 -7t7 -18q0 -10 -1 -19.5t-1 -17.5v-536q0 -8 1 -17.5t1 -19.5q0 -11 -7 -18t-18 -7t-17.5 7t-6.5 18q0 10 1 19.5t1 17.5v329h-298v-301l2 -70q0 -6 -4.5 -10.5
t-10.5 -4.5h-212v650zM88 0q-6 0 -10.5 4.5t-4.5 10.5l2 70v480l-2 70q0 6 4.5 10.5t10.5 4.5h32v-650h-32z" />
    <glyph glyph-name="I" unicode="I" horiz-adv-x="448" 
d="M148 650h212q6 0 10.5 -4.5t4.5 -10.5l-2 -70v-480l2 -70q0 -6 -4.5 -10.5t-10.5 -4.5h-212v650zM88 0q-6 0 -10.5 4.5t-4.5 10.5l2 70v480l-2 70q0 6 4.5 10.5t10.5 4.5h32v-650h-32z" />
    <glyph glyph-name="J" unicode="J" horiz-adv-x="644" 
d="M344 650h212q6 0 10.5 -4.5t4.5 -10.5l-2 -70v-318q0 -114 -59.5 -179.5t-165.5 -83.5v666zM271 565l-2 70q0 6 4.5 10.5t10.5 4.5h32v-670q-27 -3 -56 -3q-63 0 -110 16.5t-78.5 41.5t-47 52.5t-15.5 50.5q0 14 6 22.5t17 8.5q10 0 17.5 -8.5t11.5 -32.5q2 -14 17.5 -38
t47.5 -43q26 -15 63.5 -22.5t70.5 -7.5q11 0 11 13v535z" />
    <glyph glyph-name="K" unicode="K" horiz-adv-x="766" 
d="M148 650h212q6 0 10.5 -4.5t4.5 -10.5l-2 -70v-81l223 138q32 20 45.5 26.5t24.5 6.5q10 0 16 -6t6 -14q0 -11 -7 -17.5t-24 -13.5q-4 -2 -12 -5.5t-17 -8t-18 -9.5t-14 -8l-111 -69l212 -399q9 -17 17 -28.5t11 -16.5q9 -14 13.5 -22.5t4.5 -21.5q0 -10 -8.5 -15.5
t-19.5 -5.5q-17 0 -35 41q-4 8 -11 24t-12 24l-210 396l-74 -45v-350l2 -70q0 -6 -4.5 -10.5t-10.5 -4.5h-212v650zM88 0q-6 0 -10.5 4.5t-4.5 10.5l2 70v480l-2 70q0 6 4.5 10.5t10.5 4.5h32v-650h-32z" />
    <glyph glyph-name="L" unicode="L" horiz-adv-x="676" 
d="M148 650h212q6 0 10.5 -4.5t4.5 -10.5l-2 -70v-525h166q37 0 62 2t43 2q17 0 25 -7.5t8 -15.5q0 -10 -8 -16.5t-23 -6.5q-17 0 -33.5 1t-30.5 1h-434v650zM88 0q-6 0 -10.5 4.5t-4.5 10.5l2 70v480l-2 70q0 6 4.5 10.5t10.5 4.5h32v-650h-32z" />
    <glyph glyph-name="M" unicode="M" horiz-adv-x="938" 
d="M574 454l96 153q11 17 20 30t23 13q11 0 16.5 -10t12.5 -36q5 -18 9 -30t7 -23l130 -419q5 -17 12 -34t12 -31q7 -18 11.5 -29t4.5 -18q0 -8 -8 -14t-17 -6h-187zM679 0q-17 0 -31 7t-20 27l-91 291l-143 -228l-259 337l34 129q6 21 10 40q4 17 11 32t23 15
q11 0 22 -13.5t24 -33.5q10 -15 21.5 -33t18.5 -27l178 -242l76 121l132 -422h-6zM144 300l-60 -230q-1 -4 -2.5 -15t-2.5 -21q-2 -16 -6.5 -27.5t-21.5 -11.5q-12 0 -19.5 7t-7.5 19q0 6 3 15.5t5 16.5q5 13 7.5 23t4.5 15l81 307l253 -329q-5 -7 -11.5 -12t-14.5 -5
q-14 0 -22 7.5t-22 26.5z" />
    <glyph glyph-name="N" unicode="N" 
d="M75 419v146l-2 70q0 6 4.5 10.5t10.5 4.5q8 0 15.5 -2.5t15.5 -7.5l552 -301v254q0 8 -1 17.5t-1 19.5q0 11 6.5 18t17.5 7t18 -7t7 -18q0 -10 -1 -19.5t-1 -17.5v-524zM120 311v-254q0 -8 1 -17.5t1 -19.5q0 -11 -7 -18t-18 -7t-17.5 7t-6.5 18q0 10 1 19.5t1 17.5v330
l642 -351l1 -21q0 -6 -4.5 -10.5t-10.5 -4.5q-8 0 -15.5 2.5t-15.5 7.5z" />
    <glyph glyph-name="O" unicode="O" horiz-adv-x="796" 
d="M141 559q48 53 114 83.5t143 30.5q72 0 135.5 -27.5t110.5 -74.5t74.5 -110.5t27.5 -135.5t-27.5 -135.5t-74.5 -110.5t-110.5 -74.5t-135.5 -27.5q-77 0 -143 30.5t-114 82.5v469zM113 125q-29 43 -46 93.5t-17 106.5t16.5 106.5t46.5 93.5v-400zM376 18q5 -1 11 -1h11
q63 0 118 24.5t96 66.5t65 98t24 119t-24 119t-65 98t-96 66.5t-118 24.5h-11t-11 -1v-614z" />
    <glyph glyph-name="P" unicode="P" horiz-adv-x="783" 
d="M148 650h232q70 0 134.5 -16.5t114.5 -51t80 -88.5t30 -130q0 -65 -24.5 -113.5t-65 -81.5t-94 -49.5t-110.5 -16.5q-41 0 -72 6l2 -94q0 -6 -4.5 -10.5t-10.5 -4.5h-212v650zM88 0q-6 0 -10.5 4.5t-4.5 10.5l2 70v480l-2 70q0 6 4.5 10.5t10.5 4.5h32v-650h-32zM373 149
q31 -6 72 -6q49 0 94 14t79.5 41.5t55 69t20.5 96.5q0 63 -26 109.5t-68.5 76.5t-96.5 45t-110 15h-20v-461z" />
    <glyph glyph-name="Q" unicode="Q" horiz-adv-x="796" 
d="M141 559q48 53 114 83.5t143 30.5q72 0 135.5 -27.5t110.5 -74.5t74.5 -110.5t27.5 -135.5q0 -84 -36 -154.5t-97 -118.5q26 -20 51 -36t45 -24q15 -5 24 -14t9 -21q0 -23 -25 -23q-11 0 -26.5 7.5t-34 20t-39.5 29t-42 34.5q-39 -23 -84 -35.5t-93 -12.5
q-77 0 -143 30.5t-114 82.5v469zM113 126q-30 42 -46.5 92.5t-16.5 106.5t16.5 106.5t46.5 92.5v-398zM376 18q5 -1 11 -1h11q39 0 75.5 10t68.5 28q-20 19 -37.5 37t-31.5 32q-13 15 -13 26q0 5 4.5 10.5t9.5 5.5q14 0 32 -18q14 -14 33 -32t40 -36q56 42 89 106t33 139
q0 63 -24 119t-65 98t-96 66.5t-118 24.5h-11t-11 -1v-614z" />
    <glyph glyph-name="R" unicode="R" horiz-adv-x="783" 
d="M148 650h232q70 0 134.5 -16.5t114.5 -51t80 -88.5t30 -130q0 -57 -19.5 -102t-52.5 -77t-77 -52t-93 -27q25 -14 47.5 -25t44.5 -20q24 -11 48 -16t41 -7q31 -3 31 -25q0 -12 -7 -17.5t-18 -5.5q-18 0 -44 6t-58 20q-23 10 -50 24t-55 30t-55 33t-49 33v-51l2 -70
q0 -6 -4.5 -10.5t-10.5 -4.5h-212v650zM88 0q-6 0 -10.5 4.5t-4.5 10.5l2 70v480l-2 70q0 6 4.5 10.5t10.5 4.5h32v-650h-32zM445 143q49 0 94 14t79.5 41.5t55 69t20.5 96.5q0 63 -26 109.5t-68.5 76.5t-96.5 45t-110 15h-20v-423q17 -12 32.5 -23t30.5 -21h9z" />
    <glyph glyph-name="S" unicode="S" horiz-adv-x="648" 
d="M584 173q0 -84 -55 -132t-147 -59q11 11 18 24t7 36q0 18 -4.5 36t-16.5 41t-33.5 52.5t-56.5 70.5q-37 43 -64.5 78.5t-45.5 67t-27 60.5t-9 59q0 32 4.5 62.5t15.5 55.5q32 22 75.5 35t94.5 13q34 0 70 -8t66 -20.5t49 -29t19 -33.5q0 -8 -5.5 -14t-14.5 -6
q-14 0 -38 21q-11 10 -26 19t-33 16q-22 8 -40.5 11.5t-39.5 3.5q-11 0 -19.5 -8t-8.5 -20t3.5 -24t17 -33t40.5 -55t75 -88q54 -62 91.5 -120t37.5 -112zM379 42q0 -17 -8 -29.5t-18.5 -20.5t-21 -11.5t-15.5 -3.5q-43 0 -87.5 12.5t-80.5 31t-58.5 39t-22.5 36.5
q0 11 6 18t18 7q15 0 22 -10t17 -19q37 -35 81 -55t89 -20q18 0 26 8.5t8 19.5q0 10 -3 21t-16 31.5t-40 55t-75 90.5q-60 69 -90 123t-30 109q0 35 14.5 68.5t43.5 59.5q-8 -19 -12 -44.5t-4 -54.5q0 -34 8 -63.5t24.5 -59.5t42.5 -63.5t62 -75.5q41 -49 65 -81.5t36 -54.5
t15.5 -36.5t3.5 -27.5z" />
    <glyph glyph-name="T" unicode="T" horiz-adv-x="688" 
d="M268 650h320q13 0 31.5 1t35.5 1q11 0 19.5 -6.5t8.5 -16.5q0 -8 -8 -15.5t-25 -7.5q-18 0 -43 2t-62 2h-52v-525l2 -70q0 -6 -4.5 -10.5t-10.5 -4.5h-212v650zM208 0q-6 0 -10.5 4.5t-4.5 10.5l2 70v525h-52q-37 0 -62 -2t-43 -2q-17 0 -25 7.5t-8 15.5q0 10 8.5 16.5
t19.5 6.5q17 0 35.5 -1t31.5 -1h140v-650h-32z" />
    <glyph glyph-name="U" unicode="U" 
d="M148 650h212q6 0 10.5 -4.5t4.5 -10.5l-2 -70v-523q0 -13 5.5 -20t22.5 -7q81 0 133.5 19t82.5 55.5t42 91t12 125.5v287q0 8 -1 17.5t-1 19.5q0 11 6.5 18t17.5 7t18 -7t7 -18q0 -10 -1 -19.5t-1 -17.5v-287q0 -83 -16 -145.5t-53.5 -103.5t-99 -61.5t-152.5 -20.5
q-169 0 -247 69v606zM75 565l-2 70q0 6 4.5 10.5t10.5 4.5h32v-575q-45 63 -45 166v324z" />
    <glyph glyph-name="V" unicode="V" 
d="M83 650h223q14 0 26.5 -7t24.5 -27l196 -324l157 293q3 5 5.5 16t4.5 18q5 17 13 26.5t20 9.5t19.5 -7t7.5 -20q0 -16 -11 -33q-5 -7 -9.5 -15t-9.5 -16l-271 -505q-4 -7 -7 -15.5t-6 -17.5zM79 514q-15 24 -27 43.5t-22 33.5q-11 15 -15 23.5t-4 15.5q0 8 8 14t17 6h13
l403 -655q-12 -20 -30 -20q-11 0 -19 7.5t-14.5 19t-11.5 24t-11 21.5z" />
    <glyph glyph-name="W" unicode="W" horiz-adv-x="1035" 
d="M532 462l75 149q8 17 15 28t23 11q14 0 20.5 -9.5t17.5 -30.5l157 -291l117 261q2 4 5.5 15.5t6.5 25.5q4 18 10 26t18 8q14 0 20 -7.5t6 -19.5q0 -13 -7.5 -30t-17.5 -38l-222 -495q-5 -10 -7.5 -20t-5.5 -19zM81 650h186q17 0 29.5 -7.5t21.5 -26.5l140 -301l59 116
l232 -439q-9 -12 -24 -12q-14 0 -25 10.5t-19 28.5q-8 16 -18.5 37.5t-16.5 32.5l-128 242l-162 -295zM59 518q-8 18 -16.5 34.5t-15.5 30.5q-16 33 -16 47q0 8 8 14t17 6h14l289 -646q-5 -9 -11 -16.5t-17 -7.5q-23 0 -34 37q-5 17 -10.5 34.5t-10.5 27.5z" />
    <glyph glyph-name="X" unicode="X" horiz-adv-x="792" 
d="M104 650h217q19 0 27.5 -7t21.5 -26l136 -201l133 171q2 3 6 8.5t8.5 12t8.5 12.5l6 9q8 14 17.5 20t19.5 6t19 -6.5t9 -17.5q0 -9 -4.5 -16t-11.5 -12q-12 -9 -22.5 -19.5t-15.5 -17.5l-147 -189l110 -163q13 -20 30 -44t32.5 -46.5t28 -40l17.5 -24.5q11 -15 15 -23.5
t4 -15.5q0 -8 -8 -14t-17 -6h-212zM474 0q-14 0 -26 7t-25 27l-151 229l-155 -200q-2 -3 -6 -8.5t-8.5 -12t-8.5 -12.5l-6 -9q-8 -14 -17.5 -20t-19.5 -6t-19 6.5t-9 17.5q0 9 4.5 16t11.5 12q12 9 22.5 19.5t15.5 17.5l169 218l-122 186q-17 25 -38.5 54t-38.5 49
q-12 14 -19 23.5t-7 19.5q0 7 5.5 11.5t19.5 4.5h24l429 -650h-25z" />
    <glyph glyph-name="Y" unicode="Y" horiz-adv-x="764" 
d="M105 650h222q26 0 39 -10.5t28 -29.5l150 -191l121 168q2 3 5.5 8.5t7 12t7 12.5t5.5 9q8 14 17.5 20t19.5 6t18.5 -6.5t8.5 -17.5q0 -18 -15 -31q-23 -20 -34 -34l-254 -355zM377 186l-239 303q-18 23 -43 51t-46 51q-12 14 -19 22t-7 18q0 19 28 19h18l365 -463
l-104 -144q-2 -3 -5.5 -8.5t-7.5 -12t-8 -12.5t-5 -9q-7 -14 -16.5 -20t-19.5 -6t-19 7.5t-9 15.5q0 10 4.5 18.5t12.5 14.5q11 9 19.5 17t13.5 16z" />
    <glyph glyph-name="Z" unicode="Z" horiz-adv-x="679" 
d="M89 0q42 74 87.5 161.5t89.5 175.5t83 169.5t67 143.5h225q6 0 10.5 -4.5t4.5 -10.5q0 -8 -3 -15.5t-7 -15.5q-78 -141 -150.5 -286.5t-135.5 -277.5h148q37 0 62 2t43 2q17 0 25 -7.5t8 -15.5q0 -10 -8 -16.5t-20 -6.5q-17 0 -34 1t-33 1h-462zM38 0q-6 0 -10.5 4.5
t-4.5 10.5q0 8 3 16t7 15q40 70 80 145.5t77 149t70 142.5t59 127h-122q-37 0 -62 -2t-43 -2q-17 0 -25 7.5t-8 15.5q0 10 8.5 16.5t19.5 6.5q15 0 34.5 -1t32.5 -1h232q-28 -62 -67 -143.5t-83 -169.5t-89.5 -175.5t-87.5 -161.5h-21z" />
    <glyph glyph-name="bracketleft" unicode="[" horiz-adv-x="455" 
d="M148 713h230q8 0 17 1t19 1q11 0 18.5 -7t7.5 -15q0 -10 -7.5 -16t-18.5 -6q-10 0 -19 1t-17 1h-49v-696h49q8 0 17 1t19 1q11 0 18.5 -7t7.5 -15q0 -10 -7.5 -16t-18.5 -6q-10 0 -19 1t-17 1h-230v776zM88 -63q-6 0 -10.5 4.5t-4.5 10.5l2 70v606l-2 70q0 6 4.5 10.5
t10.5 4.5h32v-776h-32z" />
    <glyph glyph-name="backslash" unicode="\" horiz-adv-x="354" 
d="M39 587q-5 11 -11 20q-8 11 -8 24q0 12 8 18t16 6q14 0 20.5 -7.5t9.5 -20.5q2 -5 3.5 -12t4.5 -14l233 -538q2 -5 4.5 -10t6.5 -10q8 -11 8 -24q0 -12 -8 -18t-16 -6q-14 0 -20.5 7.5t-9.5 20.5q-2 5 -3.5 12t-4.5 14z" />
    <glyph glyph-name="bracketright" unicode="]" horiz-adv-x="455" 
d="M199 713h168q6 0 10.5 -4.5t4.5 -10.5l-2 -70v-606l2 -70q0 -6 -4.5 -10.5t-10.5 -4.5h-168v776zM77 -63q-8 0 -17 -1t-19 -1q-11 0 -18.5 6t-7.5 16q0 8 7.5 15t18.5 7q10 0 19 -1t17 -1h49v696h-49q-8 0 -17 -1t-19 -1q-11 0 -18.5 6t-7.5 16q0 8 7.5 15t18.5 7
q10 0 19 -1t17 -1h94v-776h-94z" />
    <glyph glyph-name="asciicircum" unicode="^" horiz-adv-x="350" 
d="M175 619l-101 -148q-4 -8 -10 -13t-14 -5t-14.5 5.5t-6.5 13.5q0 9 6 17l118 170q2 3 7 8.5t15 5.5t15 -5.5t7 -8.5l118 -170q6 -8 6 -17q0 -8 -6.5 -13.5t-14.5 -5.5t-14 5t-10 13z" />
    <glyph glyph-name="underscore" unicode="_" horiz-adv-x="345" 
d="M20 -140q-10 0 -15 6t-5 14t5 14t15 6h305q10 0 15 -6t5 -14t-5 -14t-15 -6h-305z" />
    <glyph glyph-name="grave" unicode="`" horiz-adv-x="400" 
d="M129 781q-30 14 -43.5 30t-13.5 36t14 34.5t38 14.5q17 0 31.5 -8.5t31.5 -27.5l102 -111q4 -4 7.5 -9.5t3.5 -12.5q0 -5 -5 -10t-12 -5q-6 0 -12.5 2.5t-13.5 5.5z" />
    <glyph glyph-name="a" unicode="a" 
d="M269 474l66 114q7 12 12.5 24.5t12.5 23t15.5 17.5t21.5 7q11 0 18 -5.5t12 -13.5t9.5 -18.5t9.5 -19.5l266 -467q14 -25 26.5 -44t22.5 -33q11 -15 15 -23.5t4 -15.5q0 -8 -8 -14t-17 -6h-218zM485 0q-14 0 -27 7t-24 27l-34 60h-300l-17 -29q-3 -5 -5.5 -15t-3.5 -17
q-2 -16 -8.5 -27t-23.5 -11q-12 0 -20.5 7t-8.5 20q0 16 11 33q5 7 9.5 15t9.5 16l209 360l253 -446h-20zM377 134l-125 222l-129 -222h254z" />
    <glyph glyph-name="b" unicode="b" horiz-adv-x="745" 
d="M148 650h293q57 0 104.5 -16t82 -45t54 -69t19.5 -87q0 -63 -23 -101t-57 -55q23 -17 39 -47t16 -69q0 -75 -58 -118t-168 -43h-302v650zM88 0q-6 0 -10.5 4.5t-4.5 10.5l2 70v480l-2 70q0 6 4.5 10.5t10.5 4.5h32v-650h-32zM452 40q95 0 137 34.5t42 90.5q0 28 -12.5 54
t-37.5 43q-8 -1 -18 -2t-24 -1q-25 0 -43.5 5.5t-31 13t-19 16t-6.5 14.5q0 19 16 19q11 0 16.5 -3t13.5 -10q10 -9 24 -12t31 -3q63 0 89.5 35.5t26.5 95.5q0 34 -15 66.5t-43 58t-68.5 40.5t-91.5 15h-65v-570h79z" />
    <glyph glyph-name="c" unicode="c" horiz-adv-x="756" 
d="M141 559q48 53 114 83.5t143 30.5q33 0 68 -7t69.5 -21.5t67 -37.5t59.5 -55q12 -14 20 -30.5t8 -26.5q0 -9 -5.5 -16.5t-17.5 -7.5q-10 0 -19.5 10.5t-17.5 26.5q-6 11 -19.5 29t-32.5 33q-32 25 -76 44t-104 19h-11t-11 -1v-614q5 -1 11 -1h11q45 0 86.5 14t76 36.5
t59.5 50.5t38 57q11 24 19 33.5t18 9.5q8 0 14.5 -5t6.5 -19q0 -11 -8 -28.5t-20 -34.5q-49 -69 -123 -111.5t-167 -42.5q-77 0 -143 30.5t-114 82.5v469zM113 126q-30 42 -46.5 92.5t-16.5 106.5t16.5 106.5t46.5 92.5v-398z" />
    <glyph glyph-name="d" unicode="d" horiz-adv-x="773" 
d="M148 650h237q72 0 134 -24t107 -66.5t71 -102.5t26 -132t-26 -132t-71 -102.5t-107 -66.5t-134 -24h-237v650zM88 0q-6 0 -10.5 4.5t-4.5 10.5l2 70v480l-2 70q0 6 4.5 10.5t10.5 4.5h32v-650h-32zM373 41q2 -1 5.5 -1h6.5q63 0 116.5 21.5t92.5 60t61.5 90.5t22.5 113
t-22.5 113t-61.5 90t-92.5 60t-116.5 22q-9 0 -12 -1v-568z" />
    <glyph glyph-name="e" unicode="e" horiz-adv-x="715" 
d="M148 650h423q8 0 17 1t19 1q11 0 18.5 -7t7.5 -15q0 -10 -7.5 -16t-18.5 -6q-10 0 -19 1t-17 1h-198v-138h215q8 0 17 1t19 1q11 0 18.5 -7t7.5 -15q0 -10 -7.5 -16t-18.5 -6q-10 0 -19 1t-17 1h-215v-392h242q8 0 17 1t19 1q11 0 18.5 -7t7.5 -15q0 -10 -7.5 -16
t-18.5 -6q-10 0 -19 1t-17 1h-467v650zM88 0q-6 0 -10.5 4.5t-4.5 10.5l2 70v480l-2 70q0 6 4.5 10.5t10.5 4.5h32v-650h-32z" />
    <glyph glyph-name="f" unicode="f" horiz-adv-x="685" 
d="M148 650h423q8 0 17 1t19 1q11 0 18.5 -7t7.5 -15q0 -10 -7.5 -16t-18.5 -6q-10 0 -19 1t-17 1h-198v-138h215q8 0 17 1t19 1q11 0 18.5 -7t7.5 -15q0 -10 -7.5 -16t-18.5 -6q-10 0 -19 1t-17 1h-215v-347l2 -70q0 -6 -4.5 -10.5t-10.5 -4.5h-212v650zM88 0
q-6 0 -10.5 4.5t-4.5 10.5l2 70v480l-2 70q0 6 4.5 10.5t10.5 4.5h32v-650h-32z" />
    <glyph glyph-name="g" unicode="g" horiz-adv-x="796" 
d="M141 559q48 53 114 83.5t143 30.5q66 0 131.5 -25.5t121.5 -82.5q14 -14 22 -29t8 -27q0 -23 -21 -23q-8 0 -19 8.5t-23 29.5q-5 9 -18.5 24.5t-27.5 26.5q-11 9 -28 19t-39.5 18.5t-49.5 14.5t-57 6h-11t-11 -1v-614q5 -1 11 -1h11q63 0 115.5 23.5t92 62t63.5 87.5
t30 101h-223q-8 0 -17 -1t-19 -1q-11 0 -18.5 6t-7.5 16q0 8 7.5 15t18.5 7q10 0 19 -1t17 -1h249q21 0 21 -16q0 -65 -27 -126t-73.5 -108t-110.5 -75.5t-137 -28.5q-77 0 -143 30.5t-114 82.5v469zM113 126q-30 42 -46.5 92.5t-16.5 106.5t16.5 106.5t46.5 92.5v-398z" />
    <glyph glyph-name="h" unicode="h" 
d="M148 650h212q6 0 10.5 -4.5t4.5 -10.5l-2 -70v-139h298v167q0 8 -1 17.5t-1 19.5q0 11 6.5 18t17.5 7t18 -7t7 -18q0 -10 -1 -19.5t-1 -17.5v-536q0 -8 1 -17.5t1 -19.5q0 -11 -7 -18t-18 -7t-17.5 7t-6.5 18q0 10 1 19.5t1 17.5v329h-298v-301l2 -70q0 -6 -4.5 -10.5
t-10.5 -4.5h-212v650zM88 0q-6 0 -10.5 4.5t-4.5 10.5l2 70v480l-2 70q0 6 4.5 10.5t10.5 4.5h32v-650h-32z" />
    <glyph glyph-name="i" unicode="i" horiz-adv-x="448" 
d="M148 650h212q6 0 10.5 -4.5t4.5 -10.5l-2 -70v-480l2 -70q0 -6 -4.5 -10.5t-10.5 -4.5h-212v650zM88 0q-6 0 -10.5 4.5t-4.5 10.5l2 70v480l-2 70q0 6 4.5 10.5t10.5 4.5h32v-650h-32z" />
    <glyph glyph-name="j" unicode="j" horiz-adv-x="644" 
d="M344 650h212q6 0 10.5 -4.5t4.5 -10.5l-2 -70v-318q0 -114 -59.5 -179.5t-165.5 -83.5v666zM271 565l-2 70q0 6 4.5 10.5t10.5 4.5h32v-670q-27 -3 -56 -3q-63 0 -110 16.5t-78.5 41.5t-47 52.5t-15.5 50.5q0 14 6 22.5t17 8.5q10 0 17.5 -8.5t11.5 -32.5q2 -14 17.5 -38
t47.5 -43q26 -15 63.5 -22.5t70.5 -7.5q11 0 11 13v535z" />
    <glyph glyph-name="k" unicode="k" horiz-adv-x="766" 
d="M148 650h212q6 0 10.5 -4.5t4.5 -10.5l-2 -70v-81l223 138q32 20 45.5 26.5t24.5 6.5q10 0 16 -6t6 -14q0 -11 -7 -17.5t-24 -13.5q-4 -2 -12 -5.5t-17 -8t-18 -9.5t-14 -8l-111 -69l212 -399q9 -17 17 -28.5t11 -16.5q9 -14 13.5 -22.5t4.5 -21.5q0 -10 -8.5 -15.5
t-19.5 -5.5q-17 0 -35 41q-4 8 -11 24t-12 24l-210 396l-74 -45v-350l2 -70q0 -6 -4.5 -10.5t-10.5 -4.5h-212v650zM88 0q-6 0 -10.5 4.5t-4.5 10.5l2 70v480l-2 70q0 6 4.5 10.5t10.5 4.5h32v-650h-32z" />
    <glyph glyph-name="l" unicode="l" horiz-adv-x="676" 
d="M148 650h212q6 0 10.5 -4.5t4.5 -10.5l-2 -70v-525h166q37 0 62 2t43 2q17 0 25 -7.5t8 -15.5q0 -10 -8 -16.5t-23 -6.5q-17 0 -33.5 1t-30.5 1h-434v650zM88 0q-6 0 -10.5 4.5t-4.5 10.5l2 70v480l-2 70q0 6 4.5 10.5t10.5 4.5h32v-650h-32z" />
    <glyph glyph-name="m" unicode="m" horiz-adv-x="938" 
d="M574 454l96 153q11 17 20 30t23 13q11 0 16.5 -10t12.5 -36q5 -18 9 -30t7 -23l130 -419q5 -17 12 -34t12 -31q7 -18 11.5 -29t4.5 -18q0 -8 -8 -14t-17 -6h-187zM679 0q-17 0 -31 7t-20 27l-91 291l-143 -228l-259 337l34 129q6 21 10 40q4 17 11 32t23 15
q11 0 22 -13.5t24 -33.5q10 -15 21.5 -33t18.5 -27l178 -242l76 121l132 -422h-6zM144 300l-60 -230q-1 -4 -2.5 -15t-2.5 -21q-2 -16 -6.5 -27.5t-21.5 -11.5q-12 0 -19.5 7t-7.5 19q0 6 3 15.5t5 16.5q5 13 7.5 23t4.5 15l81 307l253 -329q-5 -7 -11.5 -12t-14.5 -5
q-14 0 -22 7.5t-22 26.5z" />
    <glyph glyph-name="n" unicode="n" 
d="M75 419v146l-2 70q0 6 4.5 10.5t10.5 4.5q8 0 15.5 -2.5t15.5 -7.5l552 -301v254q0 8 -1 17.5t-1 19.5q0 11 6.5 18t17.5 7t18 -7t7 -18q0 -10 -1 -19.5t-1 -17.5v-524zM120 311v-254q0 -8 1 -17.5t1 -19.5q0 -11 -7 -18t-18 -7t-17.5 7t-6.5 18q0 10 1 19.5t1 17.5v330
l642 -351l1 -21q0 -6 -4.5 -10.5t-10.5 -4.5q-8 0 -15.5 2.5t-15.5 7.5z" />
    <glyph glyph-name="o" unicode="o" horiz-adv-x="796" 
d="M141 559q48 53 114 83.5t143 30.5q72 0 135.5 -27.5t110.5 -74.5t74.5 -110.5t27.5 -135.5t-27.5 -135.5t-74.5 -110.5t-110.5 -74.5t-135.5 -27.5q-77 0 -143 30.5t-114 82.5v469zM113 125q-29 43 -46 93.5t-17 106.5t16.5 106.5t46.5 93.5v-400zM376 18q5 -1 11 -1h11
q63 0 118 24.5t96 66.5t65 98t24 119t-24 119t-65 98t-96 66.5t-118 24.5h-11t-11 -1v-614z" />
    <glyph glyph-name="p" unicode="p" horiz-adv-x="783" 
d="M148 650h232q70 0 134.5 -16.5t114.5 -51t80 -88.5t30 -130q0 -65 -24.5 -113.5t-65 -81.5t-94 -49.5t-110.5 -16.5q-41 0 -72 6l2 -94q0 -6 -4.5 -10.5t-10.5 -4.5h-212v650zM88 0q-6 0 -10.5 4.5t-4.5 10.5l2 70v480l-2 70q0 6 4.5 10.5t10.5 4.5h32v-650h-32zM373 149
q31 -6 72 -6q49 0 94 14t79.5 41.5t55 69t20.5 96.5q0 63 -26 109.5t-68.5 76.5t-96.5 45t-110 15h-20v-461z" />
    <glyph glyph-name="q" unicode="q" horiz-adv-x="796" 
d="M141 559q48 53 114 83.5t143 30.5q72 0 135.5 -27.5t110.5 -74.5t74.5 -110.5t27.5 -135.5q0 -84 -36 -154.5t-97 -118.5q26 -20 51 -36t45 -24q15 -5 24 -14t9 -21q0 -23 -25 -23q-11 0 -26.5 7.5t-34 20t-39.5 29t-42 34.5q-39 -23 -84 -35.5t-93 -12.5
q-77 0 -143 30.5t-114 82.5v469zM113 126q-30 42 -46.5 92.5t-16.5 106.5t16.5 106.5t46.5 92.5v-398zM376 18q5 -1 11 -1h11q39 0 75.5 10t68.5 28q-20 19 -37.5 37t-31.5 32q-13 15 -13 26q0 5 4.5 10.5t9.5 5.5q14 0 32 -18q14 -14 33 -32t40 -36q56 42 89 106t33 139
q0 63 -24 119t-65 98t-96 66.5t-118 24.5h-11t-11 -1v-614z" />
    <glyph glyph-name="r" unicode="r" horiz-adv-x="783" 
d="M148 650h232q70 0 134.5 -16.5t114.5 -51t80 -88.5t30 -130q0 -57 -19.5 -102t-52.5 -77t-77 -52t-93 -27q25 -14 47.5 -25t44.5 -20q24 -11 48 -16t41 -7q31 -3 31 -25q0 -12 -7 -17.5t-18 -5.5q-18 0 -44 6t-58 20q-23 10 -50 24t-55 30t-55 33t-49 33v-51l2 -70
q0 -6 -4.5 -10.5t-10.5 -4.5h-212v650zM88 0q-6 0 -10.5 4.5t-4.5 10.5l2 70v480l-2 70q0 6 4.5 10.5t10.5 4.5h32v-650h-32zM445 143q49 0 94 14t79.5 41.5t55 69t20.5 96.5q0 63 -26 109.5t-68.5 76.5t-96.5 45t-110 15h-20v-423q17 -12 32.5 -23t30.5 -21h9z" />
    <glyph glyph-name="s" unicode="s" horiz-adv-x="648" 
d="M584 173q0 -84 -55 -132t-147 -59q11 11 18 24t7 36q0 18 -4.5 36t-16.5 41t-33.5 52.5t-56.5 70.5q-37 43 -64.5 78.5t-45.5 67t-27 60.5t-9 59q0 32 4.5 62.5t15.5 55.5q32 22 75.5 35t94.5 13q34 0 70 -8t66 -20.5t49 -29t19 -33.5q0 -8 -5.5 -14t-14.5 -6
q-14 0 -38 21q-11 10 -26 19t-33 16q-22 8 -40.5 11.5t-39.5 3.5q-11 0 -19.5 -8t-8.5 -20t3.5 -24t17 -33t40.5 -55t75 -88q54 -62 91.5 -120t37.5 -112zM379 42q0 -17 -8 -29.5t-18.5 -20.5t-21 -11.5t-15.5 -3.5q-43 0 -87.5 12.5t-80.5 31t-58.5 39t-22.5 36.5
q0 11 6 18t18 7q15 0 22 -10t17 -19q37 -35 81 -55t89 -20q18 0 26 8.5t8 19.5q0 10 -3 21t-16 31.5t-40 55t-75 90.5q-60 69 -90 123t-30 109q0 35 14.5 68.5t43.5 59.5q-8 -19 -12 -44.5t-4 -54.5q0 -34 8 -63.5t24.5 -59.5t42.5 -63.5t62 -75.5q41 -49 65 -81.5t36 -54.5
t15.5 -36.5t3.5 -27.5z" />
    <glyph glyph-name="t" unicode="t" horiz-adv-x="688" 
d="M268 650h320q13 0 31.5 1t35.5 1q11 0 19.5 -6.5t8.5 -16.5q0 -8 -8 -15.5t-25 -7.5q-18 0 -43 2t-62 2h-52v-525l2 -70q0 -6 -4.5 -10.5t-10.5 -4.5h-212v650zM208 0q-6 0 -10.5 4.5t-4.5 10.5l2 70v525h-52q-37 0 -62 -2t-43 -2q-17 0 -25 7.5t-8 15.5q0 10 8.5 16.5
t19.5 6.5q17 0 35.5 -1t31.5 -1h140v-650h-32z" />
    <glyph glyph-name="u" unicode="u" 
d="M148 650h212q6 0 10.5 -4.5t4.5 -10.5l-2 -70v-523q0 -13 5.5 -20t22.5 -7q81 0 133.5 19t82.5 55.5t42 91t12 125.5v287q0 8 -1 17.5t-1 19.5q0 11 6.5 18t17.5 7t18 -7t7 -18q0 -10 -1 -19.5t-1 -17.5v-287q0 -83 -16 -145.5t-53.5 -103.5t-99 -61.5t-152.5 -20.5
q-169 0 -247 69v606zM75 565l-2 70q0 6 4.5 10.5t10.5 4.5h32v-575q-45 63 -45 166v324z" />
    <glyph glyph-name="v" unicode="v" 
d="M83 650h223q14 0 26.5 -7t24.5 -27l196 -324l157 293q3 5 5.5 16t4.5 18q5 17 13 26.5t20 9.5t19.5 -7t7.5 -20q0 -16 -11 -33q-5 -7 -9.5 -15t-9.5 -16l-271 -505q-4 -7 -7 -15.5t-6 -17.5zM79 514q-15 24 -27 43.5t-22 33.5q-11 15 -15 23.5t-4 15.5q0 8 8 14t17 6h13
l403 -655q-12 -20 -30 -20q-11 0 -19 7.5t-14.5 19t-11.5 24t-11 21.5z" />
    <glyph glyph-name="w" unicode="w" horiz-adv-x="1035" 
d="M532 462l75 149q8 17 15 28t23 11q14 0 20.5 -9.5t17.5 -30.5l157 -291l117 261q2 4 5.5 15.5t6.5 25.5q4 18 10 26t18 8q14 0 20 -7.5t6 -19.5q0 -13 -7.5 -30t-17.5 -38l-222 -495q-5 -10 -7.5 -20t-5.5 -19zM81 650h186q17 0 29.5 -7.5t21.5 -26.5l140 -301l59 116
l232 -439q-9 -12 -24 -12q-14 0 -25 10.5t-19 28.5q-8 16 -18.5 37.5t-16.5 32.5l-128 242l-162 -295zM59 518q-8 18 -16.5 34.5t-15.5 30.5q-16 33 -16 47q0 8 8 14t17 6h14l289 -646q-5 -9 -11 -16.5t-17 -7.5q-23 0 -34 37q-5 17 -10.5 34.5t-10.5 27.5z" />
    <glyph glyph-name="x" unicode="x" horiz-adv-x="792" 
d="M104 650h217q19 0 27.5 -7t21.5 -26l136 -201l133 171q2 3 6 8.5t8.5 12t8.5 12.5l6 9q8 14 17.5 20t19.5 6t19 -6.5t9 -17.5q0 -9 -4.5 -16t-11.5 -12q-12 -9 -22.5 -19.5t-15.5 -17.5l-147 -189l110 -163q13 -20 30 -44t32.5 -46.5t28 -40l17.5 -24.5q11 -15 15 -23.5
t4 -15.5q0 -8 -8 -14t-17 -6h-212zM474 0q-14 0 -26 7t-25 27l-151 229l-155 -200q-2 -3 -6 -8.5t-8.5 -12t-8.5 -12.5l-6 -9q-8 -14 -17.5 -20t-19.5 -6t-19 6.5t-9 17.5q0 9 4.5 16t11.5 12q12 9 22.5 19.5t15.5 17.5l169 218l-122 186q-17 25 -38.5 54t-38.5 49
q-12 14 -19 23.5t-7 19.5q0 7 5.5 11.5t19.5 4.5h24l429 -650h-25z" />
    <glyph glyph-name="y" unicode="y" horiz-adv-x="764" 
d="M105 650h222q26 0 39 -10.5t28 -29.5l150 -191l121 168q2 3 5.5 8.5t7 12t7 12.5t5.5 9q8 14 17.5 20t19.5 6t18.5 -6.5t8.5 -17.5q0 -18 -15 -31q-23 -20 -34 -34l-254 -355zM377 186l-239 303q-18 23 -43 51t-46 51q-12 14 -19 22t-7 18q0 19 28 19h18l365 -463
l-104 -144q-2 -3 -5.5 -8.5t-7.5 -12t-8 -12.5t-5 -9q-7 -14 -16.5 -20t-19.5 -6t-19 7.5t-9 15.5q0 10 4.5 18.5t12.5 14.5q11 9 19.5 17t13.5 16z" />
    <glyph glyph-name="z" unicode="z" horiz-adv-x="679" 
d="M89 0q42 74 87.5 161.5t89.5 175.5t83 169.5t67 143.5h225q6 0 10.5 -4.5t4.5 -10.5q0 -8 -3 -15.5t-7 -15.5q-78 -141 -150.5 -286.5t-135.5 -277.5h148q37 0 62 2t43 2q17 0 25 -7.5t8 -15.5q0 -10 -8 -16.5t-20 -6.5q-17 0 -34 1t-33 1h-462zM38 0q-6 0 -10.5 4.5
t-4.5 10.5q0 8 3 16t7 15q40 70 80 145.5t77 149t70 142.5t59 127h-122q-37 0 -62 -2t-43 -2q-17 0 -25 7.5t-8 15.5q0 10 8.5 16.5t19.5 6.5q15 0 34.5 -1t32.5 -1h232q-28 -62 -67 -143.5t-83 -169.5t-89.5 -175.5t-87.5 -161.5h-21z" />
    <glyph glyph-name="braceleft" unicode="{" horiz-adv-x="450" 
d="M171 603q46 51 108.5 80.5t130.5 29.5q25 0 25 -20t-25 -20q-10 0 -22 -4t-23 -19t-18.5 -44.5t-7.5 -80.5q0 -37 -3.5 -69.5t-14 -58t-30.5 -44t-53 -28.5q33 -10 53 -28.5t30.5 -44t14 -58t3.5 -69.5q0 -51 7.5 -80.5t18.5 -44.5t23 -19t22 -4q25 0 25 -20t-25 -20
q-68 0 -131 29.5t-108 80.5v556zM143 83q-23 36 -36.5 78t-13.5 88q0 19 -3 30.5t-9.5 17t-16.5 7t-24 1.5q-25 0 -25 20t25 20q14 0 24 1.5t16.5 7t9.5 16.5t3 31q0 47 13.5 88.5t36.5 77.5v-484z" />
    <glyph glyph-name="bar" unicode="|" horiz-adv-x="195" 
d="M75 651q0 9 -1.5 16.5t-1.5 17.5q0 14 7 21t18 7t18.5 -7t7.5 -21q0 -10 -1.5 -17.5t-1.5 -16.5v-652q0 -9 1.5 -16.5t1.5 -17.5q0 -14 -7.5 -21t-18.5 -7t-18 7t-7 21q0 10 1.5 17.5t1.5 16.5v652z" />
    <glyph glyph-name="braceright" unicode="}" horiz-adv-x="450" 
d="M184 314q13 6 28 11q-15 4 -28 11v341q37 -20 68.5 -48t55 -63.5t36.5 -77t13 -87.5q0 -20 3 -31t9.5 -16.5t16.5 -7t24 -1.5q25 0 25 -20t-25 -20q-14 0 -24 -1.5t-16.5 -7t-9.5 -17t-3 -30.5q0 -46 -13 -88t-36.5 -77t-55 -63.5t-68.5 -47.5v341zM156 356
q-29 28 -37 71.5t-8 97.5q0 51 -7.5 80.5t-18.5 44.5t-23 19t-22 4q-25 0 -25 20t25 20q59 0 116 -23v-334zM156 -40q-57 -23 -116 -23q-25 0 -25 20t25 20q10 0 22 4t23 19t18.5 44.5t7.5 80.5q0 54 8 97.5t37 71.5v-334z" />
    <glyph glyph-name="asciitilde" unicode="~" horiz-adv-x="400" 
d="M372 358q0 -18 -7 -36t-19.5 -32t-31 -22.5t-40.5 -8.5q-32 0 -51.5 14t-36.5 31q-14 14 -27.5 24t-32.5 10q-17 0 -28 -6t-18 -15t-9.5 -19.5t-2.5 -19.5q0 -7 -5.5 -13t-14.5 -6t-14.5 6t-5.5 14q0 18 7 35.5t19.5 32t30.5 23t41 8.5q32 0 51.5 -14t36.5 -31
q14 -14 27.5 -24t32.5 -10q17 0 28 6t18 15t9.5 19.5t2.5 19.5q0 7 5.5 13t14.5 6t14.5 -6t5.5 -14z" />
    <glyph glyph-name="uni00A0" unicode="&#xa0;" horiz-adv-x="345" 
 />
    <glyph glyph-name="exclamdown" unicode="&#xa1;" horiz-adv-x="400" 
d="M134 662q31 11 66 11q30 0 57 -7.5t47 -22.5t31.5 -36.5t11.5 -48.5t-11.5 -48.5t-31.5 -36.5t-47 -22.5t-57 -7.5q-35 0 -66 11v208zM106 467q-24 14 -38.5 37t-14.5 54t14.5 54t38.5 38v-183zM134 281q14 23 24.5 48.5t15.5 46.5q6 27 26 27t26 -27q5 -22 16 -48.5
t26 -49.5q21 -32 35 -55t22.5 -42.5t12.5 -37t4 -37.5q0 -24 -9.5 -46t-27.5 -38.5t-44.5 -26t-60.5 -9.5q-38 0 -66 12v283zM106 13q-23 17 -35.5 41.5t-12.5 51.5q0 33 11 61t37 71v-225z" />
    <glyph glyph-name="cent" unicode="&#xa2;" horiz-adv-x="580" 
d="M283 59q-46 4 -86.5 22.5t-72.5 47.5v392q32 29 72.5 47.5t86.5 22.5v55q0 11 4.5 19t17.5 8t17.5 -8t4.5 -19v-55q63 -5 113.5 -32t74.5 -62q8 -11 8 -22q0 -19 -16 -19q-8 0 -14.5 3.5t-16.5 18.5q-22 34 -66.5 56t-104.5 22q-8 0 -13 -1v-460q5 -1 13 -1
q30 0 59.5 7.5t56 22t49 34.5t37.5 45q9 15 14.5 18t13.5 3q16 0 16 -18q0 -7 -2 -12t-5 -10q-16 -24 -39.5 -45t-52 -38t-60.5 -28t-65 -14v-55q0 -11 -4.5 -19t-17.5 -8t-17.5 8t-4.5 19v55zM96 159q-27 35 -42.5 76.5t-15.5 89.5t15.5 90t42.5 76v-332z" />
    <glyph glyph-name="sterling" unicode="&#xa3;" horiz-adv-x="708" 
d="M414 314q1 -7 1.5 -13.5t0.5 -13.5q0 -30 -10 -61t-28 -63q35 -6 72.5 -10.5t76.5 -4.5q52 0 79 19.5t35 44.5q4 12 11 21t15 9q11 0 15 -7t4 -12q0 -117 -42.5 -181.5t-127.5 -64.5q-45 0 -76.5 8.5t-54 28t-37.5 50t-27 75.5q-8 30 -26.5 70.5t-59.5 90.5
q-28 34 -50 64t-37 58t-23 55.5t-8 57.5q0 37 23.5 63.5t60.5 43t80.5 24t84.5 7.5q34 0 70.5 -8t66.5 -20.5t49 -29t19 -33.5q0 -8 -5.5 -14t-14.5 -6q-14 0 -38 21q-25 22 -57.5 36t-66.5 14q-17 0 -28 -11.5t-11 -36.5q0 -34 6.5 -64t15.5 -58t18.5 -55t16.5 -54h118
q10 0 15 -6t5 -14t-5 -14t-15 -6h-111zM47 314q-10 0 -15 6t-5 14t5 14t15 6h59q-15 25 -24.5 50t-9.5 51q0 23 4.5 44t12.5 36q0 -32 8 -61.5t23.5 -59.5t38.5 -62t54 -69q47 -57 65 -101t18 -77q0 -30 -12.5 -53.5t-32.5 -40t-44 -25.5t-48 -9q-47 0 -78.5 31.5
t-31.5 78.5q0 23 8.5 43t22.5 35t33.5 23.5t41.5 8.5q19 0 38 -2t39 -5q-20 31 -46.5 61.5t-50.5 62.5h-88zM262 106q-25 22 -50 36.5t-57 14.5q-27 0 -44.5 -20.5t-17.5 -49.5t18.5 -49.5t47.5 -20.5q24 0 43 9.5t32.5 23t20.5 29t7 27.5z" />
    <glyph glyph-name="currency" unicode="&#xa4;" horiz-adv-x="591" 
d="M508 173q-7 -8 -13.5 -15t-14.5 -14l-66 66q-23 -20 -53.5 -31.5t-64.5 -11.5q-25 0 -57 9t-61 34l-66 -66q-8 7 -14 14t-14 15q17 16 33.5 32t33.5 32q-17 23 -29 52.5t-12 64.5t11 65.5t30 51.5q-17 17 -33.5 32.5t-33.5 32.5q8 8 14 15t14 14l66 -66q31 24 62 33t56 9
q28 0 60.5 -10.5t56.5 -31.5q17 17 33.5 33t33.5 33q8 -7 14.5 -14t13.5 -15q-17 -17 -33.5 -32.5t-33.5 -32.5q21 -26 31.5 -56t10.5 -61q0 -35 -11.5 -64t-30.5 -53q17 -16 33.5 -32t33.5 -32zM443 355q0 33 -12.5 59.5t-33.5 46t-47 30t-53 10.5q-32 0 -59 -12t-46.5 -32
t-30.5 -46.5t-11 -55.5q0 -30 11.5 -56.5t31.5 -47t46.5 -32.5t56.5 -12t56.5 12t47 32t32 47t11.5 57z" />
    <glyph glyph-name="yen" unicode="&#xa5;" horiz-adv-x="728" 
d="M288 303l-212 347h209q26 0 39.5 -8.5t27.5 -31.5l142 -233l151 210q5 8 13 22t12 20q8 14 17.5 20t19.5 6t18.5 -6.5t8.5 -17.5q0 -18 -15 -31q-11 -10 -20 -18t-14 -16l-172 -238v-36h111q10 0 15 -6t5 -14t-5 -14t-15 -6h-111v-70h111q10 0 15 -6t5 -14t-5 -14t-15 -6
h-111v-57l2 -70q0 -6 -4.5 -10.5t-10.5 -4.5h-212v303zM228 0q-6 0 -10.5 4.5t-4.5 10.5l2 70v57h-111q-10 0 -15 6t-5 14t5 14t15 6h111v70h-111q-10 0 -15 6t-5 14t5 14t15 6h104l-118 193q-16 26 -32 51t-36 51q-11 15 -17.5 24.5t-6.5 19.5q0 19 28 19h16l218 -356v-294
h-32z" />
    <glyph glyph-name="brokenbar" unicode="&#xa6;" horiz-adv-x="195" 
d="M75 651q0 9 -1.5 16.5t-1.5 17.5q0 14 7 21t18 7t18.5 -7t7.5 -21q0 -10 -1.5 -17.5t-1.5 -16.5v-199q0 -9 1.5 -16.5t1.5 -17.5q0 -14 -7.5 -21t-18.5 -7t-18 7t-7 21q0 10 1.5 17.5t1.5 16.5v199zM75 198q0 9 -1.5 16.5t-1.5 17.5q0 14 7 21t18 7t18.5 -7t7.5 -21
q0 -10 -1.5 -17.5t-1.5 -16.5v-199q0 -9 1.5 -16.5t1.5 -17.5q0 -14 -7.5 -21t-18.5 -7t-18 7t-7 21q0 10 1.5 17.5t1.5 16.5v199z" />
    <glyph glyph-name="section" unicode="&#xa7;" horiz-adv-x="549" 
d="M502 400q0 -47 -25 -81t-67 -55q5 13 5 34q0 30 -26 61t-94 58q-57 23 -93.5 41t-57.5 35t-29 35t-8 41q0 30 20 50t49.5 32t62 17t56.5 5q34 0 65 -5.5t55 -14.5t38.5 -21t14.5 -25q0 -8 -5.5 -14t-14.5 -6q-8 0 -16 5.5t-22 15.5q-14 9 -40.5 19t-60.5 10
q-14 0 -24.5 -7t-10.5 -22q0 -24 27.5 -41.5t75.5 -37.5q24 -10 47 -22t40 -27t27.5 -34.5t10.5 -45.5zM482 131q0 -22 -8.5 -43.5t-25 -41t-42.5 -35t-60 -24.5q5 12 7 26t2 28q0 27 -24 55t-78 54t-87.5 45.5t-52 35.5t-25 31t-6.5 33q0 45 22 70t71 39q-47 22 -76.5 50
t-29.5 71q0 15 3 25t7 17q0 -30 11 -52.5t34.5 -41t59 -35t83.5 -35.5q65 -26 92.5 -52t27.5 -53q0 -20 -4.5 -31t-12.5 -20q52 -20 82 -46t30 -70zM327 41q0 -19 -7 -31t-17 -19.5t-22 -10.5t-21 -3q-60 0 -103 16t-68 36q-17 14 -17 28q0 9 5 15.5t14 6.5q14 0 22 -7
t21 -18q19 -17 48 -29t61 -12q34 0 34 28q0 19 -26 37.5t-82 44.5q-22 10 -43.5 23t-38.5 29.5t-27.5 37.5t-10.5 48q0 10 2 20.5t3 13.5q0 -23 9 -42t29.5 -37t53 -37t79.5 -41q54 -26 78 -50t24 -47zM342 298q0 26 -30.5 45.5t-84.5 39.5q-3 1 -5.5 2t-5.5 2
q-7 -14 -7 -28q0 -19 9 -33.5t25 -26t36.5 -20.5t43.5 -16q19 11 19 35z" />
    <glyph glyph-name="dieresis" unicode="&#xa8;" horiz-adv-x="400" 
d="M382 771q0 -29 -21.5 -44t-52.5 -15q-30 0 -51.5 15t-21.5 44q0 26 21.5 41t51.5 15q31 0 52.5 -15t21.5 -41zM165 771q0 -29 -21.5 -44t-52.5 -15q-30 0 -51.5 15t-21.5 44q0 26 21.5 41t51.5 15q31 0 52.5 -15t21.5 -41z" />
    <glyph glyph-name="copyright" unicode="&#xa9;" horiz-adv-x="790" 
d="M742 331q0 -72 -27 -135t-74.5 -110t-110.5 -74t-135 -27t-135 27t-110.5 74t-74.5 110t-27 135t27 135t74.5 110t110.5 74t135 27t135 -27t110.5 -74t74.5 -110t27 -135zM703 331q0 64 -24 120t-66 98t-98 66t-120 24t-120 -24t-98 -66t-66 -98t-24 -120t24 -120t66 -98
t98 -66t120 -24t120 24t98 66t66 98t24 120zM556 220q-55 -88 -155 -88q-36 0 -70.5 13t-59.5 35q-29 26 -46 66t-17 82q0 38 14.5 75t40.5 62q25 25 63 40.5t75 15.5q17 0 40 -4t37 -9t17 -5.5t7 -0.5q10 0 14 4t6 15h18l7 -121h-16q-8 26 -17.5 41.5t-25.5 29.5
q-16 13 -38 20.5t-42 7.5q-24 0 -47.5 -10.5t-40.5 -28.5q-41 -44 -41 -127q0 -86 42 -131q18 -19 44 -30t54 -11q34 0 61.5 16t59.5 54z" />
    <glyph glyph-name="ordfeminine" unicode="&#xaa;" horiz-adv-x="426" 
d="M248 363q-9 0 -9 9v15q-20 -17 -46.5 -25.5t-55.5 -8.5q-9 0 -27 4t-36 16t-32 32.5t-14 53.5t14 53.5t33.5 32.5t41 16t36.5 4q31 0 52 -4.5t35 -10.5v49q0 19 -15 28.5t-53 9.5q-23 0 -40 -7.5t-28 -19.5q-13 -15 -27 -15q-7 0 -13 5.5t-6 14.5q0 7 9 17t27 19
t44.5 15.5t61.5 6.5q52 0 86.5 -8.5t54.5 -25.5t28.5 -42.5t8.5 -58.5v-100q0 -6 1 -16.5l2 -21t2 -19t1 -9.5q0 -3 -2.5 -6t-6.5 -3h-127zM240 516q-14 5 -29 9t-31 4q-5 0 -11.5 -4t-6.5 -15v-124q23 2 44 13t34 29v88z" />
    <glyph glyph-name="guillemotleft" unicode="&#xab;" horiz-adv-x="534" 
d="M348 160v194l110 83q5 5 12 8.5t16 3.5q7 0 13.5 -5t6.5 -13q0 -7 -3.5 -14.5t-7.5 -14.5l-81 -145l81 -145q4 -7 7.5 -14.5t3.5 -14.5q0 -8 -6.5 -13t-13.5 -5q-9 0 -16 3.5t-12 8.5zM309 189q-25 18 -36 34t-11 34t11 34t36 34l11 8v-152zM114 160v194l110 83
q5 5 12 8.5t16 3.5q7 0 13.5 -5t6.5 -13q0 -7 -3.5 -14.5t-7.5 -14.5l-81 -145l81 -145q4 -7 7.5 -14.5t3.5 -14.5q0 -8 -6.5 -13t-13.5 -5q-9 0 -16 3.5t-12 8.5zM75 189q-25 18 -36 34t-11 34t11 34t36 34l11 8v-152z" />
    <glyph glyph-name="logicalnot" unicode="&#xac;" horiz-adv-x="713" 
d="M620 230h-597v47h645v-277h-48v230z" />
    <glyph glyph-name="uni00AD" unicode="&#xad;" horiz-adv-x="430" 
d="M88 432h307q20 0 20 -19v-189q0 -19 -20 -19h-307v227zM35 205q-20 0 -20 20v187q0 20 20 20h25v-227h-25z" />
    <glyph glyph-name="registered" unicode="&#xae;" horiz-adv-x="790" 
d="M742 331q0 -72 -27 -135t-74.5 -110t-110.5 -74t-135 -27t-135 27t-110.5 74t-74.5 110t-27 135t27 135t74.5 110t110.5 74t135 27t135 -27t110.5 -74t74.5 -110t27 -135zM703 331q0 64 -24 120t-66 98t-98 66t-120 24t-120 -24t-98 -66t-66 -98t-24 -120t24 -120t66 -98
t98 -66t120 -24t120 24t98 66t66 98t24 120zM231 177q30 2 39 13t9 47v224q0 32 -8.5 43t-34.5 13v16h177q60 0 94 -25t34 -69q0 -75 -99 -96l99 -126q17 -23 27.5 -30.5t27.5 -9.5v-15h-83l-138 173h-36v-96q0 -38 8 -49t38 -13v-15h-154v15zM364 358q53 -2 81 19t28 59
q0 35 -24 56t-63 21q-11 0 -20.5 -1.5t-26.5 -6.5v-146z" />
    <glyph glyph-name="macron" unicode="&#xaf;" horiz-adv-x="400" 
d="M65 732q-10 0 -15 6t-5 14t5 14t15 6h270q10 0 15 -6t5 -14t-5 -14t-15 -6h-270z" />
    <glyph glyph-name="degree" unicode="&#xb0;" horiz-adv-x="394" 
d="M357 513q0 -33 -12.5 -62t-34.5 -51t-51 -34.5t-62 -12.5t-62 12.5t-51 34.5t-34.5 51t-12.5 62t12.5 62t34.5 51t51 34.5t62 12.5t62 -12.5t51 -34.5t34.5 -51t12.5 -62zM317 513q0 25 -9.5 46.5t-26 38t-38 26t-46.5 9.5t-46.5 -9.5t-38 -26t-26 -38t-9.5 -46.5
t9.5 -46.5t26 -38t38 -26t46.5 -9.5t46.5 9.5t38 26t26 38t9.5 46.5z" />
    <glyph glyph-name="plusminus" unicode="&#xb1;" horiz-adv-x="549" 
d="M251 339h-233v47h233v234h48v-234h232v-47h-232v-232h-48v232zM18 48h513v-48h-513v48z" />
    <glyph glyph-name="uni00B2" unicode="&#xb2;" horiz-adv-x="402" 
d="M67 427q16 19 38 48t45.5 62t47 67t42 64.5t30 54.5t11.5 36q0 20 -13 32q51 -10 76 -35t25 -63q0 -15 -3.5 -32.5t-17.5 -43.5t-42 -63.5t-76 -94.5h35q14 0 30.5 1t29.5 4q18 5 26 5q9 0 15.5 -5t6.5 -16q0 -23 -22 -23q-11 0 -25.5 1t-25.5 1h-233zM29 427
q-4 0 -7.5 2t-3.5 8q0 5 2.5 8.5t5.5 7.5q17 20 39 48t44.5 58.5t44 61.5t38 57.5t26.5 46.5t10 29q0 6 -5.5 11.5t-31.5 5.5q-56 0 -92.5 -25t-36.5 -69q0 -14 10 -24t10 -19q0 -7 -6 -10t-13 -3q-14 0 -24 19.5t-10 40.5q0 25 12.5 46t35 37t53 25t67.5 9q41 0 54.5 -11.5
t13.5 -27.5q0 -11 -11.5 -33.5t-30 -52.5t-42 -64t-47.5 -67.5t-47.5 -63.5t-40.5 -51h-17z" />
    <glyph glyph-name="uni00B3" unicode="&#xb3;" horiz-adv-x="402" 
d="M230 797q66 -7 93 -32.5t27 -57.5q0 -18 -7.5 -31.5t-20 -23.5t-28.5 -15.5t-34 -7.5q-7 0 -7 -5q0 -3 7 -5q21 -2 40.5 -8.5t34.5 -17.5t24.5 -26.5t9.5 -35.5q0 -45 -35 -74.5t-104 -37.5v378zM182 602q0 5 -6 5h-30q-14 0 -19 5t-5 12t5 12t19 5h30q6 0 6 6v124h-7
q-35 0 -58.5 -9t-35.5 -25q-8 -13 -19 -13q-7 0 -10.5 4.5t-3.5 9.5t5.5 14t16.5 17q20 13 49.5 21.5t64.5 8.5h15t14 -1v-381q-8 0 -16.5 -0.5t-17.5 -0.5q-18 0 -37.5 3t-38.5 8.5t-36 13.5t-30 19q-11 9 -16 18.5t-5 14.5t3 10.5t9 5.5q8 0 12.5 -3.5t8.5 -9.5
q10 -17 40.5 -35t84.5 -18q6 0 8 1v158z" />
    <glyph glyph-name="acute" unicode="&#xb4;" horiz-adv-x="400" 
d="M213 860q17 19 31.5 27.5t31.5 8.5q24 0 38 -14.5t14 -34.5t-13.5 -36t-43.5 -30l-128 -61q-7 -3 -13.5 -5.5t-12.5 -2.5q-7 0 -12 5t-5 10q0 7 3.5 12.5t7.5 9.5z" />
    <glyph glyph-name="uni00B5" unicode="&#xb5;" horiz-adv-x="576" 
d="M63 -133l7 23q1 4 3 13t4 19.5t4 20.5t3 18t1.5 16.5t1.5 26.5q1 17 1.5 32.5t0.5 21.5v389h82v-304q0 -20 4.5 -38t12.5 -28q9 -13 28 -22t36 -9q31 0 64.5 16.5t65.5 47.5v337h81v-294q0 -33 2 -52t5 -31q9 -30 31 -30q15 0 24 14t14 46h20q-4 -29 -8 -43.5t-12 -29.5
q-11 -20 -30.5 -31t-42.5 -11q-21 0 -39 9t-28 25q-8 12 -11.5 25t-5.5 39q-23 -26 -41 -41t-40 -29q-23 -14 -47 -21.5t-43 -7.5q-24 0 -43.5 8t-40.5 26v-22q0 -29 2.5 -51.5t9.5 -49.5q3 -13 5 -21t2.5 -13.5t1 -9.5t0.5 -9q0 -26 -12 -42t-32 -16q-19 0 -31.5 17
t-12.5 43z" />
    <glyph glyph-name="paragraph" unicode="&#xb6;" horiz-adv-x="672" 
d="M425 0q-6 0 -10.5 4.5t-4.5 10.5v94q-32 -6 -72 -6q-59 0 -112.5 17t-95.5 52v392q51 45 123 65.5t150 20.5h194q6 0 10.5 -4.5t4.5 -10.5v-620q0 -6 -4.5 -10.5t-10.5 -4.5h-15q-6 0 -10.5 4.5t-4.5 10.5v595h-112v-595q0 -6 -4.5 -10.5t-10.5 -4.5h-15zM102 200
q-27 31 -42.5 72t-15.5 92q0 54 15.5 96.5t42.5 75.5v-336z" />
    <glyph glyph-name="periodcentered" unicode="&#xb7;" horiz-adv-x="380" 
d="M124 423q31 11 66 11q30 0 57 -7.5t47 -22.5t31.5 -36.5t11.5 -48.5t-11.5 -48.5t-31.5 -36.5t-47 -22.5t-57 -7.5q-35 0 -66 11v208zM96 228q-24 14 -38.5 37t-14.5 54t14.5 54t38.5 37v-182z" />
    <glyph glyph-name="cedilla" unicode="&#xb8;" horiz-adv-x="400" 
d="M166 0h36v-43q78 0 113.5 -20t35.5 -57t-35.5 -58.5t-113.5 -21.5q-37 0 -69 10.5t-60 26.5q-8 4 -8 11q0 3 2 7.5t5 9t6.5 8t5.5 3.5q7 0 12 -3q26 -14 50.5 -22.5t53.5 -8.5q17 0 23 10.5t6 27.5t-7 27t-33 10q-8 0 -15.5 5.5t-7.5 13.5v64z" />
    <glyph glyph-name="uni00B9" unicode="&#xb9;" horiz-adv-x="348" 
d="M135 771q29 6 55 12t49 11q6 2 12 3t11 1q8 0 11.5 -4t3.5 -9q0 -9 -1 -25.5t-1 -34.5v-250l1 -39q0 -8 -10 -8h-131v343zM89 428q-10 0 -10 8l2 39v254q-10 -2 -17.5 -4t-16.5 -5q-8 -3 -14.5 -5t-12.5 -2q-7 0 -11.5 5.5t-4.5 10.5q0 16 18 21q23 4 46.5 8t47.5 9v-339
h-27z" />
    <glyph glyph-name="ordmasculine" unicode="&#xba;" horiz-adv-x="376" 
d="M348 513q0 -33 -12.5 -62t-34.5 -51t-51 -34.5t-62 -12.5t-62 12.5t-51 34.5t-34.5 51t-12.5 62t12.5 62t34.5 51t51 34.5t62 12.5t62 -12.5t51 -34.5t34.5 -51t12.5 -62zM188 386q25 0 47.5 9.5t39.5 27t26.5 40.5t9.5 50t-9.5 50.5t-26.5 40.5t-39.5 27t-47.5 10
q-5 0 -8 -1v-254h8z" />
    <glyph glyph-name="guillemotright" unicode="&#xbb;" horiz-adv-x="534" 
d="M358 401l101 -76q25 -19 36 -34.5t11 -33.5t-11 -33.5t-36 -34.5l-101 -76v288zM273 402q-4 7 -7.5 14.5t-3.5 14.5q0 8 6.5 13t13.5 5q9 0 16 -3.5t12 -8.5l20 -15v-122zM124 401l101 -76q25 -19 36 -34.5t11 -33.5t-11 -33.5t-36 -34.5l-101 -76v288zM39 402
q-4 7 -7.5 14.5t-3.5 14.5q0 8 6.5 13t13.5 5q9 0 16 -3.5t12 -8.5l20 -15v-122zM310 77q-5 -5 -12 -8.5t-16 -3.5q-7 0 -13.5 5t-6.5 13q0 7 3.5 14.5t7.5 14.5l57 102v-122zM76 77q-5 -5 -12 -8.5t-16 -3.5q-7 0 -13.5 5t-6.5 13q0 7 3.5 14.5t7.5 14.5l57 102v-122z" />
    <glyph glyph-name="onequarter" unicode="&#xbc;" horiz-adv-x="740" 
d="M550 272l86 90q4 3 6.5 5.5t7.5 2.5t8.5 -4t3.5 -9q0 -10 -1 -26.5t-1 -33.5v-197h31q4 0 8.5 0.5t10.5 0.5q7 0 10.5 -4.5t3.5 -9.5t-4.5 -10t-9.5 -5q-6 0 -10.5 0.5t-8.5 0.5h-31v-26l1 -39q0 -8 -8 -8h-103v272zM512 0q-8 0 -8 8l1 39v26h-114q-5 0 -9 3.5t-4 8.5
q0 8 3.5 12.5t10.5 12.5l142 146v-256h-22zM505 100v92l-88 -92h88zM612 632q10 12 15 17.5t13 5.5q6 0 15 -7t9 -14t-4 -12l-12 -15l-474 -589q-10 -12 -15 -17.5t-13 -5.5q-6 0 -15 7t-9 14t4 12l12 15zM135 644q29 6 55 12t49 11q6 2 12 3t11 1q8 0 11.5 -4t3.5 -9
q0 -9 -1 -25.5t-1 -34.5v-250l1 -39q0 -8 -10 -8h-131v343zM89 301q-10 0 -10 8l2 39v254q-10 -2 -17.5 -4t-16.5 -5q-8 -3 -14.5 -5t-12.5 -2q-7 0 -11.5 5.5t-4.5 10.5q0 16 18 21q23 4 46.5 8t47.5 9v-339h-27z" />
    <glyph glyph-name="onehalf" unicode="&#xbd;" horiz-adv-x="824" 
d="M592 632q10 12 15 17.5t13 5.5q6 0 15 -7t9 -14t-4 -12l-12 -15l-474 -589q-10 -12 -15 -17.5t-13 -5.5q-6 0 -15 7t-9 14t4 12l12 15zM473 -1q16 19 38 48t45.5 62t47 67t42 64.5t30 54.5t11.5 36q0 20 -13 32q51 -10 76 -35t25 -63q0 -15 -3.5 -32.5t-17.5 -43.5
t-42 -63.5t-76 -94.5h35q14 0 30.5 1t29.5 4q18 5 26 5q9 0 15.5 -5t6.5 -16q0 -23 -22 -23q-11 0 -25.5 1t-25.5 1h-233zM435 -1q-4 0 -7.5 2t-3.5 8q0 5 2.5 8.5t5.5 7.5q17 20 39 48t44.5 58.5t44 61.5t38 57.5t26.5 46.5t10 29q0 6 -5.5 11.5t-31.5 5.5q-56 0 -92.5 -25
t-36.5 -69q0 -14 10 -24t10 -19q0 -7 -6 -10t-13 -3q-14 0 -24 19.5t-10 40.5q0 25 12.5 46t35 37t53 25t67.5 9q41 0 54.5 -11.5t13.5 -27.5q0 -11 -11.5 -33.5t-30 -52.5t-42 -64t-47.5 -67.5t-47.5 -63.5t-40.5 -51h-17zM135 644q29 6 55 12t49 11q6 2 12 3t11 1
q8 0 11.5 -4t3.5 -9q0 -9 -1 -25.5t-1 -34.5v-250l1 -39q0 -8 -10 -8h-131v343zM89 301q-10 0 -10 8l2 39v254q-10 -2 -17.5 -4t-16.5 -5q-8 -3 -14.5 -5t-12.5 -2q-7 0 -11.5 5.5t-4.5 10.5q0 16 18 21q23 4 46.5 8t47.5 9v-339h-27z" />
    <glyph glyph-name="threequarters" unicode="&#xbe;" horiz-adv-x="797" 
d="M699 632q10 12 15 17.5t13 5.5q6 0 15 -7t9 -14t-4 -12l-12 -15l-474 -589q-10 -12 -15 -17.5t-13 -5.5q-6 0 -15 7t-9 14t4 12l12 15zM606 272l86 90q4 3 6.5 5.5t7.5 2.5t8.5 -4t3.5 -9q0 -10 -1 -26.5t-1 -33.5v-197h31q4 0 8.5 0.5t10.5 0.5q7 0 10.5 -4.5t3.5 -9.5
t-4.5 -10t-9.5 -5q-6 0 -10.5 0.5t-8.5 0.5h-31v-26l1 -39q0 -8 -8 -8h-103v272zM568 0q-8 0 -8 8l1 39v26h-114q-5 0 -9 3.5t-4 8.5q0 8 3.5 12.5t10.5 12.5l142 146v-256h-22zM561 100v92l-88 -92h88zM230 670q66 -7 93 -32.5t27 -57.5q0 -18 -7.5 -31.5t-20 -23.5
t-28.5 -15.5t-34 -7.5q-7 0 -7 -5q0 -3 7 -5q21 -2 40.5 -8.5t34.5 -17.5t24.5 -26.5t9.5 -35.5q0 -45 -35 -74.5t-104 -37.5v378zM182 475q0 5 -6 5h-30q-14 0 -19 5t-5 12t5 12t19 5h30q6 0 6 6v124h-7q-35 0 -58.5 -9t-35.5 -25q-8 -13 -19 -13q-7 0 -10.5 4.5t-3.5 9.5
t5.5 14t16.5 17q20 13 49.5 21.5t64.5 8.5h15t14 -1v-381q-8 0 -16.5 -0.5t-17.5 -0.5q-18 0 -37.5 3t-38.5 8.5t-36 13.5t-30 19q-11 9 -16 18.5t-5 14.5t3 10.5t9 5.5q8 0 12.5 -3.5t8.5 -9.5q10 -17 40.5 -35t84.5 -18q6 0 8 1v158z" />
    <glyph glyph-name="questiondown" unicode="&#xbf;" horiz-adv-x="537" 
d="M267 671q8 1 14.5 1.5t14.5 0.5q30 0 57 -7.5t47 -22.5t31.5 -36.5t11.5 -48.5t-11.5 -48.5t-31.5 -36.5t-47 -22.5t-57 -7.5q-8 0 -15 0.5t-14 1.5v226zM239 451q-40 11 -65 38t-25 69t25 69t65 38v-214zM267 375q0 16 5 22t18 6t17.5 -6t4.5 -22v-346q4 -1 10 -1
q30 0 55.5 9.5t44.5 23.5t30 31t11 32t-6 24.5t-6 21.5q0 14 8 23t22 9q12 0 22 -9t10 -33q0 -33 -15 -64t-45.5 -55.5t-75.5 -39.5t-105 -15h-5v389zM239 -13q-101 8 -153.5 56.5t-52.5 125.5q0 44 15 77.5t42 57.5t65 39t84 21v-377z" />
    <glyph glyph-name="Agrave" unicode="&#xc0;" 
d="M269 474l66 114q7 12 12.5 24.5t12.5 23t15.5 17.5t21.5 7q11 0 18 -5.5t12 -13.5t9.5 -18.5t9.5 -19.5l266 -467q14 -25 26.5 -44t22.5 -33q11 -15 15 -23.5t4 -15.5q0 -8 -8 -14t-17 -6h-218zM485 0q-14 0 -27 7t-24 27l-34 60h-300l-17 -29q-3 -5 -5.5 -15t-3.5 -17
q-2 -16 -8.5 -27t-23.5 -11q-12 0 -20.5 7t-8.5 20q0 16 11 33q5 7 9.5 15t9.5 16l209 360l253 -446h-20zM377 134l-125 222l-129 -222h254zM324 781q-30 14 -43.5 30t-13.5 36t14 34.5t38 14.5q17 0 31.5 -8.5t31.5 -27.5l102 -111q4 -4 7.5 -9.5t3.5 -12.5q0 -5 -5 -10
t-12 -5q-6 0 -12.5 2.5t-13.5 5.5z" />
    <glyph glyph-name="Aacute" unicode="&#xc1;" 
d="M269 474l66 114q7 12 12.5 24.5t12.5 23t15.5 17.5t21.5 7q11 0 18 -5.5t12 -13.5t9.5 -18.5t9.5 -19.5l266 -467q14 -25 26.5 -44t22.5 -33q11 -15 15 -23.5t4 -15.5q0 -8 -8 -14t-17 -6h-218zM485 0q-14 0 -27 7t-24 27l-34 60h-300l-17 -29q-3 -5 -5.5 -15t-3.5 -17
q-2 -16 -8.5 -27t-23.5 -11q-12 0 -20.5 7t-8.5 20q0 16 11 33q5 7 9.5 15t9.5 16l209 360l253 -446h-20zM377 134l-125 222l-129 -222h254zM408 860q17 19 31.5 27.5t31.5 8.5q24 0 38 -14.5t14 -34.5t-13.5 -36t-43.5 -30l-128 -61q-7 -3 -13.5 -5.5t-12.5 -2.5
q-7 0 -12 5t-5 10q0 7 3.5 12.5t7.5 9.5z" />
    <glyph glyph-name="Acircumflex" unicode="&#xc2;" 
d="M269 474l66 114q7 12 12.5 24.5t12.5 23t15.5 17.5t21.5 7q11 0 18 -5.5t12 -13.5t9.5 -18.5t9.5 -19.5l266 -467q14 -25 26.5 -44t22.5 -33q11 -15 15 -23.5t4 -15.5q0 -8 -8 -14t-17 -6h-218zM485 0q-14 0 -27 7t-24 27l-34 60h-300l-17 -29q-3 -5 -5.5 -15t-3.5 -17
q-2 -16 -8.5 -27t-23.5 -11q-12 0 -20.5 7t-8.5 20q0 16 11 33q5 7 9.5 15t9.5 16l209 360l253 -446h-20zM377 134l-125 222l-129 -222h254zM395 781l-132 -61q-6 -3 -13 -5.5t-13 -2.5q-7 0 -12 5t-5 10q0 7 3.5 12.5t7.5 9.5l102 111q17 19 31 27.5t31 8.5t31 -8.5
t31 -27.5l102 -111q4 -4 7.5 -9.5t3.5 -12.5q0 -5 -5 -10t-12 -5q-6 0 -13 2.5t-13 5.5z" />
    <glyph glyph-name="Atilde" unicode="&#xc3;" 
d="M269 474l66 114q7 12 12.5 24.5t12.5 23t15.5 17.5t21.5 7q11 0 18 -5.5t12 -13.5t9.5 -18.5t9.5 -19.5l266 -467q14 -25 26.5 -44t22.5 -33q11 -15 15 -23.5t4 -15.5q0 -8 -8 -14t-17 -6h-218zM485 0q-14 0 -27 7t-24 27l-34 60h-300l-17 -29q-3 -5 -5.5 -15t-3.5 -17
q-2 -16 -8.5 -27t-23.5 -11q-12 0 -20.5 7t-8.5 20q0 16 11 33q5 7 9.5 15t9.5 16l209 360l253 -446h-20zM377 134l-125 222l-129 -222h254zM478 799q17 0 25 9t8 19q0 7 4.5 12t13.5 5t13.5 -5t4.5 -13q0 -18 -4 -38.5t-14.5 -37t-28.5 -27.5t-46 -11q-23 0 -41.5 7
t-35.5 15.5t-33 15.5t-32 7q-17 0 -25 -9t-8 -19q0 -7 -4.5 -12t-13.5 -5t-13.5 5t-4.5 13q0 18 4 38.5t14.5 37t28.5 27.5t46 11q22 0 41 -7t36 -15.5t33 -15.5t32 -7z" />
    <glyph glyph-name="Adieresis" unicode="&#xc4;" 
d="M269 474l66 114q7 12 12.5 24.5t12.5 23t15.5 17.5t21.5 7q11 0 18 -5.5t12 -13.5t9.5 -18.5t9.5 -19.5l266 -467q14 -25 26.5 -44t22.5 -33q11 -15 15 -23.5t4 -15.5q0 -8 -8 -14t-17 -6h-218zM485 0q-14 0 -27 7t-24 27l-34 60h-300l-17 -29q-3 -5 -5.5 -15t-3.5 -17
q-2 -16 -8.5 -27t-23.5 -11q-12 0 -20.5 7t-8.5 20q0 16 11 33q5 7 9.5 15t9.5 16l209 360l253 -446h-20zM377 134l-125 222l-129 -222h254zM577 771q0 -29 -21.5 -44t-52.5 -15q-30 0 -51.5 15t-21.5 44q0 26 21.5 41t51.5 15q31 0 52.5 -15t21.5 -41zM360 771
q0 -29 -21.5 -44t-52.5 -15q-30 0 -51.5 15t-21.5 44q0 26 21.5 41t51.5 15q31 0 52.5 -15t21.5 -41z" />
    <glyph glyph-name="Aring" unicode="&#xc5;" 
d="M269 474l66 114q7 12 12.5 24.5t12.5 23t15.5 17.5t21.5 7q11 0 18 -5.5t12 -13.5t9.5 -18.5t9.5 -19.5l266 -467q14 -25 26.5 -44t22.5 -33q11 -15 15 -23.5t4 -15.5q0 -8 -8 -14t-17 -6h-218zM485 0q-14 0 -27 7t-24 27l-34 60h-300l-17 -29q-3 -5 -5.5 -15t-3.5 -17
q-2 -16 -8.5 -27t-23.5 -11q-12 0 -20.5 7t-8.5 20q0 16 11 33q5 7 9.5 15t9.5 16l209 360l253 -446h-20zM377 134l-125 222l-129 -222h254zM489 807q0 -20 -7.5 -37t-20.5 -30t-30.5 -20.5t-36.5 -7.5q-20 0 -37 7.5t-30 20.5t-20.5 30t-7.5 37q0 19 7.5 36.5t20.5 30.5
t30 20.5t37 7.5q19 0 36.5 -7.5t30.5 -20.5t20.5 -30.5t7.5 -36.5zM449 807q0 23 -16 39t-39 16t-39 -16t-16 -39t16 -39t39 -16t39 16t16 39z" />
    <glyph glyph-name="AE" unicode="&#xc6;" horiz-adv-x="1021" 
d="M454 650h423q8 0 17 1t19 1q11 0 18.5 -7t7.5 -15q0 -10 -7.5 -16t-18.5 -6q-10 0 -19 1t-17 1h-198v-138h215q8 0 17 1t19 1q11 0 18.5 -7t7.5 -15q0 -10 -7.5 -16t-18.5 -6q-10 0 -19 1t-17 1h-215v-392h242q8 0 17 1t19 1q11 0 18.5 -7t7.5 -15q0 -10 -7.5 -16
t-18.5 -6q-10 0 -19 1t-17 1h-467v650zM394 0q-6 0 -10.5 4.5t-4.5 10.5l2 70v211h-164l-134 -231q-3 -5 -5.5 -15t-3.5 -17q-2 -16 -8.5 -27t-23.5 -11q-12 0 -20.5 7t-8.5 20q0 16 11 33q5 7 9.5 15t9.5 16l318 547q11 17 33 17h32v-650h-32zM381 336v243l-141 -243h141z
" />
    <glyph glyph-name="Ccedilla" unicode="&#xc7;" horiz-adv-x="756" 
d="M380 -23q-66 4 -128.5 32.5t-110.5 80.5v469q48 53 114 83.5t143 30.5q33 0 68 -7t69.5 -21.5t67 -37.5t59.5 -55q12 -14 20 -30.5t8 -26.5q0 -9 -5.5 -16.5t-17.5 -7.5q-10 0 -19.5 10.5t-17.5 26.5q-6 11 -19.5 29t-32.5 33q-32 25 -76 44t-104 19h-11t-11 -1v-614
q5 -1 11 -1h11q45 0 86.5 14t76 36.5t59.5 50.5t38 57q11 24 19 33.5t18 9.5q8 0 14.5 -5t6.5 -19q0 -11 -8 -28.5t-20 -34.5q-49 -70 -118 -109t-154 -45v-20q78 0 113.5 -20t35.5 -57t-35.5 -58.5t-113.5 -21.5q-37 0 -69 10.5t-60 26.5q-8 4 -8 11q0 3 2 7.5t5 9t6.5 8
t5.5 3.5q7 0 12 -3q26 -14 50.5 -22.5t53.5 -8.5q17 0 23 10.5t6 27.5t-7 27t-33 10q-8 0 -15.5 5.5t-7.5 13.5v41zM113 126q-30 42 -46.5 92.5t-16.5 106.5t16.5 106.5t46.5 92.5v-398z" />
    <glyph glyph-name="Egrave" unicode="&#xc8;" horiz-adv-x="715" 
d="M148 650h423q8 0 17 1t19 1q11 0 18.5 -7t7.5 -15q0 -10 -7.5 -16t-18.5 -6q-10 0 -19 1t-17 1h-198v-138h215q8 0 17 1t19 1q11 0 18.5 -7t7.5 -15q0 -10 -7.5 -16t-18.5 -6q-10 0 -19 1t-17 1h-215v-392h242q8 0 17 1t19 1q11 0 18.5 -7t7.5 -15q0 -10 -7.5 -16
t-18.5 -6q-10 0 -19 1t-17 1h-467v650zM88 0q-6 0 -10.5 4.5t-4.5 10.5l2 70v480l-2 70q0 6 4.5 10.5t10.5 4.5h32v-650h-32zM296 781q-30 14 -43.5 30t-13.5 36t14 34.5t38 14.5q17 0 31.5 -8.5t31.5 -27.5l102 -111q4 -4 7.5 -9.5t3.5 -12.5q0 -5 -5 -10t-12 -5
q-6 0 -12.5 2.5t-13.5 5.5z" />
    <glyph glyph-name="Eacute" unicode="&#xc9;" horiz-adv-x="715" 
d="M148 650h423q8 0 17 1t19 1q11 0 18.5 -7t7.5 -15q0 -10 -7.5 -16t-18.5 -6q-10 0 -19 1t-17 1h-198v-138h215q8 0 17 1t19 1q11 0 18.5 -7t7.5 -15q0 -10 -7.5 -16t-18.5 -6q-10 0 -19 1t-17 1h-215v-392h242q8 0 17 1t19 1q11 0 18.5 -7t7.5 -15q0 -10 -7.5 -16
t-18.5 -6q-10 0 -19 1t-17 1h-467v650zM88 0q-6 0 -10.5 4.5t-4.5 10.5l2 70v480l-2 70q0 6 4.5 10.5t10.5 4.5h32v-650h-32zM380 860q17 19 31.5 27.5t31.5 8.5q24 0 38 -14.5t14 -34.5t-13.5 -36t-43.5 -30l-128 -61q-7 -3 -13.5 -5.5t-12.5 -2.5q-7 0 -12 5t-5 10
q0 7 3.5 12.5t7.5 9.5z" />
    <glyph glyph-name="Ecircumflex" unicode="&#xca;" horiz-adv-x="715" 
d="M148 650h423q8 0 17 1t19 1q11 0 18.5 -7t7.5 -15q0 -10 -7.5 -16t-18.5 -6q-10 0 -19 1t-17 1h-198v-138h215q8 0 17 1t19 1q11 0 18.5 -7t7.5 -15q0 -10 -7.5 -16t-18.5 -6q-10 0 -19 1t-17 1h-215v-392h242q8 0 17 1t19 1q11 0 18.5 -7t7.5 -15q0 -10 -7.5 -16
t-18.5 -6q-10 0 -19 1t-17 1h-467v650zM88 0q-6 0 -10.5 4.5t-4.5 10.5l2 70v480l-2 70q0 6 4.5 10.5t10.5 4.5h32v-650h-32zM367 781l-132 -61q-6 -3 -13 -5.5t-13 -2.5q-7 0 -12 5t-5 10q0 7 3.5 12.5t7.5 9.5l102 111q17 19 31 27.5t31 8.5t31 -8.5t31 -27.5l102 -111
q4 -4 7.5 -9.5t3.5 -12.5q0 -5 -5 -10t-12 -5q-6 0 -13 2.5t-13 5.5z" />
    <glyph glyph-name="Edieresis" unicode="&#xcb;" horiz-adv-x="715" 
d="M148 650h423q8 0 17 1t19 1q11 0 18.5 -7t7.5 -15q0 -10 -7.5 -16t-18.5 -6q-10 0 -19 1t-17 1h-198v-138h215q8 0 17 1t19 1q11 0 18.5 -7t7.5 -15q0 -10 -7.5 -16t-18.5 -6q-10 0 -19 1t-17 1h-215v-392h242q8 0 17 1t19 1q11 0 18.5 -7t7.5 -15q0 -10 -7.5 -16
t-18.5 -6q-10 0 -19 1t-17 1h-467v650zM88 0q-6 0 -10.5 4.5t-4.5 10.5l2 70v480l-2 70q0 6 4.5 10.5t10.5 4.5h32v-650h-32zM549 771q0 -29 -21.5 -44t-52.5 -15q-30 0 -51.5 15t-21.5 44q0 26 21.5 41t51.5 15q31 0 52.5 -15t21.5 -41zM332 771q0 -29 -21.5 -44t-52.5 -15
q-30 0 -51.5 15t-21.5 44q0 26 21.5 41t51.5 15q31 0 52.5 -15t21.5 -41z" />
    <glyph glyph-name="Igrave" unicode="&#xcc;" horiz-adv-x="448" 
d="M148 650h212q6 0 10.5 -4.5t4.5 -10.5l-2 -70v-480l2 -70q0 -6 -4.5 -10.5t-10.5 -4.5h-212v650zM88 0q-6 0 -10.5 4.5t-4.5 10.5l2 70v480l-2 70q0 6 4.5 10.5t10.5 4.5h32v-650h-32zM153 781q-30 14 -43.5 30t-13.5 36t14 34.5t38 14.5q17 0 31.5 -8.5t31.5 -27.5
l102 -111q4 -4 7.5 -9.5t3.5 -12.5q0 -5 -5 -10t-12 -5q-6 0 -12.5 2.5t-13.5 5.5z" />
    <glyph glyph-name="Iacute" unicode="&#xcd;" horiz-adv-x="448" 
d="M148 650h212q6 0 10.5 -4.5t4.5 -10.5l-2 -70v-480l2 -70q0 -6 -4.5 -10.5t-10.5 -4.5h-212v650zM88 0q-6 0 -10.5 4.5t-4.5 10.5l2 70v480l-2 70q0 6 4.5 10.5t10.5 4.5h32v-650h-32zM237 860q17 19 31.5 27.5t31.5 8.5q24 0 38 -14.5t14 -34.5t-13.5 -36t-43.5 -30
l-128 -61q-7 -3 -13.5 -5.5t-12.5 -2.5q-7 0 -12 5t-5 10q0 7 3.5 12.5t7.5 9.5z" />
    <glyph glyph-name="Icircumflex" unicode="&#xce;" horiz-adv-x="448" 
d="M148 650h212q6 0 10.5 -4.5t4.5 -10.5l-2 -70v-480l2 -70q0 -6 -4.5 -10.5t-10.5 -4.5h-212v650zM88 0q-6 0 -10.5 4.5t-4.5 10.5l2 70v480l-2 70q0 6 4.5 10.5t10.5 4.5h32v-650h-32zM224 781l-132 -61q-6 -3 -13 -5.5t-13 -2.5q-7 0 -12 5t-5 10q0 7 3.5 12.5t7.5 9.5
l102 111q17 19 31 27.5t31 8.5t31 -8.5t31 -27.5l102 -111q4 -4 7.5 -9.5t3.5 -12.5q0 -5 -5 -10t-12 -5q-6 0 -13 2.5t-13 5.5z" />
    <glyph glyph-name="Idieresis" unicode="&#xcf;" horiz-adv-x="448" 
d="M148 650h212q6 0 10.5 -4.5t4.5 -10.5l-2 -70v-480l2 -70q0 -6 -4.5 -10.5t-10.5 -4.5h-212v650zM88 0q-6 0 -10.5 4.5t-4.5 10.5l2 70v480l-2 70q0 6 4.5 10.5t10.5 4.5h32v-650h-32zM406 771q0 -29 -21.5 -44t-52.5 -15q-30 0 -51.5 15t-21.5 44q0 26 21.5 41t51.5 15
q31 0 52.5 -15t21.5 -41zM189 771q0 -29 -21.5 -44t-52.5 -15q-30 0 -51.5 15t-21.5 44q0 26 21.5 41t51.5 15q31 0 52.5 -15t21.5 -41z" />
    <glyph glyph-name="Eth" unicode="&#xd0;" horiz-adv-x="773" 
d="M148 650h237q72 0 134 -24t107 -66.5t71 -102.5t26 -132t-26 -132t-71 -102.5t-107 -66.5t-134 -24h-237v650zM88 0q-6 0 -10.5 4.5t-4.5 10.5l2 70v229h-50q-10 0 -15 6t-5 14t5 14t15 6h50v211l-2 70q0 6 4.5 10.5t10.5 4.5h32v-650h-32zM373 41q2 -1 5.5 -1h6.5
q63 0 116.5 21.5t92.5 60t61.5 90.5t22.5 113t-22.5 113t-61.5 90t-92.5 60t-116.5 22q-9 0 -12 -1v-255h110q10 0 15 -6t5 -14t-5 -14t-15 -6h-110v-273z" />
    <glyph glyph-name="Ntilde" unicode="&#xd1;" 
d="M75 419v146l-2 70q0 6 4.5 10.5t10.5 4.5q8 0 15.5 -2.5t15.5 -7.5l552 -301v254q0 8 -1 17.5t-1 19.5q0 11 6.5 18t17.5 7t18 -7t7 -18q0 -10 -1 -19.5t-1 -17.5v-524zM120 311v-254q0 -8 1 -17.5t1 -19.5q0 -11 -7 -18t-18 -7t-17.5 7t-6.5 18q0 10 1 19.5t1 17.5v330
l642 -351l1 -21q0 -6 -4.5 -10.5t-10.5 -4.5q-8 0 -15.5 2.5t-15.5 7.5zM478 799q17 0 25 9t8 19q0 7 4.5 12t13.5 5t13.5 -5t4.5 -13q0 -18 -4 -38.5t-14.5 -37t-28.5 -27.5t-46 -11q-23 0 -41.5 7t-35.5 15.5t-33 15.5t-32 7q-17 0 -25 -9t-8 -19q0 -7 -4.5 -12t-13.5 -5
t-13.5 5t-4.5 13q0 18 4 38.5t14.5 37t28.5 27.5t46 11q22 0 41 -7t36 -15.5t33 -15.5t32 -7z" />
    <glyph glyph-name="Ograve" unicode="&#xd2;" horiz-adv-x="796" 
d="M141 559q48 53 114 83.5t143 30.5q72 0 135.5 -27.5t110.5 -74.5t74.5 -110.5t27.5 -135.5t-27.5 -135.5t-74.5 -110.5t-110.5 -74.5t-135.5 -27.5q-77 0 -143 30.5t-114 82.5v469zM113 125q-29 43 -46 93.5t-17 106.5t16.5 106.5t46.5 93.5v-400zM376 18q5 -1 11 -1h11
q63 0 118 24.5t96 66.5t65 98t24 119t-24 119t-65 98t-96 66.5t-118 24.5h-11t-11 -1v-614zM331 781q-30 14 -43.5 30t-13.5 36t14 34.5t38 14.5q17 0 31.5 -8.5t31.5 -27.5l102 -111q4 -4 7.5 -9.5t3.5 -12.5q0 -5 -5 -10t-12 -5q-6 0 -12.5 2.5t-13.5 5.5z" />
    <glyph glyph-name="Oacute" unicode="&#xd3;" horiz-adv-x="796" 
d="M141 559q48 53 114 83.5t143 30.5q72 0 135.5 -27.5t110.5 -74.5t74.5 -110.5t27.5 -135.5t-27.5 -135.5t-74.5 -110.5t-110.5 -74.5t-135.5 -27.5q-77 0 -143 30.5t-114 82.5v469zM113 125q-29 43 -46 93.5t-17 106.5t16.5 106.5t46.5 93.5v-400zM376 18q5 -1 11 -1h11
q63 0 118 24.5t96 66.5t65 98t24 119t-24 119t-65 98t-96 66.5t-118 24.5h-11t-11 -1v-614zM415 860q17 19 31.5 27.5t31.5 8.5q24 0 38 -14.5t14 -34.5t-13.5 -36t-43.5 -30l-128 -61q-7 -3 -13.5 -5.5t-12.5 -2.5q-7 0 -12 5t-5 10q0 7 3.5 12.5t7.5 9.5z" />
    <glyph glyph-name="Ocircumflex" unicode="&#xd4;" horiz-adv-x="796" 
d="M141 559q48 53 114 83.5t143 30.5q72 0 135.5 -27.5t110.5 -74.5t74.5 -110.5t27.5 -135.5t-27.5 -135.5t-74.5 -110.5t-110.5 -74.5t-135.5 -27.5q-77 0 -143 30.5t-114 82.5v469zM113 125q-29 43 -46 93.5t-17 106.5t16.5 106.5t46.5 93.5v-400zM376 18q5 -1 11 -1h11
q63 0 118 24.5t96 66.5t65 98t24 119t-24 119t-65 98t-96 66.5t-118 24.5h-11t-11 -1v-614zM402 781l-132 -61q-6 -3 -13 -5.5t-13 -2.5q-7 0 -12 5t-5 10q0 7 3.5 12.5t7.5 9.5l102 111q17 19 31 27.5t31 8.5t31 -8.5t31 -27.5l102 -111q4 -4 7.5 -9.5t3.5 -12.5
q0 -5 -5 -10t-12 -5q-6 0 -13 2.5t-13 5.5z" />
    <glyph glyph-name="Otilde" unicode="&#xd5;" horiz-adv-x="796" 
d="M141 559q48 53 114 83.5t143 30.5q72 0 135.5 -27.5t110.5 -74.5t74.5 -110.5t27.5 -135.5t-27.5 -135.5t-74.5 -110.5t-110.5 -74.5t-135.5 -27.5q-77 0 -143 30.5t-114 82.5v469zM113 125q-29 43 -46 93.5t-17 106.5t16.5 106.5t46.5 93.5v-400zM376 18q5 -1 11 -1h11
q63 0 118 24.5t96 66.5t65 98t24 119t-24 119t-65 98t-96 66.5t-118 24.5h-11t-11 -1v-614zM485 799q17 0 25 9t8 19q0 7 4.5 12t13.5 5t13.5 -5t4.5 -13q0 -18 -4 -38.5t-14.5 -37t-28.5 -27.5t-46 -11q-23 0 -41.5 7t-35.5 15.5t-33 15.5t-32 7q-17 0 -25 -9t-8 -19
q0 -7 -4.5 -12t-13.5 -5t-13.5 5t-4.5 13q0 18 4 38.5t14.5 37t28.5 27.5t46 11q22 0 41 -7t36 -15.5t33 -15.5t32 -7z" />
    <glyph glyph-name="Odieresis" unicode="&#xd6;" horiz-adv-x="796" 
d="M141 559q48 53 114 83.5t143 30.5q72 0 135.5 -27.5t110.5 -74.5t74.5 -110.5t27.5 -135.5t-27.5 -135.5t-74.5 -110.5t-110.5 -74.5t-135.5 -27.5q-77 0 -143 30.5t-114 82.5v469zM113 125q-29 43 -46 93.5t-17 106.5t16.5 106.5t46.5 93.5v-400zM376 18q5 -1 11 -1h11
q63 0 118 24.5t96 66.5t65 98t24 119t-24 119t-65 98t-96 66.5t-118 24.5h-11t-11 -1v-614zM584 771q0 -29 -21.5 -44t-52.5 -15q-30 0 -51.5 15t-21.5 44q0 26 21.5 41t51.5 15q31 0 52.5 -15t21.5 -41zM367 771q0 -29 -21.5 -44t-52.5 -15q-30 0 -51.5 15t-21.5 44
q0 26 21.5 41t51.5 15q31 0 52.5 -15t21.5 -41z" />
    <glyph glyph-name="multiply" unicode="&#xd7;" horiz-adv-x="500" 
d="M250 292l-149 -149q-5 -5 -10 -8t-10 -3q-8 0 -15 7t-7 15q0 5 3 10t8 10l149 149l-149 149q-11 11 -11 20q0 8 7 15t15 7q9 0 20 -11l149 -149l149 149q11 11 20 11q8 0 15 -7t7 -15q0 -9 -11 -20l-149 -149l149 -149q11 -11 11 -20q0 -8 -7 -15t-15 -7q-9 0 -20 11z
" />
    <glyph glyph-name="Oslash" unicode="&#xd8;" horiz-adv-x="796" 
d="M163 68q-12 10 -22 22v470q48 52 114 82.5t143 30.5q57 0 108 -17t93 -48l53 66q10 12 15 17.5t13 5.5q6 0 15 -7t9 -14t-4 -12l-12 -15l-55 -68q52 -48 82.5 -114t30.5 -142q0 -72 -27.5 -135.5t-74.5 -110.5t-110.5 -74.5t-135.5 -27.5q-57 0 -107.5 17t-93.5 47
l-52 -65q-10 -12 -15 -17.5t-13 -5.5q-6 0 -15 7t-9 14t4 12l12 15zM113 125q-30 43 -46.5 93.5t-16.5 106.5t16.5 106.5t46.5 93.5v-400zM573 575q-38 28 -82 43t-93 15h-11t-11 -1v-300zM376 18q5 -1 11 -1h11q63 0 118 24.5t96 66.5t65 98t24 119q0 65 -25 122.5
t-70 99.5l-230 -285v-244z" />
    <glyph glyph-name="Ugrave" unicode="&#xd9;" 
d="M148 650h212q6 0 10.5 -4.5t4.5 -10.5l-2 -70v-523q0 -13 5.5 -20t22.5 -7q81 0 133.5 19t82.5 55.5t42 91t12 125.5v287q0 8 -1 17.5t-1 19.5q0 11 6.5 18t17.5 7t18 -7t7 -18q0 -10 -1 -19.5t-1 -17.5v-287q0 -83 -16 -145.5t-53.5 -103.5t-99 -61.5t-152.5 -20.5
q-169 0 -247 69v606zM75 565l-2 70q0 6 4.5 10.5t10.5 4.5h32v-575q-45 63 -45 166v324zM324 781q-30 14 -43.5 30t-13.5 36t14 34.5t38 14.5q17 0 31.5 -8.5t31.5 -27.5l102 -111q4 -4 7.5 -9.5t3.5 -12.5q0 -5 -5 -10t-12 -5q-6 0 -12.5 2.5t-13.5 5.5z" />
    <glyph glyph-name="Uacute" unicode="&#xda;" 
d="M148 650h212q6 0 10.5 -4.5t4.5 -10.5l-2 -70v-523q0 -13 5.5 -20t22.5 -7q81 0 133.5 19t82.5 55.5t42 91t12 125.5v287q0 8 -1 17.5t-1 19.5q0 11 6.5 18t17.5 7t18 -7t7 -18q0 -10 -1 -19.5t-1 -17.5v-287q0 -83 -16 -145.5t-53.5 -103.5t-99 -61.5t-152.5 -20.5
q-169 0 -247 69v606zM75 565l-2 70q0 6 4.5 10.5t10.5 4.5h32v-575q-45 63 -45 166v324zM408 860q17 19 31.5 27.5t31.5 8.5q24 0 38 -14.5t14 -34.5t-13.5 -36t-43.5 -30l-128 -61q-7 -3 -13.5 -5.5t-12.5 -2.5q-7 0 -12 5t-5 10q0 7 3.5 12.5t7.5 9.5z" />
    <glyph glyph-name="Ucircumflex" unicode="&#xdb;" 
d="M148 650h212q6 0 10.5 -4.5t4.5 -10.5l-2 -70v-523q0 -13 5.5 -20t22.5 -7q81 0 133.5 19t82.5 55.5t42 91t12 125.5v287q0 8 -1 17.5t-1 19.5q0 11 6.5 18t17.5 7t18 -7t7 -18q0 -10 -1 -19.5t-1 -17.5v-287q0 -83 -16 -145.5t-53.5 -103.5t-99 -61.5t-152.5 -20.5
q-169 0 -247 69v606zM75 565l-2 70q0 6 4.5 10.5t10.5 4.5h32v-575q-45 63 -45 166v324zM395 781l-132 -61q-6 -3 -13 -5.5t-13 -2.5q-7 0 -12 5t-5 10q0 7 3.5 12.5t7.5 9.5l102 111q17 19 31 27.5t31 8.5t31 -8.5t31 -27.5l102 -111q4 -4 7.5 -9.5t3.5 -12.5q0 -5 -5 -10
t-12 -5q-6 0 -13 2.5t-13 5.5z" />
    <glyph glyph-name="Udieresis" unicode="&#xdc;" 
d="M148 650h212q6 0 10.5 -4.5t4.5 -10.5l-2 -70v-523q0 -13 5.5 -20t22.5 -7q81 0 133.5 19t82.5 55.5t42 91t12 125.5v287q0 8 -1 17.5t-1 19.5q0 11 6.5 18t17.5 7t18 -7t7 -18q0 -10 -1 -19.5t-1 -17.5v-287q0 -83 -16 -145.5t-53.5 -103.5t-99 -61.5t-152.5 -20.5
q-169 0 -247 69v606zM75 565l-2 70q0 6 4.5 10.5t10.5 4.5h32v-575q-45 63 -45 166v324zM577 771q0 -29 -21.5 -44t-52.5 -15q-30 0 -51.5 15t-21.5 44q0 26 21.5 41t51.5 15q31 0 52.5 -15t21.5 -41zM360 771q0 -29 -21.5 -44t-52.5 -15q-30 0 -51.5 15t-21.5 44
q0 26 21.5 41t51.5 15q31 0 52.5 -15t21.5 -41z" />
    <glyph glyph-name="Yacute" unicode="&#xdd;" horiz-adv-x="764" 
d="M105 650h222q26 0 39 -10.5t28 -29.5l150 -191l121 168q2 3 5.5 8.5t7 12t7 12.5t5.5 9q8 14 17.5 20t19.5 6t18.5 -6.5t8.5 -17.5q0 -18 -15 -31q-23 -20 -34 -34l-254 -355zM377 186l-239 303q-18 23 -43 51t-46 51q-12 14 -19 22t-7 18q0 19 28 19h18l365 -463
l-104 -144q-2 -3 -5.5 -8.5t-7.5 -12t-8 -12.5t-5 -9q-7 -14 -16.5 -20t-19.5 -6t-19 7.5t-9 15.5q0 10 4.5 18.5t12.5 14.5q11 9 19.5 17t13.5 16zM395 860q17 19 31.5 27.5t31.5 8.5q24 0 38 -14.5t14 -34.5t-13.5 -36t-43.5 -30l-128 -61q-7 -3 -13.5 -5.5t-12.5 -2.5
q-7 0 -12 5t-5 10q0 7 3.5 12.5t7.5 9.5z" />
    <glyph glyph-name="Thorn" unicode="&#xde;" horiz-adv-x="783" 
d="M148 650h212q6 0 10.5 -4.5t4.5 -10.5l-2 -72q16 3 38.5 4.5t43.5 1.5q72 0 125.5 -17.5t88.5 -49t52.5 -74t17.5 -93.5t-17.5 -93.5t-52.5 -74t-88.5 -49t-125.5 -17.5q-21 0 -43.5 1.5t-38.5 4.5l2 -92q0 -6 -4.5 -10.5t-10.5 -4.5h-212v650zM88 0q-6 0 -10.5 4.5
t-4.5 10.5l2 70v480l-2 70q0 6 4.5 10.5t10.5 4.5h32v-650h-32zM373 147q16 -3 38.5 -4.5t43.5 -1.5q61 0 106 14.5t74.5 40t44 61.5t14.5 78t-14.5 78t-44 61.5t-74.5 40t-106 14.5q-21 0 -43.5 -1.5t-38.5 -4.5v-376z" />
    <glyph glyph-name="germandbls" unicode="&#xdf;" horiz-adv-x="648" 
d="M133 578q40 35 97.5 53.5t129.5 18.5q57 0 104.5 -16t82 -45t54 -69t19.5 -87q0 -63 -23 -101t-57 -55q24 -18 39.5 -51t15.5 -75q0 -35 -12.5 -62.5t-35 -47.5t-52.5 -30.5t-66 -10.5q-20 0 -38 4.5t-31.5 11t-22 15t-8.5 17.5q0 8 5.5 13.5t10.5 5.5q9 0 16 -4t14 -9
q19 -14 56 -14q57 0 88 29.5t31 82.5q0 30 -12 60.5t-38 49.5q-8 -1 -18 -2t-24 -1q-25 0 -43.5 5.5t-31 13t-19 16t-6.5 14.5q0 19 16 19q11 0 16.5 -3t13.5 -10q10 -9 24 -12t31 -3q63 0 89.5 35.5t26.5 95.5q0 37 -16.5 70t-45 57.5t-66 38.5t-79.5 14q-32 0 -54.5 -23
t-22.5 -82v-490q0 -6 -4.5 -10.5t-10.5 -4.5h-143v578zM73 0q-6 0 -10.5 4.5t-4.5 10.5l2 70v325q0 82 45 139v-549h-32z" />
    <glyph glyph-name="agrave" unicode="&#xe0;" 
d="M269 474l66 114q7 12 12.5 24.5t12.5 23t15.5 17.5t21.5 7q11 0 18 -5.5t12 -13.5t9.5 -18.5t9.5 -19.5l266 -467q14 -25 26.5 -44t22.5 -33q11 -15 15 -23.5t4 -15.5q0 -8 -8 -14t-17 -6h-218zM485 0q-14 0 -27 7t-24 27l-34 60h-300l-17 -29q-3 -5 -5.5 -15t-3.5 -17
q-2 -16 -8.5 -27t-23.5 -11q-12 0 -20.5 7t-8.5 20q0 16 11 33q5 7 9.5 15t9.5 16l209 360l253 -446h-20zM377 134l-125 222l-129 -222h254zM324 781q-30 14 -43.5 30t-13.5 36t14 34.5t38 14.5q17 0 31.5 -8.5t31.5 -27.5l102 -111q4 -4 7.5 -9.5t3.5 -12.5q0 -5 -5 -10
t-12 -5q-6 0 -12.5 2.5t-13.5 5.5z" />
    <glyph glyph-name="aacute" unicode="&#xe1;" 
d="M269 474l66 114q7 12 12.5 24.5t12.5 23t15.5 17.5t21.5 7q11 0 18 -5.5t12 -13.5t9.5 -18.5t9.5 -19.5l266 -467q14 -25 26.5 -44t22.5 -33q11 -15 15 -23.5t4 -15.5q0 -8 -8 -14t-17 -6h-218zM485 0q-14 0 -27 7t-24 27l-34 60h-300l-17 -29q-3 -5 -5.5 -15t-3.5 -17
q-2 -16 -8.5 -27t-23.5 -11q-12 0 -20.5 7t-8.5 20q0 16 11 33q5 7 9.5 15t9.5 16l209 360l253 -446h-20zM377 134l-125 222l-129 -222h254zM408 860q17 19 31.5 27.5t31.5 8.5q24 0 38 -14.5t14 -34.5t-13.5 -36t-43.5 -30l-128 -61q-7 -3 -13.5 -5.5t-12.5 -2.5
q-7 0 -12 5t-5 10q0 7 3.5 12.5t7.5 9.5z" />
    <glyph glyph-name="acircumflex" unicode="&#xe2;" 
d="M269 474l66 114q7 12 12.5 24.5t12.5 23t15.5 17.5t21.5 7q11 0 18 -5.5t12 -13.5t9.5 -18.5t9.5 -19.5l266 -467q14 -25 26.5 -44t22.5 -33q11 -15 15 -23.5t4 -15.5q0 -8 -8 -14t-17 -6h-218zM485 0q-14 0 -27 7t-24 27l-34 60h-300l-17 -29q-3 -5 -5.5 -15t-3.5 -17
q-2 -16 -8.5 -27t-23.5 -11q-12 0 -20.5 7t-8.5 20q0 16 11 33q5 7 9.5 15t9.5 16l209 360l253 -446h-20zM377 134l-125 222l-129 -222h254zM395 781l-132 -61q-6 -3 -13 -5.5t-13 -2.5q-7 0 -12 5t-5 10q0 7 3.5 12.5t7.5 9.5l102 111q17 19 31 27.5t31 8.5t31 -8.5
t31 -27.5l102 -111q4 -4 7.5 -9.5t3.5 -12.5q0 -5 -5 -10t-12 -5q-6 0 -13 2.5t-13 5.5z" />
    <glyph glyph-name="atilde" unicode="&#xe3;" 
d="M269 474l66 114q7 12 12.5 24.5t12.5 23t15.5 17.5t21.5 7q11 0 18 -5.5t12 -13.5t9.5 -18.5t9.5 -19.5l266 -467q14 -25 26.5 -44t22.5 -33q11 -15 15 -23.5t4 -15.5q0 -8 -8 -14t-17 -6h-218zM485 0q-14 0 -27 7t-24 27l-34 60h-300l-17 -29q-3 -5 -5.5 -15t-3.5 -17
q-2 -16 -8.5 -27t-23.5 -11q-12 0 -20.5 7t-8.5 20q0 16 11 33q5 7 9.5 15t9.5 16l209 360l253 -446h-20zM377 134l-125 222l-129 -222h254zM478 799q17 0 25 9t8 19q0 7 4.5 12t13.5 5t13.5 -5t4.5 -13q0 -18 -4 -38.5t-14.5 -37t-28.5 -27.5t-46 -11q-23 0 -41.5 7
t-35.5 15.5t-33 15.5t-32 7q-17 0 -25 -9t-8 -19q0 -7 -4.5 -12t-13.5 -5t-13.5 5t-4.5 13q0 18 4 38.5t14.5 37t28.5 27.5t46 11q22 0 41 -7t36 -15.5t33 -15.5t32 -7z" />
    <glyph glyph-name="adieresis" unicode="&#xe4;" 
d="M269 474l66 114q7 12 12.5 24.5t12.5 23t15.5 17.5t21.5 7q11 0 18 -5.5t12 -13.5t9.5 -18.5t9.5 -19.5l266 -467q14 -25 26.5 -44t22.5 -33q11 -15 15 -23.5t4 -15.5q0 -8 -8 -14t-17 -6h-218zM485 0q-14 0 -27 7t-24 27l-34 60h-300l-17 -29q-3 -5 -5.5 -15t-3.5 -17
q-2 -16 -8.5 -27t-23.5 -11q-12 0 -20.5 7t-8.5 20q0 16 11 33q5 7 9.5 15t9.5 16l209 360l253 -446h-20zM377 134l-125 222l-129 -222h254zM577 771q0 -29 -21.5 -44t-52.5 -15q-30 0 -51.5 15t-21.5 44q0 26 21.5 41t51.5 15q31 0 52.5 -15t21.5 -41zM360 771
q0 -29 -21.5 -44t-52.5 -15q-30 0 -51.5 15t-21.5 44q0 26 21.5 41t51.5 15q31 0 52.5 -15t21.5 -41z" />
    <glyph glyph-name="aring" unicode="&#xe5;" 
d="M269 474l66 114q7 12 12.5 24.5t12.5 23t15.5 17.5t21.5 7q11 0 18 -5.5t12 -13.5t9.5 -18.5t9.5 -19.5l266 -467q14 -25 26.5 -44t22.5 -33q11 -15 15 -23.5t4 -15.5q0 -8 -8 -14t-17 -6h-218zM485 0q-14 0 -27 7t-24 27l-34 60h-300l-17 -29q-3 -5 -5.5 -15t-3.5 -17
q-2 -16 -8.5 -27t-23.5 -11q-12 0 -20.5 7t-8.5 20q0 16 11 33q5 7 9.5 15t9.5 16l209 360l253 -446h-20zM377 134l-125 222l-129 -222h254zM489 807q0 -20 -7.5 -37t-20.5 -30t-30.5 -20.5t-36.5 -7.5q-20 0 -37 7.5t-30 20.5t-20.5 30t-7.5 37q0 19 7.5 36.5t20.5 30.5
t30 20.5t37 7.5q19 0 36.5 -7.5t30.5 -20.5t20.5 -30.5t7.5 -36.5zM449 807q0 23 -16 39t-39 16t-39 -16t-16 -39t16 -39t39 -16t39 16t16 39z" />
    <glyph glyph-name="ae" unicode="&#xe6;" horiz-adv-x="1021" 
d="M454 650h423q8 0 17 1t19 1q11 0 18.5 -7t7.5 -15q0 -10 -7.5 -16t-18.5 -6q-10 0 -19 1t-17 1h-198v-138h215q8 0 17 1t19 1q11 0 18.5 -7t7.5 -15q0 -10 -7.5 -16t-18.5 -6q-10 0 -19 1t-17 1h-215v-392h242q8 0 17 1t19 1q11 0 18.5 -7t7.5 -15q0 -10 -7.5 -16
t-18.5 -6q-10 0 -19 1t-17 1h-467v650zM394 0q-6 0 -10.5 4.5t-4.5 10.5l2 70v211h-164l-134 -231q-3 -5 -5.5 -15t-3.5 -17q-2 -16 -8.5 -27t-23.5 -11q-12 0 -20.5 7t-8.5 20q0 16 11 33q5 7 9.5 15t9.5 16l318 547q11 17 33 17h32v-650h-32zM381 336v243l-141 -243h141z
" />
    <glyph glyph-name="ccedilla" unicode="&#xe7;" horiz-adv-x="756" 
d="M381 -23q-85 7 -140.5 37.5t-99.5 75.5v469q48 53 114 83.5t143 30.5q33 0 68 -7t69.5 -21.5t67 -37.5t59.5 -55q12 -14 20 -30.5t8 -26.5q0 -9 -5.5 -16.5t-17.5 -7.5q-10 0 -19.5 10.5t-17.5 26.5q-6 11 -19.5 29t-32.5 33q-32 25 -76 44t-104 19h-11t-11 -1v-614
q5 -1 11 -1h11q45 0 86.5 14t76 36.5t59.5 50.5t38 57q11 24 19 33.5t18 9.5q8 0 14.5 -5t6.5 -19q0 -11 -8 -28.5t-20 -34.5q-48 -69 -118.5 -109t-152.5 -45v-20q78 0 113.5 -20t35.5 -57t-35.5 -58.5t-113.5 -21.5q-37 0 -69 10.5t-60 26.5q-8 4 -8 11q0 3 2 7.5t5 9
t6.5 8t5.5 3.5q7 0 12 -3q26 -14 50.5 -22.5t53.5 -8.5q17 0 23 10.5t6 27.5t-7 27t-33 10q-8 0 -15.5 5.5t-7.5 13.5v41zM113 126q-30 42 -46.5 92.5t-16.5 106.5t16.5 106.5t46.5 92.5v-398z" />
    <glyph glyph-name="egrave" unicode="&#xe8;" horiz-adv-x="715" 
d="M148 650h423q8 0 17 1t19 1q11 0 18.5 -7t7.5 -15q0 -10 -7.5 -16t-18.5 -6q-10 0 -19 1t-17 1h-198v-138h215q8 0 17 1t19 1q11 0 18.5 -7t7.5 -15q0 -10 -7.5 -16t-18.5 -6q-10 0 -19 1t-17 1h-215v-392h242q8 0 17 1t19 1q11 0 18.5 -7t7.5 -15q0 -10 -7.5 -16
t-18.5 -6q-10 0 -19 1t-17 1h-467v650zM88 0q-6 0 -10.5 4.5t-4.5 10.5l2 70v480l-2 70q0 6 4.5 10.5t10.5 4.5h32v-650h-32zM296 781q-30 14 -43.5 30t-13.5 36t14 34.5t38 14.5q17 0 31.5 -8.5t31.5 -27.5l102 -111q4 -4 7.5 -9.5t3.5 -12.5q0 -5 -5 -10t-12 -5
q-6 0 -12.5 2.5t-13.5 5.5z" />
    <glyph glyph-name="eacute" unicode="&#xe9;" horiz-adv-x="715" 
d="M148 650h423q8 0 17 1t19 1q11 0 18.5 -7t7.5 -15q0 -10 -7.5 -16t-18.5 -6q-10 0 -19 1t-17 1h-198v-138h215q8 0 17 1t19 1q11 0 18.5 -7t7.5 -15q0 -10 -7.5 -16t-18.5 -6q-10 0 -19 1t-17 1h-215v-392h242q8 0 17 1t19 1q11 0 18.5 -7t7.5 -15q0 -10 -7.5 -16
t-18.5 -6q-10 0 -19 1t-17 1h-467v650zM88 0q-6 0 -10.5 4.5t-4.5 10.5l2 70v480l-2 70q0 6 4.5 10.5t10.5 4.5h32v-650h-32zM380 860q17 19 31.5 27.5t31.5 8.5q24 0 38 -14.5t14 -34.5t-13.5 -36t-43.5 -30l-128 -61q-7 -3 -13.5 -5.5t-12.5 -2.5q-7 0 -12 5t-5 10
q0 7 3.5 12.5t7.5 9.5z" />
    <glyph glyph-name="ecircumflex" unicode="&#xea;" horiz-adv-x="715" 
d="M148 650h423q8 0 17 1t19 1q11 0 18.5 -7t7.5 -15q0 -10 -7.5 -16t-18.5 -6q-10 0 -19 1t-17 1h-198v-138h215q8 0 17 1t19 1q11 0 18.5 -7t7.5 -15q0 -10 -7.5 -16t-18.5 -6q-10 0 -19 1t-17 1h-215v-392h242q8 0 17 1t19 1q11 0 18.5 -7t7.5 -15q0 -10 -7.5 -16
t-18.5 -6q-10 0 -19 1t-17 1h-467v650zM88 0q-6 0 -10.5 4.5t-4.5 10.5l2 70v480l-2 70q0 6 4.5 10.5t10.5 4.5h32v-650h-32zM367 781l-132 -61q-6 -3 -13 -5.5t-13 -2.5q-7 0 -12 5t-5 10q0 7 3.5 12.5t7.5 9.5l102 111q17 19 31 27.5t31 8.5t31 -8.5t31 -27.5l102 -111
q4 -4 7.5 -9.5t3.5 -12.5q0 -5 -5 -10t-12 -5q-6 0 -13 2.5t-13 5.5z" />
    <glyph glyph-name="edieresis" unicode="&#xeb;" horiz-adv-x="715" 
d="M148 650h423q8 0 17 1t19 1q11 0 18.5 -7t7.5 -15q0 -10 -7.5 -16t-18.5 -6q-10 0 -19 1t-17 1h-198v-138h215q8 0 17 1t19 1q11 0 18.5 -7t7.5 -15q0 -10 -7.5 -16t-18.5 -6q-10 0 -19 1t-17 1h-215v-392h242q8 0 17 1t19 1q11 0 18.5 -7t7.5 -15q0 -10 -7.5 -16
t-18.5 -6q-10 0 -19 1t-17 1h-467v650zM88 0q-6 0 -10.5 4.5t-4.5 10.5l2 70v480l-2 70q0 6 4.5 10.5t10.5 4.5h32v-650h-32zM549 771q0 -29 -21.5 -44t-52.5 -15q-30 0 -51.5 15t-21.5 44q0 26 21.5 41t51.5 15q31 0 52.5 -15t21.5 -41zM332 771q0 -29 -21.5 -44t-52.5 -15
q-30 0 -51.5 15t-21.5 44q0 26 21.5 41t51.5 15q31 0 52.5 -15t21.5 -41z" />
    <glyph glyph-name="igrave" unicode="&#xec;" horiz-adv-x="448" 
d="M148 650h212q6 0 10.5 -4.5t4.5 -10.5l-2 -70v-480l2 -70q0 -6 -4.5 -10.5t-10.5 -4.5h-212v650zM88 0q-6 0 -10.5 4.5t-4.5 10.5l2 70v480l-2 70q0 6 4.5 10.5t10.5 4.5h32v-650h-32zM153 781q-30 14 -43.5 30t-13.5 36t14 34.5t38 14.5q17 0 31.5 -8.5t31.5 -27.5
l102 -111q4 -4 7.5 -9.5t3.5 -12.5q0 -5 -5 -10t-12 -5q-6 0 -12.5 2.5t-13.5 5.5z" />
    <glyph glyph-name="iacute" unicode="&#xed;" horiz-adv-x="448" 
d="M148 650h212q6 0 10.5 -4.5t4.5 -10.5l-2 -70v-480l2 -70q0 -6 -4.5 -10.5t-10.5 -4.5h-212v650zM88 0q-6 0 -10.5 4.5t-4.5 10.5l2 70v480l-2 70q0 6 4.5 10.5t10.5 4.5h32v-650h-32zM237 860q17 19 31.5 27.5t31.5 8.5q24 0 38 -14.5t14 -34.5t-13.5 -36t-43.5 -30
l-128 -61q-7 -3 -13.5 -5.5t-12.5 -2.5q-7 0 -12 5t-5 10q0 7 3.5 12.5t7.5 9.5z" />
    <glyph glyph-name="icircumflex" unicode="&#xee;" horiz-adv-x="448" 
d="M148 650h212q6 0 10.5 -4.5t4.5 -10.5l-2 -70v-480l2 -70q0 -6 -4.5 -10.5t-10.5 -4.5h-212v650zM88 0q-6 0 -10.5 4.5t-4.5 10.5l2 70v480l-2 70q0 6 4.5 10.5t10.5 4.5h32v-650h-32zM224 781l-132 -61q-6 -3 -13 -5.5t-13 -2.5q-7 0 -12 5t-5 10q0 7 3.5 12.5t7.5 9.5
l102 111q17 19 31 27.5t31 8.5t31 -8.5t31 -27.5l102 -111q4 -4 7.5 -9.5t3.5 -12.5q0 -5 -5 -10t-12 -5q-6 0 -13 2.5t-13 5.5z" />
    <glyph glyph-name="idieresis" unicode="&#xef;" horiz-adv-x="448" 
d="M148 650h212q6 0 10.5 -4.5t4.5 -10.5l-2 -70v-480l2 -70q0 -6 -4.5 -10.5t-10.5 -4.5h-212v650zM88 0q-6 0 -10.5 4.5t-4.5 10.5l2 70v480l-2 70q0 6 4.5 10.5t10.5 4.5h32v-650h-32zM406 771q0 -29 -21.5 -44t-52.5 -15q-30 0 -51.5 15t-21.5 44q0 26 21.5 41t51.5 15
q31 0 52.5 -15t21.5 -41zM189 771q0 -29 -21.5 -44t-52.5 -15q-30 0 -51.5 15t-21.5 44q0 26 21.5 41t51.5 15q31 0 52.5 -15t21.5 -41z" />
    <glyph glyph-name="eth" unicode="&#xf0;" horiz-adv-x="773" 
d="M148 650h237q72 0 134 -24t107 -66.5t71 -102.5t26 -132t-26 -132t-71 -102.5t-107 -66.5t-134 -24h-237v650zM88 0q-6 0 -10.5 4.5t-4.5 10.5l2 70v229h-50q-10 0 -15 6t-5 14t5 14t15 6h50v211l-2 70q0 6 4.5 10.5t10.5 4.5h32v-650h-32zM373 41q2 -1 5.5 -1h6.5
q63 0 116.5 21.5t92.5 60t61.5 90.5t22.5 113t-22.5 113t-61.5 90t-92.5 60t-116.5 22q-9 0 -12 -1v-255h110q10 0 15 -6t5 -14t-5 -14t-15 -6h-110v-273z" />
    <glyph glyph-name="ntilde" unicode="&#xf1;" 
d="M75 419v146l-2 70q0 6 4.5 10.5t10.5 4.5q8 0 15.5 -2.5t15.5 -7.5l552 -301v254q0 8 -1 17.5t-1 19.5q0 11 6.5 18t17.5 7t18 -7t7 -18q0 -10 -1 -19.5t-1 -17.5v-524zM120 311v-254q0 -8 1 -17.5t1 -19.5q0 -11 -7 -18t-18 -7t-17.5 7t-6.5 18q0 10 1 19.5t1 17.5v330
l642 -351l1 -21q0 -6 -4.5 -10.5t-10.5 -4.5q-8 0 -15.5 2.5t-15.5 7.5zM478 799q17 0 25 9t8 19q0 7 4.5 12t13.5 5t13.5 -5t4.5 -13q0 -18 -4 -38.5t-14.5 -37t-28.5 -27.5t-46 -11q-23 0 -41.5 7t-35.5 15.5t-33 15.5t-32 7q-17 0 -25 -9t-8 -19q0 -7 -4.5 -12t-13.5 -5
t-13.5 5t-4.5 13q0 18 4 38.5t14.5 37t28.5 27.5t46 11q22 0 41 -7t36 -15.5t33 -15.5t32 -7z" />
    <glyph glyph-name="ograve" unicode="&#xf2;" horiz-adv-x="796" 
d="M141 559q48 53 114 83.5t143 30.5q72 0 135.5 -27.5t110.5 -74.5t74.5 -110.5t27.5 -135.5t-27.5 -135.5t-74.5 -110.5t-110.5 -74.5t-135.5 -27.5q-77 0 -143 30.5t-114 82.5v469zM113 125q-29 43 -46 93.5t-17 106.5t16.5 106.5t46.5 93.5v-400zM376 18q5 -1 11 -1h11
q63 0 118 24.5t96 66.5t65 98t24 119t-24 119t-65 98t-96 66.5t-118 24.5h-11t-11 -1v-614zM331 781q-30 14 -43.5 30t-13.5 36t14 34.5t38 14.5q17 0 31.5 -8.5t31.5 -27.5l102 -111q4 -4 7.5 -9.5t3.5 -12.5q0 -5 -5 -10t-12 -5q-6 0 -12.5 2.5t-13.5 5.5z" />
    <glyph glyph-name="oacute" unicode="&#xf3;" horiz-adv-x="796" 
d="M141 559q48 53 114 83.5t143 30.5q72 0 135.5 -27.5t110.5 -74.5t74.5 -110.5t27.5 -135.5t-27.5 -135.5t-74.5 -110.5t-110.5 -74.5t-135.5 -27.5q-77 0 -143 30.5t-114 82.5v469zM113 125q-29 43 -46 93.5t-17 106.5t16.5 106.5t46.5 93.5v-400zM376 18q5 -1 11 -1h11
q63 0 118 24.5t96 66.5t65 98t24 119t-24 119t-65 98t-96 66.5t-118 24.5h-11t-11 -1v-614zM415 860q17 19 31.5 27.5t31.5 8.5q24 0 38 -14.5t14 -34.5t-13.5 -36t-43.5 -30l-128 -61q-7 -3 -13.5 -5.5t-12.5 -2.5q-7 0 -12 5t-5 10q0 7 3.5 12.5t7.5 9.5z" />
    <glyph glyph-name="ocircumflex" unicode="&#xf4;" horiz-adv-x="796" 
d="M141 559q48 53 114 83.5t143 30.5q72 0 135.5 -27.5t110.5 -74.5t74.5 -110.5t27.5 -135.5t-27.5 -135.5t-74.5 -110.5t-110.5 -74.5t-135.5 -27.5q-77 0 -143 30.5t-114 82.5v469zM113 125q-29 43 -46 93.5t-17 106.5t16.5 106.5t46.5 93.5v-400zM376 18q5 -1 11 -1h11
q63 0 118 24.5t96 66.5t65 98t24 119t-24 119t-65 98t-96 66.5t-118 24.5h-11t-11 -1v-614zM402 781l-132 -61q-6 -3 -13 -5.5t-13 -2.5q-7 0 -12 5t-5 10q0 7 3.5 12.5t7.5 9.5l102 111q17 19 31 27.5t31 8.5t31 -8.5t31 -27.5l102 -111q4 -4 7.5 -9.5t3.5 -12.5
q0 -5 -5 -10t-12 -5q-6 0 -13 2.5t-13 5.5z" />
    <glyph glyph-name="otilde" unicode="&#xf5;" horiz-adv-x="796" 
d="M141 559q48 53 114 83.5t143 30.5q72 0 135.5 -27.5t110.5 -74.5t74.5 -110.5t27.5 -135.5t-27.5 -135.5t-74.5 -110.5t-110.5 -74.5t-135.5 -27.5q-77 0 -143 30.5t-114 82.5v469zM113 125q-29 43 -46 93.5t-17 106.5t16.5 106.5t46.5 93.5v-400zM376 18q5 -1 11 -1h11
q63 0 118 24.5t96 66.5t65 98t24 119t-24 119t-65 98t-96 66.5t-118 24.5h-11t-11 -1v-614zM485 799q17 0 25 9t8 19q0 7 4.5 12t13.5 5t13.5 -5t4.5 -13q0 -18 -4 -38.5t-14.5 -37t-28.5 -27.5t-46 -11q-23 0 -41.5 7t-35.5 15.5t-33 15.5t-32 7q-17 0 -25 -9t-8 -19
q0 -7 -4.5 -12t-13.5 -5t-13.5 5t-4.5 13q0 18 4 38.5t14.5 37t28.5 27.5t46 11q22 0 41 -7t36 -15.5t33 -15.5t32 -7z" />
    <glyph glyph-name="odieresis" unicode="&#xf6;" horiz-adv-x="796" 
d="M141 559q48 53 114 83.5t143 30.5q72 0 135.5 -27.5t110.5 -74.5t74.5 -110.5t27.5 -135.5t-27.5 -135.5t-74.5 -110.5t-110.5 -74.5t-135.5 -27.5q-77 0 -143 30.5t-114 82.5v469zM113 125q-29 43 -46 93.5t-17 106.5t16.5 106.5t46.5 93.5v-400zM376 18q5 -1 11 -1h11
q63 0 118 24.5t96 66.5t65 98t24 119t-24 119t-65 98t-96 66.5t-118 24.5h-11t-11 -1v-614zM584 771q0 -29 -21.5 -44t-52.5 -15q-30 0 -51.5 15t-21.5 44q0 26 21.5 41t51.5 15q31 0 52.5 -15t21.5 -41zM367 771q0 -29 -21.5 -44t-52.5 -15q-30 0 -51.5 15t-21.5 44
q0 26 21.5 41t51.5 15q31 0 52.5 -15t21.5 -41z" />
    <glyph glyph-name="divide" unicode="&#xf7;" horiz-adv-x="549" 
d="M328 412q0 -22 -15.5 -38t-38.5 -16t-38.5 15.5t-15.5 38.5t15.5 39t38.5 16t38.5 -16t15.5 -39zM18 281h513v-48h-513v48zM329 100q0 -23 -16 -39t-38 -16q-23 0 -39 16t-16 39t16 38.5t39 15.5q22 0 38 -15.5t16 -38.5z" />
    <glyph glyph-name="oslash" unicode="&#xf8;" horiz-adv-x="796" 
d="M163 68q-12 10 -22 22v470q48 52 114 82.5t143 30.5q57 0 108 -17t93 -48l53 66q10 12 15 17.5t13 5.5q6 0 15 -7t9 -14t-4 -12l-12 -15l-55 -68q52 -48 82.5 -114t30.5 -142q0 -72 -27.5 -135.5t-74.5 -110.5t-110.5 -74.5t-135.5 -27.5q-57 0 -107.5 17t-93.5 47
l-52 -65q-10 -12 -15 -17.5t-13 -5.5q-6 0 -15 7t-9 14t4 12l12 15zM113 125q-30 43 -46.5 93.5t-16.5 106.5t16.5 106.5t46.5 93.5v-400zM573 575q-38 28 -82 43t-93 15h-11t-11 -1v-300zM376 18q5 -1 11 -1h11q63 0 118 24.5t96 66.5t65 98t24 119q0 65 -25 122.5
t-70 99.5l-230 -285v-244z" />
    <glyph glyph-name="ugrave" unicode="&#xf9;" 
d="M148 650h212q6 0 10.5 -4.5t4.5 -10.5l-2 -70v-523q0 -13 5.5 -20t22.5 -7q81 0 133.5 19t82.5 55.5t42 91t12 125.5v287q0 8 -1 17.5t-1 19.5q0 11 6.5 18t17.5 7t18 -7t7 -18q0 -10 -1 -19.5t-1 -17.5v-287q0 -83 -16 -145.5t-53.5 -103.5t-99 -61.5t-152.5 -20.5
q-169 0 -247 69v606zM75 565l-2 70q0 6 4.5 10.5t10.5 4.5h32v-575q-45 63 -45 166v324zM324 781q-30 14 -43.5 30t-13.5 36t14 34.5t38 14.5q17 0 31.5 -8.5t31.5 -27.5l102 -111q4 -4 7.5 -9.5t3.5 -12.5q0 -5 -5 -10t-12 -5q-6 0 -12.5 2.5t-13.5 5.5z" />
    <glyph glyph-name="uacute" unicode="&#xfa;" 
d="M148 650h212q6 0 10.5 -4.5t4.5 -10.5l-2 -70v-523q0 -13 5.5 -20t22.5 -7q81 0 133.5 19t82.5 55.5t42 91t12 125.5v287q0 8 -1 17.5t-1 19.5q0 11 6.5 18t17.5 7t18 -7t7 -18q0 -10 -1 -19.5t-1 -17.5v-287q0 -83 -16 -145.5t-53.5 -103.5t-99 -61.5t-152.5 -20.5
q-169 0 -247 69v606zM75 565l-2 70q0 6 4.5 10.5t10.5 4.5h32v-575q-45 63 -45 166v324zM408 860q17 19 31.5 27.5t31.5 8.5q24 0 38 -14.5t14 -34.5t-13.5 -36t-43.5 -30l-128 -61q-7 -3 -13.5 -5.5t-12.5 -2.5q-7 0 -12 5t-5 10q0 7 3.5 12.5t7.5 9.5z" />
    <glyph glyph-name="ucircumflex" unicode="&#xfb;" 
d="M148 650h212q6 0 10.5 -4.5t4.5 -10.5l-2 -70v-523q0 -13 5.5 -20t22.5 -7q81 0 133.5 19t82.5 55.5t42 91t12 125.5v287q0 8 -1 17.5t-1 19.5q0 11 6.5 18t17.5 7t18 -7t7 -18q0 -10 -1 -19.5t-1 -17.5v-287q0 -83 -16 -145.5t-53.5 -103.5t-99 -61.5t-152.5 -20.5
q-169 0 -247 69v606zM75 565l-2 70q0 6 4.5 10.5t10.5 4.5h32v-575q-45 63 -45 166v324zM395 781l-132 -61q-6 -3 -13 -5.5t-13 -2.5q-7 0 -12 5t-5 10q0 7 3.5 12.5t7.5 9.5l102 111q17 19 31 27.5t31 8.5t31 -8.5t31 -27.5l102 -111q4 -4 7.5 -9.5t3.5 -12.5q0 -5 -5 -10
t-12 -5q-6 0 -13 2.5t-13 5.5z" />
    <glyph glyph-name="udieresis" unicode="&#xfc;" 
d="M148 650h212q6 0 10.5 -4.5t4.5 -10.5l-2 -70v-523q0 -13 5.5 -20t22.5 -7q81 0 133.5 19t82.5 55.5t42 91t12 125.5v287q0 8 -1 17.5t-1 19.5q0 11 6.5 18t17.5 7t18 -7t7 -18q0 -10 -1 -19.5t-1 -17.5v-287q0 -83 -16 -145.5t-53.5 -103.5t-99 -61.5t-152.5 -20.5
q-169 0 -247 69v606zM75 565l-2 70q0 6 4.5 10.5t10.5 4.5h32v-575q-45 63 -45 166v324zM577 771q0 -29 -21.5 -44t-52.5 -15q-30 0 -51.5 15t-21.5 44q0 26 21.5 41t51.5 15q31 0 52.5 -15t21.5 -41zM360 771q0 -29 -21.5 -44t-52.5 -15q-30 0 -51.5 15t-21.5 44
q0 26 21.5 41t51.5 15q31 0 52.5 -15t21.5 -41z" />
    <glyph glyph-name="yacute" unicode="&#xfd;" horiz-adv-x="764" 
d="M105 650h222q26 0 39 -10.5t28 -29.5l150 -191l121 168q2 3 5.5 8.5t7 12t7 12.5t5.5 9q8 14 17.5 20t19.5 6t18.5 -6.5t8.5 -17.5q0 -18 -15 -31q-23 -20 -34 -34l-254 -355zM377 186l-239 303q-18 23 -43 51t-46 51q-12 14 -19 22t-7 18q0 19 28 19h18l365 -463
l-104 -144q-2 -3 -5.5 -8.5t-7.5 -12t-8 -12.5t-5 -9q-7 -14 -16.5 -20t-19.5 -6t-19 7.5t-9 15.5q0 10 4.5 18.5t12.5 14.5q11 9 19.5 17t13.5 16zM395 860q17 19 31.5 27.5t31.5 8.5q24 0 38 -14.5t14 -34.5t-13.5 -36t-43.5 -30l-128 -61q-7 -3 -13.5 -5.5t-12.5 -2.5
q-7 0 -12 5t-5 10q0 7 3.5 12.5t7.5 9.5z" />
    <glyph glyph-name="thorn" unicode="&#xfe;" horiz-adv-x="783" 
d="M148 650h212q6 0 10.5 -4.5t4.5 -10.5l-2 -72q16 3 38.5 4.5t43.5 1.5q72 0 125.5 -17.5t88.5 -49t52.5 -74t17.5 -93.5t-17.5 -93.5t-52.5 -74t-88.5 -49t-125.5 -17.5q-21 0 -43.5 1.5t-38.5 4.5l2 -92q0 -6 -4.5 -10.5t-10.5 -4.5h-212v650zM88 0q-6 0 -10.5 4.5
t-4.5 10.5l2 70v480l-2 70q0 6 4.5 10.5t10.5 4.5h32v-650h-32zM373 147q16 -3 38.5 -4.5t43.5 -1.5q61 0 106 14.5t74.5 40t44 61.5t14.5 78t-14.5 78t-44 61.5t-74.5 40t-106 14.5q-21 0 -43.5 -1.5t-38.5 -4.5v-376z" />
    <glyph glyph-name="ydieresis" unicode="&#xff;" horiz-adv-x="764" 
d="M105 650h222q26 0 39 -10.5t28 -29.5l150 -191l121 168q2 3 5.5 8.5t7 12t7 12.5t5.5 9q8 14 17.5 20t19.5 6t18.5 -6.5t8.5 -17.5q0 -18 -15 -31q-23 -20 -34 -34l-254 -355zM377 186l-239 303q-18 23 -43 51t-46 51q-12 14 -19 22t-7 18q0 19 28 19h18l365 -463
l-104 -144q-2 -3 -5.5 -8.5t-7.5 -12t-8 -12.5t-5 -9q-7 -14 -16.5 -20t-19.5 -6t-19 7.5t-9 15.5q0 10 4.5 18.5t12.5 14.5q11 9 19.5 17t13.5 16zM564 771q0 -29 -21.5 -44t-52.5 -15q-30 0 -51.5 15t-21.5 44q0 26 21.5 41t51.5 15q31 0 52.5 -15t21.5 -41zM347 771
q0 -29 -21.5 -44t-52.5 -15q-30 0 -51.5 15t-21.5 44q0 26 21.5 41t51.5 15q31 0 52.5 -15t21.5 -41z" />
    <glyph glyph-name="Amacron" unicode="&#x100;" 
d="M269 474l66 114q7 12 12.5 24.5t12.5 23t15.5 17.5t21.5 7q11 0 18 -5.5t12 -13.5t9.5 -18.5t9.5 -19.5l266 -467q14 -25 26.5 -44t22.5 -33q11 -15 15 -23.5t4 -15.5q0 -8 -8 -14t-17 -6h-218zM485 0q-14 0 -27 7t-24 27l-34 60h-300l-17 -29q-3 -5 -5.5 -15t-3.5 -17
q-2 -16 -8.5 -27t-23.5 -11q-12 0 -20.5 7t-8.5 20q0 16 11 33q5 7 9.5 15t9.5 16l209 360l253 -446h-20zM377 134l-125 222l-129 -222h254zM260 732q-10 0 -15 6t-5 14t5 14t15 6h270q10 0 15 -6t5 -14t-5 -14t-15 -6h-270z" />
    <glyph glyph-name="amacron" unicode="&#x101;" 
d="M269 474l66 114q7 12 12.5 24.5t12.5 23t15.5 17.5t21.5 7q11 0 18 -5.5t12 -13.5t9.5 -18.5t9.5 -19.5l266 -467q14 -25 26.5 -44t22.5 -33q11 -15 15 -23.5t4 -15.5q0 -8 -8 -14t-17 -6h-218zM485 0q-14 0 -27 7t-24 27l-34 60h-300l-17 -29q-3 -5 -5.5 -15t-3.5 -17
q-2 -16 -8.5 -27t-23.5 -11q-12 0 -20.5 7t-8.5 20q0 16 11 33q5 7 9.5 15t9.5 16l209 360l253 -446h-20zM377 134l-125 222l-129 -222h254zM260 732q-10 0 -15 6t-5 14t5 14t15 6h270q10 0 15 -6t5 -14t-5 -14t-15 -6h-270z" />
    <glyph glyph-name="Abreve" unicode="&#x102;" 
d="M269 474l66 114q7 12 12.5 24.5t12.5 23t15.5 17.5t21.5 7q11 0 18 -5.5t12 -13.5t9.5 -18.5t9.5 -19.5l266 -467q14 -25 26.5 -44t22.5 -33q11 -15 15 -23.5t4 -15.5q0 -8 -8 -14t-17 -6h-218zM485 0q-14 0 -27 7t-24 27l-34 60h-300l-17 -29q-3 -5 -5.5 -15t-3.5 -17
q-2 -16 -8.5 -27t-23.5 -11q-12 0 -20.5 7t-8.5 20q0 16 11 33q5 7 9.5 15t9.5 16l209 360l253 -446h-20zM377 134l-125 222l-129 -222h254zM549 866q0 -31 -11.5 -59t-32 -49t-49.5 -33.5t-63 -12.5q-35 0 -63.5 12.5t-49 33.5t-32 49t-11.5 59q0 9 5.5 15.5t16.5 6.5
t17 -6.5t6 -14.5q0 -6 4.5 -14t16.5 -14.5t33.5 -11.5t56.5 -5t57 5t34 11.5t16.5 14.5t4.5 14q0 8 5.5 14.5t16.5 6.5t16.5 -6.5t5.5 -15.5z" />
    <glyph glyph-name="abreve" unicode="&#x103;" 
d="M269 474l66 114q7 12 12.5 24.5t12.5 23t15.5 17.5t21.5 7q11 0 18 -5.5t12 -13.5t9.5 -18.5t9.5 -19.5l266 -467q14 -25 26.5 -44t22.5 -33q11 -15 15 -23.5t4 -15.5q0 -8 -8 -14t-17 -6h-218zM485 0q-14 0 -27 7t-24 27l-34 60h-300l-17 -29q-3 -5 -5.5 -15t-3.5 -17
q-2 -16 -8.5 -27t-23.5 -11q-12 0 -20.5 7t-8.5 20q0 16 11 33q5 7 9.5 15t9.5 16l209 360l253 -446h-20zM377 134l-125 222l-129 -222h254zM549 866q0 -31 -11.5 -59t-32 -49t-49.5 -33.5t-63 -12.5q-35 0 -63.5 12.5t-49 33.5t-32 49t-11.5 59q0 9 5.5 15.5t16.5 6.5
t17 -6.5t6 -14.5q0 -6 4.5 -14t16.5 -14.5t33.5 -11.5t56.5 -5t57 5t34 11.5t16.5 14.5t4.5 14q0 8 5.5 14.5t16.5 6.5t16.5 -6.5t5.5 -15.5z" />
    <glyph glyph-name="Aogonek" unicode="&#x104;" 
d="M269 474l66 114q7 12 12.5 24.5t12.5 23t15.5 17.5t21.5 7q11 0 18 -5.5t12 -13.5t9.5 -18.5t9.5 -19.5l266 -467q14 -25 26.5 -44t22.5 -33q11 -15 15 -23.5t4 -15.5q0 -8 -8 -14t-17 -6h-81q-30 -32 -46.5 -60.5t-16.5 -52.5q0 -23 15.5 -34t32.5 -11q31 0 62 17
q4 3 13 3q1 0 4 -4t6 -9t5 -10t2 -8t-3 -5l-6 -4q-24 -12 -45 -17t-49 -5q-78 0 -118.5 21.5t-40.5 58.5q0 18 11 35t29 32t41 28t47 25h-80zM485 0q-14 0 -27 7t-24 27l-34 60h-300l-17 -29q-3 -5 -5.5 -15t-3.5 -17q-2 -16 -8.5 -27t-23.5 -11q-12 0 -20.5 7t-8.5 20
q0 16 11 33q5 7 9.5 15t9.5 16l209 360l253 -446h-20zM377 134l-125 222l-129 -222h254z" />
    <glyph glyph-name="aogonek" unicode="&#x105;" 
d="M269 474l66 114q7 12 12.5 24.5t12.5 23t15.5 17.5t21.5 7q11 0 18 -5.5t12 -13.5t9.5 -18.5t9.5 -19.5l266 -467q14 -25 26.5 -44t22.5 -33q11 -15 15 -23.5t4 -15.5q0 -8 -8 -14t-17 -6h-81q-30 -32 -46.5 -60.5t-16.5 -52.5q0 -23 15.5 -34t32.5 -11q31 0 62 17
q4 3 13 3q1 0 4 -4t6 -9t5 -10t2 -8t-3 -5l-6 -4q-24 -12 -45 -17t-49 -5q-78 0 -118.5 21.5t-40.5 58.5q0 18 11 35t29 32t41 28t47 25h-80zM485 0q-14 0 -27 7t-24 27l-34 60h-300l-17 -29q-3 -5 -5.5 -15t-3.5 -17q-2 -16 -8.5 -27t-23.5 -11q-12 0 -20.5 7t-8.5 20
q0 16 11 33q5 7 9.5 15t9.5 16l209 360l253 -446h-20zM377 134l-125 222l-129 -222h254z" />
    <glyph glyph-name="Cacute" unicode="&#x106;" horiz-adv-x="756" 
d="M141 559q48 53 114 83.5t143 30.5q33 0 68 -7t69.5 -21.5t67 -37.5t59.5 -55q12 -14 20 -30.5t8 -26.5q0 -9 -5.5 -16.5t-17.5 -7.5q-10 0 -19.5 10.5t-17.5 26.5q-6 11 -19.5 29t-32.5 33q-32 25 -76 44t-104 19h-11t-11 -1v-614q5 -1 11 -1h11q45 0 86.5 14t76 36.5
t59.5 50.5t38 57q11 24 19 33.5t18 9.5q8 0 14.5 -5t6.5 -19q0 -11 -8 -28.5t-20 -34.5q-49 -69 -123 -111.5t-167 -42.5q-77 0 -143 30.5t-114 82.5v469zM113 126q-30 42 -46.5 92.5t-16.5 106.5t16.5 106.5t46.5 92.5v-398zM415 860q17 19 31.5 27.5t31.5 8.5
q24 0 38 -14.5t14 -34.5t-13.5 -36t-43.5 -30l-128 -61q-7 -3 -13.5 -5.5t-12.5 -2.5q-7 0 -12 5t-5 10q0 7 3.5 12.5t7.5 9.5z" />
    <glyph glyph-name="cacute" unicode="&#x107;" horiz-adv-x="756" 
d="M141 559q48 53 114 83.5t143 30.5q33 0 68 -7t69.5 -21.5t67 -37.5t59.5 -55q12 -14 20 -30.5t8 -26.5q0 -9 -5.5 -16.5t-17.5 -7.5q-10 0 -19.5 10.5t-17.5 26.5q-6 11 -19.5 29t-32.5 33q-32 25 -76 44t-104 19h-11t-11 -1v-614q5 -1 11 -1h11q45 0 86.5 14t76 36.5
t59.5 50.5t38 57q11 24 19 33.5t18 9.5q8 0 14.5 -5t6.5 -19q0 -11 -8 -28.5t-20 -34.5q-49 -69 -123 -111.5t-167 -42.5q-77 0 -143 30.5t-114 82.5v469zM113 126q-30 42 -46.5 92.5t-16.5 106.5t16.5 106.5t46.5 92.5v-398zM391 860q17 19 31.5 27.5t31.5 8.5
q24 0 38 -14.5t14 -34.5t-13.5 -36t-43.5 -30l-128 -61q-7 -3 -13.5 -5.5t-12.5 -2.5q-7 0 -12 5t-5 10q0 7 3.5 12.5t7.5 9.5z" />
    <glyph glyph-name="Ccircumflex" unicode="&#x108;" horiz-adv-x="756" 
d="M141 559q48 53 114 83.5t143 30.5q33 0 68 -7t69.5 -21.5t67 -37.5t59.5 -55q12 -14 20 -30.5t8 -26.5q0 -9 -5.5 -16.5t-17.5 -7.5q-10 0 -19.5 10.5t-17.5 26.5q-6 11 -19.5 29t-32.5 33q-32 25 -76 44t-104 19h-11t-11 -1v-614q5 -1 11 -1h11q45 0 86.5 14t76 36.5
t59.5 50.5t38 57q11 24 19 33.5t18 9.5q8 0 14.5 -5t6.5 -19q0 -11 -8 -28.5t-20 -34.5q-49 -69 -123 -111.5t-167 -42.5q-77 0 -143 30.5t-114 82.5v469zM113 126q-30 42 -46.5 92.5t-16.5 106.5t16.5 106.5t46.5 92.5v-398zM402 781l-132 -61q-6 -3 -13 -5.5t-13 -2.5
q-7 0 -12 5t-5 10q0 7 3.5 12.5t7.5 9.5l102 111q17 19 31 27.5t31 8.5t31 -8.5t31 -27.5l102 -111q4 -4 7.5 -9.5t3.5 -12.5q0 -5 -5 -10t-12 -5q-6 0 -13 2.5t-13 5.5z" />
    <glyph glyph-name="ccircumflex" unicode="&#x109;" horiz-adv-x="756" 
d="M141 559q48 53 114 83.5t143 30.5q33 0 68 -7t69.5 -21.5t67 -37.5t59.5 -55q12 -14 20 -30.5t8 -26.5q0 -9 -5.5 -16.5t-17.5 -7.5q-10 0 -19.5 10.5t-17.5 26.5q-6 11 -19.5 29t-32.5 33q-32 25 -76 44t-104 19h-11t-11 -1v-614q5 -1 11 -1h11q45 0 86.5 14t76 36.5
t59.5 50.5t38 57q11 24 19 33.5t18 9.5q8 0 14.5 -5t6.5 -19q0 -11 -8 -28.5t-20 -34.5q-49 -69 -123 -111.5t-167 -42.5q-77 0 -143 30.5t-114 82.5v469zM113 126q-30 42 -46.5 92.5t-16.5 106.5t16.5 106.5t46.5 92.5v-398zM378 781l-132 -61q-6 -3 -13 -5.5t-13 -2.5
q-7 0 -12 5t-5 10q0 7 3.5 12.5t7.5 9.5l102 111q17 19 31 27.5t31 8.5t31 -8.5t31 -27.5l102 -111q4 -4 7.5 -9.5t3.5 -12.5q0 -5 -5 -10t-12 -5q-6 0 -13 2.5t-13 5.5z" />
    <glyph glyph-name="Cdotaccent" unicode="&#x10a;" horiz-adv-x="756" 
d="M141 559q48 53 114 83.5t143 30.5q33 0 68 -7t69.5 -21.5t67 -37.5t59.5 -55q12 -14 20 -30.5t8 -26.5q0 -9 -5.5 -16.5t-17.5 -7.5q-10 0 -19.5 10.5t-17.5 26.5q-6 11 -19.5 29t-32.5 33q-32 25 -76 44t-104 19h-11t-11 -1v-614q5 -1 11 -1h11q45 0 86.5 14t76 36.5
t59.5 50.5t38 57q11 24 19 33.5t18 9.5q8 0 14.5 -5t6.5 -19q0 -11 -8 -28.5t-20 -34.5q-49 -69 -123 -111.5t-167 -42.5q-77 0 -143 30.5t-114 82.5v469zM113 126q-30 42 -46.5 92.5t-16.5 106.5t16.5 106.5t46.5 92.5v-398zM475 771q0 -29 -21.5 -44t-52.5 -15
q-30 0 -51.5 15t-21.5 44q0 26 21.5 41t51.5 15q31 0 52.5 -15t21.5 -41z" />
    <glyph glyph-name="cdotaccent" unicode="&#x10b;" horiz-adv-x="756" 
d="M141 559q48 53 114 83.5t143 30.5q33 0 68 -7t69.5 -21.5t67 -37.5t59.5 -55q12 -14 20 -30.5t8 -26.5q0 -9 -5.5 -16.5t-17.5 -7.5q-10 0 -19.5 10.5t-17.5 26.5q-6 11 -19.5 29t-32.5 33q-32 25 -76 44t-104 19h-11t-11 -1v-614q5 -1 11 -1h11q45 0 86.5 14t76 36.5
t59.5 50.5t38 57q11 24 19 33.5t18 9.5q8 0 14.5 -5t6.5 -19q0 -11 -8 -28.5t-20 -34.5q-49 -69 -123 -111.5t-167 -42.5q-77 0 -143 30.5t-114 82.5v469zM113 126q-30 42 -46.5 92.5t-16.5 106.5t16.5 106.5t46.5 92.5v-398zM451 771q0 -29 -21.5 -44t-52.5 -15
q-30 0 -51.5 15t-21.5 44q0 26 21.5 41t51.5 15q31 0 52.5 -15t21.5 -41z" />
    <glyph glyph-name="Ccaron" unicode="&#x10c;" horiz-adv-x="756" 
d="M141 559q48 53 114 83.5t143 30.5q33 0 68 -7t69.5 -21.5t67 -37.5t59.5 -55q12 -14 20 -30.5t8 -26.5q0 -9 -5.5 -16.5t-17.5 -7.5q-10 0 -19.5 10.5t-17.5 26.5q-6 11 -19.5 29t-32.5 33q-32 25 -76 44t-104 19h-11t-11 -1v-614q5 -1 11 -1h11q45 0 86.5 14t76 36.5
t59.5 50.5t38 57q11 24 19 33.5t18 9.5q8 0 14.5 -5t6.5 -19q0 -11 -8 -28.5t-20 -34.5q-49 -69 -123 -111.5t-167 -42.5q-77 0 -143 30.5t-114 82.5v469zM113 126q-30 42 -46.5 92.5t-16.5 106.5t16.5 106.5t46.5 92.5v-398zM238 859q-4 4 -7.5 9.5t-3.5 12.5q0 5 5 10
t12 5q6 0 13 -2.5t13 -5.5l132 -61l132 61q6 3 13 5.5t13 2.5q7 0 12 -5t5 -10q0 -7 -3.5 -12.5t-7.5 -9.5l-102 -111q-17 -19 -31 -27.5t-31 -8.5t-31 8.5t-31 27.5z" />
    <glyph glyph-name="ccaron" unicode="&#x10d;" horiz-adv-x="756" 
d="M141 559q48 53 114 83.5t143 30.5q33 0 68 -7t69.5 -21.5t67 -37.5t59.5 -55q12 -14 20 -30.5t8 -26.5q0 -9 -5.5 -16.5t-17.5 -7.5q-10 0 -19.5 10.5t-17.5 26.5q-6 11 -19.5 29t-32.5 33q-32 25 -76 44t-104 19h-11t-11 -1v-614q5 -1 11 -1h11q45 0 86.5 14t76 36.5
t59.5 50.5t38 57q11 24 19 33.5t18 9.5q8 0 14.5 -5t6.5 -19q0 -11 -8 -28.5t-20 -34.5q-49 -69 -123 -111.5t-167 -42.5q-77 0 -143 30.5t-114 82.5v469zM113 126q-30 42 -46.5 92.5t-16.5 106.5t16.5 106.5t46.5 92.5v-398zM214 859q-4 4 -7.5 9.5t-3.5 12.5q0 5 5 10
t12 5q6 0 13 -2.5t13 -5.5l132 -61l132 61q6 3 13 5.5t13 2.5q7 0 12 -5t5 -10q0 -7 -3.5 -12.5t-7.5 -9.5l-102 -111q-17 -19 -31 -27.5t-31 -8.5t-31 8.5t-31 27.5z" />
    <glyph glyph-name="Dcaron" unicode="&#x10e;" horiz-adv-x="773" 
d="M148 650h237q72 0 134 -24t107 -66.5t71 -102.5t26 -132t-26 -132t-71 -102.5t-107 -66.5t-134 -24h-237v650zM88 0q-6 0 -10.5 4.5t-4.5 10.5l2 70v480l-2 70q0 6 4.5 10.5t10.5 4.5h32v-650h-32zM373 41q2 -1 5.5 -1h6.5q63 0 116.5 21.5t92.5 60t61.5 90.5t22.5 113
t-22.5 113t-61.5 90t-92.5 60t-116.5 22q-9 0 -12 -1v-568zM222 859q-4 4 -7.5 9.5t-3.5 12.5q0 5 5 10t12 5q6 0 13 -2.5t13 -5.5l132 -61l132 61q6 3 13 5.5t13 2.5q7 0 12 -5t5 -10q0 -7 -3.5 -12.5t-7.5 -9.5l-102 -111q-17 -19 -31 -27.5t-31 -8.5t-31 8.5t-31 27.5z
" />
    <glyph glyph-name="dcaron" unicode="&#x10f;" horiz-adv-x="773" 
d="M148 650h237q72 0 134 -24t107 -66.5t71 -102.5t26 -132t-26 -132t-71 -102.5t-107 -66.5t-134 -24h-237v650zM88 0q-6 0 -10.5 4.5t-4.5 10.5l2 70v480l-2 70q0 6 4.5 10.5t10.5 4.5h32v-650h-32zM373 41q2 -1 5.5 -1h6.5q63 0 116.5 21.5t92.5 60t61.5 90.5t22.5 113
t-22.5 113t-61.5 90t-92.5 60t-116.5 22q-9 0 -12 -1v-568zM222 859q-4 4 -7.5 9.5t-3.5 12.5q0 5 5 10t12 5q6 0 13 -2.5t13 -5.5l132 -61l132 61q6 3 13 5.5t13 2.5q7 0 12 -5t5 -10q0 -7 -3.5 -12.5t-7.5 -9.5l-102 -111q-17 -19 -31 -27.5t-31 -8.5t-31 8.5t-31 27.5z
" />
    <glyph glyph-name="Dcroat" unicode="&#x110;" horiz-adv-x="773" 
d="M148 650h237q72 0 134 -24t107 -66.5t71 -102.5t26 -132t-26 -132t-71 -102.5t-107 -66.5t-134 -24h-237v650zM88 0q-6 0 -10.5 4.5t-4.5 10.5l2 70v229h-50q-10 0 -15 6t-5 14t5 14t15 6h50v211l-2 70q0 6 4.5 10.5t10.5 4.5h32v-650h-32zM373 41q2 -1 5.5 -1h6.5
q63 0 116.5 21.5t92.5 60t61.5 90.5t22.5 113t-22.5 113t-61.5 90t-92.5 60t-116.5 22q-9 0 -12 -1v-255h110q10 0 15 -6t5 -14t-5 -14t-15 -6h-110v-273z" />
    <glyph glyph-name="dcroat" unicode="&#x111;" horiz-adv-x="773" 
d="M148 650h237q72 0 134 -24t107 -66.5t71 -102.5t26 -132t-26 -132t-71 -102.5t-107 -66.5t-134 -24h-237v650zM88 0q-6 0 -10.5 4.5t-4.5 10.5l2 70v229h-50q-10 0 -15 6t-5 14t5 14t15 6h50v211l-2 70q0 6 4.5 10.5t10.5 4.5h32v-650h-32zM373 41q2 -1 5.5 -1h6.5
q63 0 116.5 21.5t92.5 60t61.5 90.5t22.5 113t-22.5 113t-61.5 90t-92.5 60t-116.5 22q-9 0 -12 -1v-255h110q10 0 15 -6t5 -14t-5 -14t-15 -6h-110v-273z" />
    <glyph glyph-name="Emacron" unicode="&#x112;" horiz-adv-x="715" 
d="M148 650h423q8 0 17 1t19 1q11 0 18.5 -7t7.5 -15q0 -10 -7.5 -16t-18.5 -6q-10 0 -19 1t-17 1h-198v-138h215q8 0 17 1t19 1q11 0 18.5 -7t7.5 -15q0 -10 -7.5 -16t-18.5 -6q-10 0 -19 1t-17 1h-215v-392h242q8 0 17 1t19 1q11 0 18.5 -7t7.5 -15q0 -10 -7.5 -16
t-18.5 -6q-10 0 -19 1t-17 1h-467v650zM88 0q-6 0 -10.5 4.5t-4.5 10.5l2 70v480l-2 70q0 6 4.5 10.5t10.5 4.5h32v-650h-32zM232 732q-10 0 -15 6t-5 14t5 14t15 6h270q10 0 15 -6t5 -14t-5 -14t-15 -6h-270z" />
    <glyph glyph-name="emacron" unicode="&#x113;" horiz-adv-x="715" 
d="M148 650h423q8 0 17 1t19 1q11 0 18.5 -7t7.5 -15q0 -10 -7.5 -16t-18.5 -6q-10 0 -19 1t-17 1h-198v-138h215q8 0 17 1t19 1q11 0 18.5 -7t7.5 -15q0 -10 -7.5 -16t-18.5 -6q-10 0 -19 1t-17 1h-215v-392h242q8 0 17 1t19 1q11 0 18.5 -7t7.5 -15q0 -10 -7.5 -16
t-18.5 -6q-10 0 -19 1t-17 1h-467v650zM88 0q-6 0 -10.5 4.5t-4.5 10.5l2 70v480l-2 70q0 6 4.5 10.5t10.5 4.5h32v-650h-32zM232 732q-10 0 -15 6t-5 14t5 14t15 6h270q10 0 15 -6t5 -14t-5 -14t-15 -6h-270z" />
    <glyph glyph-name="Ebreve" unicode="&#x114;" horiz-adv-x="715" 
d="M148 650h423q8 0 17 1t19 1q11 0 18.5 -7t7.5 -15q0 -10 -7.5 -16t-18.5 -6q-10 0 -19 1t-17 1h-198v-138h215q8 0 17 1t19 1q11 0 18.5 -7t7.5 -15q0 -10 -7.5 -16t-18.5 -6q-10 0 -19 1t-17 1h-215v-392h242q8 0 17 1t19 1q11 0 18.5 -7t7.5 -15q0 -10 -7.5 -16
t-18.5 -6q-10 0 -19 1t-17 1h-467v650zM88 0q-6 0 -10.5 4.5t-4.5 10.5l2 70v480l-2 70q0 6 4.5 10.5t10.5 4.5h32v-650h-32zM521 866q0 -31 -11.5 -59t-32 -49t-49.5 -33.5t-63 -12.5q-35 0 -63.5 12.5t-49 33.5t-32 49t-11.5 59q0 9 5.5 15.5t16.5 6.5t17 -6.5t6 -14.5
q0 -6 4.5 -14t16.5 -14.5t33.5 -11.5t56.5 -5t57 5t34 11.5t16.5 14.5t4.5 14q0 8 5.5 14.5t16.5 6.5t16.5 -6.5t5.5 -15.5z" />
    <glyph glyph-name="ebreve" unicode="&#x115;" horiz-adv-x="715" 
d="M148 650h423q8 0 17 1t19 1q11 0 18.5 -7t7.5 -15q0 -10 -7.5 -16t-18.5 -6q-10 0 -19 1t-17 1h-198v-138h215q8 0 17 1t19 1q11 0 18.5 -7t7.5 -15q0 -10 -7.5 -16t-18.5 -6q-10 0 -19 1t-17 1h-215v-392h242q8 0 17 1t19 1q11 0 18.5 -7t7.5 -15q0 -10 -7.5 -16
t-18.5 -6q-10 0 -19 1t-17 1h-467v650zM88 0q-6 0 -10.5 4.5t-4.5 10.5l2 70v480l-2 70q0 6 4.5 10.5t10.5 4.5h32v-650h-32zM521 866q0 -31 -11.5 -59t-32 -49t-49.5 -33.5t-63 -12.5q-35 0 -63.5 12.5t-49 33.5t-32 49t-11.5 59q0 9 5.5 15.5t16.5 6.5t17 -6.5t6 -14.5
q0 -6 4.5 -14t16.5 -14.5t33.5 -11.5t56.5 -5t57 5t34 11.5t16.5 14.5t4.5 14q0 8 5.5 14.5t16.5 6.5t16.5 -6.5t5.5 -15.5z" />
    <glyph glyph-name="Edotaccent" unicode="&#x116;" horiz-adv-x="715" 
d="M148 650h423q8 0 17 1t19 1q11 0 18.5 -7t7.5 -15q0 -10 -7.5 -16t-18.5 -6q-10 0 -19 1t-17 1h-198v-138h215q8 0 17 1t19 1q11 0 18.5 -7t7.5 -15q0 -10 -7.5 -16t-18.5 -6q-10 0 -19 1t-17 1h-215v-392h242q8 0 17 1t19 1q11 0 18.5 -7t7.5 -15q0 -10 -7.5 -16
t-18.5 -6q-10 0 -19 1t-17 1h-467v650zM88 0q-6 0 -10.5 4.5t-4.5 10.5l2 70v480l-2 70q0 6 4.5 10.5t10.5 4.5h32v-650h-32zM440 771q0 -29 -21.5 -44t-52.5 -15q-30 0 -51.5 15t-21.5 44q0 26 21.5 41t51.5 15q31 0 52.5 -15t21.5 -41z" />
    <glyph glyph-name="edotaccent" unicode="&#x117;" horiz-adv-x="715" 
d="M148 650h423q8 0 17 1t19 1q11 0 18.5 -7t7.5 -15q0 -10 -7.5 -16t-18.5 -6q-10 0 -19 1t-17 1h-198v-138h215q8 0 17 1t19 1q11 0 18.5 -7t7.5 -15q0 -10 -7.5 -16t-18.5 -6q-10 0 -19 1t-17 1h-215v-392h242q8 0 17 1t19 1q11 0 18.5 -7t7.5 -15q0 -10 -7.5 -16
t-18.5 -6q-10 0 -19 1t-17 1h-467v650zM88 0q-6 0 -10.5 4.5t-4.5 10.5l2 70v480l-2 70q0 6 4.5 10.5t10.5 4.5h32v-650h-32zM440 771q0 -29 -21.5 -44t-52.5 -15q-30 0 -51.5 15t-21.5 44q0 26 21.5 41t51.5 15q31 0 52.5 -15t21.5 -41z" />
    <glyph glyph-name="Eogonek" unicode="&#x118;" horiz-adv-x="715" 
d="M148 650h423q8 0 17 1t19 1q11 0 18.5 -7t7.5 -15q0 -10 -7.5 -16t-18.5 -6q-10 0 -19 1t-17 1h-198v-138h215q8 0 17 1t19 1q11 0 18.5 -7t7.5 -15q0 -10 -7.5 -16t-18.5 -6q-10 0 -19 1t-17 1h-215v-392h242q8 0 17 1t19 1q11 0 18.5 -7t7.5 -15q0 -10 -7.5 -16
t-18.5 -6q-10 0 -19 1t-17 1h-42q-30 -32 -46.5 -60.5t-16.5 -52.5q0 -23 15.5 -34t32.5 -11q31 0 62 17q4 3 13 3q1 0 4 -4t6 -9t5 -10t2 -8t-3 -5l-6 -4q-24 -12 -45 -17t-49 -5q-78 0 -118.5 21.5t-40.5 58.5q0 18 11 35t29 32t41 28t48 25h-369v650zM88 0
q-6 0 -10.5 4.5t-4.5 10.5l2 70v480l-2 70q0 6 4.5 10.5t10.5 4.5h32v-650h-32z" />
    <glyph glyph-name="eogonek" unicode="&#x119;" horiz-adv-x="715" 
d="M148 650h423q8 0 17 1t19 1q11 0 18.5 -7t7.5 -15q0 -10 -7.5 -16t-18.5 -6q-10 0 -19 1t-17 1h-198v-138h215q8 0 17 1t19 1q11 0 18.5 -7t7.5 -15q0 -10 -7.5 -16t-18.5 -6q-10 0 -19 1t-17 1h-215v-392h242q8 0 17 1t19 1q11 0 18.5 -7t7.5 -15q0 -10 -7.5 -16
t-18.5 -6q-10 0 -19 1t-17 1h-42q-30 -32 -46.5 -60.5t-16.5 -52.5q0 -23 15.5 -34t32.5 -11q31 0 62 17q4 3 13 3q1 0 4 -4t6 -9t5 -10t2 -8t-3 -5l-6 -4q-24 -12 -45 -17t-49 -5q-78 0 -118.5 21.5t-40.5 58.5q0 18 11 35t29 32t41 28t48 25h-369v650zM88 0
q-6 0 -10.5 4.5t-4.5 10.5l2 70v480l-2 70q0 6 4.5 10.5t10.5 4.5h32v-650h-32z" />
    <glyph glyph-name="Ecaron" unicode="&#x11a;" horiz-adv-x="715" 
d="M148 650h423q8 0 17 1t19 1q11 0 18.5 -7t7.5 -15q0 -10 -7.5 -16t-18.5 -6q-10 0 -19 1t-17 1h-198v-138h215q8 0 17 1t19 1q11 0 18.5 -7t7.5 -15q0 -10 -7.5 -16t-18.5 -6q-10 0 -19 1t-17 1h-215v-392h242q8 0 17 1t19 1q11 0 18.5 -7t7.5 -15q0 -10 -7.5 -16
t-18.5 -6q-10 0 -19 1t-17 1h-467v650zM88 0q-6 0 -10.5 4.5t-4.5 10.5l2 70v480l-2 70q0 6 4.5 10.5t10.5 4.5h32v-650h-32zM203 859q-4 4 -7.5 9.5t-3.5 12.5q0 5 5 10t12 5q6 0 13 -2.5t13 -5.5l132 -61l132 61q6 3 13 5.5t13 2.5q7 0 12 -5t5 -10q0 -7 -3.5 -12.5
t-7.5 -9.5l-102 -111q-17 -19 -31 -27.5t-31 -8.5t-31 8.5t-31 27.5z" />
    <glyph glyph-name="ecaron" unicode="&#x11b;" horiz-adv-x="715" 
d="M148 650h423q8 0 17 1t19 1q11 0 18.5 -7t7.5 -15q0 -10 -7.5 -16t-18.5 -6q-10 0 -19 1t-17 1h-198v-138h215q8 0 17 1t19 1q11 0 18.5 -7t7.5 -15q0 -10 -7.5 -16t-18.5 -6q-10 0 -19 1t-17 1h-215v-392h242q8 0 17 1t19 1q11 0 18.5 -7t7.5 -15q0 -10 -7.5 -16
t-18.5 -6q-10 0 -19 1t-17 1h-467v650zM88 0q-6 0 -10.5 4.5t-4.5 10.5l2 70v480l-2 70q0 6 4.5 10.5t10.5 4.5h32v-650h-32zM203 859q-4 4 -7.5 9.5t-3.5 12.5q0 5 5 10t12 5q6 0 13 -2.5t13 -5.5l132 -61l132 61q6 3 13 5.5t13 2.5q7 0 12 -5t5 -10q0 -7 -3.5 -12.5
t-7.5 -9.5l-102 -111q-17 -19 -31 -27.5t-31 -8.5t-31 8.5t-31 27.5z" />
    <glyph glyph-name="Gcircumflex" unicode="&#x11c;" horiz-adv-x="796" 
d="M141 559q48 53 114 83.5t143 30.5q66 0 131.5 -25.5t121.5 -82.5q14 -14 22 -29t8 -27q0 -23 -21 -23q-8 0 -19 8.5t-23 29.5q-5 9 -18.5 24.5t-27.5 26.5q-11 9 -28 19t-39.5 18.5t-49.5 14.5t-57 6h-11t-11 -1v-614q5 -1 11 -1h11q63 0 115.5 23.5t92 62t63.5 87.5
t30 101h-223q-8 0 -17 -1t-19 -1q-11 0 -18.5 6t-7.5 16q0 8 7.5 15t18.5 7q10 0 19 -1t17 -1h249q21 0 21 -16q0 -65 -27 -126t-73.5 -108t-110.5 -75.5t-137 -28.5q-77 0 -143 30.5t-114 82.5v469zM113 126q-30 42 -46.5 92.5t-16.5 106.5t16.5 106.5t46.5 92.5v-398z
M402 781l-132 -61q-6 -3 -13 -5.5t-13 -2.5q-7 0 -12 5t-5 10q0 7 3.5 12.5t7.5 9.5l102 111q17 19 31 27.5t31 8.5t31 -8.5t31 -27.5l102 -111q4 -4 7.5 -9.5t3.5 -12.5q0 -5 -5 -10t-12 -5q-6 0 -13 2.5t-13 5.5z" />
    <glyph glyph-name="gcircumflex" unicode="&#x11d;" horiz-adv-x="796" 
d="M141 559q48 53 114 83.5t143 30.5q66 0 131.5 -25.5t121.5 -82.5q14 -14 22 -29t8 -27q0 -23 -21 -23q-8 0 -19 8.5t-23 29.5q-5 9 -18.5 24.5t-27.5 26.5q-11 9 -28 19t-39.5 18.5t-49.5 14.5t-57 6h-11t-11 -1v-614q5 -1 11 -1h11q63 0 115.5 23.5t92 62t63.5 87.5
t30 101h-223q-8 0 -17 -1t-19 -1q-11 0 -18.5 6t-7.5 16q0 8 7.5 15t18.5 7q10 0 19 -1t17 -1h249q21 0 21 -16q0 -65 -27 -126t-73.5 -108t-110.5 -75.5t-137 -28.5q-77 0 -143 30.5t-114 82.5v469zM113 126q-30 42 -46.5 92.5t-16.5 106.5t16.5 106.5t46.5 92.5v-398z
M398 781l-132 -61q-6 -3 -13 -5.5t-13 -2.5q-7 0 -12 5t-5 10q0 7 3.5 12.5t7.5 9.5l102 111q17 19 31 27.5t31 8.5t31 -8.5t31 -27.5l102 -111q4 -4 7.5 -9.5t3.5 -12.5q0 -5 -5 -10t-12 -5q-6 0 -13 2.5t-13 5.5z" />
    <glyph glyph-name="Gbreve" unicode="&#x11e;" horiz-adv-x="796" 
d="M141 559q48 53 114 83.5t143 30.5q66 0 131.5 -25.5t121.5 -82.5q14 -14 22 -29t8 -27q0 -23 -21 -23q-8 0 -19 8.5t-23 29.5q-5 9 -18.5 24.5t-27.5 26.5q-11 9 -28 19t-39.5 18.5t-49.5 14.5t-57 6h-11t-11 -1v-614q5 -1 11 -1h11q63 0 115.5 23.5t92 62t63.5 87.5
t30 101h-223q-8 0 -17 -1t-19 -1q-11 0 -18.5 6t-7.5 16q0 8 7.5 15t18.5 7q10 0 19 -1t17 -1h249q21 0 21 -16q0 -65 -27 -126t-73.5 -108t-110.5 -75.5t-137 -28.5q-77 0 -143 30.5t-114 82.5v469zM113 126q-30 42 -46.5 92.5t-16.5 106.5t16.5 106.5t46.5 92.5v-398z
M556 866q0 -31 -11.5 -59t-32 -49t-49.5 -33.5t-63 -12.5q-35 0 -63.5 12.5t-49 33.5t-32 49t-11.5 59q0 9 5.5 15.5t16.5 6.5t17 -6.5t6 -14.5q0 -6 4.5 -14t16.5 -14.5t33.5 -11.5t56.5 -5t57 5t34 11.5t16.5 14.5t4.5 14q0 8 5.5 14.5t16.5 6.5t16.5 -6.5t5.5 -15.5z" />
    <glyph glyph-name="gbreve" unicode="&#x11f;" horiz-adv-x="796" 
d="M141 559q48 53 114 83.5t143 30.5q66 0 131.5 -25.5t121.5 -82.5q14 -14 22 -29t8 -27q0 -23 -21 -23q-8 0 -19 8.5t-23 29.5q-5 9 -18.5 24.5t-27.5 26.5q-11 9 -28 19t-39.5 18.5t-49.5 14.5t-57 6h-11t-11 -1v-614q5 -1 11 -1h11q63 0 115.5 23.5t92 62t63.5 87.5
t30 101h-223q-8 0 -17 -1t-19 -1q-11 0 -18.5 6t-7.5 16q0 8 7.5 15t18.5 7q10 0 19 -1t17 -1h249q21 0 21 -16q0 -65 -27 -126t-73.5 -108t-110.5 -75.5t-137 -28.5q-77 0 -143 30.5t-114 82.5v469zM113 126q-30 42 -46.5 92.5t-16.5 106.5t16.5 106.5t46.5 92.5v-398z
M552 866q0 -31 -11.5 -59t-32 -49t-49.5 -33.5t-63 -12.5q-35 0 -63.5 12.5t-49 33.5t-32 49t-11.5 59q0 9 5.5 15.5t16.5 6.5t17 -6.5t6 -14.5q0 -6 4.5 -14t16.5 -14.5t33.5 -11.5t56.5 -5t57 5t34 11.5t16.5 14.5t4.5 14q0 8 5.5 14.5t16.5 6.5t16.5 -6.5t5.5 -15.5z" />
    <glyph glyph-name="Gdotaccent" unicode="&#x120;" horiz-adv-x="796" 
d="M141 559q48 53 114 83.5t143 30.5q66 0 131.5 -25.5t121.5 -82.5q14 -14 22 -29t8 -27q0 -23 -21 -23q-8 0 -19 8.5t-23 29.5q-5 9 -18.5 24.5t-27.5 26.5q-11 9 -28 19t-39.5 18.5t-49.5 14.5t-57 6h-11t-11 -1v-614q5 -1 11 -1h11q63 0 115.5 23.5t92 62t63.5 87.5
t30 101h-223q-8 0 -17 -1t-19 -1q-11 0 -18.5 6t-7.5 16q0 8 7.5 15t18.5 7q10 0 19 -1t17 -1h249q21 0 21 -16q0 -65 -27 -126t-73.5 -108t-110.5 -75.5t-137 -28.5q-77 0 -143 30.5t-114 82.5v469zM113 126q-30 42 -46.5 92.5t-16.5 106.5t16.5 106.5t46.5 92.5v-398z
M475 771q0 -29 -21.5 -44t-52.5 -15q-30 0 -51.5 15t-21.5 44q0 26 21.5 41t51.5 15q31 0 52.5 -15t21.5 -41z" />
    <glyph glyph-name="gdotaccent" unicode="&#x121;" horiz-adv-x="796" 
d="M141 559q48 53 114 83.5t143 30.5q66 0 131.5 -25.5t121.5 -82.5q14 -14 22 -29t8 -27q0 -23 -21 -23q-8 0 -19 8.5t-23 29.5q-5 9 -18.5 24.5t-27.5 26.5q-11 9 -28 19t-39.5 18.5t-49.5 14.5t-57 6h-11t-11 -1v-614q5 -1 11 -1h11q63 0 115.5 23.5t92 62t63.5 87.5
t30 101h-223q-8 0 -17 -1t-19 -1q-11 0 -18.5 6t-7.5 16q0 8 7.5 15t18.5 7q10 0 19 -1t17 -1h249q21 0 21 -16q0 -65 -27 -126t-73.5 -108t-110.5 -75.5t-137 -28.5q-77 0 -143 30.5t-114 82.5v469zM113 126q-30 42 -46.5 92.5t-16.5 106.5t16.5 106.5t46.5 92.5v-398z
M471 771q0 -29 -21.5 -44t-52.5 -15q-30 0 -51.5 15t-21.5 44q0 26 21.5 41t51.5 15q31 0 52.5 -15t21.5 -41z" />
    <glyph glyph-name="Gcommaaccent" unicode="&#x122;" horiz-adv-x="796" 
d="M345 -191q0 6 4 11t12 5q5 0 9 -1t12 -1q20 0 28 5t8 9q0 5 -5.5 6t-14.5 1q-35 0 -53.5 12t-18.5 38q0 27 22 44.5t50 17.5q32 0 55.5 -19t23.5 -56q0 -17 -6 -33.5t-18 -29.5t-31 -21t-45 -8q-13 0 -22.5 4.5t-9.5 15.5zM141 559q48 53 114 83.5t143 30.5
q66 0 131.5 -25.5t121.5 -82.5q14 -14 22 -29t8 -27q0 -23 -21 -23q-8 0 -19 8.5t-23 29.5q-5 9 -18.5 24.5t-27.5 26.5q-11 9 -28 19t-39.5 18.5t-49.5 14.5t-57 6h-11t-11 -1v-614q5 -1 11 -1h11q63 0 115.5 23.5t92 62t63.5 87.5t30 101h-223q-8 0 -17 -1t-19 -1
q-11 0 -18.5 6t-7.5 16q0 8 7.5 15t18.5 7q10 0 19 -1t17 -1h249q21 0 21 -16q0 -65 -27 -126t-73.5 -108t-110.5 -75.5t-137 -28.5q-77 0 -143 30.5t-114 82.5v469zM113 126q-30 42 -46.5 92.5t-16.5 106.5t16.5 106.5t46.5 92.5v-398z" />
    <glyph glyph-name="gcommaaccent" unicode="&#x123;" horiz-adv-x="796" 
d="M345 -191q0 6 4 11t12 5q5 0 9 -1t12 -1q20 0 28 5t8 9q0 5 -5.5 6t-14.5 1q-35 0 -53.5 12t-18.5 38q0 27 22 44.5t50 17.5q32 0 55.5 -19t23.5 -56q0 -17 -6 -33.5t-18 -29.5t-31 -21t-45 -8q-13 0 -22.5 4.5t-9.5 15.5zM141 559q48 53 114 83.5t143 30.5
q66 0 131.5 -25.5t121.5 -82.5q14 -14 22 -29t8 -27q0 -23 -21 -23q-8 0 -19 8.5t-23 29.5q-5 9 -18.5 24.5t-27.5 26.5q-11 9 -28 19t-39.5 18.5t-49.5 14.5t-57 6h-11t-11 -1v-614q5 -1 11 -1h11q63 0 115.5 23.5t92 62t63.5 87.5t30 101h-223q-8 0 -17 -1t-19 -1
q-11 0 -18.5 6t-7.5 16q0 8 7.5 15t18.5 7q10 0 19 -1t17 -1h249q21 0 21 -16q0 -65 -27 -126t-73.5 -108t-110.5 -75.5t-137 -28.5q-77 0 -143 30.5t-114 82.5v469zM113 126q-30 42 -46.5 92.5t-16.5 106.5t16.5 106.5t46.5 92.5v-398z" />
    <glyph glyph-name="Hcircumflex" unicode="&#x124;" 
d="M148 650h212q6 0 10.5 -4.5t4.5 -10.5l-2 -70v-139h298v167q0 8 -1 17.5t-1 19.5q0 11 6.5 18t17.5 7t18 -7t7 -18q0 -10 -1 -19.5t-1 -17.5v-536q0 -8 1 -17.5t1 -19.5q0 -11 -7 -18t-18 -7t-17.5 7t-6.5 18q0 10 1 19.5t1 17.5v329h-298v-301l2 -70q0 -6 -4.5 -10.5
t-10.5 -4.5h-212v650zM88 0q-6 0 -10.5 4.5t-4.5 10.5l2 70v480l-2 70q0 6 4.5 10.5t10.5 4.5h32v-650h-32zM395 781l-132 -61q-6 -3 -13 -5.5t-13 -2.5q-7 0 -12 5t-5 10q0 7 3.5 12.5t7.5 9.5l102 111q17 19 31 27.5t31 8.5t31 -8.5t31 -27.5l102 -111q4 -4 7.5 -9.5
t3.5 -12.5q0 -5 -5 -10t-12 -5q-6 0 -13 2.5t-13 5.5z" />
    <glyph glyph-name="hcircumflex" unicode="&#x125;" 
d="M148 650h212q6 0 10.5 -4.5t4.5 -10.5l-2 -70v-139h298v167q0 8 -1 17.5t-1 19.5q0 11 6.5 18t17.5 7t18 -7t7 -18q0 -10 -1 -19.5t-1 -17.5v-536q0 -8 1 -17.5t1 -19.5q0 -11 -7 -18t-18 -7t-17.5 7t-6.5 18q0 10 1 19.5t1 17.5v329h-298v-301l2 -70q0 -6 -4.5 -10.5
t-10.5 -4.5h-212v650zM88 0q-6 0 -10.5 4.5t-4.5 10.5l2 70v480l-2 70q0 6 4.5 10.5t10.5 4.5h32v-650h-32zM395 781l-132 -61q-6 -3 -13 -5.5t-13 -2.5q-7 0 -12 5t-5 10q0 7 3.5 12.5t7.5 9.5l102 111q17 19 31 27.5t31 8.5t31 -8.5t31 -27.5l102 -111q4 -4 7.5 -9.5
t3.5 -12.5q0 -5 -5 -10t-12 -5q-6 0 -13 2.5t-13 5.5z" />
    <glyph glyph-name="Hbar" unicode="&#x126;" 
d="M148 650h212q6 0 10.5 -4.5t4.5 -10.5l-2 -70v-15h298v43q0 8 -1 17.5t-1 19.5q0 11 6.5 18t17.5 7t18 -7t7 -18q0 -10 -1 -19.5t-1 -17.5v-43h25q10 0 15 -6t5 -14t-5 -14t-15 -6h-25v-453q0 -8 1 -17.5t1 -19.5q0 -11 -7 -18t-18 -7t-17.5 7t-6.5 18q0 10 1 19.5
t1 17.5v329h-298v-301l2 -70q0 -6 -4.5 -10.5t-10.5 -4.5h-212v650zM88 0q-6 0 -10.5 4.5t-4.5 10.5l2 70v425h-25q-10 0 -15 6t-5 14t5 14t15 6h25v15l-2 70q0 6 4.5 10.5t10.5 4.5h32v-650h-32zM671 426v84h-298v-84h298z" />
    <glyph glyph-name="hbar" unicode="&#x127;" 
d="M148 650h212q6 0 10.5 -4.5t4.5 -10.5l-2 -70v-15h298v43q0 8 -1 17.5t-1 19.5q0 11 6.5 18t17.5 7t18 -7t7 -18q0 -10 -1 -19.5t-1 -17.5v-43h25q10 0 15 -6t5 -14t-5 -14t-15 -6h-25v-453q0 -8 1 -17.5t1 -19.5q0 -11 -7 -18t-18 -7t-17.5 7t-6.5 18q0 10 1 19.5
t1 17.5v329h-298v-301l2 -70q0 -6 -4.5 -10.5t-10.5 -4.5h-212v650zM88 0q-6 0 -10.5 4.5t-4.5 10.5l2 70v425h-25q-10 0 -15 6t-5 14t5 14t15 6h25v15l-2 70q0 6 4.5 10.5t10.5 4.5h32v-650h-32zM671 426v84h-298v-84h298z" />
    <glyph glyph-name="Itilde" unicode="&#x128;" horiz-adv-x="448" 
d="M148 650h212q6 0 10.5 -4.5t4.5 -10.5l-2 -70v-480l2 -70q0 -6 -4.5 -10.5t-10.5 -4.5h-212v650zM88 0q-6 0 -10.5 4.5t-4.5 10.5l2 70v480l-2 70q0 6 4.5 10.5t10.5 4.5h32v-650h-32zM307 799q17 0 25 9t8 19q0 7 4.5 12t13.5 5t13.5 -5t4.5 -13q0 -18 -4 -38.5
t-14.5 -37t-28.5 -27.5t-46 -11q-23 0 -41.5 7t-35.5 15.5t-33 15.5t-32 7q-17 0 -25 -9t-8 -19q0 -7 -4.5 -12t-13.5 -5t-13.5 5t-4.5 13q0 18 4 38.5t14.5 37t28.5 27.5t46 11q22 0 41 -7t36 -15.5t33 -15.5t32 -7z" />
    <glyph glyph-name="itilde" unicode="&#x129;" horiz-adv-x="448" 
d="M148 650h212q6 0 10.5 -4.5t4.5 -10.5l-2 -70v-480l2 -70q0 -6 -4.5 -10.5t-10.5 -4.5h-212v650zM88 0q-6 0 -10.5 4.5t-4.5 10.5l2 70v480l-2 70q0 6 4.5 10.5t10.5 4.5h32v-650h-32zM307 799q17 0 25 9t8 19q0 7 4.5 12t13.5 5t13.5 -5t4.5 -13q0 -18 -4 -38.5
t-14.5 -37t-28.5 -27.5t-46 -11q-23 0 -41.5 7t-35.5 15.5t-33 15.5t-32 7q-17 0 -25 -9t-8 -19q0 -7 -4.5 -12t-13.5 -5t-13.5 5t-4.5 13q0 18 4 38.5t14.5 37t28.5 27.5t46 11q22 0 41 -7t36 -15.5t33 -15.5t32 -7z" />
    <glyph glyph-name="Imacron" unicode="&#x12a;" horiz-adv-x="448" 
d="M148 650h212q6 0 10.5 -4.5t4.5 -10.5l-2 -70v-480l2 -70q0 -6 -4.5 -10.5t-10.5 -4.5h-212v650zM88 0q-6 0 -10.5 4.5t-4.5 10.5l2 70v480l-2 70q0 6 4.5 10.5t10.5 4.5h32v-650h-32zM89 732q-10 0 -15 6t-5 14t5 14t15 6h270q10 0 15 -6t5 -14t-5 -14t-15 -6h-270z" />
    <glyph glyph-name="imacron" unicode="&#x12b;" horiz-adv-x="448" 
d="M148 650h212q6 0 10.5 -4.5t4.5 -10.5l-2 -70v-480l2 -70q0 -6 -4.5 -10.5t-10.5 -4.5h-212v650zM88 0q-6 0 -10.5 4.5t-4.5 10.5l2 70v480l-2 70q0 6 4.5 10.5t10.5 4.5h32v-650h-32zM89 732q-10 0 -15 6t-5 14t5 14t15 6h270q10 0 15 -6t5 -14t-5 -14t-15 -6h-270z" />
    <glyph glyph-name="Ibreve" unicode="&#x12c;" horiz-adv-x="448" 
d="M148 650h212q6 0 10.5 -4.5t4.5 -10.5l-2 -70v-480l2 -70q0 -6 -4.5 -10.5t-10.5 -4.5h-212v650zM88 0q-6 0 -10.5 4.5t-4.5 10.5l2 70v480l-2 70q0 6 4.5 10.5t10.5 4.5h32v-650h-32zM378 866q0 -31 -11.5 -59t-32 -49t-49.5 -33.5t-63 -12.5q-35 0 -63.5 12.5t-49 33.5
t-32 49t-11.5 59q0 9 5.5 15.5t16.5 6.5t17 -6.5t6 -14.5q0 -6 4.5 -14t16.5 -14.5t33.5 -11.5t56.5 -5t57 5t34 11.5t16.5 14.5t4.5 14q0 8 5.5 14.5t16.5 6.5t16.5 -6.5t5.5 -15.5z" />
    <glyph glyph-name="ibreve" unicode="&#x12d;" horiz-adv-x="448" 
d="M148 650h212q6 0 10.5 -4.5t4.5 -10.5l-2 -70v-480l2 -70q0 -6 -4.5 -10.5t-10.5 -4.5h-212v650zM88 0q-6 0 -10.5 4.5t-4.5 10.5l2 70v480l-2 70q0 6 4.5 10.5t10.5 4.5h32v-650h-32zM378 866q0 -31 -11.5 -59t-32 -49t-49.5 -33.5t-63 -12.5q-35 0 -63.5 12.5t-49 33.5
t-32 49t-11.5 59q0 9 5.5 15.5t16.5 6.5t17 -6.5t6 -14.5q0 -6 4.5 -14t16.5 -14.5t33.5 -11.5t56.5 -5t57 5t34 11.5t16.5 14.5t4.5 14q0 8 5.5 14.5t16.5 6.5t16.5 -6.5t5.5 -15.5z" />
    <glyph glyph-name="Iogonek" unicode="&#x12e;" horiz-adv-x="448" 
d="M148 650h212q6 0 10.5 -4.5t4.5 -10.5l-2 -70v-480l2 -70q0 -6 -4.5 -10.5t-10.5 -4.5h-82q-30 -32 -46.5 -60.5t-16.5 -52.5q0 -23 15.5 -34t32.5 -11q31 0 62 17q4 3 13 3q1 0 4 -4t6 -9t5 -10t2 -8t-3 -5l-6 -4q-24 -12 -45 -17t-49 -5q-78 0 -118.5 21.5t-40.5 58.5
q0 18 11 35t29 32t41 28t48 25h-74v650zM88 0q-6 0 -10.5 4.5t-4.5 10.5l2 70v480l-2 70q0 6 4.5 10.5t10.5 4.5h32v-650h-32z" />
    <glyph glyph-name="iogonek" unicode="&#x12f;" horiz-adv-x="448" 
d="M148 650h212q6 0 10.5 -4.5t4.5 -10.5l-2 -70v-480l2 -70q0 -6 -4.5 -10.5t-10.5 -4.5h-82q-30 -32 -46.5 -60.5t-16.5 -52.5q0 -23 15.5 -34t32.5 -11q31 0 62 17q4 3 13 3q1 0 4 -4t6 -9t5 -10t2 -8t-3 -5l-6 -4q-24 -12 -45 -17t-49 -5q-78 0 -118.5 21.5t-40.5 58.5
q0 18 11 35t29 32t41 28t48 25h-74v650zM88 0q-6 0 -10.5 4.5t-4.5 10.5l2 70v480l-2 70q0 6 4.5 10.5t10.5 4.5h32v-650h-32z" />
    <glyph glyph-name="Idotaccent" unicode="&#x130;" horiz-adv-x="448" 
d="M148 650h212q6 0 10.5 -4.5t4.5 -10.5l-2 -70v-480l2 -70q0 -6 -4.5 -10.5t-10.5 -4.5h-212v650zM88 0q-6 0 -10.5 4.5t-4.5 10.5l2 70v480l-2 70q0 6 4.5 10.5t10.5 4.5h32v-650h-32zM297 771q0 -29 -21.5 -44t-52.5 -15q-30 0 -51.5 15t-21.5 44q0 26 21.5 41t51.5 15
q31 0 52.5 -15t21.5 -41z" />
    <glyph glyph-name="dotlessi" unicode="&#x131;" horiz-adv-x="448" 
d="M148 650h212q6 0 10.5 -4.5t4.5 -10.5l-2 -70v-480l2 -70q0 -6 -4.5 -10.5t-10.5 -4.5h-212v650zM88 0q-6 0 -10.5 4.5t-4.5 10.5l2 70v480l-2 70q0 6 4.5 10.5t10.5 4.5h32v-650h-32z" />
    <glyph glyph-name="IJ" unicode="&#x132;" horiz-adv-x="1092" 
d="M148 650h212q6 0 10.5 -4.5t4.5 -10.5l-2 -70v-480l2 -70q0 -6 -4.5 -10.5t-10.5 -4.5h-212v650zM88 0q-6 0 -10.5 4.5t-4.5 10.5l2 70v480l-2 70q0 6 4.5 10.5t10.5 4.5h32v-650h-32zM792 650h212q6 0 10.5 -4.5t4.5 -10.5l-2 -70v-318q0 -114 -59.5 -179.5
t-165.5 -83.5v666zM719 565l-2 70q0 6 4.5 10.5t10.5 4.5h32v-670q-27 -3 -56 -3q-63 0 -110 16.5t-78.5 41.5t-47 52.5t-15.5 50.5q0 14 6 22.5t17 8.5q10 0 17.5 -8.5t11.5 -32.5q2 -14 17.5 -38t47.5 -43q26 -15 63.5 -22.5t70.5 -7.5q11 0 11 13v535z" />
    <glyph glyph-name="ij" unicode="&#x133;" horiz-adv-x="1092" 
d="M148 650h212q6 0 10.5 -4.5t4.5 -10.5l-2 -70v-480l2 -70q0 -6 -4.5 -10.5t-10.5 -4.5h-212v650zM88 0q-6 0 -10.5 4.5t-4.5 10.5l2 70v480l-2 70q0 6 4.5 10.5t10.5 4.5h32v-650h-32zM792 650h212q6 0 10.5 -4.5t4.5 -10.5l-2 -70v-318q0 -114 -59.5 -179.5
t-165.5 -83.5v666zM719 565l-2 70q0 6 4.5 10.5t10.5 4.5h32v-670q-27 -3 -56 -3q-63 0 -110 16.5t-78.5 41.5t-47 52.5t-15.5 50.5q0 14 6 22.5t17 8.5q10 0 17.5 -8.5t11.5 -32.5q2 -14 17.5 -38t47.5 -43q26 -15 63.5 -22.5t70.5 -7.5q11 0 11 13v535z" />
    <glyph glyph-name="Jcircumflex" unicode="&#x134;" horiz-adv-x="644" 
d="M344 650h212q6 0 10.5 -4.5t4.5 -10.5l-2 -70v-318q0 -114 -59.5 -179.5t-165.5 -83.5v666zM271 565l-2 70q0 6 4.5 10.5t10.5 4.5h32v-670q-27 -3 -56 -3q-63 0 -110 16.5t-78.5 41.5t-47 52.5t-15.5 50.5q0 14 6 22.5t17 8.5q10 0 17.5 -8.5t11.5 -32.5q2 -14 17.5 -38
t47.5 -43q26 -15 63.5 -22.5t70.5 -7.5q11 0 11 13v535zM412 781l-132 -61q-6 -3 -13 -5.5t-13 -2.5q-7 0 -12 5t-5 10q0 7 3.5 12.5t7.5 9.5l102 111q17 19 31 27.5t31 8.5t31 -8.5t31 -27.5l102 -111q4 -4 7.5 -9.5t3.5 -12.5q0 -5 -5 -10t-12 -5q-6 0 -13 2.5t-13 5.5z
" />
    <glyph glyph-name="jcircumflex" unicode="&#x135;" horiz-adv-x="644" 
d="M344 650h212q6 0 10.5 -4.5t4.5 -10.5l-2 -70v-318q0 -114 -59.5 -179.5t-165.5 -83.5v666zM271 565l-2 70q0 6 4.5 10.5t10.5 4.5h32v-670q-27 -3 -56 -3q-63 0 -110 16.5t-78.5 41.5t-47 52.5t-15.5 50.5q0 14 6 22.5t17 8.5q10 0 17.5 -8.5t11.5 -32.5q2 -14 17.5 -38
t47.5 -43q26 -15 63.5 -22.5t70.5 -7.5q11 0 11 13v535zM412 781l-132 -61q-6 -3 -13 -5.5t-13 -2.5q-7 0 -12 5t-5 10q0 7 3.5 12.5t7.5 9.5l102 111q17 19 31 27.5t31 8.5t31 -8.5t31 -27.5l102 -111q4 -4 7.5 -9.5t3.5 -12.5q0 -5 -5 -10t-12 -5q-6 0 -13 2.5t-13 5.5z
" />
    <glyph glyph-name="Kcommaaccent" unicode="&#x136;" horiz-adv-x="766" 
d="M346 -191q0 6 4 11t12 5q5 0 9 -1t12 -1q20 0 28 5t8 9q0 5 -5.5 6t-14.5 1q-35 0 -53.5 12t-18.5 38q0 27 22 44.5t50 17.5q32 0 55.5 -19t23.5 -56q0 -17 -6 -33.5t-18 -29.5t-31 -21t-45 -8q-13 0 -22.5 4.5t-9.5 15.5zM148 650h212q6 0 10.5 -4.5t4.5 -10.5l-2 -70
v-81l223 138q32 20 45.5 26.5t24.5 6.5q10 0 16 -6t6 -14q0 -11 -7 -17.5t-24 -13.5q-4 -2 -12 -5.5t-17 -8t-18 -9.5t-14 -8l-111 -69l212 -399q9 -17 17 -28.5t11 -16.5q9 -14 13.5 -22.5t4.5 -21.5q0 -10 -8.5 -15.5t-19.5 -5.5q-17 0 -35 41q-4 8 -11 24t-12 24
l-210 396l-74 -45v-350l2 -70q0 -6 -4.5 -10.5t-10.5 -4.5h-212v650zM88 0q-6 0 -10.5 4.5t-4.5 10.5l2 70v480l-2 70q0 6 4.5 10.5t10.5 4.5h32v-650h-32z" />
    <glyph glyph-name="kcommaaccent" unicode="&#x137;" horiz-adv-x="766" 
d="M326 -191q0 6 4 11t12 5q5 0 9 -1t12 -1q20 0 28 5t8 9q0 5 -5.5 6t-14.5 1q-35 0 -53.5 12t-18.5 38q0 27 22 44.5t50 17.5q32 0 55.5 -19t23.5 -56q0 -17 -6 -33.5t-18 -29.5t-31 -21t-45 -8q-13 0 -22.5 4.5t-9.5 15.5zM148 650h212q6 0 10.5 -4.5t4.5 -10.5l-2 -70
v-81l223 138q32 20 45.5 26.5t24.5 6.5q10 0 16 -6t6 -14q0 -11 -7 -17.5t-24 -13.5q-4 -2 -12 -5.5t-17 -8t-18 -9.5t-14 -8l-111 -69l212 -399q9 -17 17 -28.5t11 -16.5q9 -14 13.5 -22.5t4.5 -21.5q0 -10 -8.5 -15.5t-19.5 -5.5q-17 0 -35 41q-4 8 -11 24t-12 24
l-210 396l-74 -45v-350l2 -70q0 -6 -4.5 -10.5t-10.5 -4.5h-212v650zM88 0q-6 0 -10.5 4.5t-4.5 10.5l2 70v480l-2 70q0 6 4.5 10.5t10.5 4.5h32v-650h-32z" />
    <glyph glyph-name="kgreenlandic" unicode="&#x138;" horiz-adv-x="766" 
d="M148 650h212q6 0 10.5 -4.5t4.5 -10.5l-2 -70v-81l223 138q32 20 45.5 26.5t24.5 6.5q10 0 16 -6t6 -14q0 -11 -7 -17.5t-24 -13.5q-4 -2 -12 -5.5t-17 -8t-18 -9.5t-14 -8l-111 -69l212 -399q9 -17 17 -28.5t11 -16.5q9 -14 13.5 -22.5t4.5 -21.5q0 -10 -8.5 -15.5
t-19.5 -5.5q-17 0 -35 41q-4 8 -11 24t-12 24l-210 396l-74 -45v-350l2 -70q0 -6 -4.5 -10.5t-10.5 -4.5h-212v650zM88 0q-6 0 -10.5 4.5t-4.5 10.5l2 70v480l-2 70q0 6 4.5 10.5t10.5 4.5h32v-650h-32z" />
    <glyph glyph-name="Lacute" unicode="&#x139;" horiz-adv-x="676" 
d="M148 650h212q6 0 10.5 -4.5t4.5 -10.5l-2 -70v-525h166q37 0 62 2t43 2q17 0 25 -7.5t8 -15.5q0 -10 -8 -16.5t-23 -6.5q-17 0 -33.5 1t-30.5 1h-434v650zM88 0q-6 0 -10.5 4.5t-4.5 10.5l2 70v480l-2 70q0 6 4.5 10.5t10.5 4.5h32v-650h-32zM261 860q17 19 31.5 27.5
t31.5 8.5q24 0 38 -14.5t14 -34.5t-13.5 -36t-43.5 -30l-128 -61q-7 -3 -13.5 -5.5t-12.5 -2.5q-7 0 -12 5t-5 10q0 7 3.5 12.5t7.5 9.5z" />
    <glyph glyph-name="lacute" unicode="&#x13a;" horiz-adv-x="676" 
d="M148 650h212q6 0 10.5 -4.5t4.5 -10.5l-2 -70v-525h166q37 0 62 2t43 2q17 0 25 -7.5t8 -15.5q0 -10 -8 -16.5t-23 -6.5q-17 0 -33.5 1t-30.5 1h-434v650zM88 0q-6 0 -10.5 4.5t-4.5 10.5l2 70v480l-2 70q0 6 4.5 10.5t10.5 4.5h32v-650h-32zM261 860q17 19 31.5 27.5
t31.5 8.5q24 0 38 -14.5t14 -34.5t-13.5 -36t-43.5 -30l-128 -61q-7 -3 -13.5 -5.5t-12.5 -2.5q-7 0 -12 5t-5 10q0 7 3.5 12.5t7.5 9.5z" />
    <glyph glyph-name="Lcommaaccent" unicode="&#x13b;" horiz-adv-x="676" 
d="M325 -191q0 6 4 11t12 5q5 0 9 -1t12 -1q20 0 28 5t8 9q0 5 -5.5 6t-14.5 1q-35 0 -53.5 12t-18.5 38q0 27 22 44.5t50 17.5q32 0 55.5 -19t23.5 -56q0 -17 -6 -33.5t-18 -29.5t-31 -21t-45 -8q-13 0 -22.5 4.5t-9.5 15.5zM148 650h212q6 0 10.5 -4.5t4.5 -10.5l-2 -70
v-525h166q37 0 62 2t43 2q17 0 25 -7.5t8 -15.5q0 -10 -8 -16.5t-23 -6.5q-17 0 -33.5 1t-30.5 1h-434v650zM88 0q-6 0 -10.5 4.5t-4.5 10.5l2 70v480l-2 70q0 6 4.5 10.5t10.5 4.5h32v-650h-32z" />
    <glyph glyph-name="lcommaaccent" unicode="&#x13c;" horiz-adv-x="676" 
d="M281 -191q0 6 4 11t12 5q5 0 9 -1t12 -1q20 0 28 5t8 9q0 5 -5.5 6t-14.5 1q-35 0 -53.5 12t-18.5 38q0 27 22 44.5t50 17.5q32 0 55.5 -19t23.5 -56q0 -17 -6 -33.5t-18 -29.5t-31 -21t-45 -8q-13 0 -22.5 4.5t-9.5 15.5zM148 650h212q6 0 10.5 -4.5t4.5 -10.5l-2 -70
v-525h166q37 0 62 2t43 2q17 0 25 -7.5t8 -15.5q0 -10 -8 -16.5t-23 -6.5q-17 0 -33.5 1t-30.5 1h-434v650zM88 0q-6 0 -10.5 4.5t-4.5 10.5l2 70v480l-2 70q0 6 4.5 10.5t10.5 4.5h32v-650h-32z" />
    <glyph glyph-name="Lcaron" unicode="&#x13d;" horiz-adv-x="676" 
d="M428 546q0 6 3.5 11t11.5 5q4 0 8 -1t12 -1q18 0 22.5 5t4.5 9q0 5 -4 6t-12 1q-26 0 -42.5 12t-16.5 38q0 27 18.5 44.5t46.5 17.5q30 0 50.5 -20t20.5 -55q0 -17 -5.5 -33.5t-17 -29.5t-29 -21t-42.5 -8q-11 0 -20 4.5t-9 15.5zM148 650h212q6 0 10.5 -4.5t4.5 -10.5
l-2 -70v-525h166q37 0 62 2t43 2q17 0 25 -7.5t8 -15.5q0 -10 -8 -16.5t-23 -6.5q-17 0 -33.5 1t-30.5 1h-434v650zM88 0q-6 0 -10.5 4.5t-4.5 10.5l2 70v480l-2 70q0 6 4.5 10.5t10.5 4.5h32v-650h-32z" />
    <glyph glyph-name="lcaron" unicode="&#x13e;" horiz-adv-x="676" 
d="M428 546q0 6 3.5 11t11.5 5q4 0 8 -1t12 -1q18 0 22.5 5t4.5 9q0 5 -4 6t-12 1q-26 0 -42.5 12t-16.5 38q0 27 18.5 44.5t46.5 17.5q30 0 50.5 -20t20.5 -55q0 -17 -5.5 -33.5t-17 -29.5t-29 -21t-42.5 -8q-11 0 -20 4.5t-9 15.5zM148 650h212q6 0 10.5 -4.5t4.5 -10.5
l-2 -70v-525h166q37 0 62 2t43 2q17 0 25 -7.5t8 -15.5q0 -10 -8 -16.5t-23 -6.5q-17 0 -33.5 1t-30.5 1h-434v650zM88 0q-6 0 -10.5 4.5t-4.5 10.5l2 70v480l-2 70q0 6 4.5 10.5t10.5 4.5h32v-650h-32z" />
    <glyph glyph-name="Ldot" unicode="&#x13f;" horiz-adv-x="676" 
d="M551 405q0 -29 -18 -47t-49 -18q-30 0 -48.5 18t-18.5 47q0 26 18.5 45.5t48.5 19.5q31 0 49 -19.5t18 -45.5zM148 650h212q6 0 10.5 -4.5t4.5 -10.5l-2 -70v-525h166q37 0 62 2t43 2q17 0 25 -7.5t8 -15.5q0 -10 -8 -16.5t-23 -6.5q-17 0 -33.5 1t-30.5 1h-434v650z
M88 0q-6 0 -10.5 4.5t-4.5 10.5l2 70v480l-2 70q0 6 4.5 10.5t10.5 4.5h32v-650h-32z" />
    <glyph glyph-name="ldot" unicode="&#x140;" horiz-adv-x="676" 
d="M551 405q0 -29 -18 -47t-49 -18q-30 0 -48.5 18t-18.5 47q0 26 18.5 45.5t48.5 19.5q31 0 49 -19.5t18 -45.5zM148 650h212q6 0 10.5 -4.5t4.5 -10.5l-2 -70v-525h166q37 0 62 2t43 2q17 0 25 -7.5t8 -15.5q0 -10 -8 -16.5t-23 -6.5q-17 0 -33.5 1t-30.5 1h-434v650z
M88 0q-6 0 -10.5 4.5t-4.5 10.5l2 70v480l-2 70q0 6 4.5 10.5t10.5 4.5h32v-650h-32z" />
    <glyph glyph-name="Lslash" unicode="&#x141;" horiz-adv-x="676" 
d="M148 650h212q6 0 10.5 -4.5t4.5 -10.5l-2 -70v-98l76 55q9 7 13.5 9.5t12.5 2.5q6 0 13 -7.5t7 -14.5q0 -6 -3.5 -11t-14.5 -13l-104 -76v-372h166q37 0 62 2t43 2q17 0 25 -7.5t8 -15.5q0 -9 -8 -16t-22 -7q-4 0 -21.5 0.5t-43.5 1.5h-434v650zM88 0q-6 0 -10.5 4.5
t-4.5 10.5l2 70v109l-24 -17q-9 -7 -13.5 -9.5t-12.5 -2.5q-6 0 -13 7.5t-7 14.5q0 6 3.5 11t14.5 13l52 37v317l-2 70q0 6 4.5 10.5t10.5 4.5h32v-650h-32z" />
    <glyph glyph-name="lslash" unicode="&#x142;" horiz-adv-x="676" 
d="M148 650h212q6 0 10.5 -4.5t4.5 -10.5l-2 -70v-98l76 55q9 7 13.5 9.5t12.5 2.5q6 0 13 -7.5t7 -14.5q0 -6 -3.5 -11t-14.5 -13l-104 -76v-372h166q37 0 62 2t43 2q17 0 25 -7.5t8 -15.5q0 -9 -8 -16t-22 -7q-4 0 -21.5 0.5t-43.5 1.5h-434v650zM88 0q-6 0 -10.5 4.5
t-4.5 10.5l2 70v109l-24 -17q-9 -7 -13.5 -9.5t-12.5 -2.5q-6 0 -13 7.5t-7 14.5q0 6 3.5 11t14.5 13l52 37v317l-2 70q0 6 4.5 10.5t10.5 4.5h32v-650h-32z" />
    <glyph glyph-name="Nacute" unicode="&#x143;" 
d="M75 419v146l-2 70q0 6 4.5 10.5t10.5 4.5q8 0 15.5 -2.5t15.5 -7.5l552 -301v254q0 8 -1 17.5t-1 19.5q0 11 6.5 18t17.5 7t18 -7t7 -18q0 -10 -1 -19.5t-1 -17.5v-524zM120 311v-254q0 -8 1 -17.5t1 -19.5q0 -11 -7 -18t-18 -7t-17.5 7t-6.5 18q0 10 1 19.5t1 17.5v330
l642 -351l1 -21q0 -6 -4.5 -10.5t-10.5 -4.5q-8 0 -15.5 2.5t-15.5 7.5zM408 860q17 19 31.5 27.5t31.5 8.5q24 0 38 -14.5t14 -34.5t-13.5 -36t-43.5 -30l-128 -61q-7 -3 -13.5 -5.5t-12.5 -2.5q-7 0 -12 5t-5 10q0 7 3.5 12.5t7.5 9.5z" />
    <glyph glyph-name="nacute" unicode="&#x144;" 
d="M75 419v146l-2 70q0 6 4.5 10.5t10.5 4.5q8 0 15.5 -2.5t15.5 -7.5l552 -301v254q0 8 -1 17.5t-1 19.5q0 11 6.5 18t17.5 7t18 -7t7 -18q0 -10 -1 -19.5t-1 -17.5v-524zM120 311v-254q0 -8 1 -17.5t1 -19.5q0 -11 -7 -18t-18 -7t-17.5 7t-6.5 18q0 10 1 19.5t1 17.5v330
l642 -351l1 -21q0 -6 -4.5 -10.5t-10.5 -4.5q-8 0 -15.5 2.5t-15.5 7.5zM408 860q17 19 31.5 27.5t31.5 8.5q24 0 38 -14.5t14 -34.5t-13.5 -36t-43.5 -30l-128 -61q-7 -3 -13.5 -5.5t-12.5 -2.5q-7 0 -12 5t-5 10q0 7 3.5 12.5t7.5 9.5z" />
    <glyph glyph-name="Ncommaaccent" unicode="&#x145;" 
d="M338 -191q0 6 4 11t12 5q5 0 9 -1t12 -1q20 0 28 5t8 9q0 5 -5.5 6t-14.5 1q-35 0 -53.5 12t-18.5 38q0 27 22 44.5t50 17.5q32 0 55.5 -19t23.5 -56q0 -17 -6 -33.5t-18 -29.5t-31 -21t-45 -8q-13 0 -22.5 4.5t-9.5 15.5zM75 419v146l-2 70q0 6 4.5 10.5t10.5 4.5
q8 0 15.5 -2.5t15.5 -7.5l552 -301v254q0 8 -1 17.5t-1 19.5q0 11 6.5 18t17.5 7t18 -7t7 -18q0 -10 -1 -19.5t-1 -17.5v-524zM120 311v-254q0 -8 1 -17.5t1 -19.5q0 -11 -7 -18t-18 -7t-17.5 7t-6.5 18q0 10 1 19.5t1 17.5v330l642 -351l1 -21q0 -6 -4.5 -10.5t-10.5 -4.5
q-8 0 -15.5 2.5t-15.5 7.5z" />
    <glyph glyph-name="ncommaaccent" unicode="&#x146;" 
d="M338 -191q0 6 4 11t12 5q5 0 9 -1t12 -1q20 0 28 5t8 9q0 5 -5.5 6t-14.5 1q-35 0 -53.5 12t-18.5 38q0 27 22 44.5t50 17.5q32 0 55.5 -19t23.5 -56q0 -17 -6 -33.5t-18 -29.5t-31 -21t-45 -8q-13 0 -22.5 4.5t-9.5 15.5zM75 419v146l-2 70q0 6 4.5 10.5t10.5 4.5
q8 0 15.5 -2.5t15.5 -7.5l552 -301v254q0 8 -1 17.5t-1 19.5q0 11 6.5 18t17.5 7t18 -7t7 -18q0 -10 -1 -19.5t-1 -17.5v-524zM120 311v-254q0 -8 1 -17.5t1 -19.5q0 -11 -7 -18t-18 -7t-17.5 7t-6.5 18q0 10 1 19.5t1 17.5v330l642 -351l1 -21q0 -6 -4.5 -10.5t-10.5 -4.5
q-8 0 -15.5 2.5t-15.5 7.5z" />
    <glyph glyph-name="Ncaron" unicode="&#x147;" 
d="M75 419v146l-2 70q0 6 4.5 10.5t10.5 4.5q8 0 15.5 -2.5t15.5 -7.5l552 -301v254q0 8 -1 17.5t-1 19.5q0 11 6.5 18t17.5 7t18 -7t7 -18q0 -10 -1 -19.5t-1 -17.5v-524zM120 311v-254q0 -8 1 -17.5t1 -19.5q0 -11 -7 -18t-18 -7t-17.5 7t-6.5 18q0 10 1 19.5t1 17.5v330
l642 -351l1 -21q0 -6 -4.5 -10.5t-10.5 -4.5q-8 0 -15.5 2.5t-15.5 7.5zM231 859q-4 4 -7.5 9.5t-3.5 12.5q0 5 5 10t12 5q6 0 13 -2.5t13 -5.5l132 -61l132 61q6 3 13 5.5t13 2.5q7 0 12 -5t5 -10q0 -7 -3.5 -12.5t-7.5 -9.5l-102 -111q-17 -19 -31 -27.5t-31 -8.5t-31 8.5
t-31 27.5z" />
    <glyph glyph-name="ncaron" unicode="&#x148;" 
d="M75 419v146l-2 70q0 6 4.5 10.5t10.5 4.5q8 0 15.5 -2.5t15.5 -7.5l552 -301v254q0 8 -1 17.5t-1 19.5q0 11 6.5 18t17.5 7t18 -7t7 -18q0 -10 -1 -19.5t-1 -17.5v-524zM120 311v-254q0 -8 1 -17.5t1 -19.5q0 -11 -7 -18t-18 -7t-17.5 7t-6.5 18q0 10 1 19.5t1 17.5v330
l642 -351l1 -21q0 -6 -4.5 -10.5t-10.5 -4.5q-8 0 -15.5 2.5t-15.5 7.5zM231 859q-4 4 -7.5 9.5t-3.5 12.5q0 5 5 10t12 5q6 0 13 -2.5t13 -5.5l132 -61l132 61q6 3 13 5.5t13 2.5q7 0 12 -5t5 -10q0 -7 -3.5 -12.5t-7.5 -9.5l-102 -111q-17 -19 -31 -27.5t-31 -8.5t-31 8.5
t-31 27.5z" />
    <glyph glyph-name="napostrophe" unicode="&#x149;" 
d="M-68 546q0 6 3.5 11t11.5 5q4 0 8 -1t12 -1q18 0 22.5 5t4.5 9q0 5 -4 6t-12 1q-26 0 -42.5 12t-16.5 38q0 27 18.5 44.5t46.5 17.5q30 0 50.5 -20t20.5 -55q0 -17 -5.5 -33.5t-17 -29.5t-29 -21t-42.5 -8q-11 0 -20 4.5t-9 15.5zM75 419v146l-2 70q0 6 4.5 10.5
t10.5 4.5q8 0 15.5 -2.5t15.5 -7.5l552 -301v254q0 8 -1 17.5t-1 19.5q0 11 6.5 18t17.5 7t18 -7t7 -18q0 -10 -1 -19.5t-1 -17.5v-524zM120 311v-254q0 -8 1 -17.5t1 -19.5q0 -11 -7 -18t-18 -7t-17.5 7t-6.5 18q0 10 1 19.5t1 17.5v330l642 -351l1 -21q0 -6 -4.5 -10.5
t-10.5 -4.5q-8 0 -15.5 2.5t-15.5 7.5z" />
    <glyph glyph-name="Eng" unicode="&#x14a;" 
d="M75 419v146l-2 70q0 6 4.5 10.5t10.5 4.5q8 0 15.5 -2.5t15.5 -7.5l552 -301v254q0 8 -1 17.5t-1 19.5q0 11 6.5 18t17.5 7t18 -7t7 -18q0 -10 -1 -19.5t-1 -17.5v-524zM120 311v-254q0 -8 1 -17.5t1 -19.5q0 -11 -7 -18t-18 -7t-17.5 7t-6.5 18q0 10 1 19.5t1 17.5v330
l641 -351q-2 -31 -9 -59.5t-20.5 -51t-34 -36t-49.5 -13.5q-11 0 -21.5 6.5t-10.5 21.5q0 13 8 19t18.5 9t21 4.5t15.5 5.5q15 11 22 30.5t10 40.5z" />
    <glyph glyph-name="eng" unicode="&#x14b;" 
d="M75 419v146l-2 70q0 6 4.5 10.5t10.5 4.5q8 0 15.5 -2.5t15.5 -7.5l552 -301v254q0 8 -1 17.5t-1 19.5q0 11 6.5 18t17.5 7t18 -7t7 -18q0 -10 -1 -19.5t-1 -17.5v-524zM120 311v-254q0 -8 1 -17.5t1 -19.5q0 -11 -7 -18t-18 -7t-17.5 7t-6.5 18q0 10 1 19.5t1 17.5v330
l641 -351q-2 -31 -9 -59.5t-20.5 -51t-34 -36t-49.5 -13.5q-11 0 -21.5 6.5t-10.5 21.5q0 13 8 19t18.5 9t21 4.5t15.5 5.5q15 11 22 30.5t10 40.5z" />
    <glyph glyph-name="Omacron" unicode="&#x14c;" horiz-adv-x="796" 
d="M141 559q48 53 114 83.5t143 30.5q72 0 135.5 -27.5t110.5 -74.5t74.5 -110.5t27.5 -135.5t-27.5 -135.5t-74.5 -110.5t-110.5 -74.5t-135.5 -27.5q-77 0 -143 30.5t-114 82.5v469zM113 125q-29 43 -46 93.5t-17 106.5t16.5 106.5t46.5 93.5v-400zM376 18q5 -1 11 -1h11
q63 0 118 24.5t96 66.5t65 98t24 119t-24 119t-65 98t-96 66.5t-118 24.5h-11t-11 -1v-614zM267 732q-10 0 -15 6t-5 14t5 14t15 6h270q10 0 15 -6t5 -14t-5 -14t-15 -6h-270z" />
    <glyph glyph-name="omacron" unicode="&#x14d;" horiz-adv-x="796" 
d="M141 559q48 53 114 83.5t143 30.5q72 0 135.5 -27.5t110.5 -74.5t74.5 -110.5t27.5 -135.5t-27.5 -135.5t-74.5 -110.5t-110.5 -74.5t-135.5 -27.5q-77 0 -143 30.5t-114 82.5v469zM113 125q-29 43 -46 93.5t-17 106.5t16.5 106.5t46.5 93.5v-400zM376 18q5 -1 11 -1h11
q63 0 118 24.5t96 66.5t65 98t24 119t-24 119t-65 98t-96 66.5t-118 24.5h-11t-11 -1v-614zM267 732q-10 0 -15 6t-5 14t5 14t15 6h270q10 0 15 -6t5 -14t-5 -14t-15 -6h-270z" />
    <glyph glyph-name="Obreve" unicode="&#x14e;" horiz-adv-x="796" 
d="M141 559q48 53 114 83.5t143 30.5q72 0 135.5 -27.5t110.5 -74.5t74.5 -110.5t27.5 -135.5t-27.5 -135.5t-74.5 -110.5t-110.5 -74.5t-135.5 -27.5q-77 0 -143 30.5t-114 82.5v469zM113 125q-29 43 -46 93.5t-17 106.5t16.5 106.5t46.5 93.5v-400zM376 18q5 -1 11 -1h11
q63 0 118 24.5t96 66.5t65 98t24 119t-24 119t-65 98t-96 66.5t-118 24.5h-11t-11 -1v-614zM556 866q0 -31 -11.5 -59t-32 -49t-49.5 -33.5t-63 -12.5q-35 0 -63.5 12.5t-49 33.5t-32 49t-11.5 59q0 9 5.5 15.5t16.5 6.5t17 -6.5t6 -14.5q0 -6 4.5 -14t16.5 -14.5
t33.5 -11.5t56.5 -5t57 5t34 11.5t16.5 14.5t4.5 14q0 8 5.5 14.5t16.5 6.5t16.5 -6.5t5.5 -15.5z" />
    <glyph glyph-name="obreve" unicode="&#x14f;" horiz-adv-x="796" 
d="M141 559q48 53 114 83.5t143 30.5q72 0 135.5 -27.5t110.5 -74.5t74.5 -110.5t27.5 -135.5t-27.5 -135.5t-74.5 -110.5t-110.5 -74.5t-135.5 -27.5q-77 0 -143 30.5t-114 82.5v469zM113 125q-29 43 -46 93.5t-17 106.5t16.5 106.5t46.5 93.5v-400zM376 18q5 -1 11 -1h11
q63 0 118 24.5t96 66.5t65 98t24 119t-24 119t-65 98t-96 66.5t-118 24.5h-11t-11 -1v-614zM556 866q0 -31 -11.5 -59t-32 -49t-49.5 -33.5t-63 -12.5q-35 0 -63.5 12.5t-49 33.5t-32 49t-11.5 59q0 9 5.5 15.5t16.5 6.5t17 -6.5t6 -14.5q0 -6 4.5 -14t16.5 -14.5
t33.5 -11.5t56.5 -5t57 5t34 11.5t16.5 14.5t4.5 14q0 8 5.5 14.5t16.5 6.5t16.5 -6.5t5.5 -15.5z" />
    <glyph glyph-name="Ohungarumlaut" unicode="&#x150;" horiz-adv-x="796" 
d="M141 559q48 53 114 83.5t143 30.5q72 0 135.5 -27.5t110.5 -74.5t74.5 -110.5t27.5 -135.5t-27.5 -135.5t-74.5 -110.5t-110.5 -74.5t-135.5 -27.5q-77 0 -143 30.5t-114 82.5v469zM113 125q-29 43 -46 93.5t-17 106.5t16.5 106.5t46.5 93.5v-400zM376 18q5 -1 11 -1h11
q63 0 118 24.5t96 66.5t65 98t24 119t-24 119t-65 98t-96 66.5t-118 24.5h-11t-11 -1v-614zM486 853q27 43 62 43q22 0 37 -12.5t15 -31.5q0 -23 -12.5 -39t-44.5 -37l-85 -54q-6 -4 -12.5 -7t-12.5 -3q-7 0 -12 5t-5 10q0 7 2 12t5 10zM306 853q27 43 62 43q22 0 37 -12.5
t15 -31.5q0 -23 -12.5 -39t-44.5 -37l-85 -54q-6 -4 -12.5 -7t-12.5 -3q-7 0 -12 5t-5 10q0 7 2 12t5 10z" />
    <glyph glyph-name="ohungarumlaut" unicode="&#x151;" horiz-adv-x="796" 
d="M141 559q48 53 114 83.5t143 30.5q72 0 135.5 -27.5t110.5 -74.5t74.5 -110.5t27.5 -135.5t-27.5 -135.5t-74.5 -110.5t-110.5 -74.5t-135.5 -27.5q-77 0 -143 30.5t-114 82.5v469zM113 125q-29 43 -46 93.5t-17 106.5t16.5 106.5t46.5 93.5v-400zM376 18q5 -1 11 -1h11
q63 0 118 24.5t96 66.5t65 98t24 119t-24 119t-65 98t-96 66.5t-118 24.5h-11t-11 -1v-614zM486 853q27 43 62 43q22 0 37 -12.5t15 -31.5q0 -23 -12.5 -39t-44.5 -37l-85 -54q-6 -4 -12.5 -7t-12.5 -3q-7 0 -12 5t-5 10q0 7 2 12t5 10zM306 853q27 43 62 43q22 0 37 -12.5
t15 -31.5q0 -23 -12.5 -39t-44.5 -37l-85 -54q-6 -4 -12.5 -7t-12.5 -3q-7 0 -12 5t-5 10q0 7 2 12t5 10z" />
    <glyph glyph-name="OE" unicode="&#x152;" horiz-adv-x="1341" 
d="M774 650h423q8 0 17 1t19 1q11 0 18.5 -7t7.5 -15q0 -10 -7.5 -16t-18.5 -6q-10 0 -19 1t-17 1h-198v-138h215q8 0 17 1t19 1q11 0 18.5 -7t7.5 -15q0 -10 -7.5 -16t-18.5 -6q-10 0 -19 1t-17 1h-215v-392h242q8 0 17 1t19 1q11 0 18.5 -7t7.5 -15q0 -10 -7.5 -16
t-18.5 -6q-10 0 -19 1t-17 1h-467v650zM714 0q-6 0 -10.5 4.5t-4.5 10.5l2 70v69q-23 -40 -54.5 -72.5t-70.5 -56t-84 -36t-94 -12.5q-77 0 -143 30.5t-114 82.5v469q48 53 114 83.5t143 30.5q49 0 94 -13t84 -36t70.5 -55.5t54.5 -72.5v69l-2 70q0 6 4.5 10.5t10.5 4.5h32
v-650h-32zM113 125q-29 43 -46 93.5t-17 106.5t16.5 106.5t46.5 93.5v-400zM376 18q5 -1 11 -1h11q63 0 118 24.5t96 66.5t65 98t24 119t-24 119t-65 98t-96 66.5t-118 24.5h-11t-11 -1v-614z" />
    <glyph glyph-name="oe" unicode="&#x153;" horiz-adv-x="1341" 
d="M774 650h423q8 0 17 1t19 1q11 0 18.5 -7t7.5 -15q0 -10 -7.5 -16t-18.5 -6q-10 0 -19 1t-17 1h-198v-138h215q8 0 17 1t19 1q11 0 18.5 -7t7.5 -15q0 -10 -7.5 -16t-18.5 -6q-10 0 -19 1t-17 1h-215v-392h242q8 0 17 1t19 1q11 0 18.5 -7t7.5 -15q0 -10 -7.5 -16
t-18.5 -6q-10 0 -19 1t-17 1h-467v650zM714 0q-6 0 -10.5 4.5t-4.5 10.5l2 70v69q-23 -40 -54.5 -72.5t-70.5 -56t-84 -36t-94 -12.5q-77 0 -143 30.5t-114 82.5v469q48 53 114 83.5t143 30.5q49 0 94 -13t84 -36t70.5 -55.5t54.5 -72.5v69l-2 70q0 6 4.5 10.5t10.5 4.5h32
v-650h-32zM113 125q-29 43 -46 93.5t-17 106.5t16.5 106.5t46.5 93.5v-400zM376 18q5 -1 11 -1h11q63 0 118 24.5t96 66.5t65 98t24 119t-24 119t-65 98t-96 66.5t-118 24.5h-11t-11 -1v-614z" />
    <glyph glyph-name="Racute" unicode="&#x154;" horiz-adv-x="783" 
d="M148 650h232q70 0 134.5 -16.5t114.5 -51t80 -88.5t30 -130q0 -57 -19.5 -102t-52.5 -77t-77 -52t-93 -27q25 -14 47.5 -25t44.5 -20q24 -11 48 -16t41 -7q31 -3 31 -25q0 -12 -7 -17.5t-18 -5.5q-18 0 -44 6t-58 20q-23 10 -50 24t-55 30t-55 33t-49 33v-51l2 -70
q0 -6 -4.5 -10.5t-10.5 -4.5h-212v650zM88 0q-6 0 -10.5 4.5t-4.5 10.5l2 70v480l-2 70q0 6 4.5 10.5t10.5 4.5h32v-650h-32zM445 143q49 0 94 14t79.5 41.5t55 69t20.5 96.5q0 63 -26 109.5t-68.5 76.5t-96.5 45t-110 15h-20v-423q17 -12 32.5 -23t30.5 -21h9zM404 860
q17 19 31.5 27.5t31.5 8.5q24 0 38 -14.5t14 -34.5t-13.5 -36t-43.5 -30l-128 -61q-7 -3 -13.5 -5.5t-12.5 -2.5q-7 0 -12 5t-5 10q0 7 3.5 12.5t7.5 9.5z" />
    <glyph glyph-name="racute" unicode="&#x155;" horiz-adv-x="783" 
d="M148 650h232q70 0 134.5 -16.5t114.5 -51t80 -88.5t30 -130q0 -57 -19.5 -102t-52.5 -77t-77 -52t-93 -27q25 -14 47.5 -25t44.5 -20q24 -11 48 -16t41 -7q31 -3 31 -25q0 -12 -7 -17.5t-18 -5.5q-18 0 -44 6t-58 20q-23 10 -50 24t-55 30t-55 33t-49 33v-51l2 -70
q0 -6 -4.5 -10.5t-10.5 -4.5h-212v650zM88 0q-6 0 -10.5 4.5t-4.5 10.5l2 70v480l-2 70q0 6 4.5 10.5t10.5 4.5h32v-650h-32zM445 143q49 0 94 14t79.5 41.5t55 69t20.5 96.5q0 63 -26 109.5t-68.5 76.5t-96.5 45t-110 15h-20v-423q17 -12 32.5 -23t30.5 -21h9zM404 860
q17 19 31.5 27.5t31.5 8.5q24 0 38 -14.5t14 -34.5t-13.5 -36t-43.5 -30l-128 -61q-7 -3 -13.5 -5.5t-12.5 -2.5q-7 0 -12 5t-5 10q0 7 3.5 12.5t7.5 9.5z" />
    <glyph glyph-name="Rcommaaccent" unicode="&#x156;" horiz-adv-x="783" 
d="M354 -191q0 6 4 11t12 5q5 0 9 -1t12 -1q20 0 28 5t8 9q0 5 -5.5 6t-14.5 1q-35 0 -53.5 12t-18.5 38q0 27 22 44.5t50 17.5q32 0 55.5 -19t23.5 -56q0 -17 -6 -33.5t-18 -29.5t-31 -21t-45 -8q-13 0 -22.5 4.5t-9.5 15.5zM148 650h232q70 0 134.5 -16.5t114.5 -51
t80 -88.5t30 -130q0 -57 -19.5 -102t-52.5 -77t-77 -52t-93 -27q25 -14 47.5 -25t44.5 -20q24 -11 48 -16t41 -7q31 -3 31 -25q0 -12 -7 -17.5t-18 -5.5q-18 0 -44 6t-58 20q-23 10 -50 24t-55 30t-55 33t-49 33v-51l2 -70q0 -6 -4.5 -10.5t-10.5 -4.5h-212v650zM88 0
q-6 0 -10.5 4.5t-4.5 10.5l2 70v480l-2 70q0 6 4.5 10.5t10.5 4.5h32v-650h-32zM445 143q49 0 94 14t79.5 41.5t55 69t20.5 96.5q0 63 -26 109.5t-68.5 76.5t-96.5 45t-110 15h-20v-423q17 -12 32.5 -23t30.5 -21h9z" />
    <glyph glyph-name="rcommaaccent" unicode="&#x157;" horiz-adv-x="783" 
d="M334 -191q0 6 4 11t12 5q5 0 9 -1t12 -1q20 0 28 5t8 9q0 5 -5.5 6t-14.5 1q-35 0 -53.5 12t-18.5 38q0 27 22 44.5t50 17.5q32 0 55.5 -19t23.5 -56q0 -17 -6 -33.5t-18 -29.5t-31 -21t-45 -8q-13 0 -22.5 4.5t-9.5 15.5zM148 650h232q70 0 134.5 -16.5t114.5 -51
t80 -88.5t30 -130q0 -57 -19.5 -102t-52.5 -77t-77 -52t-93 -27q25 -14 47.5 -25t44.5 -20q24 -11 48 -16t41 -7q31 -3 31 -25q0 -12 -7 -17.5t-18 -5.5q-18 0 -44 6t-58 20q-23 10 -50 24t-55 30t-55 33t-49 33v-51l2 -70q0 -6 -4.5 -10.5t-10.5 -4.5h-212v650zM88 0
q-6 0 -10.5 4.5t-4.5 10.5l2 70v480l-2 70q0 6 4.5 10.5t10.5 4.5h32v-650h-32zM445 143q49 0 94 14t79.5 41.5t55 69t20.5 96.5q0 63 -26 109.5t-68.5 76.5t-96.5 45t-110 15h-20v-423q17 -12 32.5 -23t30.5 -21h9z" />
    <glyph glyph-name="Rcaron" unicode="&#x158;" horiz-adv-x="783" 
d="M148 650h232q70 0 134.5 -16.5t114.5 -51t80 -88.5t30 -130q0 -57 -19.5 -102t-52.5 -77t-77 -52t-93 -27q25 -14 47.5 -25t44.5 -20q24 -11 48 -16t41 -7q31 -3 31 -25q0 -12 -7 -17.5t-18 -5.5q-18 0 -44 6t-58 20q-23 10 -50 24t-55 30t-55 33t-49 33v-51l2 -70
q0 -6 -4.5 -10.5t-10.5 -4.5h-212v650zM88 0q-6 0 -10.5 4.5t-4.5 10.5l2 70v480l-2 70q0 6 4.5 10.5t10.5 4.5h32v-650h-32zM445 143q49 0 94 14t79.5 41.5t55 69t20.5 96.5q0 63 -26 109.5t-68.5 76.5t-96.5 45t-110 15h-20v-423q17 -12 32.5 -23t30.5 -21h9zM227 859
q-4 4 -7.5 9.5t-3.5 12.5q0 5 5 10t12 5q6 0 13 -2.5t13 -5.5l132 -61l132 61q6 3 13 5.5t13 2.5q7 0 12 -5t5 -10q0 -7 -3.5 -12.5t-7.5 -9.5l-102 -111q-17 -19 -31 -27.5t-31 -8.5t-31 8.5t-31 27.5z" />
    <glyph glyph-name="rcaron" unicode="&#x159;" horiz-adv-x="783" 
d="M148 650h232q70 0 134.5 -16.5t114.5 -51t80 -88.5t30 -130q0 -57 -19.5 -102t-52.5 -77t-77 -52t-93 -27q25 -14 47.5 -25t44.5 -20q24 -11 48 -16t41 -7q31 -3 31 -25q0 -12 -7 -17.5t-18 -5.5q-18 0 -44 6t-58 20q-23 10 -50 24t-55 30t-55 33t-49 33v-51l2 -70
q0 -6 -4.5 -10.5t-10.5 -4.5h-212v650zM88 0q-6 0 -10.5 4.5t-4.5 10.5l2 70v480l-2 70q0 6 4.5 10.5t10.5 4.5h32v-650h-32zM445 143q49 0 94 14t79.5 41.5t55 69t20.5 96.5q0 63 -26 109.5t-68.5 76.5t-96.5 45t-110 15h-20v-423q17 -12 32.5 -23t30.5 -21h9zM227 859
q-4 4 -7.5 9.5t-3.5 12.5q0 5 5 10t12 5q6 0 13 -2.5t13 -5.5l132 -61l132 61q6 3 13 5.5t13 2.5q7 0 12 -5t5 -10q0 -7 -3.5 -12.5t-7.5 -9.5l-102 -111q-17 -19 -31 -27.5t-31 -8.5t-31 8.5t-31 27.5z" />
    <glyph glyph-name="Sacute" unicode="&#x15a;" horiz-adv-x="648" 
d="M584 173q0 -84 -55 -132t-147 -59q11 11 18 24t7 36q0 18 -4.5 36t-16.5 41t-33.5 52.5t-56.5 70.5q-37 43 -64.5 78.5t-45.5 67t-27 60.5t-9 59q0 32 4.5 62.5t15.5 55.5q32 22 75.5 35t94.5 13q34 0 70 -8t66 -20.5t49 -29t19 -33.5q0 -8 -5.5 -14t-14.5 -6
q-14 0 -38 21q-11 10 -26 19t-33 16q-22 8 -40.5 11.5t-39.5 3.5q-11 0 -19.5 -8t-8.5 -20t3.5 -24t17 -33t40.5 -55t75 -88q54 -62 91.5 -120t37.5 -112zM379 42q0 -17 -8 -29.5t-18.5 -20.5t-21 -11.5t-15.5 -3.5q-43 0 -87.5 12.5t-80.5 31t-58.5 39t-22.5 36.5
q0 11 6 18t18 7q15 0 22 -10t17 -19q37 -35 81 -55t89 -20q18 0 26 8.5t8 19.5q0 10 -3 21t-16 31.5t-40 55t-75 90.5q-60 69 -90 123t-30 109q0 35 14.5 68.5t43.5 59.5q-8 -19 -12 -44.5t-4 -54.5q0 -34 8 -63.5t24.5 -59.5t42.5 -63.5t62 -75.5q41 -49 65 -81.5t36 -54.5
t15.5 -36.5t3.5 -27.5zM353 860q17 19 31.5 27.5t31.5 8.5q24 0 38 -14.5t14 -34.5t-13.5 -36t-43.5 -30l-128 -61q-7 -3 -13.5 -5.5t-12.5 -2.5q-7 0 -12 5t-5 10q0 7 3.5 12.5t7.5 9.5z" />
    <glyph glyph-name="sacute" unicode="&#x15b;" horiz-adv-x="648" 
d="M584 173q0 -84 -55 -132t-147 -59q11 11 18 24t7 36q0 18 -4.5 36t-16.5 41t-33.5 52.5t-56.5 70.5q-37 43 -64.5 78.5t-45.5 67t-27 60.5t-9 59q0 32 4.5 62.5t15.5 55.5q32 22 75.5 35t94.5 13q34 0 70 -8t66 -20.5t49 -29t19 -33.5q0 -8 -5.5 -14t-14.5 -6
q-14 0 -38 21q-11 10 -26 19t-33 16q-22 8 -40.5 11.5t-39.5 3.5q-11 0 -19.5 -8t-8.5 -20t3.5 -24t17 -33t40.5 -55t75 -88q54 -62 91.5 -120t37.5 -112zM379 42q0 -17 -8 -29.5t-18.5 -20.5t-21 -11.5t-15.5 -3.5q-43 0 -87.5 12.5t-80.5 31t-58.5 39t-22.5 36.5
q0 11 6 18t18 7q15 0 22 -10t17 -19q37 -35 81 -55t89 -20q18 0 26 8.5t8 19.5q0 10 -3 21t-16 31.5t-40 55t-75 90.5q-60 69 -90 123t-30 109q0 35 14.5 68.5t43.5 59.5q-8 -19 -12 -44.5t-4 -54.5q0 -34 8 -63.5t24.5 -59.5t42.5 -63.5t62 -75.5q41 -49 65 -81.5t36 -54.5
t15.5 -36.5t3.5 -27.5zM353 860q17 19 31.5 27.5t31.5 8.5q24 0 38 -14.5t14 -34.5t-13.5 -36t-43.5 -30l-128 -61q-7 -3 -13.5 -5.5t-12.5 -2.5q-7 0 -12 5t-5 10q0 7 3.5 12.5t7.5 9.5z" />
    <glyph glyph-name="Scircumflex" unicode="&#x15c;" horiz-adv-x="648" 
d="M584 173q0 -84 -55 -132t-147 -59q11 11 18 24t7 36q0 18 -4.5 36t-16.5 41t-33.5 52.5t-56.5 70.5q-37 43 -64.5 78.5t-45.5 67t-27 60.5t-9 59q0 32 4.5 62.5t15.5 55.5q32 22 75.5 35t94.5 13q34 0 70 -8t66 -20.5t49 -29t19 -33.5q0 -8 -5.5 -14t-14.5 -6
q-14 0 -38 21q-11 10 -26 19t-33 16q-22 8 -40.5 11.5t-39.5 3.5q-11 0 -19.5 -8t-8.5 -20t3.5 -24t17 -33t40.5 -55t75 -88q54 -62 91.5 -120t37.5 -112zM379 42q0 -17 -8 -29.5t-18.5 -20.5t-21 -11.5t-15.5 -3.5q-43 0 -87.5 12.5t-80.5 31t-58.5 39t-22.5 36.5
q0 11 6 18t18 7q15 0 22 -10t17 -19q37 -35 81 -55t89 -20q18 0 26 8.5t8 19.5q0 10 -3 21t-16 31.5t-40 55t-75 90.5q-60 69 -90 123t-30 109q0 35 14.5 68.5t43.5 59.5q-8 -19 -12 -44.5t-4 -54.5q0 -34 8 -63.5t24.5 -59.5t42.5 -63.5t62 -75.5q41 -49 65 -81.5t36 -54.5
t15.5 -36.5t3.5 -27.5zM340 781l-132 -61q-6 -3 -13 -5.5t-13 -2.5q-7 0 -12 5t-5 10q0 7 3.5 12.5t7.5 9.5l102 111q17 19 31 27.5t31 8.5t31 -8.5t31 -27.5l102 -111q4 -4 7.5 -9.5t3.5 -12.5q0 -5 -5 -10t-12 -5q-6 0 -13 2.5t-13 5.5z" />
    <glyph glyph-name="scircumflex" unicode="&#x15d;" horiz-adv-x="648" 
d="M584 173q0 -84 -55 -132t-147 -59q11 11 18 24t7 36q0 18 -4.5 36t-16.5 41t-33.5 52.5t-56.5 70.5q-37 43 -64.5 78.5t-45.5 67t-27 60.5t-9 59q0 32 4.5 62.5t15.5 55.5q32 22 75.5 35t94.5 13q34 0 70 -8t66 -20.5t49 -29t19 -33.5q0 -8 -5.5 -14t-14.5 -6
q-14 0 -38 21q-11 10 -26 19t-33 16q-22 8 -40.5 11.5t-39.5 3.5q-11 0 -19.5 -8t-8.5 -20t3.5 -24t17 -33t40.5 -55t75 -88q54 -62 91.5 -120t37.5 -112zM379 42q0 -17 -8 -29.5t-18.5 -20.5t-21 -11.5t-15.5 -3.5q-43 0 -87.5 12.5t-80.5 31t-58.5 39t-22.5 36.5
q0 11 6 18t18 7q15 0 22 -10t17 -19q37 -35 81 -55t89 -20q18 0 26 8.5t8 19.5q0 10 -3 21t-16 31.5t-40 55t-75 90.5q-60 69 -90 123t-30 109q0 35 14.5 68.5t43.5 59.5q-8 -19 -12 -44.5t-4 -54.5q0 -34 8 -63.5t24.5 -59.5t42.5 -63.5t62 -75.5q41 -49 65 -81.5t36 -54.5
t15.5 -36.5t3.5 -27.5zM340 781l-132 -61q-6 -3 -13 -5.5t-13 -2.5q-7 0 -12 5t-5 10q0 7 3.5 12.5t7.5 9.5l102 111q17 19 31 27.5t31 8.5t31 -8.5t31 -27.5l102 -111q4 -4 7.5 -9.5t3.5 -12.5q0 -5 -5 -10t-12 -5q-6 0 -13 2.5t-13 5.5z" />
    <glyph glyph-name="Scedilla" unicode="&#x15e;" horiz-adv-x="648" 
d="M584 173q0 -84 -55 -132t-147 -59q11 11 18 24t7 36q0 18 -4.5 36t-16.5 41t-33.5 52.5t-56.5 70.5q-37 43 -64.5 78.5t-45.5 67t-27 60.5t-9 59q0 32 4.5 62.5t15.5 55.5q32 22 75.5 35t94.5 13q34 0 70 -8t66 -20.5t49 -29t19 -33.5q0 -8 -5.5 -14t-14.5 -6
q-14 0 -38 21q-11 10 -26 19t-33 16q-22 8 -40.5 11.5t-39.5 3.5q-11 0 -19.5 -8t-8.5 -20t3.5 -24t17 -33t40.5 -55t75 -88q54 -62 91.5 -120t37.5 -112zM290 -22q-41 4 -80.5 17t-71.5 30.5t-51.5 36.5t-19.5 34q0 11 6 18t18 7q15 0 22 -10t17 -19q37 -35 81 -55t89 -20
q18 0 26 8.5t8 19.5q0 10 -3 21t-16 31.5t-40 55t-75 90.5q-60 69 -90 123t-30 109q0 35 14.5 68.5t43.5 59.5q-8 -19 -12 -44.5t-4 -54.5q0 -34 8 -63.5t24.5 -59.5t42.5 -63.5t62 -75.5q41 -49 65 -81.5t36 -54.5t15.5 -36.5t3.5 -27.5q0 -14 -5.5 -25t-14 -18.5
t-17.5 -12.5t-16 -7v-22q78 0 113.5 -20t35.5 -57t-35.5 -58.5t-113.5 -21.5q-37 0 -69 10.5t-60 26.5q-8 4 -8 11q0 3 2 7.5t5 9t6.5 8t5.5 3.5q7 0 12 -3q26 -14 50.5 -22.5t53.5 -8.5q17 0 23 10.5t6 27.5t-7 27t-33 10q-8 0 -15.5 5.5t-7.5 13.5v42z" />
    <glyph glyph-name="scedilla" unicode="&#x15f;" horiz-adv-x="648" 
d="M584 173q0 -84 -55 -132t-147 -59q11 11 18 24t7 36q0 18 -4.5 36t-16.5 41t-33.5 52.5t-56.5 70.5q-37 43 -64.5 78.5t-45.5 67t-27 60.5t-9 59q0 32 4.5 62.5t15.5 55.5q32 22 75.5 35t94.5 13q34 0 70 -8t66 -20.5t49 -29t19 -33.5q0 -8 -5.5 -14t-14.5 -6
q-14 0 -38 21q-11 10 -26 19t-33 16q-22 8 -40.5 11.5t-39.5 3.5q-11 0 -19.5 -8t-8.5 -20t3.5 -24t17 -33t40.5 -55t75 -88q54 -62 91.5 -120t37.5 -112zM290 -22q-41 4 -80.5 17t-71.5 30.5t-51.5 36.5t-19.5 34q0 11 6 18t18 7q15 0 22 -10t17 -19q37 -35 81 -55t89 -20
q18 0 26 8.5t8 19.5q0 10 -3 21t-16 31.5t-40 55t-75 90.5q-60 69 -90 123t-30 109q0 35 14.5 68.5t43.5 59.5q-8 -19 -12 -44.5t-4 -54.5q0 -34 8 -63.5t24.5 -59.5t42.5 -63.5t62 -75.5q41 -49 65 -81.5t36 -54.5t15.5 -36.5t3.5 -27.5q0 -14 -5.5 -25t-14 -18.5
t-17.5 -12.5t-16 -7v-22q78 0 113.5 -20t35.5 -57t-35.5 -58.5t-113.5 -21.5q-37 0 -69 10.5t-60 26.5q-8 4 -8 11q0 3 2 7.5t5 9t6.5 8t5.5 3.5q7 0 12 -3q26 -14 50.5 -22.5t53.5 -8.5q17 0 23 10.5t6 27.5t-7 27t-33 10q-8 0 -15.5 5.5t-7.5 13.5v42z" />
    <glyph glyph-name="Scaron" unicode="&#x160;" horiz-adv-x="648" 
d="M584 173q0 -84 -55 -132t-147 -59q11 11 18 24t7 36q0 18 -4.5 36t-16.5 41t-33.5 52.5t-56.5 70.5q-37 43 -64.5 78.5t-45.5 67t-27 60.5t-9 59q0 32 4.5 62.5t15.5 55.5q32 22 75.5 35t94.5 13q34 0 70 -8t66 -20.5t49 -29t19 -33.5q0 -8 -5.5 -14t-14.5 -6
q-14 0 -38 21q-11 10 -26 19t-33 16q-22 8 -40.5 11.5t-39.5 3.5q-11 0 -19.5 -8t-8.5 -20t3.5 -24t17 -33t40.5 -55t75 -88q54 -62 91.5 -120t37.5 -112zM379 42q0 -17 -8 -29.5t-18.5 -20.5t-21 -11.5t-15.5 -3.5q-43 0 -87.5 12.5t-80.5 31t-58.5 39t-22.5 36.5
q0 11 6 18t18 7q15 0 22 -10t17 -19q37 -35 81 -55t89 -20q18 0 26 8.5t8 19.5q0 10 -3 21t-16 31.5t-40 55t-75 90.5q-60 69 -90 123t-30 109q0 35 14.5 68.5t43.5 59.5q-8 -19 -12 -44.5t-4 -54.5q0 -34 8 -63.5t24.5 -59.5t42.5 -63.5t62 -75.5q41 -49 65 -81.5t36 -54.5
t15.5 -36.5t3.5 -27.5zM176 859q-4 4 -7.5 9.5t-3.5 12.5q0 5 5 10t12 5q6 0 13 -2.5t13 -5.5l132 -61l132 61q6 3 13 5.5t13 2.5q7 0 12 -5t5 -10q0 -7 -3.5 -12.5t-7.5 -9.5l-102 -111q-17 -19 -31 -27.5t-31 -8.5t-31 8.5t-31 27.5z" />
    <glyph glyph-name="scaron" unicode="&#x161;" horiz-adv-x="648" 
d="M584 173q0 -84 -55 -132t-147 -59q11 11 18 24t7 36q0 18 -4.5 36t-16.5 41t-33.5 52.5t-56.5 70.5q-37 43 -64.5 78.5t-45.5 67t-27 60.5t-9 59q0 32 4.5 62.5t15.5 55.5q32 22 75.5 35t94.5 13q34 0 70 -8t66 -20.5t49 -29t19 -33.5q0 -8 -5.5 -14t-14.5 -6
q-14 0 -38 21q-11 10 -26 19t-33 16q-22 8 -40.5 11.5t-39.5 3.5q-11 0 -19.5 -8t-8.5 -20t3.5 -24t17 -33t40.5 -55t75 -88q54 -62 91.5 -120t37.5 -112zM379 42q0 -17 -8 -29.5t-18.5 -20.5t-21 -11.5t-15.5 -3.5q-43 0 -87.5 12.5t-80.5 31t-58.5 39t-22.5 36.5
q0 11 6 18t18 7q15 0 22 -10t17 -19q37 -35 81 -55t89 -20q18 0 26 8.5t8 19.5q0 10 -3 21t-16 31.5t-40 55t-75 90.5q-60 69 -90 123t-30 109q0 35 14.5 68.5t43.5 59.5q-8 -19 -12 -44.5t-4 -54.5q0 -34 8 -63.5t24.5 -59.5t42.5 -63.5t62 -75.5q41 -49 65 -81.5t36 -54.5
t15.5 -36.5t3.5 -27.5zM176 859q-4 4 -7.5 9.5t-3.5 12.5q0 5 5 10t12 5q6 0 13 -2.5t13 -5.5l132 -61l132 61q6 3 13 5.5t13 2.5q7 0 12 -5t5 -10q0 -7 -3.5 -12.5t-7.5 -9.5l-102 -111q-17 -19 -31 -27.5t-31 -8.5t-31 8.5t-31 27.5z" />
    <glyph glyph-name="Tcommaaccent" unicode="&#x162;" horiz-adv-x="688" 
d="M287 -191q0 6 4 11t12 5q5 0 9 -1t12 -1q20 0 28 5t8 9q0 5 -5.5 6t-14.5 1q-35 0 -53.5 12t-18.5 38q0 27 22 44.5t50 17.5q32 0 55.5 -19t23.5 -56q0 -17 -6 -33.5t-18 -29.5t-31 -21t-45 -8q-13 0 -22.5 4.5t-9.5 15.5zM268 650h320q13 0 31.5 1t35.5 1
q11 0 19.5 -6.5t8.5 -16.5q0 -8 -8 -15.5t-25 -7.5q-18 0 -43 2t-62 2h-52v-525l2 -70q0 -6 -4.5 -10.5t-10.5 -4.5h-212v650zM208 0q-6 0 -10.5 4.5t-4.5 10.5l2 70v525h-52q-37 0 -62 -2t-43 -2q-17 0 -25 7.5t-8 15.5q0 10 8.5 16.5t19.5 6.5q17 0 35.5 -1t31.5 -1h140
v-650h-32z" />
    <glyph glyph-name="tcommaaccent" unicode="&#x163;" horiz-adv-x="688" 
d="M287 -191q0 6 4 11t12 5q5 0 9 -1t12 -1q20 0 28 5t8 9q0 5 -5.5 6t-14.5 1q-35 0 -53.5 12t-18.5 38q0 27 22 44.5t50 17.5q32 0 55.5 -19t23.5 -56q0 -17 -6 -33.5t-18 -29.5t-31 -21t-45 -8q-13 0 -22.5 4.5t-9.5 15.5zM268 650h320q13 0 31.5 1t35.5 1
q11 0 19.5 -6.5t8.5 -16.5q0 -8 -8 -15.5t-25 -7.5q-18 0 -43 2t-62 2h-52v-525l2 -70q0 -6 -4.5 -10.5t-10.5 -4.5h-212v650zM208 0q-6 0 -10.5 4.5t-4.5 10.5l2 70v525h-52q-37 0 -62 -2t-43 -2q-17 0 -25 7.5t-8 15.5q0 10 8.5 16.5t19.5 6.5q17 0 35.5 -1t31.5 -1h140
v-650h-32z" />
    <glyph glyph-name="Tcaron" unicode="&#x164;" horiz-adv-x="688" 
d="M268 650h320q13 0 31.5 1t35.5 1q11 0 19.5 -6.5t8.5 -16.5q0 -8 -8 -15.5t-25 -7.5q-18 0 -43 2t-62 2h-52v-525l2 -70q0 -6 -4.5 -10.5t-10.5 -4.5h-212v650zM208 0q-6 0 -10.5 4.5t-4.5 10.5l2 70v525h-52q-37 0 -62 -2t-43 -2q-17 0 -25 7.5t-8 15.5q0 10 8.5 16.5
t19.5 6.5q17 0 35.5 -1t31.5 -1h140v-650h-32zM180 859q-4 4 -7.5 9.5t-3.5 12.5q0 5 5 10t12 5q6 0 13 -2.5t13 -5.5l132 -61l132 61q6 3 13 5.5t13 2.5q7 0 12 -5t5 -10q0 -7 -3.5 -12.5t-7.5 -9.5l-102 -111q-17 -19 -31 -27.5t-31 -8.5t-31 8.5t-31 27.5z" />
    <glyph glyph-name="tcaron" unicode="&#x165;" horiz-adv-x="688" 
d="M268 650h320q13 0 31.5 1t35.5 1q11 0 19.5 -6.5t8.5 -16.5q0 -8 -8 -15.5t-25 -7.5q-18 0 -43 2t-62 2h-52v-525l2 -70q0 -6 -4.5 -10.5t-10.5 -4.5h-212v650zM208 0q-6 0 -10.5 4.5t-4.5 10.5l2 70v525h-52q-37 0 -62 -2t-43 -2q-17 0 -25 7.5t-8 15.5q0 10 8.5 16.5
t19.5 6.5q17 0 35.5 -1t31.5 -1h140v-650h-32zM180 859q-4 4 -7.5 9.5t-3.5 12.5q0 5 5 10t12 5q6 0 13 -2.5t13 -5.5l132 -61l132 61q6 3 13 5.5t13 2.5q7 0 12 -5t5 -10q0 -7 -3.5 -12.5t-7.5 -9.5l-102 -111q-17 -19 -31 -27.5t-31 -8.5t-31 8.5t-31 27.5z" />
    <glyph glyph-name="Tbar" unicode="&#x166;" horiz-adv-x="688" 
d="M268 650h320q13 0 31.5 1t35.5 1q11 0 19.5 -6.5t8.5 -16.5q0 -8 -8 -15.5t-25 -7.5q-18 0 -43 2t-62 2h-52v-201h80q10 0 15 -6t5 -14t-5 -14t-15 -6h-80v-284l2 -70q0 -6 -4.5 -10.5t-10.5 -4.5h-212v650zM208 0q-6 0 -10.5 4.5t-4.5 10.5l2 70v284h-80q-10 0 -15 6
t-5 14t5 14t15 6h80v201h-52q-37 0 -62 -2t-43 -2q-17 0 -25 7.5t-8 15.5q0 10 8.5 16.5t19.5 6.5q17 0 35.5 -1t31.5 -1h140v-650h-32z" />
    <glyph glyph-name="tbar" unicode="&#x167;" horiz-adv-x="688" 
d="M268 650h320q13 0 31.5 1t35.5 1q11 0 19.5 -6.5t8.5 -16.5q0 -8 -8 -15.5t-25 -7.5q-18 0 -43 2t-62 2h-52v-201h80q10 0 15 -6t5 -14t-5 -14t-15 -6h-80v-284l2 -70q0 -6 -4.5 -10.5t-10.5 -4.5h-212v650zM208 0q-6 0 -10.5 4.5t-4.5 10.5l2 70v284h-80q-10 0 -15 6
t-5 14t5 14t15 6h80v201h-52q-37 0 -62 -2t-43 -2q-17 0 -25 7.5t-8 15.5q0 10 8.5 16.5t19.5 6.5q17 0 35.5 -1t31.5 -1h140v-650h-32z" />
    <glyph glyph-name="Utilde" unicode="&#x168;" 
d="M148 650h212q6 0 10.5 -4.5t4.5 -10.5l-2 -70v-523q0 -13 5.5 -20t22.5 -7q81 0 133.5 19t82.5 55.5t42 91t12 125.5v287q0 8 -1 17.5t-1 19.5q0 11 6.5 18t17.5 7t18 -7t7 -18q0 -10 -1 -19.5t-1 -17.5v-287q0 -83 -16 -145.5t-53.5 -103.5t-99 -61.5t-152.5 -20.5
q-169 0 -247 69v606zM75 565l-2 70q0 6 4.5 10.5t10.5 4.5h32v-575q-45 63 -45 166v324zM478 799q17 0 25 9t8 19q0 7 4.5 12t13.5 5t13.5 -5t4.5 -13q0 -18 -4 -38.5t-14.5 -37t-28.5 -27.5t-46 -11q-23 0 -41.5 7t-35.5 15.5t-33 15.5t-32 7q-17 0 -25 -9t-8 -19
q0 -7 -4.5 -12t-13.5 -5t-13.5 5t-4.5 13q0 18 4 38.5t14.5 37t28.5 27.5t46 11q22 0 41 -7t36 -15.5t33 -15.5t32 -7z" />
    <glyph glyph-name="utilde" unicode="&#x169;" 
d="M148 650h212q6 0 10.5 -4.5t4.5 -10.5l-2 -70v-523q0 -13 5.5 -20t22.5 -7q81 0 133.5 19t82.5 55.5t42 91t12 125.5v287q0 8 -1 17.5t-1 19.5q0 11 6.5 18t17.5 7t18 -7t7 -18q0 -10 -1 -19.5t-1 -17.5v-287q0 -83 -16 -145.5t-53.5 -103.5t-99 -61.5t-152.5 -20.5
q-169 0 -247 69v606zM75 565l-2 70q0 6 4.5 10.5t10.5 4.5h32v-575q-45 63 -45 166v324zM478 799q17 0 25 9t8 19q0 7 4.5 12t13.5 5t13.5 -5t4.5 -13q0 -18 -4 -38.5t-14.5 -37t-28.5 -27.5t-46 -11q-23 0 -41.5 7t-35.5 15.5t-33 15.5t-32 7q-17 0 -25 -9t-8 -19
q0 -7 -4.5 -12t-13.5 -5t-13.5 5t-4.5 13q0 18 4 38.5t14.5 37t28.5 27.5t46 11q22 0 41 -7t36 -15.5t33 -15.5t32 -7z" />
    <glyph glyph-name="Umacron" unicode="&#x16a;" 
d="M148 650h212q6 0 10.5 -4.5t4.5 -10.5l-2 -70v-523q0 -13 5.5 -20t22.5 -7q81 0 133.5 19t82.5 55.5t42 91t12 125.5v287q0 8 -1 17.5t-1 19.5q0 11 6.5 18t17.5 7t18 -7t7 -18q0 -10 -1 -19.5t-1 -17.5v-287q0 -83 -16 -145.5t-53.5 -103.5t-99 -61.5t-152.5 -20.5
q-169 0 -247 69v606zM75 565l-2 70q0 6 4.5 10.5t10.5 4.5h32v-575q-45 63 -45 166v324zM260 732q-10 0 -15 6t-5 14t5 14t15 6h270q10 0 15 -6t5 -14t-5 -14t-15 -6h-270z" />
    <glyph glyph-name="umacron" unicode="&#x16b;" 
d="M148 650h212q6 0 10.5 -4.5t4.5 -10.5l-2 -70v-523q0 -13 5.5 -20t22.5 -7q81 0 133.5 19t82.5 55.5t42 91t12 125.5v287q0 8 -1 17.5t-1 19.5q0 11 6.5 18t17.5 7t18 -7t7 -18q0 -10 -1 -19.5t-1 -17.5v-287q0 -83 -16 -145.5t-53.5 -103.5t-99 -61.5t-152.5 -20.5
q-169 0 -247 69v606zM75 565l-2 70q0 6 4.5 10.5t10.5 4.5h32v-575q-45 63 -45 166v324zM260 732q-10 0 -15 6t-5 14t5 14t15 6h270q10 0 15 -6t5 -14t-5 -14t-15 -6h-270z" />
    <glyph glyph-name="Ubreve" unicode="&#x16c;" 
d="M148 650h212q6 0 10.5 -4.5t4.5 -10.5l-2 -70v-523q0 -13 5.5 -20t22.5 -7q81 0 133.5 19t82.5 55.5t42 91t12 125.5v287q0 8 -1 17.5t-1 19.5q0 11 6.5 18t17.5 7t18 -7t7 -18q0 -10 -1 -19.5t-1 -17.5v-287q0 -83 -16 -145.5t-53.5 -103.5t-99 -61.5t-152.5 -20.5
q-169 0 -247 69v606zM75 565l-2 70q0 6 4.5 10.5t10.5 4.5h32v-575q-45 63 -45 166v324zM549 866q0 -31 -11.5 -59t-32 -49t-49.5 -33.5t-63 -12.5q-35 0 -63.5 12.5t-49 33.5t-32 49t-11.5 59q0 9 5.5 15.5t16.5 6.5t17 -6.5t6 -14.5q0 -6 4.5 -14t16.5 -14.5t33.5 -11.5
t56.5 -5t57 5t34 11.5t16.5 14.5t4.5 14q0 8 5.5 14.5t16.5 6.5t16.5 -6.5t5.5 -15.5z" />
    <glyph glyph-name="ubreve" unicode="&#x16d;" 
d="M148 650h212q6 0 10.5 -4.5t4.5 -10.5l-2 -70v-523q0 -13 5.5 -20t22.5 -7q81 0 133.5 19t82.5 55.5t42 91t12 125.5v287q0 8 -1 17.5t-1 19.5q0 11 6.5 18t17.5 7t18 -7t7 -18q0 -10 -1 -19.5t-1 -17.5v-287q0 -83 -16 -145.5t-53.5 -103.5t-99 -61.5t-152.5 -20.5
q-169 0 -247 69v606zM75 565l-2 70q0 6 4.5 10.5t10.5 4.5h32v-575q-45 63 -45 166v324zM549 866q0 -31 -11.5 -59t-32 -49t-49.5 -33.5t-63 -12.5q-35 0 -63.5 12.5t-49 33.5t-32 49t-11.5 59q0 9 5.5 15.5t16.5 6.5t17 -6.5t6 -14.5q0 -6 4.5 -14t16.5 -14.5t33.5 -11.5
t56.5 -5t57 5t34 11.5t16.5 14.5t4.5 14q0 8 5.5 14.5t16.5 6.5t16.5 -6.5t5.5 -15.5z" />
    <glyph glyph-name="Uring" unicode="&#x16e;" 
d="M148 650h212q6 0 10.5 -4.5t4.5 -10.5l-2 -70v-523q0 -13 5.5 -20t22.5 -7q81 0 133.5 19t82.5 55.5t42 91t12 125.5v287q0 8 -1 17.5t-1 19.5q0 11 6.5 18t17.5 7t18 -7t7 -18q0 -10 -1 -19.5t-1 -17.5v-287q0 -83 -16 -145.5t-53.5 -103.5t-99 -61.5t-152.5 -20.5
q-169 0 -247 69v606zM75 565l-2 70q0 6 4.5 10.5t10.5 4.5h32v-575q-45 63 -45 166v324zM489 807q0 -20 -7.5 -37t-20.5 -30t-30.5 -20.5t-36.5 -7.5q-20 0 -37 7.5t-30 20.5t-20.5 30t-7.5 37q0 19 7.5 36.5t20.5 30.5t30 20.5t37 7.5q19 0 36.5 -7.5t30.5 -20.5
t20.5 -30.5t7.5 -36.5zM449 807q0 23 -16 39t-39 16t-39 -16t-16 -39t16 -39t39 -16t39 16t16 39z" />
    <glyph glyph-name="uring" unicode="&#x16f;" 
d="M148 650h212q6 0 10.5 -4.5t4.5 -10.5l-2 -70v-523q0 -13 5.5 -20t22.5 -7q81 0 133.5 19t82.5 55.5t42 91t12 125.5v287q0 8 -1 17.5t-1 19.5q0 11 6.5 18t17.5 7t18 -7t7 -18q0 -10 -1 -19.5t-1 -17.5v-287q0 -83 -16 -145.5t-53.5 -103.5t-99 -61.5t-152.5 -20.5
q-169 0 -247 69v606zM75 565l-2 70q0 6 4.5 10.5t10.5 4.5h32v-575q-45 63 -45 166v324zM489 807q0 -20 -7.5 -37t-20.5 -30t-30.5 -20.5t-36.5 -7.5q-20 0 -37 7.5t-30 20.5t-20.5 30t-7.5 37q0 19 7.5 36.5t20.5 30.5t30 20.5t37 7.5q19 0 36.5 -7.5t30.5 -20.5
t20.5 -30.5t7.5 -36.5zM449 807q0 23 -16 39t-39 16t-39 -16t-16 -39t16 -39t39 -16t39 16t16 39z" />
    <glyph glyph-name="Uhungarumlaut" unicode="&#x170;" 
d="M148 650h212q6 0 10.5 -4.5t4.5 -10.5l-2 -70v-523q0 -13 5.5 -20t22.5 -7q81 0 133.5 19t82.5 55.5t42 91t12 125.5v287q0 8 -1 17.5t-1 19.5q0 11 6.5 18t17.5 7t18 -7t7 -18q0 -10 -1 -19.5t-1 -17.5v-287q0 -83 -16 -145.5t-53.5 -103.5t-99 -61.5t-152.5 -20.5
q-169 0 -247 69v606zM75 565l-2 70q0 6 4.5 10.5t10.5 4.5h32v-575q-45 63 -45 166v324zM479 853q27 43 62 43q22 0 37 -12.5t15 -31.5q0 -23 -12.5 -39t-44.5 -37l-85 -54q-6 -4 -12.5 -7t-12.5 -3q-7 0 -12 5t-5 10q0 7 2 12t5 10zM299 853q27 43 62 43q22 0 37 -12.5
t15 -31.5q0 -23 -12.5 -39t-44.5 -37l-85 -54q-6 -4 -12.5 -7t-12.5 -3q-7 0 -12 5t-5 10q0 7 2 12t5 10z" />
    <glyph glyph-name="uhungarumlaut" unicode="&#x171;" 
d="M148 650h212q6 0 10.5 -4.5t4.5 -10.5l-2 -70v-523q0 -13 5.5 -20t22.5 -7q81 0 133.5 19t82.5 55.5t42 91t12 125.5v287q0 8 -1 17.5t-1 19.5q0 11 6.5 18t17.5 7t18 -7t7 -18q0 -10 -1 -19.5t-1 -17.5v-287q0 -83 -16 -145.5t-53.5 -103.5t-99 -61.5t-152.5 -20.5
q-169 0 -247 69v606zM75 565l-2 70q0 6 4.5 10.5t10.5 4.5h32v-575q-45 63 -45 166v324zM479 853q27 43 62 43q22 0 37 -12.5t15 -31.5q0 -23 -12.5 -39t-44.5 -37l-85 -54q-6 -4 -12.5 -7t-12.5 -3q-7 0 -12 5t-5 10q0 7 2 12t5 10zM299 853q27 43 62 43q22 0 37 -12.5
t15 -31.5q0 -23 -12.5 -39t-44.5 -37l-85 -54q-6 -4 -12.5 -7t-12.5 -3q-7 0 -12 5t-5 10q0 7 2 12t5 10z" />
    <glyph glyph-name="Uogonek" unicode="&#x172;" 
d="M148 650h212q6 0 10.5 -4.5t4.5 -10.5l-2 -70v-523q0 -13 5.5 -20t22.5 -7q81 0 133.5 19t82.5 55.5t42 91t12 125.5v287q0 8 -1 17.5t-1 19.5q0 11 6.5 18t17.5 7t18 -7t7 -18q0 -10 -1 -19.5t-1 -17.5v-287q0 -122 -35.5 -198t-122.5 -108q-29 -32 -45.5 -60.5
t-16.5 -52.5q0 -23 15.5 -34t32.5 -11q31 0 62 17q4 3 13 3q1 0 4 -4t6 -9t5 -10t2 -8t-3 -5l-6 -4q-24 -12 -45 -17t-49 -5q-78 0 -118.5 21.5t-40.5 58.5q0 29 28 54t66 45q-17 -2 -35 -3t-38 -1q-169 0 -247 69v606zM75 565l-2 70q0 6 4.5 10.5t10.5 4.5h32v-575
q-45 63 -45 166v324z" />
    <glyph glyph-name="uogonek" unicode="&#x173;" 
d="M148 650h212q6 0 10.5 -4.5t4.5 -10.5l-2 -70v-523q0 -13 5.5 -20t22.5 -7q81 0 133.5 19t82.5 55.5t42 91t12 125.5v287q0 8 -1 17.5t-1 19.5q0 11 6.5 18t17.5 7t18 -7t7 -18q0 -10 -1 -19.5t-1 -17.5v-287q0 -122 -35.5 -198t-122.5 -108q-29 -32 -45.5 -60.5
t-16.5 -52.5q0 -23 15.5 -34t32.5 -11q31 0 62 17q4 3 13 3q1 0 4 -4t6 -9t5 -10t2 -8t-3 -5l-6 -4q-24 -12 -45 -17t-49 -5q-78 0 -118.5 21.5t-40.5 58.5q0 29 28 54t66 45q-17 -2 -35 -3t-38 -1q-169 0 -247 69v606zM75 565l-2 70q0 6 4.5 10.5t10.5 4.5h32v-575
q-45 63 -45 166v324z" />
    <glyph glyph-name="Wcircumflex" unicode="&#x174;" horiz-adv-x="1035" 
d="M532 462l75 149q8 17 15 28t23 11q14 0 20.5 -9.5t17.5 -30.5l157 -291l117 261q2 4 5.5 15.5t6.5 25.5q4 18 10 26t18 8q14 0 20 -7.5t6 -19.5q0 -13 -7.5 -30t-17.5 -38l-222 -495q-5 -10 -7.5 -20t-5.5 -19zM81 650h186q17 0 29.5 -7.5t21.5 -26.5l140 -301l59 116
l232 -439q-9 -12 -24 -12q-14 0 -25 10.5t-19 28.5q-8 16 -18.5 37.5t-16.5 32.5l-128 242l-162 -295zM59 518q-8 18 -16.5 34.5t-15.5 30.5q-16 33 -16 47q0 8 8 14t17 6h14l289 -646q-5 -9 -11 -16.5t-17 -7.5q-23 0 -34 37q-5 17 -10.5 34.5t-10.5 27.5zM517 781
l-132 -61q-6 -3 -13 -5.5t-13 -2.5q-7 0 -12 5t-5 10q0 7 3.5 12.5t7.5 9.5l102 111q17 19 31 27.5t31 8.5t31 -8.5t31 -27.5l102 -111q4 -4 7.5 -9.5t3.5 -12.5q0 -5 -5 -10t-12 -5q-6 0 -13 2.5t-13 5.5z" />
    <glyph glyph-name="wcircumflex" unicode="&#x175;" horiz-adv-x="1035" 
d="M532 462l75 149q8 17 15 28t23 11q14 0 20.5 -9.5t17.5 -30.5l157 -291l117 261q2 4 5.5 15.5t6.5 25.5q4 18 10 26t18 8q14 0 20 -7.5t6 -19.5q0 -13 -7.5 -30t-17.5 -38l-222 -495q-5 -10 -7.5 -20t-5.5 -19zM81 650h186q17 0 29.5 -7.5t21.5 -26.5l140 -301l59 116
l232 -439q-9 -12 -24 -12q-14 0 -25 10.5t-19 28.5q-8 16 -18.5 37.5t-16.5 32.5l-128 242l-162 -295zM59 518q-8 18 -16.5 34.5t-15.5 30.5q-16 33 -16 47q0 8 8 14t17 6h14l289 -646q-5 -9 -11 -16.5t-17 -7.5q-23 0 -34 37q-5 17 -10.5 34.5t-10.5 27.5zM517 781
l-132 -61q-6 -3 -13 -5.5t-13 -2.5q-7 0 -12 5t-5 10q0 7 3.5 12.5t7.5 9.5l102 111q17 19 31 27.5t31 8.5t31 -8.5t31 -27.5l102 -111q4 -4 7.5 -9.5t3.5 -12.5q0 -5 -5 -10t-12 -5q-6 0 -13 2.5t-13 5.5z" />
    <glyph glyph-name="Ycircumflex" unicode="&#x176;" horiz-adv-x="764" 
d="M105 650h222q26 0 39 -10.5t28 -29.5l150 -191l121 168q2 3 5.5 8.5t7 12t7 12.5t5.5 9q8 14 17.5 20t19.5 6t18.5 -6.5t8.5 -17.5q0 -18 -15 -31q-23 -20 -34 -34l-254 -355zM377 186l-239 303q-18 23 -43 51t-46 51q-12 14 -19 22t-7 18q0 19 28 19h18l365 -463
l-104 -144q-2 -3 -5.5 -8.5t-7.5 -12t-8 -12.5t-5 -9q-7 -14 -16.5 -20t-19.5 -6t-19 7.5t-9 15.5q0 10 4.5 18.5t12.5 14.5q11 9 19.5 17t13.5 16zM382 781l-132 -61q-6 -3 -13 -5.5t-13 -2.5q-7 0 -12 5t-5 10q0 7 3.5 12.5t7.5 9.5l102 111q17 19 31 27.5t31 8.5t31 -8.5
t31 -27.5l102 -111q4 -4 7.5 -9.5t3.5 -12.5q0 -5 -5 -10t-12 -5q-6 0 -13 2.5t-13 5.5z" />
    <glyph glyph-name="ycircumflex" unicode="&#x177;" horiz-adv-x="764" 
d="M105 650h222q26 0 39 -10.5t28 -29.5l150 -191l121 168q2 3 5.5 8.5t7 12t7 12.5t5.5 9q8 14 17.5 20t19.5 6t18.5 -6.5t8.5 -17.5q0 -18 -15 -31q-23 -20 -34 -34l-254 -355zM377 186l-239 303q-18 23 -43 51t-46 51q-12 14 -19 22t-7 18q0 19 28 19h18l365 -463
l-104 -144q-2 -3 -5.5 -8.5t-7.5 -12t-8 -12.5t-5 -9q-7 -14 -16.5 -20t-19.5 -6t-19 7.5t-9 15.5q0 10 4.5 18.5t12.5 14.5q11 9 19.5 17t13.5 16zM382 781l-132 -61q-6 -3 -13 -5.5t-13 -2.5q-7 0 -12 5t-5 10q0 7 3.5 12.5t7.5 9.5l102 111q17 19 31 27.5t31 8.5t31 -8.5
t31 -27.5l102 -111q4 -4 7.5 -9.5t3.5 -12.5q0 -5 -5 -10t-12 -5q-6 0 -13 2.5t-13 5.5z" />
    <glyph glyph-name="Ydieresis" unicode="&#x178;" horiz-adv-x="764" 
d="M105 650h222q26 0 39 -10.5t28 -29.5l150 -191l121 168q2 3 5.5 8.5t7 12t7 12.5t5.5 9q8 14 17.5 20t19.5 6t18.5 -6.5t8.5 -17.5q0 -18 -15 -31q-23 -20 -34 -34l-254 -355zM377 186l-239 303q-18 23 -43 51t-46 51q-12 14 -19 22t-7 18q0 19 28 19h18l365 -463
l-104 -144q-2 -3 -5.5 -8.5t-7.5 -12t-8 -12.5t-5 -9q-7 -14 -16.5 -20t-19.5 -6t-19 7.5t-9 15.5q0 10 4.5 18.5t12.5 14.5q11 9 19.5 17t13.5 16zM564 771q0 -29 -21.5 -44t-52.5 -15q-30 0 -51.5 15t-21.5 44q0 26 21.5 41t51.5 15q31 0 52.5 -15t21.5 -41zM347 771
q0 -29 -21.5 -44t-52.5 -15q-30 0 -51.5 15t-21.5 44q0 26 21.5 41t51.5 15q31 0 52.5 -15t21.5 -41z" />
    <glyph glyph-name="Zacute" unicode="&#x179;" horiz-adv-x="679" 
d="M89 0q42 74 87.5 161.5t89.5 175.5t83 169.5t67 143.5h225q6 0 10.5 -4.5t4.5 -10.5q0 -8 -3 -15.5t-7 -15.5q-78 -141 -150.5 -286.5t-135.5 -277.5h148q37 0 62 2t43 2q17 0 25 -7.5t8 -15.5q0 -10 -8 -16.5t-20 -6.5q-17 0 -34 1t-33 1h-462zM38 0q-6 0 -10.5 4.5
t-4.5 10.5q0 8 3 16t7 15q40 70 80 145.5t77 149t70 142.5t59 127h-122q-37 0 -62 -2t-43 -2q-17 0 -25 7.5t-8 15.5q0 10 8.5 16.5t19.5 6.5q15 0 34.5 -1t32.5 -1h232q-28 -62 -67 -143.5t-83 -169.5t-89.5 -175.5t-87.5 -161.5h-21zM352 860q17 19 31.5 27.5t31.5 8.5
q24 0 38 -14.5t14 -34.5t-13.5 -36t-43.5 -30l-128 -61q-7 -3 -13.5 -5.5t-12.5 -2.5q-7 0 -12 5t-5 10q0 7 3.5 12.5t7.5 9.5z" />
    <glyph glyph-name="zacute" unicode="&#x17a;" horiz-adv-x="679" 
d="M89 0q42 74 87.5 161.5t89.5 175.5t83 169.5t67 143.5h225q6 0 10.5 -4.5t4.5 -10.5q0 -8 -3 -15.5t-7 -15.5q-78 -141 -150.5 -286.5t-135.5 -277.5h148q37 0 62 2t43 2q17 0 25 -7.5t8 -15.5q0 -10 -8 -16.5t-20 -6.5q-17 0 -34 1t-33 1h-462zM38 0q-6 0 -10.5 4.5
t-4.5 10.5q0 8 3 16t7 15q40 70 80 145.5t77 149t70 142.5t59 127h-122q-37 0 -62 -2t-43 -2q-17 0 -25 7.5t-8 15.5q0 10 8.5 16.5t19.5 6.5q15 0 34.5 -1t32.5 -1h232q-28 -62 -67 -143.5t-83 -169.5t-89.5 -175.5t-87.5 -161.5h-21zM352 860q17 19 31.5 27.5t31.5 8.5
q24 0 38 -14.5t14 -34.5t-13.5 -36t-43.5 -30l-128 -61q-7 -3 -13.5 -5.5t-12.5 -2.5q-7 0 -12 5t-5 10q0 7 3.5 12.5t7.5 9.5z" />
    <glyph glyph-name="Zdotaccent" unicode="&#x17b;" horiz-adv-x="679" 
d="M89 0q42 74 87.5 161.5t89.5 175.5t83 169.5t67 143.5h225q6 0 10.5 -4.5t4.5 -10.5q0 -8 -3 -15.5t-7 -15.5q-78 -141 -150.5 -286.5t-135.5 -277.5h148q37 0 62 2t43 2q17 0 25 -7.5t8 -15.5q0 -10 -8 -16.5t-20 -6.5q-17 0 -34 1t-33 1h-462zM38 0q-6 0 -10.5 4.5
t-4.5 10.5q0 8 3 16t7 15q40 70 80 145.5t77 149t70 142.5t59 127h-122q-37 0 -62 -2t-43 -2q-17 0 -25 7.5t-8 15.5q0 10 8.5 16.5t19.5 6.5q15 0 34.5 -1t32.5 -1h232q-28 -62 -67 -143.5t-83 -169.5t-89.5 -175.5t-87.5 -161.5h-21zM412 771q0 -29 -21.5 -44t-52.5 -15
q-30 0 -51.5 15t-21.5 44q0 26 21.5 41t51.5 15q31 0 52.5 -15t21.5 -41z" />
    <glyph glyph-name="zdotaccent" unicode="&#x17c;" horiz-adv-x="679" 
d="M89 0q42 74 87.5 161.5t89.5 175.5t83 169.5t67 143.5h225q6 0 10.5 -4.5t4.5 -10.5q0 -8 -3 -15.5t-7 -15.5q-78 -141 -150.5 -286.5t-135.5 -277.5h148q37 0 62 2t43 2q17 0 25 -7.5t8 -15.5q0 -10 -8 -16.5t-20 -6.5q-17 0 -34 1t-33 1h-462zM38 0q-6 0 -10.5 4.5
t-4.5 10.5q0 8 3 16t7 15q40 70 80 145.5t77 149t70 142.5t59 127h-122q-37 0 -62 -2t-43 -2q-17 0 -25 7.5t-8 15.5q0 10 8.5 16.5t19.5 6.5q15 0 34.5 -1t32.5 -1h232q-28 -62 -67 -143.5t-83 -169.5t-89.5 -175.5t-87.5 -161.5h-21zM412 771q0 -29 -21.5 -44t-52.5 -15
q-30 0 -51.5 15t-21.5 44q0 26 21.5 41t51.5 15q31 0 52.5 -15t21.5 -41z" />
    <glyph glyph-name="Zcaron" unicode="&#x17d;" horiz-adv-x="679" 
d="M89 0q42 74 87.5 161.5t89.5 175.5t83 169.5t67 143.5h225q6 0 10.5 -4.5t4.5 -10.5q0 -8 -3 -15.5t-7 -15.5q-78 -141 -150.5 -286.5t-135.5 -277.5h148q37 0 62 2t43 2q17 0 25 -7.5t8 -15.5q0 -10 -8 -16.5t-20 -6.5q-17 0 -34 1t-33 1h-462zM38 0q-6 0 -10.5 4.5
t-4.5 10.5q0 8 3 16t7 15q40 70 80 145.5t77 149t70 142.5t59 127h-122q-37 0 -62 -2t-43 -2q-17 0 -25 7.5t-8 15.5q0 10 8.5 16.5t19.5 6.5q15 0 34.5 -1t32.5 -1h232q-28 -62 -67 -143.5t-83 -169.5t-89.5 -175.5t-87.5 -161.5h-21zM175 859q-4 4 -7.5 9.5t-3.5 12.5
q0 5 5 10t12 5q6 0 13 -2.5t13 -5.5l132 -61l132 61q6 3 13 5.5t13 2.5q7 0 12 -5t5 -10q0 -7 -3.5 -12.5t-7.5 -9.5l-102 -111q-17 -19 -31 -27.5t-31 -8.5t-31 8.5t-31 27.5z" />
    <glyph glyph-name="zcaron" unicode="&#x17e;" horiz-adv-x="679" 
d="M89 0q42 74 87.5 161.5t89.5 175.5t83 169.5t67 143.5h225q6 0 10.5 -4.5t4.5 -10.5q0 -8 -3 -15.5t-7 -15.5q-78 -141 -150.5 -286.5t-135.5 -277.5h148q37 0 62 2t43 2q17 0 25 -7.5t8 -15.5q0 -10 -8 -16.5t-20 -6.5q-17 0 -34 1t-33 1h-462zM38 0q-6 0 -10.5 4.5
t-4.5 10.5q0 8 3 16t7 15q40 70 80 145.5t77 149t70 142.5t59 127h-122q-37 0 -62 -2t-43 -2q-17 0 -25 7.5t-8 15.5q0 10 8.5 16.5t19.5 6.5q15 0 34.5 -1t32.5 -1h232q-28 -62 -67 -143.5t-83 -169.5t-89.5 -175.5t-87.5 -161.5h-21zM175 859q-4 4 -7.5 9.5t-3.5 12.5
q0 5 5 10t12 5q6 0 13 -2.5t13 -5.5l132 -61l132 61q6 3 13 5.5t13 2.5q7 0 12 -5t5 -10q0 -7 -3.5 -12.5t-7.5 -9.5l-102 -111q-17 -19 -31 -27.5t-31 -8.5t-31 8.5t-31 27.5z" />
    <glyph glyph-name="florin" unicode="&#x192;" horiz-adv-x="656" 
d="M359 587q13 47 58.5 66.5t105.5 19.5t91.5 -17t31.5 -35q0 -13 -9 -19t-14 -6q-9 0 -15 4.5t-14 12.5q-11 11 -25 11q-17 0 -36 -18t-30 -57l-14 -51h66q29 0 29 -20t-29 -20h-76l-56 -209q-17 -64 -41 -113t-56 -83t-74 -53t-96 -23q18 12 37 37.5t31 69.5zM248 458h-56
q-29 0 -29 20t29 20h66q10 30 30.5 61t53.5 55q-4 -5 -8 -14t-6 -18l-126 -468q-18 -66 -46.5 -98t-66.5 -32q-15 0 -29 3.5t-25 9.5t-18 14.5t-7 18.5q0 13 9 18.5t14 5.5q9 0 15 -4.5t14 -12.5q11 -11 25 -11q11 0 20.5 4t18 15.5t17 32t17.5 53.5z" />
    <glyph glyph-name="AEacute" unicode="&#x1fc;" horiz-adv-x="1021" 
d="M454 650h423q8 0 17 1t19 1q11 0 18.5 -7t7.5 -15q0 -10 -7.5 -16t-18.5 -6q-10 0 -19 1t-17 1h-198v-138h215q8 0 17 1t19 1q11 0 18.5 -7t7.5 -15q0 -10 -7.5 -16t-18.5 -6q-10 0 -19 1t-17 1h-215v-392h242q8 0 17 1t19 1q11 0 18.5 -7t7.5 -15q0 -10 -7.5 -16
t-18.5 -6q-10 0 -19 1t-17 1h-467v650zM394 0q-6 0 -10.5 4.5t-4.5 10.5l2 70v211h-164l-134 -231q-3 -5 -5.5 -15t-3.5 -17q-2 -16 -8.5 -27t-23.5 -11q-12 0 -20.5 7t-8.5 20q0 16 11 33q5 7 9.5 15t9.5 16l318 547q11 17 33 17h32v-650h-32zM381 336v243l-141 -243h141z
M583 860q17 19 31.5 27.5t31.5 8.5q24 0 38 -14.5t14 -34.5t-13.5 -36t-43.5 -30l-128 -61q-7 -3 -13.5 -5.5t-12.5 -2.5q-7 0 -12 5t-5 10q0 7 3.5 12.5t7.5 9.5z" />
    <glyph glyph-name="aeacute" unicode="&#x1fd;" horiz-adv-x="1021" 
d="M454 650h423q8 0 17 1t19 1q11 0 18.5 -7t7.5 -15q0 -10 -7.5 -16t-18.5 -6q-10 0 -19 1t-17 1h-198v-138h215q8 0 17 1t19 1q11 0 18.5 -7t7.5 -15q0 -10 -7.5 -16t-18.5 -6q-10 0 -19 1t-17 1h-215v-392h242q8 0 17 1t19 1q11 0 18.5 -7t7.5 -15q0 -10 -7.5 -16
t-18.5 -6q-10 0 -19 1t-17 1h-467v650zM394 0q-6 0 -10.5 4.5t-4.5 10.5l2 70v211h-164l-134 -231q-3 -5 -5.5 -15t-3.5 -17q-2 -16 -8.5 -27t-23.5 -11q-12 0 -20.5 7t-8.5 20q0 16 11 33q5 7 9.5 15t9.5 16l318 547q11 17 33 17h32v-650h-32zM381 336v243l-141 -243h141z
M583 860q17 19 31.5 27.5t31.5 8.5q24 0 38 -14.5t14 -34.5t-13.5 -36t-43.5 -30l-128 -61q-7 -3 -13.5 -5.5t-12.5 -2.5q-7 0 -12 5t-5 10q0 7 3.5 12.5t7.5 9.5z" />
    <glyph glyph-name="Oslashacute" unicode="&#x1fe;" horiz-adv-x="796" 
d="M163 68q-12 10 -22 22v470q48 52 114 82.5t143 30.5q57 0 108 -17t93 -48l53 66q10 12 15 17.5t13 5.5q6 0 15 -7t9 -14t-4 -12l-12 -15l-55 -68q52 -48 82.5 -114t30.5 -142q0 -72 -27.5 -135.5t-74.5 -110.5t-110.5 -74.5t-135.5 -27.5q-57 0 -107.5 17t-93.5 47
l-52 -65q-10 -12 -15 -17.5t-13 -5.5q-6 0 -15 7t-9 14t4 12l12 15zM113 125q-30 43 -46.5 93.5t-16.5 106.5t16.5 106.5t46.5 93.5v-400zM573 575q-38 28 -82 43t-93 15h-11t-11 -1v-300zM376 18q5 -1 11 -1h11q63 0 118 24.5t96 66.5t65 98t24 119q0 65 -25 122.5
t-70 99.5l-230 -285v-244zM411 860q17 19 31.5 27.5t31.5 8.5q24 0 38 -14.5t14 -34.5t-13.5 -36t-43.5 -30l-128 -61q-7 -3 -13.5 -5.5t-12.5 -2.5q-7 0 -12 5t-5 10q0 7 3.5 12.5t7.5 9.5z" />
    <glyph glyph-name="oslashacute" unicode="&#x1ff;" horiz-adv-x="796" 
d="M163 68q-12 10 -22 22v470q48 52 114 82.5t143 30.5q57 0 108 -17t93 -48l53 66q10 12 15 17.5t13 5.5q6 0 15 -7t9 -14t-4 -12l-12 -15l-55 -68q52 -48 82.5 -114t30.5 -142q0 -72 -27.5 -135.5t-74.5 -110.5t-110.5 -74.5t-135.5 -27.5q-57 0 -107.5 17t-93.5 47
l-52 -65q-10 -12 -15 -17.5t-13 -5.5q-6 0 -15 7t-9 14t4 12l12 15zM113 125q-30 43 -46.5 93.5t-16.5 106.5t16.5 106.5t46.5 93.5v-400zM573 575q-38 28 -82 43t-93 15h-11t-11 -1v-300zM376 18q5 -1 11 -1h11q63 0 118 24.5t96 66.5t65 98t24 119q0 65 -25 122.5
t-70 99.5l-230 -285v-244zM411 860q17 19 31.5 27.5t31.5 8.5q24 0 38 -14.5t14 -34.5t-13.5 -36t-43.5 -30l-128 -61q-7 -3 -13.5 -5.5t-12.5 -2.5q-7 0 -12 5t-5 10q0 7 3.5 12.5t7.5 9.5z" />
    <glyph glyph-name="Scommaaccent" unicode="&#x218;" horiz-adv-x="648" 
d="M267 -191q0 6 4 11t12 5q5 0 9 -1t12 -1q20 0 28 5t8 9q0 5 -5.5 6t-14.5 1q-35 0 -53.5 12t-18.5 38q0 27 22 44.5t50 17.5q32 0 55.5 -19t23.5 -56q0 -17 -6 -33.5t-18 -29.5t-31 -21t-45 -8q-13 0 -22.5 4.5t-9.5 15.5zM584 173q0 -84 -55 -132t-147 -59q11 11 18 24
t7 36q0 18 -4.5 36t-16.5 41t-33.5 52.5t-56.5 70.5q-37 43 -64.5 78.5t-45.5 67t-27 60.5t-9 59q0 32 4.5 62.5t15.5 55.5q32 22 75.5 35t94.5 13q34 0 70 -8t66 -20.5t49 -29t19 -33.5q0 -8 -5.5 -14t-14.5 -6q-14 0 -38 21q-11 10 -26 19t-33 16q-22 8 -40.5 11.5
t-39.5 3.5q-11 0 -19.5 -8t-8.5 -20t3.5 -24t17 -33t40.5 -55t75 -88q54 -62 91.5 -120t37.5 -112zM379 42q0 -17 -8 -29.5t-18.5 -20.5t-21 -11.5t-15.5 -3.5q-43 0 -87.5 12.5t-80.5 31t-58.5 39t-22.5 36.5q0 11 6 18t18 7q15 0 22 -10t17 -19q37 -35 81 -55t89 -20
q18 0 26 8.5t8 19.5q0 10 -3 21t-16 31.5t-40 55t-75 90.5q-60 69 -90 123t-30 109q0 35 14.5 68.5t43.5 59.5q-8 -19 -12 -44.5t-4 -54.5q0 -34 8 -63.5t24.5 -59.5t42.5 -63.5t62 -75.5q41 -49 65 -81.5t36 -54.5t15.5 -36.5t3.5 -27.5z" />
    <glyph glyph-name="scommaaccent" unicode="&#x219;" horiz-adv-x="648" 
d="M267 -191q0 6 4 11t12 5q5 0 9 -1t12 -1q20 0 28 5t8 9q0 5 -5.5 6t-14.5 1q-35 0 -53.5 12t-18.5 38q0 27 22 44.5t50 17.5q32 0 55.5 -19t23.5 -56q0 -17 -6 -33.5t-18 -29.5t-31 -21t-45 -8q-13 0 -22.5 4.5t-9.5 15.5zM584 173q0 -84 -55 -132t-147 -59q11 11 18 24
t7 36q0 18 -4.5 36t-16.5 41t-33.5 52.5t-56.5 70.5q-37 43 -64.5 78.5t-45.5 67t-27 60.5t-9 59q0 32 4.5 62.5t15.5 55.5q32 22 75.5 35t94.5 13q34 0 70 -8t66 -20.5t49 -29t19 -33.5q0 -8 -5.5 -14t-14.5 -6q-14 0 -38 21q-11 10 -26 19t-33 16q-22 8 -40.5 11.5
t-39.5 3.5q-11 0 -19.5 -8t-8.5 -20t3.5 -24t17 -33t40.5 -55t75 -88q54 -62 91.5 -120t37.5 -112zM379 42q0 -17 -8 -29.5t-18.5 -20.5t-21 -11.5t-15.5 -3.5q-43 0 -87.5 12.5t-80.5 31t-58.5 39t-22.5 36.5q0 11 6 18t18 7q15 0 22 -10t17 -19q37 -35 81 -55t89 -20
q18 0 26 8.5t8 19.5q0 10 -3 21t-16 31.5t-40 55t-75 90.5q-60 69 -90 123t-30 109q0 35 14.5 68.5t43.5 59.5q-8 -19 -12 -44.5t-4 -54.5q0 -34 8 -63.5t24.5 -59.5t42.5 -63.5t62 -75.5q41 -49 65 -81.5t36 -54.5t15.5 -36.5t3.5 -27.5z" />
    <glyph glyph-name="uni021A" unicode="&#x21a;" horiz-adv-x="688" 
d="M287 -191q0 6 4 11t12 5q5 0 9 -1t12 -1q20 0 28 5t8 9q0 5 -5.5 6t-14.5 1q-35 0 -53.5 12t-18.5 38q0 27 22 44.5t50 17.5q32 0 55.5 -19t23.5 -56q0 -17 -6 -33.5t-18 -29.5t-31 -21t-45 -8q-13 0 -22.5 4.5t-9.5 15.5zM268 650h320q13 0 31.5 1t35.5 1
q11 0 19.5 -6.5t8.5 -16.5q0 -8 -8 -15.5t-25 -7.5q-18 0 -43 2t-62 2h-52v-525l2 -70q0 -6 -4.5 -10.5t-10.5 -4.5h-212v650zM208 0q-6 0 -10.5 4.5t-4.5 10.5l2 70v525h-52q-37 0 -62 -2t-43 -2q-17 0 -25 7.5t-8 15.5q0 10 8.5 16.5t19.5 6.5q17 0 35.5 -1t31.5 -1h140
v-650h-32z" />
    <glyph glyph-name="uni021B" unicode="&#x21b;" horiz-adv-x="688" 
d="M287 -191q0 6 4 11t12 5q5 0 9 -1t12 -1q20 0 28 5t8 9q0 5 -5.5 6t-14.5 1q-35 0 -53.5 12t-18.5 38q0 27 22 44.5t50 17.5q32 0 55.5 -19t23.5 -56q0 -17 -6 -33.5t-18 -29.5t-31 -21t-45 -8q-13 0 -22.5 4.5t-9.5 15.5zM268 650h320q13 0 31.5 1t35.5 1
q11 0 19.5 -6.5t8.5 -16.5q0 -8 -8 -15.5t-25 -7.5q-18 0 -43 2t-62 2h-52v-525l2 -70q0 -6 -4.5 -10.5t-10.5 -4.5h-212v650zM208 0q-6 0 -10.5 4.5t-4.5 10.5l2 70v525h-52q-37 0 -62 -2t-43 -2q-17 0 -25 7.5t-8 15.5q0 10 8.5 16.5t19.5 6.5q17 0 35.5 -1t31.5 -1h140
v-650h-32z" />
    <glyph glyph-name="circumflex" unicode="&#x2c6;" horiz-adv-x="400" 
d="M200 781l-132 -61q-6 -3 -13 -5.5t-13 -2.5q-7 0 -12 5t-5 10q0 7 3.5 12.5t7.5 9.5l102 111q17 19 31 27.5t31 8.5t31 -8.5t31 -27.5l102 -111q4 -4 7.5 -9.5t3.5 -12.5q0 -5 -5 -10t-12 -5q-6 0 -13 2.5t-13 5.5z" />
    <glyph glyph-name="caron" unicode="&#x2c7;" horiz-adv-x="400" 
d="M36 859q-4 4 -7.5 9.5t-3.5 12.5q0 5 5 10t12 5q6 0 13 -2.5t13 -5.5l132 -61l132 61q6 3 13 5.5t13 2.5q7 0 12 -5t5 -10q0 -7 -3.5 -12.5t-7.5 -9.5l-102 -111q-17 -19 -31 -27.5t-31 -8.5t-31 8.5t-31 27.5z" />
    <glyph glyph-name="uni02C9" unicode="&#x2c9;" horiz-adv-x="400" 
d="M65 582q-10 0 -15 6t-5 14t5 14t15 6h270q10 0 15 -6t5 -14t-5 -14t-15 -6h-270z" />
    <glyph glyph-name="breve" unicode="&#x2d8;" horiz-adv-x="400" 
d="M354 866q0 -31 -11.5 -59t-32 -49t-49.5 -33.5t-63 -12.5q-35 0 -63.5 12.5t-49 33.5t-32 49t-11.5 59q0 9 5.5 15.5t16.5 6.5t17 -6.5t6 -14.5q0 -6 4.5 -14t16.5 -14.5t33.5 -11.5t56.5 -5t57 5t34 11.5t16.5 14.5t4.5 14q0 8 5.5 14.5t16.5 6.5t16.5 -6.5t5.5 -15.5z
" />
    <glyph glyph-name="dotaccent" unicode="&#x2d9;" horiz-adv-x="400" 
d="M273 771q0 -29 -21.5 -44t-52.5 -15q-30 0 -51.5 15t-21.5 44q0 26 21.5 41t51.5 15q31 0 52.5 -15t21.5 -41z" />
    <glyph glyph-name="ring" unicode="&#x2da;" horiz-adv-x="400" 
d="M294 807q0 -20 -7.5 -37t-20.5 -30t-30.5 -20.5t-36.5 -7.5q-20 0 -37 7.5t-30 20.5t-20.5 30t-7.5 37q0 19 7.5 36.5t20.5 30.5t30 20.5t37 7.5q19 0 36.5 -7.5t30.5 -20.5t20.5 -30.5t7.5 -36.5zM254 807q0 23 -16 39t-39 16t-39 -16t-16 -39t16 -39t39 -16t39 16
t16 39z" />
    <glyph glyph-name="ogonek" unicode="&#x2db;" horiz-adv-x="400" 
d="M261 0q-30 -32 -46.5 -60.5t-16.5 -52.5q0 -23 15.5 -34t32.5 -11q31 0 62 17q4 3 13 3q1 0 4 -4t6 -9t5 -10t2 -8t-3 -5l-6 -4q-24 -12 -45 -17t-49 -5q-78 0 -118.5 21.5t-40.5 58.5q0 18 11 35t29 32t41 28t48 25h56z" />
    <glyph glyph-name="tilde" unicode="&#x2dc;" horiz-adv-x="400" 
d="M283 799q17 0 25 9t8 19q0 7 4.5 12t13.5 5t13.5 -5t4.5 -13q0 -18 -4 -38.5t-14.5 -37t-28.5 -27.5t-46 -11q-23 0 -41.5 7t-35.5 15.5t-33 15.5t-32 7q-17 0 -25 -9t-8 -19q0 -7 -4.5 -12t-13.5 -5t-13.5 5t-4.5 13q0 18 4 38.5t14.5 37t28.5 27.5t46 11q22 0 41 -7
t36 -15.5t33 -15.5t32 -7z" />
    <glyph glyph-name="hungarumlaut" unicode="&#x2dd;" horiz-adv-x="400" 
d="M284 853q27 43 62 43q22 0 37 -12.5t15 -31.5q0 -23 -12.5 -39t-44.5 -37l-85 -54q-6 -4 -12.5 -7t-12.5 -3q-7 0 -12 5t-5 10q0 7 2 12t5 10zM104 853q27 43 62 43q22 0 37 -12.5t15 -31.5q0 -23 -12.5 -39t-44.5 -37l-85 -54q-6 -4 -12.5 -7t-12.5 -3q-7 0 -12 5t-5 10
q0 7 2 12t5 10z" />
    <glyph glyph-name="Omega" unicode="&#x3a9;" horiz-adv-x="670" 
d="M53 39h148q-23 19 -49 49.5t-48 73t-37 97t-15 122.5q0 70 20.5 130.5t58 105t90 70t116.5 25.5q66 0 118 -24t88 -67.5t55 -104t19 -134.5q0 -61 -13.5 -114t-35.5 -96.5t-48.5 -77t-51.5 -55.5h150v-39h-201v39q24 21 51 50.5t50 71t38.5 95t15.5 122.5q0 63 -15 117
t-45 93.5t-74 62t-101 22.5q-54 0 -98.5 -22.5t-76 -61.5t-48.5 -92.5t-17 -116.5q0 -67 14.5 -120t37.5 -94t50.5 -72t54.5 -55v-39h-201v39z" />
    <glyph glyph-name="mu" unicode="&#x3bc;" horiz-adv-x="576" 
d="M63 -133l7 23q1 4 3 13t4 19.5t4 20.5t3 18t1.5 16.5t1.5 26.5q1 17 1.5 32.5t0.5 21.5v389h82v-304q0 -20 4.5 -38t12.5 -28q9 -13 28 -22t36 -9q31 0 64.5 16.5t65.5 47.5v337h81v-294q0 -33 2 -52t5 -31q9 -30 31 -30q15 0 24 14t14 46h20q-4 -29 -8 -43.5t-12 -29.5
q-11 -20 -30.5 -31t-42.5 -11q-21 0 -39 9t-28 25q-8 12 -11.5 25t-5.5 39q-23 -26 -41 -41t-40 -29q-23 -14 -47 -21.5t-43 -7.5q-24 0 -43.5 8t-40.5 26v-22q0 -29 2.5 -51.5t9.5 -49.5q3 -13 5 -21t2.5 -13.5t1 -9.5t0.5 -9q0 -26 -12 -42t-32 -16q-19 0 -31.5 17
t-12.5 43z" />
    <glyph glyph-name="pi" unicode="&#x3c0;" horiz-adv-x="588" 
d="M134 0q7 27 10 61t3 64v335q-21 0 -50 -6t-49 -14q-4 10 -7 19t-7 19q16 7 47 14.5t76 7.5h397v-40h-106v-347q0 -36 15 -57.5t50 -21.5q14 0 29 6l11 -36q-8 -5 -21.5 -7.5t-26.5 -2.5q-54 0 -78 34t-24 83v349h-211v-335q0 -36 -3.5 -69t-8.5 -56h-46z" />
    <glyph glyph-name="Wgrave" unicode="&#x1e80;" horiz-adv-x="1035" 
d="M532 462l75 149q8 17 15 28t23 11q14 0 20.5 -9.5t17.5 -30.5l157 -291l117 261q2 4 5.5 15.5t6.5 25.5q4 18 10 26t18 8q14 0 20 -7.5t6 -19.5q0 -13 -7.5 -30t-17.5 -38l-222 -495q-5 -10 -7.5 -20t-5.5 -19zM81 650h186q17 0 29.5 -7.5t21.5 -26.5l140 -301l59 116
l232 -439q-9 -12 -24 -12q-14 0 -25 10.5t-19 28.5q-8 16 -18.5 37.5t-16.5 32.5l-128 242l-162 -295zM59 518q-8 18 -16.5 34.5t-15.5 30.5q-16 33 -16 47q0 8 8 14t17 6h14l289 -646q-5 -9 -11 -16.5t-17 -7.5q-23 0 -34 37q-5 17 -10.5 34.5t-10.5 27.5zM446 781
q-30 14 -43.5 30t-13.5 36t14 34.5t38 14.5q17 0 31.5 -8.5t31.5 -27.5l102 -111q4 -4 7.5 -9.5t3.5 -12.5q0 -5 -5 -10t-12 -5q-6 0 -12.5 2.5t-13.5 5.5z" />
    <glyph glyph-name="wgrave" unicode="&#x1e81;" horiz-adv-x="1035" 
d="M532 462l75 149q8 17 15 28t23 11q14 0 20.5 -9.5t17.5 -30.5l157 -291l117 261q2 4 5.5 15.5t6.5 25.5q4 18 10 26t18 8q14 0 20 -7.5t6 -19.5q0 -13 -7.5 -30t-17.5 -38l-222 -495q-5 -10 -7.5 -20t-5.5 -19zM81 650h186q17 0 29.5 -7.5t21.5 -26.5l140 -301l59 116
l232 -439q-9 -12 -24 -12q-14 0 -25 10.5t-19 28.5q-8 16 -18.5 37.5t-16.5 32.5l-128 242l-162 -295zM59 518q-8 18 -16.5 34.5t-15.5 30.5q-16 33 -16 47q0 8 8 14t17 6h14l289 -646q-5 -9 -11 -16.5t-17 -7.5q-23 0 -34 37q-5 17 -10.5 34.5t-10.5 27.5zM446 781
q-30 14 -43.5 30t-13.5 36t14 34.5t38 14.5q17 0 31.5 -8.5t31.5 -27.5l102 -111q4 -4 7.5 -9.5t3.5 -12.5q0 -5 -5 -10t-12 -5q-6 0 -12.5 2.5t-13.5 5.5z" />
    <glyph glyph-name="Wacute" unicode="&#x1e82;" horiz-adv-x="1035" 
d="M532 462l75 149q8 17 15 28t23 11q14 0 20.5 -9.5t17.5 -30.5l157 -291l117 261q2 4 5.5 15.5t6.5 25.5q4 18 10 26t18 8q14 0 20 -7.5t6 -19.5q0 -13 -7.5 -30t-17.5 -38l-222 -495q-5 -10 -7.5 -20t-5.5 -19zM81 650h186q17 0 29.5 -7.5t21.5 -26.5l140 -301l59 116
l232 -439q-9 -12 -24 -12q-14 0 -25 10.5t-19 28.5q-8 16 -18.5 37.5t-16.5 32.5l-128 242l-162 -295zM59 518q-8 18 -16.5 34.5t-15.5 30.5q-16 33 -16 47q0 8 8 14t17 6h14l289 -646q-5 -9 -11 -16.5t-17 -7.5q-23 0 -34 37q-5 17 -10.5 34.5t-10.5 27.5zM530 860
q17 19 31.5 27.5t31.5 8.5q24 0 38 -14.5t14 -34.5t-13.5 -36t-43.5 -30l-128 -61q-7 -3 -13.5 -5.5t-12.5 -2.5q-7 0 -12 5t-5 10q0 7 3.5 12.5t7.5 9.5z" />
    <glyph glyph-name="wacute" unicode="&#x1e83;" horiz-adv-x="1035" 
d="M532 462l75 149q8 17 15 28t23 11q14 0 20.5 -9.5t17.5 -30.5l157 -291l117 261q2 4 5.5 15.5t6.5 25.5q4 18 10 26t18 8q14 0 20 -7.5t6 -19.5q0 -13 -7.5 -30t-17.5 -38l-222 -495q-5 -10 -7.5 -20t-5.5 -19zM81 650h186q17 0 29.5 -7.5t21.5 -26.5l140 -301l59 116
l232 -439q-9 -12 -24 -12q-14 0 -25 10.5t-19 28.5q-8 16 -18.5 37.5t-16.5 32.5l-128 242l-162 -295zM59 518q-8 18 -16.5 34.5t-15.5 30.5q-16 33 -16 47q0 8 8 14t17 6h14l289 -646q-5 -9 -11 -16.5t-17 -7.5q-23 0 -34 37q-5 17 -10.5 34.5t-10.5 27.5zM530 860
q17 19 31.5 27.5t31.5 8.5q24 0 38 -14.5t14 -34.5t-13.5 -36t-43.5 -30l-128 -61q-7 -3 -13.5 -5.5t-12.5 -2.5q-7 0 -12 5t-5 10q0 7 3.5 12.5t7.5 9.5z" />
    <glyph glyph-name="Wdieresis" unicode="&#x1e84;" horiz-adv-x="1035" 
d="M532 462l75 149q8 17 15 28t23 11q14 0 20.5 -9.5t17.5 -30.5l157 -291l117 261q2 4 5.5 15.5t6.5 25.5q4 18 10 26t18 8q14 0 20 -7.5t6 -19.5q0 -13 -7.5 -30t-17.5 -38l-222 -495q-5 -10 -7.5 -20t-5.5 -19zM81 650h186q17 0 29.5 -7.5t21.5 -26.5l140 -301l59 116
l232 -439q-9 -12 -24 -12q-14 0 -25 10.5t-19 28.5q-8 16 -18.5 37.5t-16.5 32.5l-128 242l-162 -295zM59 518q-8 18 -16.5 34.5t-15.5 30.5q-16 33 -16 47q0 8 8 14t17 6h14l289 -646q-5 -9 -11 -16.5t-17 -7.5q-23 0 -34 37q-5 17 -10.5 34.5t-10.5 27.5zM699 771
q0 -29 -21.5 -44t-52.5 -15q-30 0 -51.5 15t-21.5 44q0 26 21.5 41t51.5 15q31 0 52.5 -15t21.5 -41zM482 771q0 -29 -21.5 -44t-52.5 -15q-30 0 -51.5 15t-21.5 44q0 26 21.5 41t51.5 15q31 0 52.5 -15t21.5 -41z" />
    <glyph glyph-name="wdieresis" unicode="&#x1e85;" horiz-adv-x="1035" 
d="M532 462l75 149q8 17 15 28t23 11q14 0 20.5 -9.5t17.5 -30.5l157 -291l117 261q2 4 5.5 15.5t6.5 25.5q4 18 10 26t18 8q14 0 20 -7.5t6 -19.5q0 -13 -7.5 -30t-17.5 -38l-222 -495q-5 -10 -7.5 -20t-5.5 -19zM81 650h186q17 0 29.5 -7.5t21.5 -26.5l140 -301l59 116
l232 -439q-9 -12 -24 -12q-14 0 -25 10.5t-19 28.5q-8 16 -18.5 37.5t-16.5 32.5l-128 242l-162 -295zM59 518q-8 18 -16.5 34.5t-15.5 30.5q-16 33 -16 47q0 8 8 14t17 6h14l289 -646q-5 -9 -11 -16.5t-17 -7.5q-23 0 -34 37q-5 17 -10.5 34.5t-10.5 27.5zM699 771
q0 -29 -21.5 -44t-52.5 -15q-30 0 -51.5 15t-21.5 44q0 26 21.5 41t51.5 15q31 0 52.5 -15t21.5 -41zM482 771q0 -29 -21.5 -44t-52.5 -15q-30 0 -51.5 15t-21.5 44q0 26 21.5 41t51.5 15q31 0 52.5 -15t21.5 -41z" />
    <glyph glyph-name="Ygrave" unicode="&#x1ef2;" horiz-adv-x="764" 
d="M105 650h222q26 0 39 -10.5t28 -29.5l150 -191l121 168q2 3 5.5 8.5t7 12t7 12.5t5.5 9q8 14 17.5 20t19.5 6t18.5 -6.5t8.5 -17.5q0 -18 -15 -31q-23 -20 -34 -34l-254 -355zM377 186l-239 303q-18 23 -43 51t-46 51q-12 14 -19 22t-7 18q0 19 28 19h18l365 -463
l-104 -144q-2 -3 -5.5 -8.5t-7.5 -12t-8 -12.5t-5 -9q-7 -14 -16.5 -20t-19.5 -6t-19 7.5t-9 15.5q0 10 4.5 18.5t12.5 14.5q11 9 19.5 17t13.5 16zM311 781q-30 14 -43.5 30t-13.5 36t14 34.5t38 14.5q17 0 31.5 -8.5t31.5 -27.5l102 -111q4 -4 7.5 -9.5t3.5 -12.5
q0 -5 -5 -10t-12 -5q-6 0 -12.5 2.5t-13.5 5.5z" />
    <glyph glyph-name="ygrave" unicode="&#x1ef3;" horiz-adv-x="764" 
d="M105 650h222q26 0 39 -10.5t28 -29.5l150 -191l121 168q2 3 5.5 8.5t7 12t7 12.5t5.5 9q8 14 17.5 20t19.5 6t18.5 -6.5t8.5 -17.5q0 -18 -15 -31q-23 -20 -34 -34l-254 -355zM377 186l-239 303q-18 23 -43 51t-46 51q-12 14 -19 22t-7 18q0 19 28 19h18l365 -463
l-104 -144q-2 -3 -5.5 -8.5t-7.5 -12t-8 -12.5t-5 -9q-7 -14 -16.5 -20t-19.5 -6t-19 7.5t-9 15.5q0 10 4.5 18.5t12.5 14.5q11 9 19.5 17t13.5 16zM311 781q-30 14 -43.5 30t-13.5 36t14 34.5t38 14.5q17 0 31.5 -8.5t31.5 -27.5l102 -111q4 -4 7.5 -9.5t3.5 -12.5
q0 -5 -5 -10t-12 -5q-6 0 -12.5 2.5t-13.5 5.5z" />
    <glyph glyph-name="endash" unicode="&#x2013;" horiz-adv-x="500" 
d="M73 422h407q20 0 20 -19v-169q0 -19 -20 -19h-407v207zM20 215q-20 0 -20 20v167q0 20 20 20h25v-207h-25z" />
    <glyph glyph-name="emdash" unicode="&#x2014;" horiz-adv-x="1000" 
d="M73 422h907q20 0 20 -19v-169q0 -19 -20 -19h-907v207zM20 215q-20 0 -20 20v167q0 20 20 20h25v-207h-25z" />
    <glyph glyph-name="quoteleft" unicode="&#x2018;" horiz-adv-x="380" 
d="M109 645q24 14 52 21t57 7q28 0 45 -4t17 -19q0 -16 -20 -16q-11 0 -21.5 2t-26.5 2q-29 0 -56 -9t-47 -25v41zM109 582q37 16 81 16q30 0 57 -7.5t47 -22.5t31.5 -36.5t11.5 -48.5t-11.5 -48.5t-31.5 -36.5t-47 -22.5t-57 -7.5q-44 0 -81 16v198zM81 401
q-25 19 -39 47.5t-14 66.5q0 35 14.5 63.5t38.5 48.5v-226z" />
    <glyph glyph-name="quoteright" unicode="&#x2019;" horiz-adv-x="380" 
d="M124 662q31 11 66 11q73 0 117.5 -39t44.5 -108q0 -38 -16 -67t-43 -49.5t-61 -31t-70 -10.5q-28 0 -45 4t-17 19q0 16 20 16q11 0 21.5 -2t26.5 -2q21 0 42.5 5t39.5 14.5t30.5 23t16.5 29.5q-20 -16 -47.5 -24t-59.5 -8q-35 0 -66 11v208zM96 467q-24 14 -38.5 37
t-14.5 54t14.5 54t38.5 37v-182z" />
    <glyph glyph-name="quotesinglbase" unicode="&#x201a;" horiz-adv-x="380" 
d="M124 205q31 11 66 11q73 0 117.5 -39t44.5 -108q0 -38 -16 -67t-43 -49.5t-61 -31t-70 -10.5q-28 0 -45 4t-17 19q0 16 20 16q11 0 21.5 -2t26.5 -2q21 0 42.5 5t39.5 14.5t30.5 23t16.5 29.5q-20 -16 -47.5 -24t-59.5 -8q-35 0 -66 11v208zM96 10q-24 14 -38.5 37
t-14.5 54t14.5 54t38.5 37v-182z" />
    </font>
</defs>
</svg>
