<svg xmlns="http://www.w3.org/2000/svg" xmlns:xlink="http://www.w3.org/1999/xlink" xmlns:v="https://vecta.io/nano" width="1436" height="691" viewBox="-0.5 -0.5 1436 691" style="background-color:rgb(255, 255, 255)"><style><![CDATA[.B{pointer-events:all}.C{fill:#008a00}.D{stroke-width:2}.E{fill:none}.F{stroke:#008a00}.G{font-family:Helvetica}.H{text-anchor:middle}.I{stroke-miterlimit:10}.J{fill:#fff}.K{pointer-events:stroke}.L{font-size:12px}.M{font-size:10px}]]></style><defs><style>@import url(https://fonts.googleapis.com/css2?family=Architects+Daughter:wght@400500); </style><path id="A" d="M482.67 597.08c0-2.07 3.03-3.75 6.77-3.75s6.77 1.68 6.77 3.75v7.18c0 2.06-3.03 3.74-6.77 3.74s-6.77-1.68-6.77-3.74z"/><path id="B" d="M860.4 122.08l9.76-4.32q9.76-4.32 28.05 3.77l10.37 4.6q10.38 4.59-7.91 12.68l-10.37 4.6q-10.38 4.59-28.67-3.5l-10.37-4.6q-10.38-4.59-.62-8.91z"/></defs><path d="M0 0h1436v691H0z" class="J"/><text x="272" y="131" transform="matrix(2 0 0 2 -.5 -.5)" class="C G H L">API Gateway</text><text x="255" y="259" transform="matrix(2 0 0 2 -.5 -.5)" class="C G H L">CDN</text><text x="475" y="263" transform="matrix(2 0 0 2 -.5 -.5)" class="C G H L">Full-text Search</text><text x="475" y="24" transform="matrix(2 0 0 2 -.5 -.5)" class="C G H L">Distributed Cache</text><text x="73" y="126" transform="matrix(2 0 0 2 -.5 -.5)" class="C G H L">Clients</text><g class="D F I"><path d="M300 354h77.26" class="E K"/><path d="M387.76 354l-14 7 3.5-7-3.5-7z" class="B C"/><path d="M302 456l72.2 59.87" class="E K"/><path d="M382.28 522.57l-15.25-3.55 7.17-3.15 1.77-7.62z" class="B C"/></g><text x="475" y="119" transform="matrix(2 0 0 2 -.5 -.5)" class="C G H L">Application</text><text x="658" y="124" transform="matrix(2 0 0 2 -.5 -.5)" class="C G H L">Database</text><g class="D F"><g class="I"><path d="M696 336l85.47-15.7" class="E K"/><path d="M791.8 318.4l-12.5 9.42 2.17-7.52-4.7-6.25z" class="B C"/><path d="M696 384l87.51 17.5" class="E K"/><path d="M793.81 403.56l-15.1 4.12 4.8-6.18-2.06-7.55z" class="B C"/><path d="M543.84 225.74Q658 132 771.3 123.01" class="E K"/><path d="M781.77 122.18l-13.4 8.08 2.93-7.25-4.04-6.7z" class="B C"/><path d="M550 454q40 38 89 69 49 31 146.9 63.04" class="E K"/><path d="M795.87 589.3l-15.48 2.3 5.51-5.56-1.15-7.74z" class="B C"/><path d="M1104 308l67.57 15.2" class="E K"/><path d="M1181.82 325.51l-15.2 3.76 4.95-6.07-1.87-7.59z" class="B C"/><path d="M1104 398l67.45-11.8" class="E K"/><path d="M1181.8 384.39l-12.59 9.3 2.24-7.49-4.65-6.3z" class="B C"/></g><rect x="10" y="275" width="270" height="157" rx="14.13" class="B E"/></g><path d="M40.48 338.54v-43.85a4.49 4.49 0 0 1 3.51-2.69h75.72c1.92.21 3.5 1.61 3.91 3.49v43.05l8.03 8.68c.35 1.08.01 2.2-.94 3.11s-2.43 1.51-4.08 1.67H37.47c-1.67-.14-3.17-.74-4.14-1.65-.98-.91-1.33-2.04-.98-3.13zm3.31 0l76.83.1v-42.25a3.04 3.04 0 0 0-2.41-2H45.79c-1.09.38-1.88 1.35-2 2.49zm30.49 5.89l-2.71 3.88h18.86l-2.11-3.88zm155.13 1.49c.84 0 1.71-.73 1.71-1.67 0-.92-.58-1.81-1.68-1.81s-1.78.79-1.78 1.73c0 .87.83 1.75 1.75 1.75zm8.08 1.16c1.28 0 2.71-1 2.71-2.77 0-1.67-1.11-2.92-2.73-2.92-1.74 0-2.87 1.39-2.87 2.91 0 1.48 1.27 2.78 2.89 2.78zm7.94-1.19c.93 0 1.69-.81 1.69-1.75 0-.87-.65-1.73-1.72-1.73-1.13 0-1.75.79-1.75 1.78 0 1.01.83 1.7 1.78 1.7zm5.83-6.44c.67 0 .94-.52.94-1.08v-39.64c0-.89-.27-1.28-1.27-1.28h-27.11c-.77 0-1.27.36-1.27 1.04v39.99c0 .64.37.97.98.97zM221.99 350a1.64 1.64 0 0 1-1.59-1.61v-56.77c0-.8.74-1.62 1.59-1.62h30.66a1.32 1.32 0 0 1 1.35 1.36v57.41c0 .71-.68 1.23-1.33 1.23z" class="C B"/><rect x="34" y="374" width="222" height="42" rx="6.3" class="B D E F"/><text x="73" y="200" transform="matrix(2 0 0 2 -.5 -.5)" class="C G H M">browser, local storage</text><g class="D E F B"><rect x="408.84" y="542" width="203.16" height="137" rx="12.33"/><rect x="426.1" y="624" width="168" height="42" rx="6.3"/></g><text x="255" y="325" transform="matrix(2 0 0 2 -.5 -.5)" class="C G H M">static content</text><g class="D F J B"><circle cx="509.33" cy="584" r="22.667"/><path d="M502.56 557.08c0-2.07 3.04-3.75 6.78-3.75s6.77 1.68 6.77 3.75v7.18c0 2.06-3.03 3.74-6.77 3.74s-6.78-1.68-6.78-3.74z" class="I"/></g><path d="M516.11 557.08c0 2.06-3.03 3.74-6.77 3.74s-6.78-1.68-6.78-3.74" class="B D E F I"/><use xlink:href="#A" class="B D F I J"/><path d="M496.21 597.08c0 2.06-3.03 3.74-6.77 3.74s-6.77-1.68-6.77-3.74" class="B D E F I"/><use xlink:href="#A" x="41.34" class="B D F I J"/><g class="E B D F"><path d="M537.55 597.08c0 2.06-3.03 3.74-6.77 3.74s-6.77-1.68-6.77-3.74" class="I"/><rect x="816" y="70" width="270" height="114" rx="10.26"/></g><g class="I J B D F"><use xlink:href="#B"/><use xlink:href="#B" y="-14.08"/><use xlink:href="#B" y="-29.44"/></g><text x="441" y="83" transform="matrix(2 0 0 2 -.5 -.5)" class="C G H M">Node 1</text><g class="D F I J B"><use xlink:href="#B" x="136" y="-2"/><use xlink:href="#B" x="136" y="-16.08"/><use xlink:href="#B" x="136" y="-31.44"/></g><text x="509" y="82" transform="matrix(2 0 0 2 -.5 -.5)" class="C G H M">Node 2</text><g class="D E F B"><rect x="1206" y="271" width="218" height="143" rx="12.87"/><rect x="1222" y="358" width="186" height="40" rx="6"/></g><text x="658" y="192" transform="matrix(2 0 0 2 -.5 -.5)" class="C G H M">query, index, result</text><g class="F B"><g class="D"><g class="I"><path d="M1293 293.07c0-4.27 9.85-7.73 22-7.73 5.83 0 11.43.81 15.56 2.26 4.12 1.45 6.44 3.42 6.44 5.47v40.54c0 4.27-9.85 7.73-22 7.73s-22-3.46-22-7.73z" class="J"/><path d="M1337 293.07c0 4.27-9.85 7.73-22 7.73s-22-3.46-22-7.73" class="E"/></g><rect x="816" y="548" width="270" height="130" rx="11.7" class="E"/></g><g stroke-width="4" class="J"><circle cx="946.8" cy="580.8" r="16.8"/><path d="M958.56 592.56L972 606" class="I"/></g><rect x="850" y="618" width="202" height="40" rx="6" class="D E"/></g><text x="475" y="322" transform="matrix(2 0 0 2 -.5 -.5)" class="C G H M">index, search result</text><rect x="404" y="285.34" width="270" height="141" rx="12.69" class="B D E F"/><path d="M533.1 339.62h2.91v-2h-2.91zm4.9 0h2.97v-2H538zm-11.91-40.67l-12.89 6.4v39.79l12.89 4.36zm1.99 12.66v26.01h2.97v2h-2.97v11.27c0 .32-.16.62-.41.81a.96.96 0 0 1-.58.19c-.11 0-.22-.02-.32-.05l-14.88-5.03c-.4-.14-.68-.52-.68-.95v-41.13c0-.38.22-.73.56-.9l14.88-7.39c.31-.15.67-.13.96.05a1 1 0 0 1 .47.85v12.27h2.97v2zm14.88 28.01h2.97v-2h-2.97zm.06-28.01h2.91v-2h-2.91zm-4.96 0h2.91v-2h-2.91zm-4.96 0h2.91v-2h-2.91zm31.68-6.26l-12.89-6.4v50.55l12.89-4.36zm1.99 40.51c0 .43-.28.81-.68.95l-14.88 5.03c-.1.03-.21.05-.32.05a.96.96 0 0 1-.58-.19c-.25-.19-.41-.49-.41-.81v-11.27h-1.92v-2h1.92v-26.01h-1.92v-2h1.92v-12.27a1 1 0 0 1 .47-.85c.29-.18.65-.2.96-.05l14.88 7.39c.34.17.56.52.56.9zm-24.87-27.89l-1.85-.72-4.96 13.01 1.85.72zm6.72 6.35c.39-.39.39-1.02 0-1.41l-3.97-4-1.4 1.41 3.27 3.29-3.27 3.3 1.4 1.41zm-15.29 4l-3.97-4c-.39-.39-.39-1.02 0-1.41l3.97-4 1.4 1.41-3.27 3.29 3.27 3.3z" class="B C"/><rect x="429" y="368.9" width="220" height="42" rx="6.3" class="B D E F"/><text x="270" y="198" transform="matrix(2 0 0 2 -.5 -.5)" class="C G H M">response, auth, static</text><path d="M890.42 292.62h3.06v-3.04h-3.06zm6.14 0h3.08v-3.04h-3.08zm6.16 0h3.08v-3.04h-3.08zm2.03 45.81c.78 0 1.05-.51 1.05-1.04V296.7h-66.72v40.62c.01.58.22 1.03 1 1.11zm-68.75-.99v-47.07c0-1.7 1.51-3.87 4.31-3.87h64.38c2.38 0 4.19 1.89 4.19 4.01v46.79c0 2.04-1.49 4.2-4.19 4.2l-64.71-.01c-2.13 0-3.98-1.88-3.98-4.05z" class="B C"/><rect x="930" y="305.5" width="138" height="98" rx="14.7" class="B D E F"/><text xmlns="http://www.w3.org/2000/svg" x="500" y="180" font-size="9" transform="matrix(2 0 0 2 -.5 -.5)" class="C G H" dy="-15">
    <tspan x="500">CPU</tspan>
	<tspan dy="11" x="500">In-Memory</tspan>
    <tspan dy="11" x="500">Shared memory</tspan>
    <tspan dy="11" x="500">Disk</tspan>
</text><path d="M890.42 386.62h3.06v-3.04h-3.06zm6.14 0h3.08v-3.04h-3.08zm6.16 0h3.08v-3.04h-3.08zm2.03 45.81c.78 0 1.05-.51 1.05-1.04V390.7h-66.72v40.62c.01.58.22 1.03 1 1.11zm-68.75-.99v-47.07c0-1.7 1.51-3.87 4.31-3.87h64.38c2.38 0 4.19 1.89 4.19 4.01v46.79c0 2.04-1.49 4.2-4.19 4.2l-64.71-.01c-2.13 0-3.98-1.88-3.98-4.05z" class="B C"/><rect x="816" y="261" width="270" height="195" rx="17.55" class="B D E F"/></svg>