<svg xmlns="http://www.w3.org/2000/svg" xmlns:xlink="http://www.w3.org/1999/xlink" id="Layer_1" x="0px" y="0px" viewBox="0 0 3124 628" style="enable-background:new 0 0 3124 628;" xml:space="preserve">
<style type="text/css">
	.st0{fill:none;}
	.st1{opacity:0.1;}
	.st2{fill:url(#SVGID_2_);}
	.st3{fill:url(#SVGID_5_);}
	.st4{fill:url(#SVGID_6_);}
	.st5{fill:url(#SVGID_8_);}
	.st6{fill:url(#SVGID_9_);}
	.st7{fill:url(#SVGID_10_);}
	.st8{fill:url(#SVGID_11_);}
	.st9{opacity:0.1;fill:url(#SVGID_12_);enable-background:new    ;}
	.st10{opacity:0.99;fill:url(#SVGID_13_);enable-background:new    ;}
	.st11{opacity:0.99;fill:url(#SVGID_14_);enable-background:new    ;}
	.st12{fill:url(#SVGID_15_);}
	.st13{fill:url(#SVGID_16_);}
	.st14{fill:url(#SVGID_17_);}
	.st15{fill:url(#SVGID_18_);}
	.st16{fill:url(#SVGID_19_);}
	.st17{fill:url(#SVGID_20_);}
	.st18{fill:url(#SVGID_21_);}
	.st19{fill:url(#SVGID_22_);}
	.st20{fill:url(#SVGID_23_);}
	.st21{fill:url(#SVGID_24_);}
	.st22{opacity:0.1;fill:url(#SVGID_25_);enable-background:new    ;}
	.st23{clip-path:url(#SVGID_27_);fill:url(#SVGID_28_);}
	.st24{fill:url(#SVGID_29_);}
	.st25{fill:url(#SVGID_30_);}
	.st26{fill:url(#SVGID_31_);}
	.st27{fill:url(#SVGID_32_);}
	.st28{fill:url(#SVGID_33_);}
	.st29{opacity:0.5;fill:url(#SVGID_34_);enable-background:new    ;}
</style>
<pattern y="628" width="455" height="455" patternUnits="userSpaceOnUse" id="SVGID_61" viewBox="0 -455 455 455" style="overflow:visible;">
	<g>
		<rect y="-455" class="st0" width="455" height="455"></rect>
		<g>
			<rect x="0" y="-451.4" class="st0" width="455" height="447.9"></rect>
			<g class="st1">
				
					<linearGradient id="SVGID_2_" gradientUnits="userSpaceOnUse" x1="-11892.708" y1="-43215.8906" x2="-11892.708" y2="-43313.5156" gradientTransform="matrix(1.0003 0 0 -1.0003 12276.583 -43512.1094)">
					<stop offset="0" style="stop-color:#67C2DC"></stop>
					<stop offset="0.231" style="stop-color:#53BFE7"></stop>
					<stop offset="0.5138" style="stop-color:#39B6E8"></stop>
					<stop offset="0.7773" style="stop-color:#1AA7D4"></stop>
					<stop offset="1" style="stop-color:#1AA7D4"></stop>
				</linearGradient>
				<path class="st2" d="M421.2-259.6v23c0,7.6-2.1,15-6.3,22c-3.3,5.5-7.8,10.8-13.5,15.6c-9.5,8.2-19,12.5-19.4,12.6l-1.6,0.7      l-1.6-0.7c-0.4-0.1-9.9-4.4-19.4-12.6c-5.7-4.8-10.3-10.1-13.5-15.6c-4.2-7-6.3-14.5-6.3-22v-23c0-5.6,4-10.3,9.5-11.3      c9.3-1.6,17.8-6.7,22-9.5c2.8-1.9,6-2.8,9.3-2.8c3.3,0,6.6,1,9.3,2.8c4.3,2.8,12.7,7.9,22,9.5      C417.3-269.9,421.2-265.2,421.2-259.6z M402.2-215.9c0-5.8-2.3-11.3-6.4-15.5c-2.3-2.3-5.2-4.1-8.3-5.2      c3.3-2.3,5.5-6.1,5.5-10.4c0-7-5.7-12.7-12.7-12.7c-7,0-12.7,5.7-12.7,12.7c0,4.3,2.2,8.1,5.5,10.4c-3.1,1.1-5.9,2.8-8.3,5.2      c-4.1,4.1-6.4,9.6-6.4,15.5h3.3h0.1h37h0.9H402.2z"></path>
			</g>
			<g>
				<g class="st1">
					
						<linearGradient id="SVGID_5_" gradientUnits="userSpaceOnUse" x1="-12045.4688" y1="-43057.793" x2="-12045.4688" y2="-43155.4141" gradientTransform="matrix(1.0003 0 0 -1.0003 12276.583 -43512.1094)">
						<stop offset="0" style="stop-color:#67C2DC"></stop>
						<stop offset="0.231" style="stop-color:#53BFE7"></stop>
						<stop offset="0.5138" style="stop-color:#39B6E8"></stop>
						<stop offset="0.7773" style="stop-color:#1AA7D4"></stop>
						<stop offset="1" style="stop-color:#1AA7D4"></stop>
					</linearGradient>
					<path class="st3" d="M268.4-417.8v23c0,7.6-2.1,15-6.3,22c-3.3,5.5-7.8,10.8-13.5,15.6c-9.5,8.2-19,12.5-19.4,12.6l-1.6,0.7       l-1.6-0.7c-0.4-0.1-9.9-4.4-19.4-12.6c-5.7-4.8-10.3-10.1-13.5-15.6c-4.2-7-6.3-14.5-6.3-22v-23c0-5.6,4-10.3,9.5-11.3       c9.3-1.6,17.8-6.7,22-9.5c2.8-1.9,6-2.8,9.3-2.8c3.3,0,6.6,1,9.3,2.8c4.3,2.8,12.7,7.9,22,9.5       C264.4-428.1,268.4-423.3,268.4-417.8z M233.1-420.8h-7.8c-1.1,3.1-3.1,5.7-6.1,8c-2.9,2.3-5.6,3.8-8.1,4.6v8.7       c4.8-1.6,8.9-4,12.4-7.3v36.1h9.6L233.1-420.8L233.1-420.8z"></path>
				</g>
				<g class="st1">
					
						<linearGradient id="SVGID_6_" gradientUnits="userSpaceOnUse" x1="-11892.8506" y1="-43057.7148" x2="-11892.8506" y2="-43155.3359" gradientTransform="matrix(1.0003 0 0 -1.0003 12276.583 -43512.1094)">
						<stop offset="0" style="stop-color:#67C2DC"></stop>
						<stop offset="0.231" style="stop-color:#53BFE7"></stop>
						<stop offset="0.5138" style="stop-color:#39B6E8"></stop>
						<stop offset="0.7773" style="stop-color:#1AA7D4"></stop>
						<stop offset="1" style="stop-color:#1AA7D4"></stop>
					</linearGradient>
					<path class="st4" d="M380.4-381.1c-0.1,0-0.5,0-0.6,0c-1.5,0.1-2.6,1.4-2.6,2.8c0,0.8,0.3,1.5,0.9,2.1v4.8c0,0.6,0.4,1,1,1h2.3       c0.6,0,1-0.4,1-1v-4.8c0.5-0.5,0.9-1.2,0.9-2.1C383.1-379.7,381.9-381,380.4-381.1z"></path>
					
						<linearGradient id="SVGID_8_" gradientUnits="userSpaceOnUse" x1="-11892.8857" y1="-43057.7148" x2="-11892.8857" y2="-43155.3359" gradientTransform="matrix(1.0003 0 0 -1.0003 12276.583 -43512.1094)">
						<stop offset="0" style="stop-color:#67C2DC"></stop>
						<stop offset="0.231" style="stop-color:#53BFE7"></stop>
						<stop offset="0.5138" style="stop-color:#39B6E8"></stop>
						<stop offset="0.7773" style="stop-color:#1AA7D4"></stop>
						<stop offset="1" style="stop-color:#1AA7D4"></stop>
					</linearGradient>
					<path class="st5" d="M380.1-391.8c-2.8,0-5,2.3-5,5.1v2.5h4.8h0.5h4.8v-2.5C385.1-389.5,382.9-391.8,380.1-391.8z"></path>
					
						<linearGradient id="SVGID_9_" gradientUnits="userSpaceOnUse" x1="-11892.708" y1="-43057.793" x2="-11892.708" y2="-43155.4141" gradientTransform="matrix(1.0003 0 0 -1.0003 12276.583 -43512.1094)">
						<stop offset="0" style="stop-color:#67C2DC"></stop>
						<stop offset="0.231" style="stop-color:#53BFE7"></stop>
						<stop offset="0.5138" style="stop-color:#39B6E8"></stop>
						<stop offset="0.7773" style="stop-color:#1AA7D4"></stop>
						<stop offset="1" style="stop-color:#1AA7D4"></stop>
					</linearGradient>
					<path class="st6" d="M421.2-417.8v23c0,7.6-2.1,15-6.3,22c-3.3,5.5-7.8,10.8-13.5,15.6c-9.5,8.2-19,12.5-19.4,12.6l-1.6,0.7       l-1.6-0.7c-0.4-0.1-9.9-4.4-19.4-12.6c-5.7-4.8-10.3-10.1-13.5-15.6c-4.2-7-6.3-14.5-6.3-22v-23c0-5.6,4-10.3,9.5-11.3       c9.3-1.6,17.8-6.7,22-9.5c2.8-1.9,6-2.8,9.3-2.8c3.3,0,6.6,1,9.3,2.8c4.3,2.8,12.7,7.9,22,9.5       C417.3-428.1,421.2-423.3,421.2-417.8z M390.6-369.8v-12.5c0-1.1,0.2-1.9-1.5-1.9h-0.6v-2.5c0-4.6-3.7-8.5-8.3-8.5       c-0.1,0-0.4,0-0.5,0c-4.6,0.1-8.3,3.9-8.3,8.5v2.5H371c-1.8,0-1.5,0.9-1.5,1.9v12.5c0,1.1-0.3,1.9,1.5,1.9h18.1       C390.9-367.9,390.6-368.8,390.6-369.8z M399-399c-5-5-11.6-7.8-18.6-7.8c-7,0-13.7,2.8-18.6,7.8l4.8,4.8       c3.7-3.7,8.5-5.7,13.7-5.7c5.2,0,10.1,2,13.7,5.7L399-399z M407.1-407c-7.1-7.1-16.6-11.1-26.7-11.1s-19.6,3.9-26.7,11.1       l4.8,4.8c5.8-5.8,13.6-9,21.9-9c8.3,0,16,3.2,21.9,9L407.1-407z"></path>
				</g>
				<g class="st1">
					
						<linearGradient id="SVGID_10_" gradientUnits="userSpaceOnUse" x1="-12198.1572" y1="-43057.7148" x2="-12198.1572" y2="-43155.3359" gradientTransform="matrix(1.0003 0 0 -1.0003 12276.583 -43512.1094)">
						<stop offset="0" style="stop-color:#67C2DC"></stop>
						<stop offset="0.231" style="stop-color:#53BFE7"></stop>
						<stop offset="0.5138" style="stop-color:#39B6E8"></stop>
						<stop offset="0.7773" style="stop-color:#1AA7D4"></stop>
						<stop offset="1" style="stop-color:#1AA7D4"></stop>
					</linearGradient>
					<path class="st7" d="M65.2-392.3c-1.9,1.4-2.9,3.6-2.9,6.3c0,5.6,3.8,8.5,11.3,8.5l0,0c3.5,0.1,6.9-1.1,9.6-3.3       c2.7-2.3,4-5.3,4-9.3v-4.2h-14C69.9-394.5,67.2-393.8,65.2-392.3z"></path>
					
						<linearGradient id="SVGID_11_" gradientUnits="userSpaceOnUse" x1="-12198.3711" y1="-43057.793" x2="-12198.3711" y2="-43155.4141" gradientTransform="matrix(1.0003 0 0 -1.0003 12276.583 -43512.1094)">
						<stop offset="0" style="stop-color:#67C2DC"></stop>
						<stop offset="0.231" style="stop-color:#53BFE7"></stop>
						<stop offset="0.5138" style="stop-color:#39B6E8"></stop>
						<stop offset="0.7773" style="stop-color:#1AA7D4"></stop>
						<stop offset="1" style="stop-color:#1AA7D4"></stop>
					</linearGradient>
					<path class="st8" d="M115.4-417.8v23c0,7.6-2.1,15-6.3,22c-3.3,5.5-7.8,10.8-13.5,15.6c-9.5,8.2-19,12.5-19.4,12.6l-1.6,0.7       l-1.6-0.7c-0.4-0.1-9.9-4.4-19.4-12.6c-5.7-4.8-10.3-10.1-13.5-15.6c-4.2-7-6.3-14.5-6.3-22v-23c0-5.6,4-10.3,9.5-11.3       c9.3-1.6,17.8-6.7,22-9.5c2.8-1.9,6-2.8,9.3-2.8s6.6,1,9.3,2.8c4.3,2.8,12.7,7.9,22,9.5C111.5-428.1,115.4-423.3,115.4-417.8z        M93.4-375.4v-27.3c0-5.2-1.6-9.3-4.7-12.3c-3.1-3.1-7.5-4.6-13.2-4.6c-7.7,0-13.2,2.6-16.5,7.8c-0.4,0.5-0.5,1.1-0.5,1.7       c0,1.6,1.3,2.8,2.8,2.8c1-0.1,1.9-0.6,2.6-1.4c2.8-3.3,7.1-5.2,11.5-5.1c3.7,0,6.6,1,8.6,2.9c2.1,1.9,3.1,4.6,3.1,8v2.6h-14       c-5.3,0-9.6,1.2-12.7,3.7c-3.1,2.5-4.7,5.9-4.7,10.3c0,4.5,1.6,8,4.6,10.5c3.1,2.5,7.3,3.7,12.5,3.7c2.9,0.1,5.8-0.6,8.5-1.9       c2.4-1.1,4.4-2.9,5.7-5.3v3.6c0,0.2,0,0.4,0,0.7c0.2,1.7,1.7,2.9,3.4,2.7C92.4-372.2,93.6-373.8,93.4-375.4z"></path>
				</g>
			</g>
			
				<linearGradient id="SVGID_12_" gradientUnits="userSpaceOnUse" x1="-12209.0488" y1="-42900.3398" x2="-12209.0488" y2="-42986.2656" gradientTransform="matrix(1 0 0 -1 12283.6719 -43176.6953)">
				<stop offset="0" style="stop-color:#67C2DC"></stop>
				<stop offset="0.23" style="stop-color:#55BFE8"></stop>
				<stop offset="0.51" style="stop-color:#39B6E8"></stop>
				<stop offset="0.78" style="stop-color:#24A7D4"></stop>
				<stop offset="1" style="stop-color:#24A7D4"></stop>
			</linearGradient>
			<path class="st9" d="M115.5-259.6v23c0,7.6-2.1,15-6.3,22.1c-3.6,5.9-8.2,11.2-13.5,15.6c-5.9,5.1-12.5,9.3-19.4,12.6l-1.6,0.7     l-1.6-0.7c-7-3.3-13.5-7.5-19.4-12.6c-5.3-4.4-9.9-9.7-13.5-15.6c-4.2-7-6.3-14.5-6.3-22.1v-23c0-5.6,4-10.3,9.5-11.3     c9.3-1.6,17.8-6.7,22-9.5c5.6-3.8,13-3.8,18.7,0c4.3,2.8,12.7,7.9,22,9.5C111.5-269.9,115.5-265.2,115.5-259.6z M91.2-254     l-7.8,7.8l0,0l-3.6,3.6l-7.9,8l-3.6-3.6l-4.7,4.7l8.4,8.3L87.7-241l0,0l4.8-4.8l6.7-6.7l-4.7-4.7l-0.7,0.7L91.2-254z      M100.1-237.5l-5.1-1.7l-0.1-0.5c-0.4-1.3-0.8-2.6-1.4-3.8l-4.9,5c0,0.1,0.1,0.1,0.1,0.2v0.1c0.1,0.4,0.2,0.9,0.3,1.3     c0.1,0.2,0.1,0.4,0.1,0.6c0.1,0.6,0.1,1.3,0.1,1.9l0,0c0,8-6.6,14.6-14.6,14.6S60-226.4,60-234.5c0-8,6.6-14.6,14.6-14.6     c0.5,0,1,0,1.5,0.1l0.4,0.1c0.4,0.1,0.7,0.1,1.1,0.2l0.4,0.1c0.4,0.1,0.9,0.2,1.4,0.4l0.2,0.1c0.4,0.1,0.8,0.3,1.1,0.4     c0,0,0.1,0,0.1,0.1l0,0l4.8-4.7l-0.3-0.1c-1.7-1-3.6-1.8-5.6-2.3l-0.5-0.1l-1.7-5.1h-6l-1.7,5.1l-0.5,0.1     c-1.9,0.5-3.8,1.3-5.6,2.3l-0.4,0.3l-4.8-2.4l-4.3,4.3l2.4,4.8l-0.3,0.4c-1,1.7-1.8,3.6-2.3,5.6l-0.1,0.5l-5.1,1.7v6l5.1,1.7     l0.1,0.5c0.5,1.9,1.3,3.8,2.3,5.6l0.3,0.4l-2.4,4.8l4.3,4.3l4.8-2.4l0.4,0.3c1.7,1,3.6,1.8,5.6,2.3l0.5,0.1l1.7,5.1h6l1.7-5.1     l0.5-0.1c1.9-0.5,3.8-1.3,5.6-2.3l0.4-0.3l4.8,2.4l4.3-4.3l-2.4-4.8l0.3-0.4c1-1.7,1.8-3.6,2.3-5.6l0.1-0.5l5.1-1.7L100.1-237.5z     "></path>
			<g>
				<g class="st1">
					
						<linearGradient id="SVGID_13_" gradientUnits="userSpaceOnUse" x1="-11892.6367" y1="-43373.9727" x2="-11892.6367" y2="-43471.5938" gradientTransform="matrix(1.0003 0 0 -1.0003 12276.583 -43512.1094)">
						<stop offset="0" style="stop-color:#68C1DB"></stop>
						<stop offset="0.231" style="stop-color:#53BFE7"></stop>
						<stop offset="0.5138" style="stop-color:#37B5E7"></stop>
						<stop offset="0.7773" style="stop-color:#21A6D3"></stop>
						<stop offset="1" style="stop-color:#21A6D3"></stop>
					</linearGradient>
					<path class="st10" d="M384.4-85.7c0-2.2-1.8-4.1-4.1-4.1s-4.1,1.8-4.1,4.1c0,2.2,1.8,4.1,4.1,4.1S384.4-83.5,384.4-85.7z"></path>
					
						<linearGradient id="SVGID_14_" gradientUnits="userSpaceOnUse" x1="-11892.708" y1="-43374.0625" x2="-11892.708" y2="-43471.6836" gradientTransform="matrix(1.0003 0 0 -1.0003 12276.583 -43512.1094)">
						<stop offset="0" style="stop-color:#68C1DB"></stop>
						<stop offset="0.231" style="stop-color:#53BFE7"></stop>
						<stop offset="0.5138" style="stop-color:#37B5E7"></stop>
						<stop offset="0.7773" style="stop-color:#21A6D3"></stop>
						<stop offset="1" style="stop-color:#21A6D3"></stop>
					</linearGradient>
					<path class="st11" d="M421.2-101.4v23c0,7.6-2.1,15-6.3,22c-3.3,5.5-7.8,10.8-13.5,15.6c-9.5,8.2-19,12.5-19.4,12.6l-1.6,0.7       l-1.6-0.7c-0.4-0.1-9.9-4.4-19.4-12.6c-5.7-4.8-10.3-10.1-13.5-15.6c-4.2-7-6.3-14.5-6.3-22v-23c0-5.6,4-10.3,9.5-11.3       c9.3-1.6,17.8-6.7,22-9.5c2.8-1.9,6-2.8,9.3-2.8c3.3,0,6.6,1,9.3,2.8c4.3,2.8,12.7,7.9,22,9.5       C417.3-111.7,421.2-106.9,421.2-101.4z M371.4-102.5h-1.4c-2.3,0-3.9,0.1-5,0.5c-1.6,0.5-2.8,1.1-3.6,1.9       c-0.8,0.8-1.4,1.9-1.7,3.2c-0.3,1.4-0.5,3.7-0.5,7c0,2.1-0.1,3.5-0.2,4.3c-0.1,1.1-0.5,2.1-1,2.8c-0.5,0.7-1,1.3-1.6,1.6       s-1.6,0.5-2.8,0.6v6.3c1.6,0.1,2.8,0.4,3.6,1c0.8,0.6,1.4,1.6,1.7,3c0.3,0.9,0.4,3.1,0.4,6.2c0,2.8,0.1,4.8,0.4,6.1       s0.9,2.3,1.7,3.2c0.9,0.9,1.9,1.5,3.1,1.9c1.3,0.4,3.1,0.6,5.4,0.6h1.4v-6.3c-1.9,0-3.1-0.1-3.6-0.4c-0.6-0.2-1-0.6-1.3-1       c-0.3-0.4-0.4-1.3-0.4-2.4c0-0.8-0.1-2.6-0.2-5.6c-0.1-1.9-0.4-3.4-0.7-4.6c-0.4-1.1-0.9-2.1-1.5-2.8c-0.6-0.8-1.5-1.5-2.5-2.1       c1.1-0.7,2-1.5,2.6-2.1c0.6-0.7,1-1.6,1.4-2.6c0.4-1.1,0.6-2.5,0.7-4.2c0.1-3.1,0.2-5.1,0.2-6.2c0-1.1,0.1-1.9,0.4-2.3       c0.3-0.4,0.6-0.8,1.2-1c0.6-0.2,1.8-0.4,3.7-0.4v-6.2L371.4-102.5L371.4-102.5z M382-69.6v-8.5c1.4-0.3,2.7-1,3.8-2.1       c1.4-1.4,2.2-3.3,2.2-5.4c0-2.1-0.8-3.9-2.2-5.4c-1.4-1.4-3.3-2.2-5.4-2.2s-3.9,0.8-5.4,2.2c-1.4,1.4-2.2,3.3-2.2,5.4       c0,1.8,0.6,3.6,1.9,5c1.1,1.3,2.6,2.1,4.1,2.5v18.7c0,0.9,0.7,1.6,1.6,1.6c0.4,0,0.9-0.1,1.1-0.5c0.3-0.3,0.5-0.7,0.5-1.1v-2       h2.6c0.4,0,0.9-0.1,1.1-0.5c0.3-0.3,0.5-0.7,0.5-1.1v-4.8c0-0.4-0.1-0.9-0.5-1.1c-0.3-0.3-0.7-0.5-1.1-0.5L382-69.6L382-69.6z        M406.7-80.6c-1.6-0.1-2.8-0.4-3.6-1c-0.8-0.6-1.4-1.6-1.8-3c-0.3-1-0.4-3.1-0.4-6.2c0-2.8-0.1-4.8-0.4-6.1       c-0.3-1.3-0.9-2.3-1.7-3.2s-1.9-1.5-3.1-1.9c-1.3-0.4-3.1-0.6-5.4-0.6h-1.5v6.2c2,0,3.2,0.1,3.8,0.4c0.6,0.2,0.9,0.6,1.1,1       c0.2,0.4,0.4,1.3,0.4,2.6c0.1,4.1,0.2,6.8,0.4,8c0.3,1.8,0.9,3.2,1.6,4.3c0.6,0.8,1.5,1.6,2.8,2.4c-1,0.6-1.8,1.2-2.4,2       c-0.6,0.8-1.1,1.7-1.5,2.8s-0.6,2.6-0.7,4.3c-0.1,3-0.2,5-0.2,6.1c0,1.1-0.1,1.8-0.4,2.3c-0.3,0.4-0.7,0.8-1.3,1       s-1.8,0.4-3.6,0.4v6.3h1.4c2.3,0,3.9-0.1,5-0.5c1.6-0.5,2.8-1.1,3.6-1.9s1.4-1.9,1.7-3.2c0.3-1.4,0.4-3.7,0.4-7       c0-2.1,0.1-3.5,0.2-4.3c0.2-1.1,0.5-2.1,1-2.8c0.4-0.7,1-1.3,1.6-1.6c0.6-0.3,1.6-0.5,2.8-0.6v-6.3L406.7-80.6L406.7-80.6z"></path>
				</g>
				<g class="st1">
					
						<linearGradient id="SVGID_15_" gradientUnits="userSpaceOnUse" x1="-12204.5996" y1="-43373.9727" x2="-12204.5996" y2="-43471.5938" gradientTransform="matrix(1.0003 0 0 -1.0003 12276.583 -43512.1094)">
						<stop offset="0" style="stop-color:#67C2DC"></stop>
						<stop offset="0.231" style="stop-color:#53BFE7"></stop>
						<stop offset="0.5138" style="stop-color:#39B6E8"></stop>
						<stop offset="0.7773" style="stop-color:#1AA7D4"></stop>
						<stop offset="1" style="stop-color:#1AA7D4"></stop>
					</linearGradient>
					<path class="st12" d="M63.7-61.4l8.4,4.2c0.2,0.1,0.5,0.2,0.8,0.3v-8.3l-9.2-4.6V-61.4z"></path>
					
						<linearGradient id="SVGID_16_" gradientUnits="userSpaceOnUse" x1="-12210.6504" y1="-43373.9727" x2="-12210.6504" y2="-43471.5938" gradientTransform="matrix(1.0003 0 0 -1.0003 12276.583 -43512.1094)">
						<stop offset="0" style="stop-color:#67C2DC"></stop>
						<stop offset="0.231" style="stop-color:#53BFE7"></stop>
						<stop offset="0.5138" style="stop-color:#39B6E8"></stop>
						<stop offset="0.7773" style="stop-color:#1AA7D4"></stop>
						<stop offset="1" style="stop-color:#1AA7D4"></stop>
					</linearGradient>
					<polygon class="st13" points="62.5,-95.9 53.8,-91.5 62,-87.4 70.8,-91.8      "></polygon>
					
						<linearGradient id="SVGID_17_" gradientUnits="userSpaceOnUse" x1="-12198.2998" y1="-43373.9727" x2="-12198.2998" y2="-43471.5938" gradientTransform="matrix(1.0003 0 0 -1.0003 12276.583 -43512.1094)">
						<stop offset="0" style="stop-color:#67C2DC"></stop>
						<stop offset="0.231" style="stop-color:#53BFE7"></stop>
						<stop offset="0.5138" style="stop-color:#39B6E8"></stop>
						<stop offset="0.7773" style="stop-color:#1AA7D4"></stop>
						<stop offset="1" style="stop-color:#1AA7D4"></stop>
					</linearGradient>
					<polygon class="st14" points="74.6,-89.8 65.9,-85.4 74.6,-81 83.4,-85.4      "></polygon>
					
						<linearGradient id="SVGID_18_" gradientUnits="userSpaceOnUse" x1="-12217.0566" y1="-43373.9727" x2="-12217.0566" y2="-43471.5938" gradientTransform="matrix(1.0003 0 0 -1.0003 12276.583 -43512.1094)">
						<stop offset="0" style="stop-color:#67C2DC"></stop>
						<stop offset="0.231" style="stop-color:#53BFE7"></stop>
						<stop offset="0.5138" style="stop-color:#39B6E8"></stop>
						<stop offset="0.7773" style="stop-color:#1AA7D4"></stop>
						<stop offset="1" style="stop-color:#1AA7D4"></stop>
					</linearGradient>
					<path class="st15" d="M51.6-69.2c0,1,0.6,1.9,1.4,2.3l7.1,3.6v-8.3l-8.6-4.3L51.6-69.2L51.6-69.2z"></path>
					
						<linearGradient id="SVGID_19_" gradientUnits="userSpaceOnUse" x1="-12191.9639" y1="-43373.9727" x2="-12191.9639" y2="-43471.5938" gradientTransform="matrix(1.0003 0 0 -1.0003 12276.583 -43512.1094)">
						<stop offset="0" style="stop-color:#67C2DC"></stop>
						<stop offset="0.231" style="stop-color:#53BFE7"></stop>
						<stop offset="0.5138" style="stop-color:#39B6E8"></stop>
						<stop offset="0.7773" style="stop-color:#1AA7D4"></stop>
						<stop offset="1" style="stop-color:#1AA7D4"></stop>
					</linearGradient>
					<polygon class="st16" points="85.5,-73.7 85.5,-82.5 76.4,-77.9 76.4,-69.1      "></polygon>
					
						<linearGradient id="SVGID_20_" gradientUnits="userSpaceOnUse" x1="-12216.9854" y1="-43373.9727" x2="-12216.9854" y2="-43471.5938" gradientTransform="matrix(1.0003 0 0 -1.0003 12276.583 -43512.1094)">
						<stop offset="0" style="stop-color:#67C2DC"></stop>
						<stop offset="0.231" style="stop-color:#53BFE7"></stop>
						<stop offset="0.5138" style="stop-color:#39B6E8"></stop>
						<stop offset="0.7773" style="stop-color:#1AA7D4"></stop>
						<stop offset="1" style="stop-color:#1AA7D4"></stop>
					</linearGradient>
					<polygon class="st17" points="51.6,-79.8 60.2,-75.5 60.2,-84.3 51.6,-88.7      "></polygon>
					
						<linearGradient id="SVGID_21_" gradientUnits="userSpaceOnUse" x1="-12198.2998" y1="-43373.9727" x2="-12198.2998" y2="-43471.5938" gradientTransform="matrix(1.0003 0 0 -1.0003 12276.583 -43512.1094)">
						<stop offset="0" style="stop-color:#67C2DC"></stop>
						<stop offset="0.231" style="stop-color:#53BFE7"></stop>
						<stop offset="0.5138" style="stop-color:#39B6E8"></stop>
						<stop offset="0.7773" style="stop-color:#1AA7D4"></stop>
						<stop offset="1" style="stop-color:#1AA7D4"></stop>
					</linearGradient>
					<path class="st18" d="M82.8-97.9l-5.7-2.8c-0.8-0.4-1.6-0.6-2.5-0.6c-0.9,0-1.7,0.2-2.5,0.6l0,0l-5.7,2.8l8.2,4.1L82.8-97.9z"></path>
					
						<linearGradient id="SVGID_22_" gradientUnits="userSpaceOnUse" x1="-12179.6494" y1="-43373.9727" x2="-12179.6494" y2="-43471.5938" gradientTransform="matrix(1.0003 0 0 -1.0003 12276.583 -43512.1094)">
						<stop offset="0" style="stop-color:#67C2DC"></stop>
						<stop offset="0.231" style="stop-color:#53BFE7"></stop>
						<stop offset="0.5138" style="stop-color:#39B6E8"></stop>
						<stop offset="0.7773" style="stop-color:#1AA7D4"></stop>
						<stop offset="1" style="stop-color:#1AA7D4"></stop>
					</linearGradient>
					<path class="st19" d="M89-71.5v8.3l7.1-3.6c0.9-0.4,1.4-1.4,1.4-2.3v-6.7L89-71.5z"></path>
					
						<linearGradient id="SVGID_23_" gradientUnits="userSpaceOnUse" x1="-12198.3711" y1="-43374.0625" x2="-12198.3711" y2="-43471.6836" gradientTransform="matrix(1.0003 0 0 -1.0003 12276.583 -43512.1094)">
						<stop offset="0" style="stop-color:#67C2DC"></stop>
						<stop offset="0.231" style="stop-color:#53BFE7"></stop>
						<stop offset="0.5138" style="stop-color:#39B6E8"></stop>
						<stop offset="0.7773" style="stop-color:#1AA7D4"></stop>
						<stop offset="1" style="stop-color:#1AA7D4"></stop>
					</linearGradient>
					<path class="st20" d="M115.4-101.4v23c0,7.6-2.1,15-6.3,22c-3.3,5.5-7.8,10.8-13.5,15.6c-9.5,8.2-19,12.5-19.4,12.6l-1.6,0.7       L73-28.2c-0.4-0.1-9.9-4.4-19.4-12.6C47.8-45.6,43.3-50.9,40-56.4c-4.2-7-6.3-14.5-6.3-22v-23c0-5.6,4-10.3,9.5-11.3       c9.3-1.6,17.8-6.7,22-9.5c2.8-1.9,6-2.8,9.3-2.8s6.6,1,9.3,2.8c4.3,2.8,12.7,7.9,22,9.5C111.5-111.7,115.4-106.9,115.4-101.4z        M101.1-88.8c0-1.6-0.6-2.9-1.4-3.8c-0.7-0.9-1.5-1.4-2.1-1.7l-19-9.6c-1.3-0.6-2.7-1-4.1-1c-1.4,0-2.8,0.4-4.1,1l-19,9.6       c-0.6,0.3-1.4,0.9-2.1,1.7c-0.7,0.9-1.4,2.2-1.4,3.8v19.6c0,2.3,1.3,4.4,3.3,5.5l9.7,4.9l9.5,4.8c0.7,0.4,2.3,1,4.1,1       c1.8,0,3.4-0.6,4.1-1l19-9.6c2.1-1.1,3.3-3.1,3.3-5.5L101.1-88.8L101.1-88.8z"></path>
					
						<linearGradient id="SVGID_24_" gradientUnits="userSpaceOnUse" x1="-12179.6143" y1="-43373.9727" x2="-12179.6143" y2="-43471.5938" gradientTransform="matrix(1.0003 0 0 -1.0003 12276.583 -43512.1094)">
						<stop offset="0" style="stop-color:#67C2DC"></stop>
						<stop offset="0.231" style="stop-color:#53BFE7"></stop>
						<stop offset="0.5138" style="stop-color:#39B6E8"></stop>
						<stop offset="0.7773" style="stop-color:#1AA7D4"></stop>
						<stop offset="1" style="stop-color:#1AA7D4"></stop>
					</linearGradient>
					<polygon class="st21" points="89,-75.5 97.6,-79.8 97.6,-88.7 89,-84.3      "></polygon>
				</g>
				<g class="st1">
					
						<linearGradient id="SVGID_25_" gradientUnits="userSpaceOnUse" x1="-12056.1006" y1="-43048.2461" x2="-12056.1006" y2="-43148.957" gradientTransform="matrix(1 0 0 -1 12283.6719 -43176.6953)">
						<stop offset="0" style="stop-color:#67C2DC"></stop>
						<stop offset="0.23" style="stop-color:#55BFE8"></stop>
						<stop offset="0.51" style="stop-color:#39B6E8"></stop>
						<stop offset="0.78" style="stop-color:#24A7D4"></stop>
						<stop offset="1" style="stop-color:#24A7D4"></stop>
					</linearGradient>
					<path id="SVGID_7_" class="st22" d="M203.4-77.4c1.8,1.9,12,5.3,24.1,5.3c1.3,0,2.5-0.1,3.7-0.1l-4.8-5.2       c-4-0.1-11.6-0.7-15.2-3C208.3-79.6,204.7-78.4,203.4-77.4z M245.3-84.8c0.2,0.6,0.4,1.1,0.6,1.6c6.5,1.8,10.5,3.6,10.5,6.8       s-3.9,5.6-9,7l-3.8-3.8c4-0.9,6.8-2.1,7.8-3c-1.3-0.9-4.6-1.9-7.3-2.6c-1.2,0.7-2.8,1.2-4.6,1.6l-19.4-19.7       c0.6-0.2,1.3-0.3,2-0.3c1.6,0,2.8,0.2,3.8,0.4c0.9,0.1,1.6,0.3,2.6,0.3c1.1,0,1.9-0.1,2.8-0.3c1-0.2,2.1-0.4,3.6-0.4       C241-97.2,243.3-90.6,245.3-84.8z M250.9-58.8l-3.4,3.5l-5.8-5.8c-1.1,1-2.7,1.7-4.7,1.7c-4.8,0-7.3-4.9-9.8-4.9l0,0       c-2.4,0.1-4.8,4.8-9.7,4.8c-4.9,0-7.5-4.1-7.3-8v-1.2c-6.6-1.5-12.2-4.1-12.2-8c0-3.4,4.3-5.3,11.1-7.2       c0.6-2.2,1.5-4.8,2.6-7.2l-8.1-8.1l3.4-3.5L250.9-58.8z M218.2-122.3c-4.3,2.8-12.7,7.9-22,9.5c-5.5,1-9.5,5.7-9.5,11.3v23       c0,7.6,2.1,15,6.3,22c3.3,5.5,7.8,10.8,13.5,15.6c9.5,8.2,19,12.4,19.4,12.6l1.6,0.7l1.6-0.7c0.4-0.2,9.9-4.4,19.4-12.6       c5.7-4.8,10.3-10.1,13.5-15.6c4.2-7,6.3-14.5,6.3-22v-23c0-5.3-3.7-10-8.9-11.2l-0.6-0.1c-9.3-1.6-17.8-6.7-22-9.5       c-2.8-1.9-6.1-2.8-9.3-2.8C224.2-125.1,220.9-124.1,218.2-122.3z"></path>
					<g>
						<defs>
							<path id="SVGID_26_" d="M203.4-77.4c1.8,1.9,12,5.3,24.1,5.3c1.3,0,2.5-0.1,3.7-0.1l-4.8-5.2c-4-0.1-11.6-0.7-15.2-3         C208.3-79.6,204.7-78.4,203.4-77.4z M245.3-84.8c0.2,0.6,0.4,1.1,0.6,1.6c6.5,1.8,10.5,3.6,10.5,6.8s-3.9,5.6-9,7l-3.8-3.8         c4-0.9,6.8-2.1,7.8-3c-1.3-0.9-4.6-1.9-7.3-2.6c-1.2,0.7-2.8,1.2-4.6,1.6l-19.4-19.7c0.6-0.2,1.3-0.3,2-0.3         c1.6,0,2.8,0.2,3.8,0.4c0.9,0.1,1.6,0.3,2.6,0.3c1.1,0,1.9-0.1,2.8-0.3c1-0.2,2.1-0.4,3.6-0.4         C241-97.2,243.3-90.6,245.3-84.8z M250.9-58.8l-3.4,3.5l-5.8-5.8c-1.1,1-2.7,1.7-4.7,1.7c-4.8,0-7.3-4.9-9.8-4.9l0,0         c-2.4,0.1-4.8,4.8-9.7,4.8c-4.9,0-7.5-4.1-7.3-8v-1.2c-6.6-1.5-12.2-4.1-12.2-8c0-3.4,4.3-5.3,11.1-7.2         c0.6-2.2,1.5-4.8,2.6-7.2l-8.1-8.1l3.4-3.5L250.9-58.8z M218.2-122.3c-4.3,2.8-12.7,7.9-22,9.5c-5.5,1-9.5,5.7-9.5,11.3v23         c0,7.6,2.1,15,6.3,22c3.3,5.5,7.8,10.8,13.5,15.6c9.5,8.2,19,12.4,19.4,12.6l1.6,0.7l1.6-0.7c0.4-0.2,9.9-4.4,19.4-12.6         c5.7-4.8,10.3-10.1,13.5-15.6c4.2-7,6.3-14.5,6.3-22v-23c0-5.3-3.7-10-8.9-11.2l-0.6-0.1c-9.3-1.6-17.8-6.7-22-9.5         c-2.8-1.9-6.1-2.8-9.3-2.8C224.2-125.1,220.9-124.1,218.2-122.3z"></path>
						</defs>
						<clipPath id="SVGID_27_">
							<use xlink:href="#SVGID_26_" style="overflow:visible;"></use>
						</clipPath>
						
							<linearGradient id="SVGID_28_" gradientUnits="userSpaceOnUse" x1="-12056.1367" y1="-43048.2461" x2="-12056.1367" y2="-43148.957" gradientTransform="matrix(1 0 0 -1 12283.6719 -43176.6953)">
							<stop offset="0" style="stop-color:#67C2DC"></stop>
							<stop offset="0.23" style="stop-color:#55BFE8"></stop>
							<stop offset="0.51" style="stop-color:#39B6E8"></stop>
							<stop offset="0.78" style="stop-color:#24A7D4"></stop>
							<stop offset="1" style="stop-color:#24A7D4"></stop>
						</linearGradient>
						<rect x="172.7" y="-139.1" class="st23" width="109.6" height="125.5"></rect>
					</g>
				</g>
			</g>
			<g class="st1">
				
					<linearGradient id="SVGID_29_" gradientUnits="userSpaceOnUse" x1="-12062.6104" y1="-42900.3398" x2="-12062.6104" y2="-42986.2656" gradientTransform="matrix(1 0 0 -1 12283.6719 -43176.6953)">
					<stop offset="0" style="stop-color:#67C2DC"></stop>
					<stop offset="0.23" style="stop-color:#55BFE8"></stop>
					<stop offset="0.51" style="stop-color:#39B6E8"></stop>
					<stop offset="0.78" style="stop-color:#24A7D4"></stop>
					<stop offset="1" style="stop-color:#24A7D4"></stop>
				</linearGradient>
				<path class="st24" d="M221.3-241.1c0.8,0,1.7-0.3,2.6-0.9c1.9-1.4,2.1-3.8,0.6-5.5c-1.9-1.9-5.2-1.8-6.9,0.2      c-1.1,1.3-1.2,3-0.2,4.3C218.2-241.7,219.5-241.1,221.3-241.1z"></path>
				
					<linearGradient id="SVGID_30_" gradientUnits="userSpaceOnUse" x1="-12056.1885" y1="-42900.3398" x2="-12056.1885" y2="-42986.2656" gradientTransform="matrix(1 0 0 -1 12283.6719 -43176.6953)">
					<stop offset="0" style="stop-color:#67C2DC"></stop>
					<stop offset="0.23" style="stop-color:#55BFE8"></stop>
					<stop offset="0.51" style="stop-color:#39B6E8"></stop>
					<stop offset="0.78" style="stop-color:#24A7D4"></stop>
					<stop offset="1" style="stop-color:#24A7D4"></stop>
				</linearGradient>
				<path class="st25" d="M225.9-236.1c1.1-0.5,2.1-0.6,3,0c0.6,0.1,0.7-0.2,0.6-0.6c-0.5-1.2-1.1-2.4-1.6-3.6      c-0.2-0.4-0.6-0.5-0.8,0c-0.6,1.2-1.1,2.4-1.6,3.6C225.4-236.3,225.6-235.9,225.9-236.1z"></path>
				
					<linearGradient id="SVGID_31_" gradientUnits="userSpaceOnUse" x1="-12056.1719" y1="-42900.3398" x2="-12056.1719" y2="-42986.2656" gradientTransform="matrix(1 0 0 -1 12283.6719 -43176.6953)">
					<stop offset="0" style="stop-color:#67C2DC"></stop>
					<stop offset="0.23" style="stop-color:#55BFE8"></stop>
					<stop offset="0.51" style="stop-color:#39B6E8"></stop>
					<stop offset="0.78" style="stop-color:#24A7D4"></stop>
					<stop offset="1" style="stop-color:#24A7D4"></stop>
				</linearGradient>
				<path class="st26" d="M268.4-259.6v23c0,7.6-2.1,15-6.3,22.1c-3.6,5.9-8.2,11.2-13.5,15.6c-5.9,5.1-12.5,9.3-19.4,12.6l-1.6,0.7      l-1.6-0.7c-7-3.3-13.5-7.5-19.4-12.6c-5.3-4.4-9.9-9.7-13.5-15.6c-4.2-7-6.3-14.5-6.3-22.1v-23c0-5.6,4-10.3,9.5-11.3      c9.3-1.6,17.8-6.7,22-9.5c5.6-3.8,13-3.8,18.7,0c4.3,2.8,12.7,7.9,22,9.5C264.4-269.9,268.4-265.2,268.4-259.6z M211.9-238.5      c0,1.4,0.5,1.9,2,2c1.1,0,2.2,0,3.3,0.1c1.2,0.1,2,1.1,2,2.3c0,0.4,0.1,0.8,0,1.1c-0.1,1.3,0.7,1.9,1.9,1.9c2.1-0.1,4.3,0,6.5,0      c2.2,0,4.4,0,6.6,0c1.2,0,1.8-0.6,1.8-1.8c0-0.4,0-0.9,0-1.3c0-1.2,0.8-2.1,1.9-2.2c1.1-0.1,2.3-0.1,3.4-0.1      c1.4,0,1.9-0.6,1.9-1.9c0-2.6,0-5.2,0-7.8c0-4.1-1.7-7.4-4.9-10c-3.7-2.9-8-3.9-12.7-3.5c-3.6,0.4-6.7,1.6-9.4,4.1      c-2.3,2.1-4,4.8-4.1,8C211.9-244.6,211.9-241.5,211.9-238.5z M252-231.7c-0.8-0.4-1.5-0.9-2.3-1.3c0.1-0.9,0.3-1.6,0.4-2.4      c0.1-0.9-0.5-1.6-1.4-1.8c-0.6-0.1-1.3-0.1-2-0.2c-1.1-0.1-1.8,0.5-2,1.6c-0.1,0.7-0.3,1.5-0.4,2.2c0,0.4-0.1,0.6-0.5,0.7      c-5.3,2.1-10.5,4.3-15.8,6.5c-0.3,0.1-0.6,0.1-0.9,0c-5.3-2.1-10.7-4.3-15.9-6.6c-0.2-0.1-0.4-0.4-0.4-0.6      c-0.1-0.8-0.3-1.6-0.4-2.3c-0.1-1-0.9-1.6-1.9-1.6c-0.7,0.1-1.4,0.1-2.1,0.2c-0.9,0.1-1.4,0.9-1.4,1.8c0.1,0.7,0.1,1.4,0.3,2      c0.1,0.4,0,0.5-0.3,0.6c-0.7,0.4-1.4,0.7-2.1,1.1c-0.9,0.6-1.1,1.4-0.5,2.3c0.2,0.3,0.4,0.6,0.6,0.9c0.8,1.1,1.7,1.3,2.9,0.7      c0.7-0.4,1.4-0.7,2.1-1.1c0.4-0.2,0.7-0.2,1.1-0.1c2.4,1,4.9,2,7.3,3.1c1.6,0.7,3.3,1.4,5.1,2.1c-2.6,1.1-5.1,2.1-7.5,3.1      c-0.1,0.1-0.4,0-0.6-0.1c-0.9-0.4-1.7-0.9-2.6-1.4c-0.9-0.5-1.9-0.2-2.6,0.6c-0.3,0.4-0.5,0.7-0.8,1.1c-0.6,0.9-0.4,1.8,0.5,2.3      c0.6,0.4,1.4,0.7,2.1,1.1c0.3,0.1,0.4,0.3,0.4,0.6c-0.1,0.6-0.2,1.2-0.3,1.9c-0.1,1,0.2,1.7,1.2,1.9c0.9,0.2,1.7,0.3,2.5,0.3      c0.9,0,1.5-0.6,1.6-1.6c0.1-0.8,0.2-1.5,0.4-2.3c0.1-0.2,0.2-0.4,0.4-0.6c3.6-1.5,7.1-3,10.8-4.4c0.2-0.1,0.6-0.1,0.8,0      c3.6,1.4,7.2,2.9,10.8,4.4c0.2,0.1,0.4,0.4,0.4,0.6c0.1,0.8,0.3,1.5,0.4,2.3c0.1,1.1,0.9,1.6,1.9,1.6c0.7-0.1,1.4-0.1,2.1-0.2      c1.1-0.1,1.6-0.9,1.5-2c-0.1-0.6-0.1-1.2-0.3-1.8c-0.1-0.4,0.1-0.6,0.4-0.7c0.6-0.4,1.3-0.6,1.9-1c1-0.6,1.2-1.4,0.6-2.3      c-0.2-0.3-0.4-0.6-0.6-0.9c-0.8-1.1-1.7-1.3-2.8-0.6c-0.8,0.4-1.6,0.9-2.3,1.2c-0.2,0.1-0.5,0.1-0.6,0.1c-2.5-1-4.9-2-7.4-3.1      c0.2-0.1,0.4-0.2,0.5-0.3c4-1.6,8-3.3,12-4.9c0.2-0.1,0.6-0.1,0.8,0.1c0.9,0.4,1.6,0.9,2.4,1.3c1,0.5,1.9,0.3,2.6-0.6      c0.2-0.4,0.5-0.6,0.7-1C253.3-230.2,253.1-231.1,252-231.7z"></path>
				
					<linearGradient id="SVGID_32_" gradientUnits="userSpaceOnUse" x1="-12049.6777" y1="-42900.3398" x2="-12049.6777" y2="-42986.2656" gradientTransform="matrix(1 0 0 -1 12283.6719 -43176.6953)">
					<stop offset="0" style="stop-color:#67C2DC"></stop>
					<stop offset="0.23" style="stop-color:#55BFE8"></stop>
					<stop offset="0.51" style="stop-color:#39B6E8"></stop>
					<stop offset="0.78" style="stop-color:#24A7D4"></stop>
					<stop offset="1" style="stop-color:#24A7D4"></stop>
				</linearGradient>
				<path class="st27" d="M234.1-241.1c1.1,0.1,2.1-0.3,2.9-1c1.8-1.4,1.9-3.8,0.4-5.3c-1.6-1.6-4.4-1.8-6.3-0.4      c-1.9,1.4-2,3.8-0.3,5.5C231.6-241.5,232.7-241.1,234.1-241.1z"></path>
			</g>
		</g>
	</g>
</pattern>
<linearGradient id="SVGID_33_" gradientUnits="userSpaceOnUse" x1="-8.9" y1="528" x2="3132.8999" y2="528" gradientTransform="matrix(1 0 0 1 0 -214)">
	<stop offset="0" style="stop-color:#004974"></stop>
	<stop offset="0.3856" style="stop-color:#004168"></stop>
	<stop offset="0.6882" style="stop-color:#002D47"></stop>
	<stop offset="0.9995" style="stop-color:#001C2D"></stop>
</linearGradient>
<polygon class="st28" points="-8.9,645 3132.9,645 3132.9,-17 -8.9,-17 "></polygon>
<pattern id="SVGID_34_" xlink:href="#SVGID_61" patternTransform="matrix(0.9943 0 0 0.9943 -3727.7129 15659.2197)">
</pattern>
<polygon class="st29" points="0,643.1 3124,643.1 3124,-15.1 0,-15.1 "></polygon>
</svg>