<svg width="831" height="100" viewBox="0 0 831 100" fill="none" xmlns="http://www.w3.org/2000/svg">
<rect width="831" height="100" fill="#0C1C46"/>
<mask id="mask0_3487_3455" style="mask-type:alpha" maskUnits="userSpaceOnUse" x="0" y="0" width="830" height="100">
<rect width="830" height="100" fill="#0C1C46"/>
</mask>
<g mask="url(#mask0_3487_3455)">
<path d="M583.351 -126.038C536.828 -101.089 507.037 -59.6515 496.101 -12.0127C524.039 -1.28828 560.223 31.7092 578.953 53.304C567.831 12.7984 585.832 -32.6974 622.782 -52.5134C667.198 -76.3337 722.606 -60.8136 746.388 -16.4682C767.596 23.0779 756.321 72.382 722.209 99.3277L761.949 173.429C836.634 124.229 862.939 24.3491 819.905 -55.8949C774.4 -140.746 668.546 -171.728 583.351 -126.038Z" fill="white" fill-opacity="0.05"/>
<path d="M335.505 7.11928C252.224 51.7824 214.227 154.225 263.542 246.179C306.061 325.463 411.985 362.093 496.607 316.711C542.363 292.172 575.542 250.154 586.728 201.145C555.274 186.621 527.49 164.691 504.3 140.297C514.244 183.66 494.125 223.37 458.899 242.262C416.588 264.953 360.429 250.33 336.338 205.409C311.629 159.336 328.31 105.402 373.301 81.2738C411.591 60.739 457.096 66.9863 511.302 123.936C580.959 196.823 663.257 227.09 748.261 181.503C735.083 156.931 722.008 132.55 708.83 107.978C644.447 137.316 602.139 101.175 540.648 37.9976C487.19 -16.6348 409.022 -32.3074 335.505 7.11928Z" fill="white" fill-opacity="0.05"/>
</g>
</svg>
