<svg id="visual" viewBox="0 0 960 540" width="960" height="540" xmlns="http://www.w3.org/2000/svg" xmlns:xlink="http://www.w3.org/1999/xlink" version="1.1"><g><g transform="translate(519 240)"><path d="M0 -92.7L80.3 -46.3L80.3 46.3L0 92.7L-80.3 46.3L-80.3 -46.3Z" fill="none" stroke="#1b3a48" stroke-width="2"></path></g><g transform="translate(641 533)"><path d="M0 -36L31.2 -18L31.2 18L0 36L-31.2 18L-31.2 -18Z" fill="none" stroke="#1b3a48" stroke-width="2"></path></g><g transform="translate(839 517)"><path d="M0 -73L63.2 -36.5L63.2 36.5L0 73L-63.2 36.5L-63.2 -36.5Z" fill="none" stroke="#1b3a48" stroke-width="2"></path></g><g transform="translate(163 449)"><path d="M0 -50L43.3 -25L43.3 25L0 50L-43.3 25L-43.3 -25Z" stroke="#1b3a48" fill="none" stroke-width="2"></path></g><g transform="translate(929 100)"><path d="M0 -28L24.2 -14L24.2 14L0 28L-24.2 14L-24.2 -14Z" stroke="#1b3a48" fill="none" stroke-width="2"></path></g><g transform="translate(221 100)"><path d="M0 -33L28.6 -16.5L28.6 16.5L0 33L-28.6 16.5L-28.6 -16.5Z" stroke="#1b3a48" fill="none" stroke-width="2"></path></g><g transform="translate(674 44)"><path d="M0 -60L52 -30L52 30L0 60L-52 30L-52 -30Z" stroke="#1b3a48" fill="none" stroke-width="2"></path></g><g transform="translate(47 241)"><path d="M0 -84L72.7 -42L72.7 42L0 84L-72.7 42L-72.7 -42Z" stroke="#1b3a48" fill="none" stroke-width="2"></path></g><g transform="translate(412 53)"><path d="M0 -58L50.2 -29L50.2 29L0 58L-50.2 29L-50.2 -29Z" stroke="#1b3a48" fill="none" stroke-width="2"></path></g><g transform="translate(795 254)"><path d="M0 -88L76.2 -44L76.2 44L0 88L-76.2 44L-76.2 -44Z" stroke="#1b3a48" fill="none" stroke-width="2"></path></g><g transform="translate(445 438)"><path d="M0 -31L26.8 -15.5L26.8 15.5L0 31L-26.8 15.5L-26.8 -15.5Z" stroke="#1b3a48" fill="none" stroke-width="2"></path></g><g transform="translate(300 293)"><path d="M0 -86L74.5 -43L74.5 43L0 86L-74.5 43L-74.5 -43Z" stroke="#1b3a48" fill="none" stroke-width="2"></path></g><g transform="translate(37 9)"><path d="M0 -53L45.9 -26.5L45.9 26.5L0 53L-45.9 26.5L-45.9 -26.5Z" stroke="#1b3a48" fill="none" stroke-width="2"></path></g></g></svg>