<svg width="505" height="580" viewBox="0 0 505 580" fill="none" xmlns="http://www.w3.org/2000/svg">
<circle cx="255" cy="317" r="166" fill="#0060AE"/>
<circle cx="255" cy="317" r="216.5" stroke="white" stroke-dasharray="5 5"/>
<line x1="437.711" y1="199.592" x2="485.711" y2="165.592" stroke="white"/>
<line x1="34.711" y1="482.592" x2="82.711" y2="448.592" stroke="white"/>
<line x1="23.2807" y1="165.586" x2="71.9574" y2="198.61" stroke="white"/>
<line x1="423.281" y1="451.586" x2="471.957" y2="484.61" stroke="white"/>
<line x1="250.5" y1="534" x2="250.5" y2="580" stroke="white"/>
<g style="mix-blend-mode:multiply" opacity="0.5">
<path d="M256.241 401C319.569 401 370.907 388.439 370.907 372.944C370.907 357.449 319.569 344.888 256.241 344.888C192.912 344.888 141.574 357.449 141.574 372.944C141.574 388.439 192.912 401 256.241 401Z" fill="url(#paint0_radial)" fill-opacity="0.7"/>
</g>
<path d="M322.219 165.793L256.786 181.822C246.279 184.399 235.342 183.959 225.028 180.567L197.402 171.468C185.617 167.587 178.409 154.557 180.713 141.3L189.689 89.4767C194.162 63.5814 214.522 44.6165 238.552 43.9643L275.541 42.9695C299.779 42.3173 321.104 60.4505 326.588 86.3621L337.674 138.838C340.231 150.97 333.29 163.086 322.219 165.793Z" fill="url(#paint1_linear)"/>
<path fill-rule="evenodd" clip-rule="evenodd" d="M334.396 123.32L337.674 138.838C340.108 150.388 333.934 161.925 323.782 165.34C326.305 154.568 322.125 135.426 319.633 126.945L334.396 123.32Z" fill="#9FB7EE"/>
<path d="M408.875 109.354C408.875 109.354 410.764 94.8603 421.506 86.4758C432.258 78.072 452.249 59.2655 454.978 58.045C457.707 56.8245 469.051 59.2768 461.129 71.0484C453.207 82.8201 444.957 88.9969 444.957 88.9969C444.957 88.9969 461.014 113.812 459.391 118.24C457.767 122.667 443.992 135.234 442.194 136.159C440.396 137.084 435.286 139.769 435.286 139.769L420.705 134.786L408.875 109.354Z" fill="url(#paint2_linear)"/>
<path d="M450.44 103.934L441.476 110.394C438.486 112.542 434.553 111.773 432.669 108.658L432.318 108.081C430.434 104.965 431.315 100.717 434.305 98.5683L443.269 92.1086C446.258 89.9603 450.192 90.7294 452.076 93.8449L452.426 94.422C454.321 97.5182 453.426 101.771 450.44 103.934Z" fill="#DCE7FF"/>
<path d="M458.233 115.864L449.269 122.323C446.28 124.472 442.346 123.702 440.462 120.587L440.111 120.01C438.227 116.894 439.108 112.646 442.098 110.498L451.062 104.038C454.051 101.89 457.985 102.659 459.869 105.774L460.22 106.351C462.114 109.447 461.222 113.715 458.233 115.864Z" fill="#DCE7FF"/>
<path d="M64.0245 251.518C61.5725 250.181 56.6684 247.327 55.0634 246.381C54.7067 246.169 54.3352 246.055 53.9339 246.006L44.8985 244.946C41.2872 244.522 38.1367 247.637 38.1367 251.616C38.1367 252.904 37.468 254.094 36.4128 254.665L21.7153 262.737C20.3184 263.504 19.6645 265.281 20.1698 266.895L23.8999 278.865C24.0931 279.468 24.42 279.99 24.8658 280.397L40.7671 294.715C41.317 295.22 42.0154 295.481 42.7436 295.481H51.2441C51.8088 295.481 52.3587 295.318 52.8491 294.992L69.4042 284.099C70.5485 283.349 71.1281 281.898 70.8457 280.463L65.689 253.866C65.4809 252.839 64.8716 251.975 64.0245 251.518Z" fill="url(#paint3_linear)"/>
<path d="M142.044 252.17L161.914 272.635L204.758 222.524L192.839 210.245C188.455 205.728 181.56 205.973 177.443 210.783L142.044 252.17Z" fill="url(#paint4_linear)"/>
<path d="M133.619 265.183L150.62 282.68C151.407 283.496 152.655 283.447 153.399 282.583L185.067 245.566C190.506 239.206 190.209 229.226 184.428 223.258C179.242 217.926 171.098 218.203 166.238 223.894L133.544 262.134C132.786 262.998 132.831 264.368 133.619 265.183Z" fill="url(#paint5_linear)"/>
<path d="M123.765 277.446L149.46 284.98C150.248 285.795 151.496 285.746 152.239 284.882L175.199 257.812C180.638 251.453 180.341 241.473 174.56 235.505C169.374 230.172 161.23 230.449 156.37 236.141L123.676 274.38C122.933 275.261 122.963 276.63 123.765 277.446Z" fill="url(#paint6_linear)"/>
<path d="M150.902 287.116L83.5518 297.862C73.3869 298.89 64.3811 290.671 63.4597 279.517L61.8696 260.487C61.0077 250.165 67.9329 241.033 77.3399 240.071L153.428 233.075C159.937 232.472 165.718 237.608 166.55 244.718L169.508 262.574C170.533 275 162.211 285.975 150.902 287.116Z" fill="url(#paint7_linear)"/>
<path d="M331.76 225.802L330.675 224.155C326.068 217.16 327.51 207.392 333.885 202.337L366.52 176.49L383.164 201.799L348.999 228.852C343.47 233.238 335.743 231.868 331.76 225.802Z" fill="url(#paint8_linear)"/>
<path d="M344.57 215.692L343.485 214.045C338.878 207.049 340.319 197.281 346.695 192.226L379.329 166.38L395.974 191.688L361.808 218.741C356.295 223.128 348.567 221.774 344.57 215.692Z" fill="url(#paint9_linear)"/>
<path d="M293.597 150.203L242.802 168.353C237.437 170.277 231.627 170.114 226.336 167.929L185.543 150.986C181.723 149.404 179.494 145.034 180.252 140.631L188.366 93.7979C188.604 88.5308 192.572 84.4052 197.372 84.4052H278.929C286.627 84.4052 293.344 90.1452 295.232 98.3312L302.915 131.662C304.743 139.571 300.671 147.676 293.597 150.203Z" fill="url(#paint10_linear)"/>
<path d="M302.929 131.646L295.246 98.3152C293.612 91.2054 288.336 85.9546 281.931 84.6827C285.022 87.1613 287.355 90.7651 288.351 95.0701L296.034 128.401C297.862 136.31 293.775 144.431 286.701 146.959L235.906 165.108C230.542 167.032 224.731 166.869 219.44 164.684L183.625 149.796C184.22 150.269 184.844 150.677 185.557 150.97L226.351 167.913C231.626 170.114 237.437 170.261 242.817 168.337L293.612 150.187C300.671 147.676 304.743 139.572 302.929 131.646Z" fill="#195DEE"/>
<path d="M253.309 69.6804L223.646 69.3869C218.95 69.3217 215.948 63.8752 218.088 59.2766L226.039 42.187C228.402 37.0993 233.187 33.9358 238.388 34.001L272.569 34.4739C276.537 34.5228 279.063 39.1377 277.265 43.0024L267.04 60.5649C264.425 66.2397 259.105 69.7619 253.309 69.6804Z" fill="url(#paint11_linear)"/>
<path d="M267.441 132.739C267.441 132.559 267.456 132.38 267.456 132.201C267.456 120.541 262.374 111.1 256.117 111.1C249.861 111.1 244.778 120.541 244.778 132.201C244.778 132.38 244.793 132.559 244.793 132.739H267.441Z" fill="#4AEBF3"/>
<g filter="url(#filter0_f)">
<path d="M267.441 132.739C267.441 132.559 267.456 132.38 267.456 132.201C267.456 120.541 262.374 111.1 256.117 111.1C249.861 111.1 244.778 120.541 244.778 132.201C244.778 132.38 244.793 132.559 244.793 132.739H267.441Z" fill="#4AEBF3"/>
</g>
<path d="M210.464 132.739C210.019 121.846 205.129 113.269 199.17 113.269C193.211 113.269 188.322 121.846 187.876 132.739H210.464Z" fill="#4AEBF3"/>
<g filter="url(#filter1_f)">
<path d="M210.464 132.739C210.019 121.846 205.129 113.269 199.17 113.269C193.211 113.269 188.322 121.846 187.876 132.739H210.464Z" fill="#4AEBF3"/>
</g>
<path d="M218.371 143.012C220.362 149.013 223.929 153.025 228.001 153.025C232.072 153.025 235.639 149.013 237.63 143.012H218.371Z" fill="#4AEBF3"/>
<path d="M346.74 302.868L326.796 200.363H325.771C324.849 205.761 296.034 210.115 260.591 210.115C224.568 210.115 195.366 205.631 195.366 200.103C195.366 199.923 195.395 199.744 195.455 199.564H194.652L175.11 303.863C172.866 315.816 178.796 327.802 189.154 332.237L251.808 359.127C257.544 361.589 263.919 361.606 269.656 359.16L332.131 332.563C342.98 327.932 349.162 315.359 346.74 302.868Z" fill="url(#paint12_linear)"/>
<path d="M309.231 307.059L266.223 327.492C262.27 329.367 257.886 329.367 253.933 327.475L210.806 306.815C203.688 303.407 199.601 294.193 201.147 285.012L214.596 204.88L305.545 205.5L319.277 284.246C320.956 293.851 316.691 303.504 309.231 307.059Z" fill="url(#paint13_linear)"/>
<path d="M360.798 208.745L350.098 194.199C344.377 186.421 344.793 175.202 351.064 167.962L399.244 112.339C403.197 107.773 409.795 107.61 413.926 111.98L431.849 130.929C441.018 141.398 439.844 158.308 429.307 167.114L377.012 210.881C371.989 215.121 364.796 214.175 360.798 208.745Z" fill="url(#paint14_linear)"/>
<path d="M293.151 263.618C301.038 263.618 307.432 256.602 307.432 247.947C307.432 239.292 301.038 232.276 293.151 232.276C285.264 232.276 278.87 239.292 278.87 247.947C278.87 256.602 285.264 263.618 293.151 263.618Z" fill="url(#paint15_linear)"/>
<path d="M293.151 259.019C298.724 259.019 303.241 254.062 303.241 247.947C303.241 241.832 298.724 236.874 293.151 236.874C287.578 236.874 283.06 241.832 283.06 247.947C283.06 254.062 287.578 259.019 293.151 259.019Z" fill="url(#paint16_linear)"/>
<path d="M292.497 239.402C298.07 239.402 302.588 244.359 302.588 250.474C302.588 251.094 302.528 251.697 302.439 252.284C302.959 250.947 303.242 249.496 303.242 247.947C303.242 241.832 298.724 236.874 293.151 236.874C288.143 236.874 283.997 240.886 283.209 246.137C284.755 242.174 288.321 239.402 292.497 239.402Z" fill="white" fill-opacity="0.9"/>
<path d="M222.22 221.677C223.96 221.677 225.37 220.129 225.37 218.22C225.37 216.31 223.96 214.762 222.22 214.762C220.48 214.762 219.069 216.31 219.069 218.22C219.069 220.129 220.48 221.677 222.22 221.677Z" fill="url(#paint17_linear)"/>
<path d="M296.673 221.677C298.413 221.677 299.824 220.129 299.824 218.22C299.824 216.31 298.413 214.762 296.673 214.762C294.933 214.762 293.523 216.31 293.523 218.22C293.523 220.129 294.933 221.677 296.673 221.677Z" fill="url(#paint18_linear)"/>
<path d="M260.575 210.099C296.598 210.099 325.8 205.616 325.8 200.086C325.8 194.556 296.598 190.074 260.575 190.074C224.553 190.074 195.351 194.556 195.351 200.086C195.351 205.616 224.553 210.099 260.575 210.099Z" fill="url(#paint19_linear)"/>
<path d="M166.535 244.734C166.372 243.381 166.045 242.109 165.554 240.935L124.667 253.58C106.861 259.087 93.5956 274.042 90.2519 292.378L89.4214 296.933L150.886 287.116C162.196 285.974 170.518 275 169.477 262.59L166.535 244.734Z" fill="url(#paint20_linear)"/>
<path d="M377.041 210.898L429.337 167.13C431.952 164.945 433.988 162.254 435.43 159.287L420.242 151.476C409.794 146.094 397.415 148.361 389.108 157.134L351.872 196.505L353.754 199.173L360.813 208.762C364.795 214.175 371.988 215.121 377.041 210.898Z" fill="url(#paint21_linear)"/>
<path d="M328.721 108.629C328.721 108.629 323.034 110.494 323.812 119.066C323.812 119.066 330.681 135.535 323.717 148.65C317.802 159.796 276.636 159.811 276.636 159.811L277.23 164.185C277.23 164.185 312.587 163.201 323.458 159.298C323.458 159.298 330.711 155.998 331.343 138.932C331.969 121.996 328.721 108.629 328.721 108.629Z" fill="url(#paint22_linear)"/>
<path d="M281.144 157.594C284.461 162.124 276.457 166.874 270.086 167.513C262.945 168.222 250.573 164.933 251.871 157.166C253.172 149.375 273.384 146.954 281.144 157.594Z" fill="url(#paint23_linear)"/>
<path d="M280.553 158.427C280.678 159.704 255.367 159.538 255.095 154.649C254.832 149.772 279.549 148.542 280.553 158.427Z" fill="url(#paint24_linear)"/>
<path d="M328.849 132.156C335.808 130.973 340.064 120.202 338.355 108.098C336.646 95.9943 329.619 87.1414 322.66 88.3244C315.701 89.5075 311.445 100.278 313.154 112.382C314.863 124.486 321.89 133.339 328.849 132.156Z" fill="url(#paint25_linear)"/>
<path d="M332.801 130.801C339.76 129.618 344.016 118.847 342.307 106.743C340.598 94.6395 333.572 85.7866 326.613 86.9696C319.654 88.1526 315.398 98.9236 317.107 111.027C318.816 123.131 325.842 131.984 332.801 130.801Z" fill="white"/>
<path d="M332.482 117.263C336.521 116.576 338.991 110.327 338 103.305C337.009 96.2835 332.931 91.1478 328.891 91.8344C324.852 92.5211 322.382 98.7701 323.373 105.792C324.365 112.814 328.443 117.95 332.482 117.263Z" fill="url(#paint26_linear)"/>
<g opacity="0.7">
<path opacity="0.5" d="M183 55.5H139C134.876 55.5 131.5 52.1239 131.5 48V28C131.5 23.8761 134.876 20.5 139 20.5H183C187.124 20.5 190.5 23.8761 190.5 28V48C190.5 52.1239 187.124 55.5 183 55.5Z" fill="#0891F9" fill-opacity="0.5" stroke="white"/>
<path d="M183 36.8H139V39.3H183V36.8Z" fill="white"/>
<path d="M164 29.2H139V31.7H164V29.2Z" fill="white"/>
<path d="M158.6 44.2H139V46.7H158.6V44.2Z" fill="white"/>
<path d="M183 44.2H170V46.7H183V44.2Z" fill="white"/>
</g>
<g opacity="0.7">
<path opacity="0.5" d="M139 84.5H95C90.8761 84.5 87.5 81.1239 87.5 77V57C87.5 52.8761 90.8761 49.5 95 49.5H139C143.124 49.5 146.5 52.8761 146.5 57V77C146.5 81.1279 143.22 84.5 139 84.5Z" fill="#0891F9" fill-opacity="0.1" stroke="white"/>
<path d="M139 65.8H95V68.3H139V65.8Z" fill="white" fill-opacity="0.7"/>
<path d="M120 58.2H95V60.7H120V58.2Z" fill="white" fill-opacity="0.7"/>
<path d="M114.6 73.2H95V75.7H114.6V73.2Z" fill="white" fill-opacity="0.7"/>
<path d="M139 73.2H126V75.7H139V73.2Z" fill="white" fill-opacity="0.7"/>
</g>
<path d="M78 215H12C5.4 215 0 209.6 0 203V173C0 166.4 5.4 161 12 161H78C84.6 161 90 166.4 90 173V203C90 209.6 84.6 215 78 215Z" fill="#7F95E2"/>
<path d="M78 186.1H12V189.9H78V186.1Z" fill="#CFD7FE"/>
<path d="M49.5 174.9H12V178.7H49.5V174.9Z" fill="#CFD7FE"/>
<path d="M41.4 197.4H12V201.2H41.4V197.4Z" fill="#CFD7FE"/>
<path d="M77.9999 197.4H58.3999V201.2H77.9999V197.4Z" fill="#CFD7FE"/>
<path d="M497 246H453C448.6 246 445 242.4 445 238V218C445 213.6 448.6 210 453 210H497C501.4 210 505 213.6 505 218V238C505 242.4 501.4 246 497 246Z" fill="#E8E9FD" fill-opacity="0.5"/>
<path d="M497 226.7H453V229.2H497V226.7Z" fill="#CFD7FE"/>
<path d="M478 219.2H453V221.7H478V219.2Z" fill="#CFD7FE"/>
<path d="M472.6 234.2H453V236.7H472.6V234.2Z" fill="#CFD7FE"/>
<path d="M497 234.2H484V236.7H497V234.2Z" fill="#CFD7FE"/>
<g opacity="0.7">
<path d="M355.714 56.4048H429.286C437.379 56.4048 444 49.7833 444 41.6905V14.7143C444 6.62143 437.379 0 429.286 0H355.714C347.621 0 341 6.62143 341 14.7143V41.6905C341 49.7833 347.499 56.4048 355.714 56.4048Z" fill="#0891F9"/>
<path d="M355.714 56.4048V77.25L376.437 56.4048H355.714Z" fill="#0891F9"/>
<path d="M375.333 16.1857H429.286V18.8833H375.333V16.1857Z" fill="white"/>
<path d="M355.714 26.8536H429.286V29.5512H355.714V26.8536Z" fill="white"/>
<path d="M355.714 37.3988H429.286V40.0964H355.714V37.3988Z" fill="white"/>
</g>
<defs>
<filter id="filter0_f" x="239.778" y="106.1" width="32.6779" height="31.6392" filterUnits="userSpaceOnUse" color-interpolation-filters="sRGB">
<feFlood flood-opacity="0" result="BackgroundImageFix"/>
<feBlend mode="normal" in="SourceGraphic" in2="BackgroundImageFix" result="shape"/>
<feGaussianBlur stdDeviation="2.5" result="effect1_foregroundBlur"/>
</filter>
<filter id="filter1_f" x="182.876" y="108.269" width="32.5887" height="29.4704" filterUnits="userSpaceOnUse" color-interpolation-filters="sRGB">
<feFlood flood-opacity="0" result="BackgroundImageFix"/>
<feBlend mode="normal" in="SourceGraphic" in2="BackgroundImageFix" result="shape"/>
<feGaussianBlur stdDeviation="2.5" result="effect1_foregroundBlur"/>
</filter>
<radialGradient id="paint0_radial" cx="0" cy="0" r="1" gradientUnits="userSpaceOnUse" gradientTransform="translate(256.243 372.93) scale(114.687 28.0409)">
<stop stop-color="#010F3E"/>
<stop offset="1" stop-color="#2670DE" stop-opacity="0"/>
</radialGradient>
<linearGradient id="paint1_linear" x1="207.237" y1="80.0946" x2="258.223" y2="176.392" gradientUnits="userSpaceOnUse">
<stop stop-color="#E5EDFF"/>
<stop offset="1" stop-color="#C4D6FF"/>
</linearGradient>
<linearGradient id="paint2_linear" x1="431.399" y1="65.5149" x2="453.168" y2="134.092" gradientUnits="userSpaceOnUse">
<stop stop-color="#97B6FF"/>
<stop offset="1" stop-color="#6D9BFF"/>
</linearGradient>
<linearGradient id="paint3_linear" x1="45.4582" y1="244.908" x2="45.4582" y2="295.481" gradientUnits="userSpaceOnUse">
<stop stop-color="#97B6FF"/>
<stop offset="1" stop-color="#6D9BFF"/>
</linearGradient>
<linearGradient id="paint4_linear" x1="166.143" y1="214.796" x2="190.401" y2="240.461" gradientUnits="userSpaceOnUse">
<stop stop-color="#C0D3FF"/>
<stop offset="1" stop-color="#A4BFFF"/>
</linearGradient>
<linearGradient id="paint5_linear" x1="160.973" y1="219.529" x2="135.024" y2="244" gradientUnits="userSpaceOnUse">
<stop stop-color="#6B98FF"/>
<stop offset="1" stop-color="#A0BDFF"/>
</linearGradient>
<linearGradient id="paint6_linear" x1="123.171" y1="258.58" x2="155.995" y2="240.31" gradientUnits="userSpaceOnUse">
<stop stop-color="#C0D3FF"/>
<stop offset="1" stop-color="#A4BFFF"/>
</linearGradient>
<linearGradient id="paint7_linear" x1="106.604" y1="239.412" x2="118.077" y2="287.984" gradientUnits="userSpaceOnUse">
<stop stop-color="#EEF4FF"/>
<stop offset="1" stop-color="#A4C0FF"/>
</linearGradient>
<linearGradient id="paint8_linear" x1="357.803" y1="178.948" x2="371.908" y2="192.338" gradientUnits="userSpaceOnUse">
<stop stop-color="#C0D3FF"/>
<stop offset="1" stop-color="#A4BFFF"/>
</linearGradient>
<linearGradient id="paint9_linear" x1="381.585" y1="208.365" x2="366.73" y2="177.134" gradientUnits="userSpaceOnUse">
<stop stop-color="#6B98FF"/>
<stop offset="1" stop-color="#A0BDFF"/>
</linearGradient>
<linearGradient id="paint10_linear" x1="275.848" y1="97.5209" x2="250.125" y2="172.568" gradientUnits="userSpaceOnUse">
<stop stop-color="#4B84FF"/>
<stop offset="1" stop-color="#2F70FE"/>
</linearGradient>
<linearGradient id="paint11_linear" x1="247.618" y1="77.7862" x2="258.266" y2="29.5687" gradientUnits="userSpaceOnUse">
<stop stop-color="#ECA938"/>
<stop offset="1" stop-color="#FCD64A"/>
</linearGradient>
<linearGradient id="paint12_linear" x1="219.27" y1="223.27" x2="256.467" y2="362.185" gradientUnits="userSpaceOnUse">
<stop stop-color="#96B6FF"/>
<stop offset="1" stop-color="#6998FF"/>
</linearGradient>
<linearGradient id="paint13_linear" x1="214.24" y1="228.256" x2="284.148" y2="327.191" gradientUnits="userSpaceOnUse">
<stop stop-color="#F4F7FF"/>
<stop offset="1" stop-color="#BBCEFF"/>
</linearGradient>
<linearGradient id="paint14_linear" x1="370.281" y1="144.345" x2="408.229" y2="187.755" gradientUnits="userSpaceOnUse">
<stop stop-color="#E2EBFF"/>
<stop offset="1" stop-color="#A4C0FF"/>
</linearGradient>
<linearGradient id="paint15_linear" x1="293.151" y1="232.276" x2="293.151" y2="263.618" gradientUnits="userSpaceOnUse">
<stop stop-color="#97B6FF"/>
<stop offset="1" stop-color="#6D9BFF"/>
</linearGradient>
<linearGradient id="paint16_linear" x1="285.064" y1="255.807" x2="304.182" y2="243.268" gradientUnits="userSpaceOnUse">
<stop stop-color="#91B3FE"/>
<stop offset="1" stop-color="#DEE6FF"/>
</linearGradient>
<linearGradient id="paint17_linear" x1="222.22" y1="214.762" x2="222.22" y2="221.677" gradientUnits="userSpaceOnUse">
<stop stop-color="#97B6FF"/>
<stop offset="1" stop-color="#6D9BFF"/>
</linearGradient>
<linearGradient id="paint18_linear" x1="296.673" y1="214.762" x2="296.673" y2="221.677" gradientUnits="userSpaceOnUse">
<stop stop-color="#97B6FF"/>
<stop offset="1" stop-color="#6D9BFF"/>
</linearGradient>
<linearGradient id="paint19_linear" x1="293.484" y1="190.011" x2="250.147" y2="223.397" gradientUnits="userSpaceOnUse">
<stop stop-color="#83A8FF"/>
<stop offset="1" stop-color="#3E79FC"/>
</linearGradient>
<linearGradient id="paint20_linear" x1="120.705" y1="247.666" x2="134.883" y2="286.012" gradientUnits="userSpaceOnUse">
<stop stop-color="#A6C0FF"/>
<stop offset="0.682292" stop-color="#5C96FF"/>
</linearGradient>
<linearGradient id="paint21_linear" x1="371.954" y1="172.418" x2="383.613" y2="199.615" gradientUnits="userSpaceOnUse">
<stop stop-color="#83A8FF"/>
<stop offset="1" stop-color="#3E79FC"/>
</linearGradient>
<linearGradient id="paint22_linear" x1="293.209" y1="125.033" x2="319.453" y2="119.3" gradientUnits="userSpaceOnUse">
<stop stop-color="#83A8FF"/>
<stop offset="1" stop-color="#3E79FC"/>
</linearGradient>
<linearGradient id="paint23_linear" x1="274.787" y1="167.508" x2="258.397" y2="149.863" gradientUnits="userSpaceOnUse">
<stop stop-color="#FFB545"/>
<stop offset="1" stop-color="#FFDF6D"/>
</linearGradient>
<linearGradient id="paint24_linear" x1="274.575" y1="163.272" x2="260.996" y2="148.768" gradientUnits="userSpaceOnUse">
<stop stop-color="#FFD391"/>
<stop offset="1" stop-color="#FFE37E"/>
</linearGradient>
<linearGradient id="paint25_linear" x1="318.387" y1="105.521" x2="330.808" y2="115.031" gradientUnits="userSpaceOnUse">
<stop stop-color="#83A8FF"/>
<stop offset="1" stop-color="#3E79FC"/>
</linearGradient>
<linearGradient id="paint26_linear" x1="328.891" y1="91.8344" x2="333.194" y2="117.142" gradientUnits="userSpaceOnUse">
<stop stop-color="#B6CBFE"/>
<stop offset="1" stop-color="#89ADFE"/>
</linearGradient>
</defs>
</svg>
