<svg width="1440" height="96" viewBox="0 0 1440 96" fill="none" xmlns="http://www.w3.org/2000/svg">
<path d="M0 1H1440V96H0V1Z" fill="url(#paint0_linear_36_50)"/>
<g opacity="0.08">
<mask id="mask0_36_50" style="mask-type:alpha" maskUnits="userSpaceOnUse" x="1308" y="0" width="131" height="67">
<rect x="1308.41" y="0.406802" width="129.363" height="65.9019" rx="6.10203" fill="white" stroke="white" stroke-width="0.813604"/>
</mask>
<g mask="url(#mask0_36_50)">
<path d="M1386.92 4.38057C1386.92 2.05797 1388.16 -0.0886335 1390.17 -1.25234L1411.44 -13.5708C1413.46 -14.7387 1415.95 -14.7387 1417.97 -13.5708L1439.24 -1.25234C1441.25 -0.0886316 1442.49 2.05798 1442.49 4.38057V29.0486C1442.49 31.3712 1441.25 33.5178 1439.24 34.6815L1417.97 46.9999C1415.95 48.1678 1413.46 48.1678 1411.44 46.9999L1390.17 34.6815C1388.16 33.5178 1386.92 31.3712 1386.92 29.0486V4.38057Z" fill="white"/>
<path d="M1322.64 17.1261C1322.64 15.9662 1323.26 14.8941 1324.26 14.3117L1332.34 9.62042C1333.35 9.03371 1334.6 9.03371 1335.61 9.62042L1343.69 14.3117C1344.69 14.8941 1345.31 15.9662 1345.31 17.1261V26.5407C1345.31 27.7006 1344.69 28.7727 1343.69 29.3551L1335.61 34.0464C1334.6 34.6331 1333.35 34.6331 1332.34 34.0464L1324.26 29.3551C1323.26 28.7727 1322.64 27.7006 1322.64 26.5407V17.1261Z" fill="white"/>
<path d="M1347.51 20.467C1347.51 18.1444 1348.74 15.9978 1350.75 14.8341L1372.03 2.51569C1374.05 1.3478 1376.54 1.3478 1378.55 2.51569L1399.83 14.8341C1401.84 15.9978 1403.08 18.1444 1403.08 20.467V45.1351C1403.08 47.4577 1401.84 49.6043 1399.83 50.768L1378.55 63.0864C1376.54 64.2543 1374.05 64.2543 1372.03 63.0864L1350.75 50.768C1348.74 49.6043 1347.51 47.4577 1347.51 45.1351V20.467Z" stroke="white" stroke-width="0.813604"/>
<path d="M1406 35.9564C1406 34.7956 1406.62 33.7227 1407.63 33.1407L1420.46 25.7038C1421.47 25.1189 1422.71 25.1189 1423.72 25.7038L1436.55 33.1407C1437.56 33.7227 1438.18 34.7956 1438.18 35.9564V50.8516C1438.18 52.0124 1437.56 53.0853 1436.55 53.6673L1423.72 61.1042C1422.71 61.6891 1421.47 61.6891 1420.46 61.1042L1407.63 53.6673C1406.62 53.0853 1406 52.0124 1406 50.8516V35.9564Z" stroke="white" stroke-width="0.813604"/>
<path d="M1334.34 -6.4443C1334.34 -7.61033 1334.97 -8.68726 1335.98 -9.26737L1345.16 -14.5302C1346.16 -15.1053 1347.39 -15.1053 1348.39 -14.5302L1357.57 -9.26737C1358.58 -8.68726 1359.21 -7.61033 1359.21 -6.4443V4.04402C1359.21 5.21005 1358.58 6.28697 1357.57 6.86708L1348.39 12.1299C1347.39 12.705 1346.16 12.705 1345.16 12.1299L1335.98 6.86708C1334.97 6.28697 1334.34 5.21005 1334.34 4.04402V-6.4443Z" stroke="white" stroke-width="0.813604"/>
</g>
</g>
<g opacity="0.08">
<mask id="mask1_36_50" style="mask-type:alpha" maskUnits="userSpaceOnUse" x="223" y="1" width="131" height="67">
<rect x="223.407" y="1.4068" width="129.363" height="65.9019" rx="6.10203" fill="white" stroke="white" stroke-width="0.813604"/>
</mask>
<g mask="url(#mask1_36_50)">
<path d="M291.919 3.38057C291.919 1.05797 293.157 -1.08863 295.167 -2.25234L316.444 -14.5708C318.462 -15.7387 320.949 -15.7387 322.967 -14.5708L344.244 -2.25234C346.254 -1.08863 347.492 1.05798 347.492 3.38057V28.0486C347.492 30.3712 346.254 32.5178 344.244 33.6815L322.967 45.9999C320.949 47.1678 318.462 47.1678 316.444 45.9999L295.167 33.6815C293.157 32.5178 291.919 30.3712 291.919 28.0486V3.38057Z" fill="white"/>
<path d="M227.645 16.1261C227.645 14.9662 228.262 13.8941 229.265 13.3117L237.344 8.62042C238.355 8.03371 239.602 8.03371 240.612 8.62042L248.692 13.3117C249.695 13.8941 250.312 14.9662 250.312 16.1261V25.5407C250.312 26.7006 249.695 27.7727 248.692 28.3551L240.612 33.0464C239.602 33.6331 238.355 33.6331 237.344 33.0464L229.265 28.3551C228.262 27.7727 227.645 26.7006 227.645 25.5407V16.1261Z" fill="white"/>
<path d="M252.506 19.467C252.506 17.1444 253.743 14.9978 255.754 13.8341L277.031 1.51569C279.048 0.347797 281.536 0.347798 283.553 1.51569L304.83 13.8341C306.84 14.9978 308.078 17.1444 308.078 19.467V44.1351C308.078 46.4577 306.84 48.6043 304.83 49.768L283.553 62.0864C281.536 63.2543 279.048 63.2543 277.031 62.0864L255.754 49.768C253.743 48.6043 252.506 46.4577 252.506 44.1351V19.467Z" stroke="white" stroke-width="0.813604"/>
<path d="M311.003 34.9564C311.003 33.7956 311.622 32.7227 312.626 32.1407L325.458 24.7038C326.468 24.1189 327.713 24.1189 328.722 24.7038L341.554 32.1407C342.559 32.7227 343.177 33.7956 343.177 34.9564V49.8516C343.177 51.0124 342.559 52.0853 341.554 52.6673L328.722 60.1042C327.713 60.6891 326.468 60.6891 325.458 60.1042L312.626 52.6673C311.622 52.0853 311.003 51.0124 311.003 49.8516V34.9564Z" stroke="white" stroke-width="0.813604"/>
<path d="M239.344 -7.4443C239.344 -8.61033 239.968 -9.68726 240.98 -10.2674L250.156 -15.5302C251.159 -16.1053 252.391 -16.1053 253.394 -15.5302L262.57 -10.2674C263.582 -9.68726 264.205 -8.61033 264.205 -7.4443V3.04402C264.205 4.21005 263.582 5.28697 262.57 5.86708L253.394 11.1299C252.391 11.705 251.159 11.705 250.156 11.1299L240.98 5.86708C239.968 5.28697 239.344 4.21005 239.344 3.04402V-7.4443Z" stroke="white" stroke-width="0.813604"/>
</g>
</g>
<g opacity="0.08">
<mask id="mask2_36_50" style="mask-type:alpha" maskUnits="userSpaceOnUse" x="2" y="41" width="109" height="55">
<rect x="2.3068" y="41.3068" width="108.386" height="54.3864" rx="4.60203" fill="white" stroke="white" stroke-width="0.613604"/>
</mask>
<g mask="url(#mask2_36_50)">
<path d="M50.6304 64.5539C50.6304 62.616 51.663 60.8248 53.3402 59.8538L71.0939 49.5754C72.7771 48.6009 74.8529 48.6009 76.5362 49.5754L94.2899 59.8538C95.967 60.8248 96.9997 62.616 96.9997 64.5539V85.1369C96.9997 87.0749 95.967 88.866 94.2899 89.837L76.5361 100.115C74.8529 101.09 72.7771 101.09 71.0939 100.115L53.3402 89.837C51.663 88.866 50.6304 87.0749 50.6304 85.1369V64.5539Z" fill="white"/>
<path d="M-3 75.1887C-3 74.221 -2.48496 73.3264 -1.64806 72.8404L5.09337 68.9261C5.93648 68.4365 6.97733 68.4365 7.82045 68.9261L14.5619 72.8404C15.3988 73.3264 15.9138 74.221 15.9138 75.1887V83.0443C15.9138 84.0121 15.3988 84.9067 14.5619 85.3926L7.82044 89.307C6.97733 89.7966 5.93648 89.7966 5.09337 89.307L-1.64806 85.3926C-2.48496 84.9067 -3 84.0121 -3 83.0443V75.1887Z" fill="white"/>
<path d="M17.7441 77.9765C17.7441 76.0385 18.7768 74.2474 20.454 73.2764L38.2077 62.9979C39.8909 62.0234 41.9667 62.0234 43.6499 62.9979L61.4036 73.2764C63.0808 74.2474 64.1135 76.0385 64.1135 77.9764V98.5594C64.1135 100.497 63.0808 102.288 61.4036 103.259L43.6499 113.538C41.9667 114.512 39.8909 114.512 38.2077 113.538L20.454 103.259C18.7768 102.288 17.7441 100.497 17.7441 98.5594V77.9765Z" stroke="white" stroke-width="0.678869"/>
<path d="M66.5542 90.9007C66.5542 89.9322 67.0701 89.0369 67.9081 88.5513L78.6153 82.346C79.4574 81.8579 80.4964 81.8579 81.3385 82.346L92.0457 88.5513C92.8837 89.0369 93.3996 89.9322 93.3996 90.9007V103.329C93.3996 104.298 92.8837 105.193 92.0457 105.679L81.3385 111.884C80.4964 112.372 79.4574 112.372 78.6153 111.884L67.9081 105.679C67.0701 105.193 66.5542 104.298 66.5542 103.329V90.9007Z" stroke="white" stroke-width="0.678869"/>
<path d="M6.76221 55.5217C6.76221 54.5487 7.28272 53.6502 8.1267 53.1661L15.7833 48.7748C16.62 48.2949 17.6486 48.2949 18.4853 48.7748L26.1419 53.1661C26.9859 53.6502 27.5064 54.5487 27.5064 55.5217V64.2731C27.5064 65.246 26.9859 66.1446 26.1419 66.6287L18.4853 71.02C17.6486 71.4999 16.62 71.4999 15.7833 71.02L8.1267 66.6287C7.28272 66.1446 6.76221 65.246 6.76221 64.2731V55.5217Z" stroke="white" stroke-width="0.678869"/>
</g>
</g>
<defs>
<linearGradient id="paint0_linear_36_50" x1="343.993" y1="-41.4232" x2="339.45" y2="95.922" gradientUnits="userSpaceOnUse">
<stop stop-color="#5377D7"/>
<stop offset="1" stop-color="#2B29A1"/>
</linearGradient>
</defs>
</svg>
