<svg xmlns="http://www.w3.org/2000/svg" xmlns:xlink="http://www.w3.org/1999/xlink" viewBox="0 0 1920 1080" width="1920" height="1080"><defs><linearGradient id="b" x1="-139.991" y1="797.353" x2="-4.897" y2="1069.848" gradientUnits="userSpaceOnUse"><stop offset="0" stop-color="#553bd2"/><stop offset="1" stop-color="#5a0389"/></linearGradient><linearGradient id="d" x1="61.545" y1="163.188" x2="1832.13" y2="905.771" gradientUnits="userSpaceOnUse"><stop offset="0" stop-color="#44327c"/><stop offset="1" stop-color="#361e5b"/></linearGradient><linearGradient id="e" x1="243.297" y1="-434.69" x2="1335.658" y2="1050.881" gradientUnits="userSpaceOnUse"><stop offset="0" stop-color="#553bd2"/><stop offset=".399" stop-color="#571fae"/><stop offset=".778" stop-color="#590a93"/><stop offset="1" stop-color="#5a0389"/></linearGradient><linearGradient id="g" x1="1641.19" y1="38.687" x2="-481.766" y2="677.285" gradientUnits="userSpaceOnUse"><stop offset=".154" stop-color="#4e0685"/><stop offset=".606" stop-color="#553bd2"/></linearGradient><linearGradient id="a" x1="45.783" y1="297.394" x2="1198.609" y2="204.459" gradientUnits="userSpaceOnUse"><stop offset="0" stop-color="#590d96"/><stop offset="1" stop-color="#4e0685"/></linearGradient><linearGradient id="h" x1="594.778" y1="1235.988" x2="1908.201" y2="119.045" gradientUnits="userSpaceOnUse"><stop offset="0" stop-color="#4e0685"/><stop offset="1" stop-color="#590d96"/></linearGradient><linearGradient id="i" x1="436.691" y1="1041.939" x2="1357.161" y2="721.445" xlink:href="#a"/><linearGradient id="j" x1="1390.913" y1="764.114" x2="878.727" y2="1753.249" xlink:href="#b"/><linearGradient id="k" x1="1455.546" y1="806.405" x2="1590.64" y2="1078.9" xlink:href="#b"/><linearGradient id="l" x1="2091.041" y1="797.353" x2="2226.135" y2="1069.848" xlink:href="#b"/><linearGradient id="n" x1="594.778" y1="1235.988" x2="1908.201" y2="119.045" gradientUnits="userSpaceOnUse"><stop offset="0" stop-color="#4e0685"/><stop offset="1" stop-color="#551ba6" stop-opacity=".35"/></linearGradient><linearGradient id="o" x1="436.691" y1="1041.939" x2="1357.161" y2="721.445" xlink:href="#a"/><linearGradient id="p" x1="1390.913" y1="764.114" x2="878.727" y2="1753.249" xlink:href="#b"/><linearGradient id="q" x1="1455.546" y1="806.405" x2="1590.64" y2="1078.9" xlink:href="#b"/><linearGradient id="r" x1="2091.041" y1="797.353" x2="2226.135" y2="1069.848" xlink:href="#b"/><clipPath id="c"><path fill="none" d="M-2231.032 0h1920v1080h-1920z"/></clipPath><clipPath id="f"><path fill="none" d="M0 0h1920v1080H0z"/></clipPath><clipPath id="m"><path fill="none" d="M0 0h1920v1080H0z"/></clipPath></defs><g clip-path="url(#c)"><path d="M-741.316 1109.632c303.562-1.654 1141.39-.346 1141.39-.346v-747.78c-223.4 71.896-157.655 364.276-379.238 462.535-221.584 98.258-564.918-26.363-762.152 285.59Z" fill="url(#b)" opacity=".6"/></g><path fill="url(#d)" d="M0 0h1920v1080H0z"/><path fill="url(#e)" d="M0 0h1920v1080H0z"/><path fill="url(#d)" d="M0 0h1920v1080H0z"/><path fill="url(#e)" d="M0 0h1920v1080H0z"/><path fill="url(#d)" d="M0 0h1920v1080H0z"/><path fill="url(#e)" d="M0 0h1920v1080H0z"/><g clip-path="url(#f)"><path d="m-820.329 1090.967 2740.329-.966v-2232.08C756.453-1095.968 1597.094 269.875 629.126 115.99-338.842-37.895-820.329 1090.967-820.329 1090.967Z" fill="url(#g)" opacity=".35"/><path d="m-334.158 1080.328 2254.158-.713V-784.302C1288.15-800.924 1648.779 391.91 746.754 263.408c-902.025-128.503-1080.912 816.92-1080.912 816.92Z" fill="url(#a)" opacity=".5"/><path d="m-102.242 1080.328 2022.242-.56V-384.17c-566.843-13.055-243.317 923.808-1052.538 822.88-809.222-100.926-969.704 641.618-969.704 641.618Z" fill="url(#h)" opacity=".6"/><path d="m102.39 1080.328 1817.61-.413V0c-509.484-9.63-218.696 681.473-946.032 607.021-727.335-74.452-871.579 473.307-871.579 473.307Z" fill="url(#i)" opacity=".6"/><path d="M552.579 1080.31 1920 1080V214.78c-344.111 17.136-166.916 593.841-744.432 534.725-577.515-59.116-622.99 330.806-622.99 330.806Z" fill="url(#j)" opacity=".2"/><path d="M854.221 1118.684c303.562-1.653 1141.39-.345 1141.39-.345V370.558c-223.4 71.897-157.655 364.276-379.239 462.535-221.584 98.259-564.917-26.362-762.151 285.591Z" fill="url(#k)" opacity=".35"/><path d="M1489.716 1109.632c303.562-1.654 1141.39-.346 1141.39-.346v-747.78c-223.4 71.896-157.655 364.276-379.239 462.535-221.584 98.258-564.917-26.363-762.151 285.59Z" fill="url(#l)" opacity=".6"/></g><g clip-path="url(#m)"><path d="m-820.329 1090.967 2740.329-.966v-2232.08C756.453-1095.968 1597.094 269.875 629.126 115.99-338.842-37.895-820.329 1090.967-820.329 1090.967Z" fill="url(#g)" opacity=".35"/><path d="m-334.158 1080.328 2254.158-.713V-784.302C1288.15-800.924 1648.779 391.91 746.754 263.408c-902.025-128.503-1080.912 816.92-1080.912 816.92Z" fill="url(#a)" opacity=".5"/><path d="m-102.242 1080.328 2022.242-.56V-384.17c-566.843-13.055-243.317 923.808-1052.538 822.88-809.222-100.926-969.704 641.618-969.704 641.618Z" fill="url(#n)" opacity=".8"/><path d="m102.39 1080.328 1817.61-.413V0c-509.484-9.63-218.696 681.473-946.032 607.021-727.335-74.452-871.579 473.307-871.579 473.307Z" fill="url(#o)" opacity=".6"/><path d="M552.579 1080.31 1920 1080V214.78c-344.111 17.136-166.916 593.841-744.432 534.725-577.515-59.116-622.99 330.806-622.99 330.806Z" fill="url(#p)" opacity=".2"/><path d="M854.221 1118.684c303.562-1.653 1141.39-.345 1141.39-.345V370.558c-223.4 71.897-157.655 364.276-379.239 462.535-221.584 98.259-564.917-26.362-762.151 285.591Z" fill="url(#q)" opacity=".35"/><path d="M1489.716 1109.632c303.562-1.654 1141.39-.346 1141.39-.346v-747.78c-223.4 71.896-157.655 364.276-379.239 462.535-221.584 98.258-564.917-26.363-762.151 285.59Z" fill="url(#r)" opacity=".6"/></g></svg>