<?xml version="1.0" encoding="UTF-8"?> <svg xmlns="http://www.w3.org/2000/svg" xmlns:xlink="http://www.w3.org/1999/xlink" viewBox="0 0 1920 1080" width="1920" height="1080"><defs><linearGradient id="c" x1="25694.051" y1="163.188" x2="27464.635" y2="905.771" gradientTransform="translate(-25632.505)" gradientUnits="userSpaceOnUse"><stop offset="0" stop-color="#44327c"></stop><stop offset="1" stop-color="#361e5b"></stop></linearGradient><linearGradient id="d" x1="25875.802" y1="-434.69" x2="26968.163" y2="1050.881" gradientTransform="translate(-25632.505)" gradientUnits="userSpaceOnUse"><stop offset="0" stop-color="#553bd2"></stop><stop offset=".399" stop-color="#571fae"></stop><stop offset=".778" stop-color="#590a93"></stop><stop offset="1" stop-color="#5a0389"></stop></linearGradient><linearGradient id="a" x1="27214.48" y1="-213.114" x2="25815.818" y2="1506.914" gradientTransform="rotate(-180 13776.253 540)" gradientUnits="userSpaceOnUse"><stop offset="0" stop-color="#5a0389"></stop><stop offset="1" stop-color="#553bd2"></stop></linearGradient><linearGradient id="b" x1="25678.288" y1="297.394" x2="26831.115" y2="204.459" gradientTransform="rotate(-180 13776.253 540)" gradientUnits="userSpaceOnUse"><stop offset="0" stop-color="#f54a63"></stop><stop offset="1" stop-color="#5930d6"></stop></linearGradient><linearGradient id="f" x1="26227.283" y1="1235.988" x2="27540.706" y2="119.045" gradientTransform="rotate(-180 13776.253 540)" gradientUnits="userSpaceOnUse"><stop offset="0" stop-color="#4e0685"></stop><stop offset="1" stop-color="#f54a63" stop-opacity=".6"></stop></linearGradient><linearGradient id="g" x1="26445.121" y1="183.828" x2="26919.585" y2="1035.219" gradientTransform="rotate(-180 13776.253 540)" gradientUnits="userSpaceOnUse"><stop offset="0" stop-color="#f54a63"></stop><stop offset=".582" stop-color="#f77159"></stop><stop offset="1" stop-color="#4e0685"></stop></linearGradient><linearGradient id="h" x1="27023.418" y1="764.114" x2="26511.233" y2="1753.249" gradientTransform="rotate(-180 13776.253 540)" gradientUnits="userSpaceOnUse"><stop offset="0" stop-color="#f77159"></stop><stop offset="1" stop-color="#5a078e"></stop></linearGradient><linearGradient id="i" x1="27047.069" y1="780.817" x2="27175.19" y2="1039.249" gradientTransform="rotate(-180 13776.253 540)" gradientUnits="userSpaceOnUse"><stop offset="0" stop-color="#faa24d"></stop><stop offset=".529" stop-color="#f77159"></stop><stop offset="1" stop-color="#f54a63"></stop></linearGradient><linearGradient id="j" x1="27132.731" y1="798.174" x2="27558.7" y2="1076.569" gradientTransform="rotate(-180 13776.253 540)" gradientUnits="userSpaceOnUse"><stop offset="0" stop-color="#faa24d"></stop><stop offset=".561" stop-color="#f77159"></stop><stop offset="1" stop-color="#f54a63"></stop></linearGradient><linearGradient id="l" x1="3700.838" y1="-213.114" x2="2302.176" y2="1506.914" xlink:href="#a"></linearGradient><linearGradient id="m" x1="2164.646" y1="297.394" x2="3317.473" y2="204.459" xlink:href="#b"></linearGradient><clipPath id="e"><path transform="rotate(180 960 540)" fill="none" d="M0 0h1920v1080H0z"></path></clipPath><clipPath id="k"><path fill="none" d="M2118.863 0h1920v1080h-1920z"></path></clipPath></defs><path transform="rotate(180 960 540)" fill="url(#c)" d="M0 0h1920v1080H0z"></path><path transform="rotate(180 960 540)" fill="url(#d)" d="M0 0h1920v1080H0z"></path><g clip-path="url(#e)"><path d="M2740.329-10.967 0-10.001v2232.08c1163.547-46.11 268.761-1442.858 1236.73-1288.974C2204.696 1086.99 2740.328-10.967 2740.328-10.967Z" fill="url(#a)" opacity=".5"></path><path d="M2254.158-.328 0 .385v1863.917c631.85 16.622 271.221-1176.212 1173.246-1047.71C2075.271 945.095 2254.158-.328 2254.158-.328Z" fill="url(#b)" opacity=".15"></path><path d="M2022.242-.328 0 .232V1464.17c566.843 13.055 243.317-923.808 1052.538-822.88C1861.76 742.215 2022.242-.329 2022.242-.329Z" fill="url(#f)" opacity=".35"></path><path d="M1817.61-.328 0 .085V1080c509.484 9.63 218.696-681.473 946.032-607.021C1673.367 547.431 1817.61-.328 1817.61-.328Z" fill="url(#g)" opacity=".2"></path><path d="M1367.421-.31 0 0v865.22c344.111-17.136 166.916-593.841 744.432-534.725C1321.947 389.61 1367.422-.311 1367.422-.311Z" fill="url(#h)" opacity=".3"></path><path d="M1065.779-.328C782.326 1.241 0 0 0 0v709.442c208.6-68.21 147.21-345.6 354.116-438.82C561.02 177.4 881.61 295.631 1065.779-.329Z" fill="url(#i)" opacity=".4"></path><path d="M710.745-.328C502.703-.972 0 0 0 0v479.8c183.59-88.674 90.368-240.174 267.716-322.863C369.026 109.7 633.779 141.02 710.746-.328Z" fill="url(#j)" opacity=".4"></path></g><g clip-path="url(#k)"><path d="m1298.534 1090.967 2740.33-.966v-2232.08c-1163.548 46.11-268.762 1442.858-1236.73 1288.974-967.968-153.885-1503.6 944.072-1503.6 944.072Z" fill="url(#l)" opacity=".5"></path><path d="m1784.705 1080.328 2254.158-.713V-784.302c-631.85-16.622-271.221 1176.212-1173.246 1047.71-902.025-128.503-1080.912 816.92-1080.912 816.92Z" fill="url(#m)" opacity=".15"></path></g></svg> 